
<svg xmlns="http://www.w3.org/2000/svg" viewBox="0 0 7320 120" width="100%" height="120"><path d="M35.467 32.156L0 46.48l20.306 32.511 2.612 38.282L60 107.937l37.082 9.336 2.612-38.282L120 46.48 84.533 32.156 60 2.727z" fill="#44e1b9"/><path d="M78.3168 50.80641c5.334807 1.429457 8.638993 6.39587 7.380097 11.094133-.502627 1.875828-1.657137 3.425834-3.202748 4.519051-1.189946-2.587135-3.661727-4.72161-6.865703-5.580113-3.203976-.858502-6.411839-.245884-8.736896 1.399409-.790964-1.7193-1.015796-3.6389-.51317-5.514728 1.258896-4.698263 6.60361-7.34721 11.93842-5.917752M41.649127 50.54759c5.334808-1.429457 10.679523 1.21949 11.938419 5.917753.502626 1.875828.277794 3.795428-.514136 5.514987-2.324091-1.645552-5.531954-2.25817-8.73593-1.399668-3.203976.858503-5.675757 2.992978-6.86667 5.580372-1.544644-1.093476-2.699154-2.643482-3.201781-4.51931-1.258896-4.698263 2.04529-9.664676 7.380098-11.094133M60.001 95.455c11.957 0 21.667-9.618 21.817-21.539l-.03.022c-4.351 3.051-12.479 5.104-21.787 5.104-9.33 0-17.474-2.062-21.817-5.125l-.002-.281c0 12.051 9.768 21.819 21.819 21.819z" fill="#0c403b"/><path d="M155.467 32.156L120 46.48l20.306 32.511 2.612 38.282L180 107.937l37.082 9.336 2.612-38.282L240 46.48l-35.467-14.324L180 2.727z" fill="#44e1b9"/><path d="M196.888597 52.558814c5.431786.999612 9.401193 4.166338 8.865822 7.075486-.21375 1.161496-1.1136 2.106233-2.463794 2.757619-1.547879-1.639225-4.282948-3.021069-7.545167-3.621416-3.262219-.600346-6.31004-.282729-8.341063.69787-1.028856-1.089203-1.533422-2.292396-1.319671-3.453891.53537-2.909148 5.372086-4.455281 10.803873-3.455668M163.094888 52.377823c5.431787-.999613 10.268502.54652 10.803873 3.455668.21375 1.161496-.290816 2.364688-1.320655 3.454071-2.030039-.980779-5.07786-1.298396-8.34008-.69805-3.262218.600347-5.997287 1.982191-7.54615 3.621597-1.34921-.651566-2.24906-1.596304-2.46281-2.7578-.535371-2.909148 3.434036-6.075874 8.865822-7.075486M180.001 95.455c11.957 0 21.667-9.618 21.817-21.539l-.03.022c-4.351 3.051-12.479 5.104-21.787 5.104-9.33 0-17.474-2.062-21.817-5.125l-.002-.281c0 12.051 9.768 21.819 21.819 21.819z" fill="#0c403b"/><path d="M275.467 32.156L240 46.48l20.306 32.511 2.612 38.282L300 107.937l37.082 9.336 2.612-38.282L360 46.48l-35.467-14.324L300 2.727z" fill="#44e1b9"/><path d="M315.80936 54.476564c5.494802.55739 9.865179 1.834979 9.761633 2.85574-.041277.406912-.78978.710924-2.024585.894242-1.763188-.642223-4.6579-1.2374-7.957965-1.572158-3.300065-.334757-6.255331-.332998-8.112564-.058029-1.171844-.427447-1.84405-.875575-1.802773-1.282487.103545-1.020761 4.641452-1.394698 10.136254-.837308M284.185534 54.375643c5.494802-.55739 10.03271-.183454 10.136255.837308.041277.406912-.63093.85504-1.803769 1.282587-1.856238-.27507-4.811504-.276828-8.111568.057929-3.300065.334757-6.194778.929934-7.95896 1.572258-1.233811-.183418-1.982314-.48743-2.02359-.894342-.103546-1.020762 4.26683-2.29835 9.761632-2.85574M300.001 95.455c11.957 0 21.667-9.618 21.817-21.539l-.03.022c-4.351 3.051-12.479 5.104-21.787 5.104-9.33 0-17.474-2.062-21.817-5.125l-.002-.281c0 12.051 9.768 21.819 21.819 21.819z" fill="#0c403b"/><path d="M395.467 32.156L360 46.48l20.306 32.511 2.612 38.282L420 107.937l37.082 9.336 2.612-38.282L480 46.48l-35.467-14.324L420 2.727z" fill="#44e1b9"/><path d="M435.662998 54.814844c5.501984.481361 9.912879 1.432415 9.852305 2.12477-.024142.275946-.757824.46974-1.981348.57149-1.784798-.470346-4.695918-.928811-8.000296-1.217907-3.304378-.289096-6.250883-.343106-8.091237-.18992-1.18627-.31258-1.875155-.630831-1.851013-.906777.060574-.692356 4.569606-.863017 10.07159-.381656M404.333196 54.727688c5.501984-.48136 10.011016-.3107 10.07159.381656.024142.275946-.664742.594197-1.85201.906864-1.839358-.153273-4.785863-.099262-8.09024.189833-3.304378.289096-6.215498.747561-8.001293 1.217994-1.222527-.101838-1.95621-.29563-1.980352-.571576-.060573-.692356 4.350322-1.64341 9.852305-2.12477M420.001 95.455c11.957 0 21.667-9.618 21.817-21.539l-.03.022c-4.351 3.051-12.479 5.104-21.787 5.104-9.33 0-17.474-2.062-21.817-5.125l-.002-.281c0 12.051 9.768 21.819 21.819 21.819z" fill="#0c403b"/><path d="M515.467 32.156L480 46.48l20.306 32.511 2.612 38.282L540 107.937l37.082 9.336 2.612-38.282L600 46.48l-35.467-14.324L540 2.727z" fill="#44e1b9"/><path d="M555.822742 54.446655c5.494124.564036 9.860501 1.870784 9.752862 2.919273-.042995.418799-.792988.732848-2.028934.923624-1.76098-.658281-4.654154-1.264918-7.953811-1.603666-3.299657-.338749-6.25574-.332606-8.114734-.045957-1.170407-.437817-1.840948-.8977-1.797953-1.3165.10764-1.048489 4.648447-1.44081 10.14257-.876774M524.17203 54.34453c5.494123-.564036 10.03493-.171714 10.14257.876775.042994.418799-.627546.878682-1.798948 1.3166-1.858-.28675-4.814082-.292893-8.11374.045856-3.299657.338748-6.19283.945385-7.954806 1.603769-1.23495-.19088-1.984943-.504928-2.027938-.923727-.10764-1.04849 4.258738-2.355237 9.752861-2.919273M540.001 95.455c11.957 0 21.667-9.618 21.817-21.539l-.03.022c-4.351 3.051-12.479 5.104-21.787 5.104-9.33 0-17.474-2.062-21.817-5.125l-.002-.281c0 12.051 9.768 21.819 21.819 21.819z" fill="#0c403b"/><path d="M635.467 32.156L600 46.48l20.306 32.511 2.612 38.282L660 107.937l37.082 9.336 2.612-38.282L720 46.48l-35.467-14.324L660 2.727z" fill="#44e1b9"/><path d="M676.672671 52.884794c5.445393.922621 9.504835 3.763675 9.067162 6.34686-.174568 1.030316-1.04024 1.86544-2.364206 2.436292-1.59632-1.467285-4.367047-2.71365-7.637438-3.267758-3.27039-.554107-6.297039-.29-8.288585.569387-1.061043-.974948-1.603305-2.04862-1.428737-3.078936.437673-2.583185 5.206412-3.928467 10.651804-3.005845M643.313277 52.717743c5.445392-.922621 10.214132.42266 10.651805 3.005845.174568 1.030316-.367694 2.103988-1.429724 3.079103-1.99056-.859554-5.017209-1.12366-8.2876-.569553-3.27039.554107-6.041117 1.800473-7.638423 3.267924-1.322979-.57102-2.188651-1.406143-2.36322-2.436459-.437672-2.583184 3.62177-5.424239 9.067162-6.34686M660.001 95.455c11.957 0 21.667-9.618 21.817-21.539l-.03.022c-4.351 3.051-12.479 5.104-21.787 5.104-9.33 0-17.474-2.062-21.817-5.125l-.002-.281c0 12.051 9.768 21.819 21.819 21.819z" fill="#0c403b"/><path d="M755.467 32.156L720 46.48l20.306 32.511 2.612 38.282L780 107.937l37.082 9.336 2.612-38.282L840 46.48l-35.467-14.324L780 2.727z" fill="#44e1b9"/><path d="M797.581476 51.634239c5.386025 1.2224 9.045066 5.328078 8.172808 9.171338-.348372 1.534963-1.366699 2.795849-2.807858 3.678775-1.381028-2.133576-3.993142-3.907713-7.227878-4.641862-3.234736-.734149-6.356792-.261427-8.524514 1.066732-.917847-1.418322-1.292106-2.995265-.943734-4.530229.872259-3.84326 5.94515-5.967155 11.331176-4.744754M762.393723 51.41291c5.386025-1.222401 10.458917.901494 11.331176 4.744754.348372 1.534963-.025886 3.111907-.944709 4.53045-2.166747-1.32838-5.288803-1.801102-8.523539-1.066953-3.234735.734149-5.84685 2.508286-7.228853 4.642084-1.440184-.883148-2.45851-2.144034-2.806882-3.678998-.872259-3.84326 2.786783-7.948936 8.172807-9.171337M780.001 95.455c11.957 0 21.667-9.618 21.817-21.539l-.03.022c-4.351 3.051-12.479 5.104-21.787 5.104-9.33 0-17.474-2.062-21.817-5.125l-.002-.281c0 12.051 9.768 21.819 21.819 21.819z" fill="#0c403b"/><path d="M875.467 32.156L840 46.48l20.306 32.511 2.612 38.282L900 107.937l37.082 9.336 2.612-38.282L960 46.48l-35.467-14.324L900 2.727z" fill="#44e1b9"/><path d="M918.050567 51.090961c5.353616 1.357325 8.788674 6.025694 7.672684 10.427426-.445806 1.758367-1.550045 3.208463-3.056922 4.228416-1.26039-2.430286-3.784103-4.439118-6.999374-5.2543-3.21527-.81518-6.391226-.251408-8.65823 1.284563-.837936-1.614443-1.117901-3.415483-.672095-5.17385 1.11599-4.401732 6.360322-6.869579 11.713937-5.512255M881.918764 50.845203c5.353615-1.357325 10.597948 1.110522 11.713937 5.512255.445806 1.758366.16584 3.559406-.673064 5.174095-2.266035-1.536217-5.44199-2.09999-8.657261-1.284808-3.215271.815181-5.738983 2.824014-7.000344 5.254546-1.505907-1.0202-2.610146-2.470296-3.055952-4.228662-1.11599-4.401733 2.319068-9.070102 7.672684-10.427426M900.001 95.455c11.957 0 21.667-9.618 21.817-21.539l-.03.022c-4.351 3.051-12.479 5.104-21.787 5.104-9.33 0-17.474-2.062-21.817-5.125l-.002-.281c0 12.051 9.768 21.819 21.819 21.819z" fill="#0c403b"/><path d="M995.467 32.156L960 46.48l20.306 32.511 2.612 38.282 37.082-9.336 37.082 9.336 2.612-38.282L1080 46.48l-35.467-14.324L1020 2.727z" fill="#44e1b9"/><path d="M1038.261638 50.864415c5.33872 1.414783 8.67038 6.319893 7.441059 10.95877-.49055 1.851103-1.634646 3.381078-3.172122 4.459208-1.20474-2.554854-3.687249-4.664158-6.893573-5.513848-3.206325-.84969-6.407624-.246618-8.720464 1.376062-.800811-1.697786-1.037068-3.59356-.546518-5.444664 1.229322-4.638876 6.5529-7.250311 11.891618-5.835528M1001.704996 50.608253c5.338718-1.414783 10.662296 1.196652 11.891618 5.835527.49055 1.851104.254293 3.74688-.547485 5.444921-2.311873-1.622936-5.513172-2.226007-8.719497-1.376318-3.206324.84969-5.688832 2.958994-6.89454 5.514105-1.536509-1.078387-2.680605-2.608362-3.171155-4.459466-1.229322-4.638876 2.10234-9.543986 7.441059-10.958769M1020.001 95.455c11.957 0 21.667-9.618 21.817-21.539l-.03.022c-4.351 3.051-12.479 5.104-21.787 5.104-9.33 0-17.474-2.062-21.817-5.125l-.002-.281c0 12.051 9.768 21.819 21.819 21.819z" fill="#0c403b"/><path d="M1115.467 32.156L1080 46.48l20.306 32.511 2.612 38.282 37.082-9.336 37.082 9.336 2.612-38.282L1200 46.48l-35.467-14.324L1140 2.727z" fill="#44e1b9"/><path d="M1158.3168 50.80641c5.334807 1.429457 8.638993 6.39587 7.380097 11.094133-.502627 1.875828-1.657137 3.425834-3.202748 4.519051-1.189946-2.587135-3.661727-4.72161-6.865703-5.580113-3.203976-.858502-6.411839-.245884-8.736896 1.399409-.790964-1.7193-1.015796-3.6389-.51317-5.514728 1.258896-4.698263 6.60361-7.34721 11.93842-5.917752M1121.649127 50.54759c5.334808-1.429457 10.679523 1.21949 11.938419 5.917753.502626 1.875828.277794 3.795428-.514136 5.514987-2.324091-1.645552-5.531954-2.25817-8.73593-1.399668-3.203976.858503-5.675757 2.992978-6.86667 5.580372-1.544644-1.093476-2.699154-2.643482-3.201781-4.51931-1.258896-4.698263 2.04529-9.664676 7.380098-11.094133M1140.001 95.455c11.957 0 21.667-9.618 21.817-21.539l-.03.022c-4.351 3.051-12.479 5.104-21.787 5.104-9.33 0-17.474-2.062-21.817-5.125l-.002-.281c0 12.051 9.768 21.819 21.819 21.819z" fill="#0c403b"/><path d="M1235.467 32.156L1200 46.48l20.306 32.511 2.612 38.282 37.082-9.336 37.082 9.336 2.612-38.282L1320 46.48l-35.467-14.324L1260 2.727z" fill="#44e1b9"/><path d="M1278.3168 50.80641c5.334807 1.429457 8.638993 6.39587 7.380097 11.094133-.502627 1.875828-1.657137 3.425834-3.202748 4.519051-1.189946-2.587135-3.661727-4.72161-6.865703-5.580113-3.203976-.858502-6.411839-.245884-8.736896 1.399409-.790964-1.7193-1.015796-3.6389-.51317-5.514728 1.258896-4.698263 6.60361-7.34721 11.93842-5.917752M1241.649127 50.54759c5.334808-1.429457 10.679523 1.21949 11.938419 5.917753.502626 1.875828.277794 3.795428-.514136 5.514987-2.324091-1.645552-5.531954-2.25817-8.73593-1.399668-3.203976.858503-5.675757 2.992978-6.86667 5.580372-1.544644-1.093476-2.699154-2.643482-3.201781-4.51931-1.258896-4.698263 2.04529-9.664676 7.380098-11.094133M1260.001 95.455c11.957 0 21.667-9.618 21.817-21.539l-.03.022c-4.351 3.051-12.479 5.104-21.787 5.104-9.33 0-17.474-2.062-21.817-5.125l-.002-.281c0 12.051 9.768 21.819 21.819 21.819z" fill="#0c403b"/><path d="M1355.467 32.156L1320 46.48l20.306 32.511 2.612 38.282 37.082-9.336 37.082 9.336 2.612-38.282L1440 46.48l-35.467-14.324L1380 2.727z" fill="#44e1b9"/><path d="M1398.3168 50.80641c5.334807 1.429457 8.638993 6.39587 7.380097 11.094133-.502627 1.875828-1.657137 3.425834-3.202748 4.519051-1.189946-2.587135-3.661727-4.72161-6.865703-5.580113-3.203976-.858502-6.411839-.245884-8.736896 1.399409-.790964-1.7193-1.015796-3.6389-.51317-5.514728 1.258896-4.698263 6.60361-7.34721 11.93842-5.917752M1361.649127 50.54759c5.334808-1.429457 10.679523 1.21949 11.938419 5.917753.502626 1.875828.277794 3.795428-.514136 5.514987-2.324091-1.645552-5.531954-2.25817-8.73593-1.399668-3.203976.858503-5.675757 2.992978-6.86667 5.580372-1.544644-1.093476-2.699154-2.643482-3.201781-4.51931-1.258896-4.698263 2.04529-9.664676 7.380098-11.094133M1380.001 95.455c11.957 0 21.667-9.618 21.817-21.539l-.03.022c-4.351 3.051-12.479 5.104-21.787 5.104-9.33 0-17.474-2.062-21.817-5.125l-.002-.281c0 12.051 9.768 21.819 21.819 21.819z" fill="#0c403b"/><path d="M1475.467 32.156L1440 46.48l20.306 32.511 2.612 38.282 37.082-9.336 37.082 9.336 2.612-38.282L1560 46.48l-35.467-14.324L1500 2.727z" fill="#44e1b9"/><path d="M1518.3168 50.80641c5.334807 1.429457 8.638993 6.39587 7.380097 11.094133-.502627 1.875828-1.657137 3.425834-3.202748 4.519051-1.189946-2.587135-3.661727-4.72161-6.865703-5.580113-3.203976-.858502-6.411839-.245884-8.736896 1.399409-.790964-1.7193-1.015796-3.6389-.51317-5.514728 1.258896-4.698263 6.60361-7.34721 11.93842-5.917752M1481.649127 50.54759c5.334808-1.429457 10.679523 1.21949 11.938419 5.917753.502626 1.875828.277794 3.795428-.514136 5.514987-2.324091-1.645552-5.531954-2.25817-8.73593-1.399668-3.203976.858503-5.675757 2.992978-6.86667 5.580372-1.544644-1.093476-2.699154-2.643482-3.201781-4.51931-1.258896-4.698263 2.04529-9.664676 7.380098-11.094133M1500.001 95.455c11.957 0 21.667-9.618 21.817-21.539l-.03.022c-4.351 3.051-12.479 5.104-21.787 5.104-9.33 0-17.474-2.062-21.817-5.125l-.002-.281c0 12.051 9.768 21.819 21.819 21.819z" fill="#0c403b"/><path d="M1595.467 32.156L1560 46.48l20.306 32.511 2.612 38.282 37.082-9.336 37.082 9.336 2.612-38.282L1680 46.48l-35.467-14.324L1620 2.727z" fill="#44e1b9"/><path d="M1638.3168 50.80641c5.334807 1.429457 8.638993 6.39587 7.380097 11.094133-.502627 1.875828-1.657137 3.425834-3.202748 4.519051-1.189946-2.587135-3.661727-4.72161-6.865703-5.580113-3.203976-.858502-6.411839-.245884-8.736896 1.399409-.790964-1.7193-1.015796-3.6389-.51317-5.514728 1.258896-4.698263 6.60361-7.34721 11.93842-5.917752M1601.649127 50.54759c5.334808-1.429457 10.679523 1.21949 11.938419 5.917753.502626 1.875828.277794 3.795428-.514136 5.514987-2.324091-1.645552-5.531954-2.25817-8.73593-1.399668-3.203976.858503-5.675757 2.992978-6.86667 5.580372-1.544644-1.093476-2.699154-2.643482-3.201781-4.51931-1.258896-4.698263 2.04529-9.664676 7.380098-11.094133M1620.001 95.455c11.957 0 21.667-9.618 21.817-21.539l-.03.022c-4.351 3.051-12.479 5.104-21.787 5.104-9.33 0-17.474-2.062-21.817-5.125l-.002-.281c0 12.051 9.768 21.819 21.819 21.819z" fill="#0c403b"/><path d="M1715.467 32.156L1680 46.48l20.306 32.511 2.612 38.282 37.082-9.336 37.082 9.336 2.612-38.282L1800 46.48l-35.467-14.324L1740 2.727z" fill="#44e1b9"/><path d="M1758.3168 50.80641c5.334807 1.429457 8.638993 6.39587 7.380097 11.094133-.502627 1.875828-1.657137 3.425834-3.202748 4.519051-1.189946-2.587135-3.661727-4.72161-6.865703-5.580113-3.203976-.858502-6.411839-.245884-8.736896 1.399409-.790964-1.7193-1.015796-3.6389-.51317-5.514728 1.258896-4.698263 6.60361-7.34721 11.93842-5.917752M1721.649127 50.54759c5.334808-1.429457 10.679523 1.21949 11.938419 5.917753.502626 1.875828.277794 3.795428-.514136 5.514987-2.324091-1.645552-5.531954-2.25817-8.73593-1.399668-3.203976.858503-5.675757 2.992978-6.86667 5.580372-1.544644-1.093476-2.699154-2.643482-3.201781-4.51931-1.258896-4.698263 2.04529-9.664676 7.380098-11.094133M1740.001 95.455c11.957 0 21.667-9.618 21.817-21.539l-.03.022c-4.351 3.051-12.479 5.104-21.787 5.104-9.33 0-17.474-2.062-21.817-5.125l-.002-.281c0 12.051 9.768 21.819 21.819 21.819z" fill="#0c403b"/><path d="M1835.467 32.156L1800 46.48l20.306 32.511 2.612 38.282 37.082-9.336 37.082 9.336 2.612-38.282L1920 46.48l-35.467-14.324L1860 2.727z" fill="#44e1b9"/><path d="M1878.316976 50.809454c5.33484 1.429342 8.639391 6.394717 7.381114 11.091075-.502586 1.87584-1.656803 3.424904-3.20239 4.518155-1.190003-2.58711-3.66209-4.720565-6.866084-5.578999-3.203994-.858433-6.411585-.246711-8.736607 1.398632-.791-1.719283-1.016133-3.637912-.513547-5.51375 1.258277-4.69636 6.602675-7.344456 11.937514-5.915113M1841.648955 50.550655c5.33484-1.429342 10.679238 1.218755 11.937514 5.915113.502587 1.875839.277454 3.794468-.514513 5.51401-2.324056-1.645602-5.531646-2.257324-8.73564-1.39889-3.203995.858433-5.676082 2.991888-6.86705 5.579256-1.544621-1.093509-2.698839-2.642574-3.201425-4.518413-1.258277-4.696358 2.046275-9.661733 7.381114-11.091076M1860.001 95.453905c11.956407 0 21.665926-9.617047 21.815919-21.536865l-.029999.021997c-4.350784 3.050698-12.478381 5.103495-21.78592 5.103495-9.329538 0-17.473134-2.061796-21.815919-5.124492l-.002-.280973c0 12.049806 9.767516 21.816838 21.817919 21.816838z" fill="#0c403b"/><g><path d="M1955.467 32.156L1920 46.48l20.306 32.511 2.612 38.282 37.082-9.336 37.082 9.336 2.612-38.282L2040 46.48l-35.467-14.324L1980 2.727z" fill="#44e1b9"/><path d="M1998.31839 50.858765c5.335277 1.427707 8.646262 6.373714 7.395371 11.04824-.499167 1.865367-1.650842 3.407058-3.194284 4.49402-1.19364-2.576119-3.66793-4.70302-6.872188-5.560471-3.204258-.857451-6.41011-.250542-8.731784 1.384888-.793337-1.712279-1.021126-3.62311-.521958-5.488477 1.25089-4.674526 6.589566-7.305906 11.924843-5.8782M1961.64762 50.600263c5.335278-1.427706 10.673953 1.203674 11.924844 5.8782.499167 1.865367.271379 3.776198-.522925 5.488735-2.320708-1.635688-5.52656-2.242597-8.730817-1.385146-3.204258.857451-5.678549 2.984352-6.873154 5.56073-1.542476-1.087221-2.694151-2.628912-3.193318-4.494279-1.250892-4.674526 2.060094-9.620533 7.39537-11.04824M1980.001 95.439078c11.948005 0 21.650701-9.60353 21.800588-21.506596l-.029977.021967c-4.347727 3.04641-12.469613 5.096321-21.770612 5.096321-9.322982 0-17.460856-2.058898-21.800589-5.11729l-.001998-.280577c0 12.03287 9.760652 21.786175 21.802587 21.786175z" fill="#0c403b"/></g><g><path d="M2075.467 32.156L2040 46.48l20.306 32.511 2.612 38.282 37.082-9.336 37.082 9.336 2.612-38.282L2160 46.48l-35.467-14.324L2100 2.727z" fill="#44e1b9"/><path d="M2118.322233 50.981555c5.336314 1.423828 8.66301 6.322015 7.430728 10.940444-.491882 1.843506-1.637021 3.365744-3.175033 4.436436-1.202214-2.550129-3.682691-4.657839-6.887572-5.51296-3.20488-.855122-6.40565-.263273-8.71943 1.348723-.799223-1.69431-1.033815-3.584685-.541933-5.428192 1.232282-4.618428 6.556926-7.208278 11.89324-5.78445M2081.643966 50.723756c5.336313-1.423828 10.660957 1.166022 11.89324 5.78445.491881 1.843507.25729 3.733882-.5429 5.42845-2.312815-1.612254-5.513584-2.204102-8.718464-1.34898-3.20488.85512-5.685357 2.96283-6.888538 5.513217-1.537045-1.07095-2.682185-2.593187-3.174067-4.436694-1.232282-4.618428 2.094415-9.516616 7.430729-10.940443M2100.000998 95.406489c11.928082 0 21.6146-9.57148 21.764237-21.43482l-.029928.021894c-4.340477 3.036243-12.44882 5.079313-21.73431 5.079313-9.307435 0-17.43174-2.052026-21.764237-5.100211l-.001995-.27964c0 11.99271 9.744377 21.713464 21.766233 21.713464z" fill="#0c403b"/></g><g><path d="M2195.467 32.156L2160 46.48l20.306 32.511 2.612 38.282 37.082-9.336 37.082 9.336 2.612-38.282L2280 46.48l-35.467-14.324L2220 2.727z" fill="#44e1b9"/><path d="M2238.329943 51.20285c5.338073 1.417218 8.692643 6.229129 7.492768 10.748562-.479078 1.804487-1.612325 3.290447-3.141054 4.33308-1.217432-2.503211-3.708215-4.578853-6.914152-5.430005-3.205936-.851152-6.398272-.284336-8.697996 1.285098-.809274-1.663357-1.056214-3.515746-.577136-5.320233 1.199875-4.519433 6.499497-7.03372 11.83757-5.616502M2201.636574 50.946247c5.338073-1.417219 10.637694 1.097069 11.83757 5.616502.479078 1.804487.232138 3.656876-.578103 5.32049-2.298757-1.569691-5.491093-2.136507-8.69703-1.285355-3.205936.851152-5.69672 2.926794-6.915117 5.430262-1.527764-1.04289-2.66101-2.52885-3.140088-4.333337-1.199875-4.519433 2.154695-9.331344 7.492768-10.748562M2220.000995 95.356355c11.89415 0 21.55311-9.516889 21.702322-21.312567l-.029842.021769c-4.32813 3.018926-12.413406 5.050343-21.67248 5.050343-9.280958 0-17.38215-2.040323-21.702322-5.071122l-.00199-.278046c0 11.924311 9.716656 21.589623 21.704312 21.589623z" fill="#0c403b"/></g><g><path d="M2315.467 32.156L2280 46.48l20.306 32.511 2.612 38.282 37.082-9.336 37.082 9.336 2.612-38.282L2400 46.48l-35.467-14.324L2340 2.727z" fill="#44e1b9"/><path d="M2358.343809 51.555943c5.340707 1.40726 8.738134 6.084295 7.588732 10.446404-.458895 1.741556-1.573825 3.17064-3.088122 4.168741-1.241208-2.428412-3.748089-4.452989-6.955607-5.29816-3.207519-.845171-6.386562-.318818-8.664244 1.182377-.82486-1.614461-1.090798-3.4074-.631903-5.148956 1.149403-4.36211 6.410437-6.757666 11.751144-5.350406M2321.623185 51.301143c5.340707-1.40726 10.601741.988297 11.751144 5.350406.458894 1.741556.192957 3.534495-.63287 5.149211-2.276716-1.50145-5.455758-2.027803-8.663277-1.182632-3.207518.845171-5.714399 2.869748-6.956574 5.298415-1.51333-.998355-2.62826-2.42744-3.087155-4.168996-1.149403-4.362109 2.248025-9.039144 7.588732-10.446404M2340.00099 95.289709c11.84304 0 21.460497-9.434666 21.609067-21.128433l-.029714.021581c-4.309531 2.992843-12.360065 5.00671-21.579353 5.00671-9.241077 0-17.307459-2.022695-21.609066-5.02731l-.001981-.275643c0 11.821289 9.674903 21.403095 21.611047 21.403095z" fill="#0c403b"/></g><g><path d="M2435.467 32.156L2400 46.48l20.306 32.511 2.612 38.282 37.082-9.336 37.082 9.336 2.612-38.282L2520 46.48l-35.467-14.324L2460 2.727z" fill="#44e1b9"/><path d="M2478.366627 52.07684c5.344396 1.393184 8.803576 5.87159 7.72621 10.004474-.430088 1.649863-1.518798 2.995758-3.012046 3.927206-1.274846-2.320627-3.804962-4.269887-7.014696-5.106605-3.209734-.836717-6.369469-.370694-8.615945 1.03199-.847526-1.541644-1.140636-3.247754-.710548-4.897617 1.077366-4.132883 6.282629-6.352632 11.627025-4.959448M2441.601035 51.824589c5.344396-1.393184 10.54966.826564 11.627024 4.959448.430089 1.649863.136978 3.355973-.711515 4.897869-2.245508-1.402936-5.405244-1.86896-8.614978-1.032242-3.209734.836718-5.73985 2.785978-7.015663 5.106857-1.49228-.9317-2.58099-2.277595-3.011079-3.927459-1.077365-4.132883 2.381815-8.61129 7.72621-10.004473M2460.000984 95.205404c11.77084 0 21.329664-9.318512 21.477328-20.868312l-.029533.021315c-4.283258 2.955997-12.284712 4.94507-21.447795 4.94507-9.18474 0-17.201944-1.997793-21.477327-4.965417l-.00197-.27225c0 11.675753 9.615921 21.139594 21.479297 21.139594z" fill="#0c403b"/></g><g><path d="M2555.467 32.156L2520 46.48l20.306 32.511 2.612 38.282 37.082-9.336 37.082 9.336 2.612-38.282L2640 46.48l-35.467-14.324L2580 2.727z" fill="#44e1b9"/><path d="M2598.39968 52.774838c5.349332 1.37411 8.88965 5.586388 7.907396 9.410245-.392105 1.526443-1.446152 2.759986-2.912184 3.603773-1.31944-2.174654-3.87988-4.023833-7.092578-4.849096-3.212698-.825263-6.347364-.439016-8.552497.830264-.876905-1.44563-1.205955-3.034457-.813849-4.5609.982254-3.823857 6.114381-5.808397 11.463713-4.434286M2561.568875 52.52604c5.349331-1.374111 10.481458.61043 11.463712 4.434286.392106 1.526444.063056 3.11527-.814817 4.561148-2.204165-1.269528-5.33883-1.655775-8.551529-.830512-3.212698.825263-5.773138 2.674442-7.093547 4.849345-1.465062-.844035-2.51911-2.077579-2.911215-3.604022-.982254-3.823857 2.558064-8.036134 7.907396-9.410245M2580.000976 95.087827c11.673089 0 21.152531-9.161254 21.29897-20.51614l-.029288.020954c-4.247688 2.906112-12.182694 4.861618-21.269682 4.861618-9.108465 0-17.05909-1.964078-21.298969-4.88162l-.001953-.267656c0 11.478713 9.536066 20.782844 21.300922 20.782844z" fill="#0c403b"/></g><g><path d="M2675.467 32.156L2640 46.48l20.306 32.511 2.612 38.282 37.082-9.336 37.082 9.336 2.612-38.282L2760 46.48l-35.467-14.324L2700 2.727z" fill="#44e1b9"/><path d="M2718.437852 53.580911c5.355658 1.349243 8.990751 5.246358 8.119106 8.70625-.347876 1.380855-1.36198 2.483524-2.796225 3.223567-1.371303-2.002682-3.967424-3.732308-7.183922-4.542635-3.216498-.810327-6.322219-.517157-8.479657.596535-.91146-1.330993-1.28209-2.782516-.934214-4.16337.871645-3.459893 5.919254-5.169589 11.274912-3.820347M2681.53185 53.336616c5.355657-1.349242 10.403266.360454 11.274911 3.820346.347876 1.380855-.022753 2.832377-.935184 4.163615-2.156468-1.113936-5.26219-1.407106-8.478687-.59678-3.216498.810328-5.812619 2.539954-7.184892 4.54288-1.433276-.740287-2.447379-1.842956-2.795255-3.22381-.871645-3.459893 2.763448-7.357008 8.119106-8.70625M2700.000966 94.887073c11.545768 0 20.921816-8.956425 21.066657-20.057437l-.028968.020486c-4.201358 2.841137-12.049815 4.752921-21.03769 4.752921-9.009117 0-16.873024-1.920165-21.066657-4.772476l-.001931-.261672c0 11.22207 9.432053 20.318178 21.068589 20.318178z" fill="#0c403b"/></g><g><path d="M2795.467 32.156L2760 46.48l20.306 32.511 2.612 38.282 37.082-9.336 37.082 9.336 2.612-38.282L2880 46.48l-35.467-14.324L2820 2.727z" fill="#44e1b9"/><path d="M2838.470976 54.352272c5.363348 1.318345 9.094606 4.89437 8.333867 7.989245-.303866 1.236201-1.277939 2.207774-2.680682 2.84537-1.423883-1.827716-4.056428-3.434555-7.277544-4.226326-3.221116-.79177-6.298599-.588492-8.408524.370591-.946331-1.215012-1.35898-2.52745-1.055113-3.763652.76074-3.094874 5.724649-4.533573 11.087996-3.215228M2801.500117 54.113571c5.363347-1.318344 10.327257.120355 11.087996 3.215228.303867 1.236202-.108782 2.54864-1.056084 3.76389-2.108954-.959321-5.186437-1.1626-8.407553-.370829-3.221116.79177-5.85366 2.39861-7.278515 4.226564-1.401772-.637833-2.375845-1.609407-2.67971-2.845608-.76074-3.094874 2.970518-6.6709 8.333866-7.989245M2820.000952 94.534083c11.387787 0 20.635542-8.70227 20.778401-19.48827l-.028572.019905c-4.14387 2.760514-11.884936 4.618048-20.749829 4.618048-8.885845 0-16.64215-1.865677-20.7784-4.637049l-.001905-.254246c0 10.903624 9.302994 19.741612 20.780305 19.741612z" fill="#0c403b"/></g><g><path d="M2915.467 32.156L2880 46.48l20.306 32.511 2.612 38.282 37.082-9.336 37.082 9.336 2.612-38.282L3000 46.48l-35.467-14.324L2940 2.727z" fill="#44e1b9"/><path d="M2958.491673 54.987298c5.372037 1.282475 9.190966 4.566004 8.529642 7.336158-.264018 1.105922-1.202783 1.963372-2.57755 2.511115-1.471591-1.669342-4.137803-3.16226-7.364138-3.932488-3.226336-.770228-6.279403-.642683-8.347345.18166-.978114-1.109449-1.428317-2.29849-1.164298-3.404411.661323-2.770154 5.551651-3.974509 10.923689-2.692034M2921.480994 54.755092c5.372038-1.282475 10.262366-.07812 10.923689 2.692034.264018 1.105922-.186185 2.294962-1.165272 3.404644-2.066968-.824576-5.120036-.95212-8.346371-.181893-3.226335.770228-5.892547 2.263146-7.365112 3.93272-1.373793-.547975-2.312558-1.405425-2.576577-2.511347-.661323-2.770154 3.157606-6.053683 8.529643-7.336158M2940.000937 94.00675c11.204663 0 20.303708-8.407668 20.44427-18.828525l-.028112.019232c-4.077234 2.66706-11.693819 4.46171-20.416158 4.46171-8.742955 0-16.374533-1.802517-20.44427-4.480068l-.001874-.245639c0 10.534498 9.153395 19.07329 20.446144 19.07329z" fill="#0c403b"/></g><g><path d="M3035.467 32.156L3000 46.48l20.306 32.511 2.612 38.282 37.082-9.336 37.082 9.336 2.612-38.282L3120 46.48l-35.467-14.324L3060 2.727z" fill="#44e1b9"/><path d="M3078.500977 55.469666c5.381025 1.244225 9.275031 4.276415 8.697411 6.774505-.230462.996702-1.139449 1.758508-2.491134 2.233202-1.512267-1.53412-4.20773-2.927167-7.439464-3.674423-3.231732-.747256-6.265117-.67886-8.298306.035464-1.00513-1.019648-1.487436-2.103155-1.256974-3.099857.57762-2.49809 5.407442-3.513117 10.788467-2.268891M3041.473317 55.244385c5.381025-1.244225 10.210847-.229199 10.788467 2.26889.230462.996704-.251843 2.08021-1.257949 3.100083-2.032214-.71455-5.065599-.782944-8.297332-.035688-3.231732.747256-5.927196 2.140301-7.440437 3.674647-1.350712-.474919-2.259698-1.236725-2.49016-2.233427-.57762-2.49809 3.316386-5.53028 8.697411-6.774505M3060.00092 93.357266c11.009712 0 19.950441-8.094035 20.088557-18.126162l-.027623.018514c-4.006294 2.567572-11.490356 4.295275-20.060933 4.295275-8.590835 0-16.08963-1.735277-20.088557-4.312947l-.001841-.236476c0 10.141528 8.994134 18.361796 20.090398 18.361796z" fill="#0c403b"/></g><g><path d="M3155.467 32.156L3120 46.48l20.306 32.511 2.612 38.282 37.082-9.336 37.082 9.336 2.612-38.282L3240 46.48l-35.467-14.324L3180 2.727z" fill="#44e1b9"/><path d="M3198.50352 55.829525c5.389563 1.206706 9.345893 4.02726 8.836817 6.300967-.203193.90753-1.087842 1.590753-2.421112 2.00752-1.54564-1.422061-4.26582-2.728961-7.50268-3.453684s-6.25462-.70253-8.26006-.075545c-1.027286-.945287-1.536136-1.94051-1.332943-2.84804.509076-2.273707 5.290415-3.137924 10.679978-1.931218M3161.47232 55.611038c5.389563-1.206707 10.170902-.34249 10.679977 1.931217.203194.907531-.305657 1.902753-1.333919 2.84826-2.004464-.627204-5.022223-.649397-8.259083.075325-3.23686.724723-5.95704 2.031623-7.503656 3.453902-1.332295-.416985-2.216943-1.100207-2.420137-2.007738-.509076-2.273706 3.447255-5.09426 8.836818-6.300966M3180.000905 92.669994c10.818794 0 19.604483-7.786895 19.740204-17.438336l-.027144.017811c-3.936821 2.470141-11.291104 4.132284-19.71306 4.132284-8.441862 0-15.810622-1.66943-19.740205-4.149285l-.00181-.227503c0 9.756692 8.838169 17.665029 19.742015 17.665029z" fill="#0c403b"/></g><g><path d="M3275.467 32.156L3240 46.48l20.306 32.511 2.612 38.282 37.082-9.336 37.082 9.336 2.612-38.282L3360 46.48l-35.467-14.324L3300 2.727z" fill="#44e1b9"/><path d="M3318.502827 56.103631c5.397187 1.172135 9.404623 3.814824 8.95088 5.904121-.18103.833569-1.046426 1.454042-2.364476 1.82169-1.573188-1.327105-4.313785-2.56084-7.555225-3.2648-3.24144-.70396-6.246897-.718125-8.229813-.163317-1.045846-.881027-1.57592-1.804562-1.39489-2.63813.453743-2.089297 5.196336-2.831699 10.593524-1.659564M3281.474394 55.891403c5.397187-1.172134 10.13978-.429733 10.593524 1.659563.18103.83357-.349045 1.757104-1.395868 2.638343-1.98194-.55502-4.987397-.540856-8.228836.163104-3.24144.70396-5.982037 1.937696-7.556202 3.265013-1.317073-.36786-2.182468-.988333-2.363499-1.821902-.453743-2.089297 3.553693-4.731986 8.95088-5.90412M3300.00089 92.010828c10.643138 0 19.286182-7.504305 19.4197-16.805493l-.026704.017166c-3.872903 2.380498-11.10778 3.982322-19.392996 3.982322-8.304799 0-15.553918-1.608846-19.419699-3.998707l-.00178-.219247c0 9.402619 8.69467 17.02396 19.42148 17.02396z" fill="#0c403b"/></g><g><path d="M3395.467 32.156L3360 46.48l20.306 32.511 2.612 38.282 37.082-9.336 37.082 9.336 2.612-38.282L3480 46.48l-35.467-14.324L3420 2.727z" fill="#44e1b9"/><path d="M3438.501414 56.314983c5.403765 1.141427 9.452617 3.63605 9.043415 5.573304-.163475.773923-1.013134 1.341581-2.31936 1.670733-1.595588-1.247694-4.352456-2.421797-7.597846-3.107314-3.24539-.685517-6.24158-.72662-8.206429-.230992-1.060552-.82908-1.608063-1.69186-1.444589-2.465783.409203-1.937254 5.121044-2.581374 10.52481-1.439948M3401.476997 56.108316c5.403765-1.141427 10.115607-.497307 10.524809 1.439947.163474.773923-.384037 1.636703-1.445567 2.46599-1.963871-.495835-4.96006-.454732-8.20545.230785-3.24539.685517-6.002259 1.85962-7.598826 3.10752-1.305246-.329358-2.154906-.897015-2.31838-1.670939-.409203-1.937254 3.639649-4.431877 9.043414-5.573303M3420.000877 91.411705c10.487317 0 19.003822-7.253626 19.135384-16.24411l-.026312.016593c-3.816201 2.300978-10.945156 3.849293-19.109072 3.849293-8.183212 0-15.3262-1.555102-19.135384-3.86513l-.001754-.211923c0 9.088526 8.567375 16.455277 19.137138 16.455277z" fill="#0c403b"/></g><g><path d="M3515.467 32.156L3480 46.48l20.306 32.511 2.612 38.282 37.082-9.336 37.082 9.336 2.612-38.282L3600 46.48l-35.467-14.324L3540 2.727z" fill="#44e1b9"/><path d="M3558.499762 56.48041c5.409357 1.114622 9.491717 3.486303 9.11836 5.298237-.149141.723794-.986289 1.248645-2.282995 1.54607-1.61346-1.18296-4.383784-2.306164-7.632533-2.975584-3.248748-.669419-6.237436-.732886-8.188099-.284329-1.07252-.785615-1.633988-1.598657-1.484847-2.322451.373357-1.811934 5.060757-2.376566 10.470114-1.261943M3521.479661 56.278595c5.409358-1.114623 10.096758-.54999 10.470115 1.261943.149141.723794-.412328 1.536836-1.485827 2.322653-1.949683-.448759-4.938371-.385292-8.18712.284128-3.248748.66942-6.019072 1.792623-7.633511 2.975785-1.295727-.297627-2.132875-.822478-2.282016-1.546272-.373358-1.811934 3.709002-4.183614 9.11836-5.298237M3540.000866 90.88055c10.35146 0 18.75764-7.035065 18.887499-15.754655l-.025972.016092c-3.766765 2.231647-10.803369 3.73331-18.861527 3.73331-8.077204 0-15.12766-1.508246-18.8875-3.74867l-.00173-.205537c0 8.814678 8.45639 15.95946 18.88923 15.95946z" fill="#0c403b"/></g><g><path d="M3635.467 32.156L3600 46.48l20.306 32.511 2.612 38.282 37.082-9.336 37.082 9.336 2.612-38.282L3720 46.48l-35.467-14.324L3660 2.727z" fill="#44e1b9"/><path d="M3678.498145 56.608915c5.414094 1.09138 9.523596 3.361202 9.179169 5.069832-.137534.682276-.964714 1.172486-2.254005 1.44509-1.627813-1.129948-4.40926-2.209874-7.660853-2.865334-3.251593-.65546-6.234202-.73746-8.173633-.326602-1.08201-.750613-1.654672-1.523006-1.517138-2.205281.344427-1.708631 5.012365-2.209085 10.42646-1.117705M3641.482137 56.411309c5.414094-1.09138 10.082032-.590926 10.42646 1.117704.137534.682276-.435129 1.454668-1.518119 2.205479-1.93845-.411055-4.92106-.329056-8.172653.326405-3.251593.65546-6.03304 1.735386-7.661833 2.86553-1.28831-.2728-2.11549-.76301-2.253024-1.445286-.344428-1.70863 3.765074-3.978452 9.179169-5.069832M3660.000856 90.413968c10.233767 0 18.54437-6.845725 18.672753-15.330636l-.025677.015659c-3.723937 2.171585-10.680537 3.632832-18.647076 3.632832-7.985369 0-14.955662-1.467653-18.672753-3.64778l-.001712-.200004c0 8.57744 8.360245 15.529929 18.674465 15.529929z" fill="#0c403b"/></g><g><path d="M3755.467 32.156L3720 46.48l20.306 32.511 2.612 38.282 37.082-9.336 37.082 9.336 2.612-38.282L3840 46.48l-35.467-14.324L3780 2.727z" fill="#44e1b9"/><path d="M3798.495924 56.709652c5.418113 1.071253 9.549987 3.255154 9.228786 4.879705-.128209.648447-.94716 1.109354-2.230192 1.36026-1.639954-1.083669-4.430243-2.128726-7.68425-2.772098-3.254007-.643372-6.232051-.738812-8.16199-.360972-1.090028-.7201-1.671958-1.457985-1.543749-2.106432.321202-1.62455 4.973282-2.071715 10.391395-1.000463M3761.485085 56.51569c5.418113-1.071253 10.070193-.624088 10.391395 1.000463.128209.648447-.453721 1.386333-1.54473 2.106626-1.928958-.378034-4.907002-.282594-8.16101.360778-3.254006.643372-6.044295 1.688429-7.68523 2.772292-1.28205-.2511-2.101002-.712007-2.22921-1.360454-.321202-1.624551 3.810672-3.808452 9.228785-4.879705M3780.000847 90.004752c10.13193 0 18.359834-6.681892 18.486938-14.963742l-.02542.015284c-3.68688 2.119615-10.574255 3.54589-18.461518 3.54589-7.905905 0-14.806836-1.432528-18.486938-3.560479l-.001694-.195219c0 8.372165 8.27705 15.158266 18.488632 15.158266z" fill="#0c403b"/></g><g><path d="M3875.467 32.156L3840 46.48l20.306 32.511 2.612 38.282 37.082-9.336 37.082 9.336 2.612-38.282L3960 46.48l-35.467-14.324L3900 2.727z" fill="#44e1b9"/><path d="M3918.493385 56.785113c5.421532 1.05381 9.57148 3.167469 9.269247 4.722368-.120779.62137-.933091 1.058407-2.211302 1.292826-1.649539-1.046973-4.447183-2.06243-7.703244-2.695327-3.25606-.632897-6.23039-.739367-8.152996-.386729-1.096347-.695974-1.6858-1.405478-1.565021-2.026849.302233-1.554899 4.941784-1.960099 10.363316-.906289M3881.488243 56.59431c5.421532-1.05381 10.061083-.648611 10.363317.906288.120778.62137-.468675 1.330876-1.566004 2.02704-1.921624-.352828-4.895953-.246359-8.152014.386538-3.25606.632897-6.053705 1.648354-7.704225 2.695518-1.27723-.23461-2.089542-.671647-2.21032-1.293017-.302234-1.5549 3.847714-3.668557 9.269246-4.722368M3900.00084 89.645217c10.043739 0 18.200024-6.540013 18.326023-14.646012l-.0252.01496c-3.654789 2.074608-10.482213 3.4706-18.300823 3.4706-7.83709 0-14.677954-1.402112-18.326023-3.48488l-.00168-.191073c0 8.194395 8.205005 14.836405 18.327703 14.836405z" fill="#0c403b"/></g><g><path d="M3995.467 32.156L3960 46.48l20.306 32.511 2.612 38.282 37.082-9.336 37.082 9.336 2.612-38.282L4080 46.48l-35.467-14.324L4020 2.727z" fill="#44e1b9"/><path d="M4038.490268 56.839432c5.424452 1.038678 9.589121 3.094586 9.301947 4.59434-.11453.598133-.921859 1.017792-2.196025 1.238098-1.657344-1.01683-4.461008-2.00778-7.718822-2.631589-3.257814-.623808-6.229232-.738674-8.145957-.406209-1.10167-.675232-1.696862-1.363446-1.582331-1.96158.287173-1.499753 4.916736-1.871737 10.341188-.83306M4001.491888 56.651369c5.424452-1.038678 10.054015-.666694 10.341189.83306.11453.598133-.480661 1.286347-1.583313 1.961768-1.915744-.332654-4.887161-.217788-8.144975.40602-3.257814.623809-6.061479 1.614759-7.719804 2.631777-1.273185-.220494-2.080513-.640153-2.195044-1.238287-.287173-1.499753 3.877495-3.555661 9.301947-4.594338M4020.000834 89.328389c9.96727 0 18.061456-6.416992 18.186494-14.370512l-.025007.014678c-3.626963 2.035583-10.402405 3.405316-18.161487 3.405316-7.777422 0-14.566202-1.375737-18.186495-3.419327l-.001667-.18748c0 8.040255 8.142534 14.557325 18.188162 14.557325z" fill="#0c403b"/></g><g><path d="M4115.467 32.156L4080 46.48l20.306 32.511 2.612 38.282 37.082-9.336 37.082 9.336 2.612-38.282L4200 46.48l-35.467-14.324L4140 2.727z" fill="#44e1b9"/><path d="M4158.486608 56.874656c5.426952 1.025538 9.603272 3.03598 9.328272 4.491225-.10974.580722-.912892.98563-2.184108 1.196248-1.663515-.993162-4.471984-1.964545-7.7313-2.580462-3.259315-.615917-6.228588-.736361-8.140789-.418907-1.105716-.65979-1.70573-1.329856-1.59599-1.910578.275-1.455244 4.896964-1.803064 10.323915-.777526M4121.496001 56.688971c5.426951-1.025538 10.048915-.677718 10.323915.777526.10974.580723-.490274 1.250789-1.596973 1.910764-1.911218-.31764-4.88049-.197196-8.139806.418721-3.259315.615917-6.067785 1.5873-7.732282 2.580648-1.270233-.210803-2.073386-.615712-2.183126-1.196434-.275-1.455244 3.90132-3.465687 9.328272-4.491225M4140.000828 89.048312c9.900907 0 17.941203-6.31023 18.065409-14.131426l-.024841.014434c-3.602814 2.001716-10.333146 3.34866-18.040568 3.34866-7.725639 0-14.46922-1.352848-18.065409-3.362438l-.001656-.18436c0 7.906486 8.088322 14.31513 18.067065 14.31513z" fill="#0c403b"/></g><g><path d="M4235.467 32.156L4200 46.48l20.306 32.511 2.612 38.282 37.082-9.336 37.082 9.336 2.612-38.282L4320 46.48l-35.467-14.324L4260 2.727z" fill="#44e1b9"/><path d="M4278.482192 56.893771c5.429095 1.01413 9.614772 2.988268 9.349258 4.409682-.105948.56719-.90586.961006-2.174795 1.164464-1.668352-.974918-4.480877-1.929584-7.74148-2.53865-3.260602-.609065-6.228102-.734082-8.136877-.427355-1.108937-.647633-1.712744-1.303658-1.606796-1.870848.265514-1.421414 4.881595-1.751423 10.31069-.737293M4241.500805 56.710152c5.429095-1.01413 10.045176-.684122 10.31069.737293.105949.56719-.497859 1.223214-1.607778 1.871032-1.907793-.306911-4.875292-.181895-8.135895.42717-3.260602.609067-6.073127 1.563733-7.742463 2.538834-1.26795-.203642-2.067864-.597458-2.173812-1.164648-.265514-1.421414 3.920164-3.39555 9.349258-4.409681M4260.000823 88.800012c9.843315 0 17.83684-6.217578 17.960325-13.923935l-.024697.014222c-3.581857 1.972326-10.273039 3.299492-17.935628 3.299492-7.6807 0-14.385053-1.332985-17.960324-3.313068l-.001647-.181653c0 7.790396 8.041273 14.104942 17.961971 14.104942z" fill="#0c403b"/></g><g><path d="M4355.467 32.156L4320 46.48l20.306 32.511 2.612 38.282 37.082-9.336 37.082 9.336 2.612-38.282L4440 46.48l-35.467-14.324L4380 2.727z" fill="#44e1b9"/><path d="M4398.476954 56.898772c5.430933 1.004237 9.624019 2.950095 9.365823 4.346424-.103097.557548-.900654.943971-2.167761 1.141875-1.672308-.960077-4.48784-1.902734-7.749547-2.505858-3.261707-.603124-6.228157-.729616-8.134188-.431212-1.11157-.637746-1.718207-1.28382-1.61511-1.841368.258195-1.396329 4.86985-1.714097 10.300783-.70986M4361.506377 56.716944c5.430933-1.004237 10.042587-.686468 10.300783.709861.103097.557548-.503541 1.203622-1.616094 1.84155-1.905048-.298586-4.871498-.172094-8.133205.43103-3.261706.603124-6.077239 1.54578-7.75053 2.50604-1.266123-.198086-2.06368-.584509-2.166777-1.142057-.258196-1.39633 3.93489-3.342187 9.365823-4.346424M4380.00082 88.579367c9.793385 0 17.746365-6.137254 17.869223-13.744056l-.024572.014039c-3.563688 1.946846-10.22093 3.256867-17.844652 3.256867-7.64174 0-14.312088-1.315764-17.869224-3.270267l-.001638-.179307c0 7.689754 8.000485 13.922724 17.870862 13.922724z" fill="#0c403b"/></g><g><path d="M4475.467 32.156L4440 46.48l20.306 32.511 2.612 38.282 37.082-9.336 37.082 9.336 2.612-38.282L4560 46.48l-35.467-14.324L4500 2.727z" fill="#44e1b9"/><path d="M4518.470974 56.890672c5.43251.995677 9.63118 2.921155 9.37825 4.301167-.100957.550825-.896643.93162-2.162534 1.1266-1.675261-.94957-4.493177-1.882871-7.75583-2.480855-3.262653-.597983-6.228397-.72472-8.132514-.431181-1.113474-.631075-1.722391-1.269307-1.621435-1.820132.25293-1.380012 4.861554-1.691277 10.294063-.6956M4481.512642 56.710393c5.432509-.995677 10.041132-.684413 10.294063.6956.100956.550825-.507961 1.189056-1.62242 1.820312-1.903132-.293719-4.868876-.166983-8.13153.431-3.262652.597984-6.080568 1.531285-7.756813 2.481037-1.264908-.195162-2.060594-.575956-2.16155-1.126781-.25293-1.380013 3.94574-3.30549 9.37825-4.301168M4500.000815 88.382958c9.750205 0 17.668118-6.067785 17.790434-13.588483l-.024463.01388c-3.547975 1.924808-10.175864 3.220001-17.76597 3.220001-7.608047 0-14.248982-1.30087-17.790434-3.23325l-.001631-.177277c0 7.602712 7.965209 13.76513 17.792064 13.76513z" fill="#0c403b"/></g><g><path d="M4595.467 32.156L4560 46.48l20.306 32.511 2.612 38.282 37.082-9.336 37.082 9.336 2.612-38.282L4680 46.48l-35.467-14.324L4620 2.727z" fill="#44e1b9"/><path d="M4638.464304 56.870486c5.433856.988302 9.636568 2.900207 9.3873 4.270723-.099492.547026-.894123.925948-2.159213 1.119696-1.677264-.94336-4.49698-1.869884-7.760442-2.463437-3.263462-.593554-6.228839-.719216-8.13184-.427028-1.114866-.626612-1.725186-1.261065-1.625694-1.80809.249268-1.370517 4.856033-1.680166 10.289889-.691864M4601.519556 56.691543c5.433855-.988302 10.04062-.678653 10.289888.691864.099493.547025-.510827 1.181478-1.626678 1.808269-1.902017-.292367-4.867393-.166705-8.130855.426849-3.263462.593553-6.083179 1.520076-7.761427 2.463616-1.264105-.193927-2.058736-.57285-2.158229-1.119875-.249267-1.370516 3.953445-3.282421 9.3873-4.270723M4620.000812 88.207936c9.713004 0 17.600708-6.007938 17.722557-13.454459l-.02437.013743c-3.534438 1.905824-10.137039 3.188242-17.698187 3.188242-7.579019 0-14.194617-1.28804-17.722556-3.20136l-.001625-.175528c0 7.527725 7.934818 13.629362 17.724181 13.629362z" fill="#0c403b"/></g><g><path d="M4715.467 32.156L4680 46.48l20.306 32.511 2.612 38.282 37.082-9.336 37.082 9.336 2.612-38.282L4800 46.48l-35.467-14.324L4740 2.727z" fill="#44e1b9"/><path d="M4758.456792 56.840219c5.435.981983 9.640466 2.886048 9.393326 4.253901-.098678.546157-.892513.924035-2.157198 1.11827-1.678716-.939442-4.499686-1.861702-7.763836-2.45146-3.26415-.58976-6.229492-.712957-8.131796-.420525-1.115772-.62433-1.727185-1.256105-1.628507-1.802263.24714-1.367852 4.85301-1.679906 10.28801-.697923M4721.527275 56.66242c5.435002-.981983 10.04087-.66993 10.28801.697924.09868.546157-.512734 1.177931-1.62949 1.80244-1.90132-.29261-4.866663-.169412-8.130813.420347-3.26415.589758-6.08512 1.512018-7.76482 2.451638-1.2637-.194413-2.057535-.57229-2.156213-1.118448-.24714-1.367853 3.958325-3.271918 9.393326-4.2539M4740.00081 88.051915c9.681141 0 17.54297-5.95668 17.664419-13.339666l-.02429.013625c-3.522844 1.889564-10.103785 3.16104-17.64013 3.16104-7.554156 0-14.148052-1.27705-17.664419-3.174046l-.001619-.17403c0 7.463499 7.908789 13.513077 17.666039 13.513077z" fill="#0c403b"/></g><g><path d="M4835.467 32.156L4800 46.48l20.306 32.511 2.612 38.282 37.082-9.336 37.082 9.336 2.612-38.282L4920 46.48l-35.467-14.324L4860 2.727z" fill="#44e1b9"/><path d="M4878.449618 56.807254c5.435969.976614 9.643314 2.876524 9.397524 4.24462-.098138.546254-.8916.924916-2.156092 1.1204-1.679643-.937783-4.501523-1.857256-7.766253-2.44379-3.264731-.586534-6.230194-.706802-8.132208-.412491-1.116389-.623228-1.728425-1.254399-1.630287-1.800653.24579-1.368097 4.851348-1.6847 10.287316-.708086M4841.534624 56.630427c5.435968-.976614 10.041526-.66001 10.287316.708086.098138.546254-.513898 1.177425-1.631271 1.80083-1.90103-.294488-4.866493-.17422-8.131224.412315-3.26473.586534-6.08661 1.506007-7.767237 2.443967-1.263509-.195661-2.05697-.574323-2.155108-1.120578-.24579-1.368096 3.961555-3.268006 9.397524-4.24462M4860.000807 87.916284c9.654072 0 17.493918-5.91313 17.615028-13.242141l-.024222.013525c-3.512994 1.87575-10.075534 3.13793-17.590806 3.13793-7.533034 0-14.108493-1.267713-17.615027-3.15084l-.001615-.172759c0 7.408935 7.886675 13.414285 17.616642 13.414285z" fill="#0c403b"/></g><g><path d="M4955.467 32.156L4920 46.48l20.306 32.511 2.612 38.282 37.082-9.336 37.082 9.336 2.612-38.282L5040 46.48l-35.467-14.324L4980 2.727z" fill="#44e1b9"/><path d="M4998.443584 56.779566c5.436778.972102 9.645697 2.86852 9.401044 4.23682-.097686.546335-.890832.925655-2.155162 1.122189-1.68042-.93639-4.503063-1.85352-7.768279-2.437344-3.265216-.583825-6.230778-.701633-8.132547-.405743-1.116906-.622302-1.729466-1.252964-1.63178-1.7993.244653-1.3683 4.849947-1.688725 10.286724-.716622M4961.540804 56.603556c5.436777-.972103 10.042071-.651677 10.286725.716622.097685.546336-.514875 1.176998-1.632765 1.799476-1.900784-.296065-4.866346-.178258-8.131563.405567-3.265216.583824-6.087858 1.500955-7.769263 2.43752-1.263345-.19671-2.056492-.57603-2.154177-1.122365-.244654-1.3683 3.964266-3.264718 9.401043-4.23682M4980.000805 87.80234c9.631331 0 17.45271-5.876545 17.573534-13.16021l-.024165.013442c-3.504718 1.864144-10.0518 3.118516-17.549369 3.118516-7.515289 0-14.075259-1.259871-17.573533-3.131347l-.001611-.17169c0 7.363095 7.868097 13.33129 17.575144 13.33129z" fill="#0c403b"/></g><g><path d="M5075.467 32.156L5040 46.48l20.306 32.511 2.612 38.282 37.082-9.336 37.082 9.336 2.612-38.282L5160 46.48l-35.467-14.324L5100 2.727z" fill="#44e1b9"/><path d="M5118.438588 56.756665c5.437443.96837 9.647663 2.861898 9.403949 4.230366-.09731.546402-.890196.926267-2.154391 1.123668-1.681063-.935235-4.504334-1.850428-7.76995-2.43201-3.265616-.581584-6.231258-.697355-8.132824-.40016-1.117332-.621535-1.730325-1.251777-1.633015-1.79818.243714-1.368467 4.848787-1.692054 10.28623-.723684M5081.545921 56.581331c5.437444-.96837 10.042517-.644783 10.28623.723684.097311.546403-.515682 1.176644-1.633999 1.798354-1.90058-.29737-4.866223-.181598-8.13184.399985-3.265615.581583-6.088886 1.496776-7.770933 2.432187-1.26321-.197577-2.056097-.577442-2.153407-1.123844-.243714-1.368468 3.966506-3.261996 9.40395-4.230366M5100.000804 87.708086c9.612519 0 17.41862-5.846282 17.53921-13.092438l-.024118.013373c-3.497874 1.854544-10.032168 3.102456-17.515092 3.102456-7.50061 0-14.047768-1.253382-17.53921-3.11522l-.001607-.170806c0 7.325176 7.852729 13.262635 17.540817 13.262635z" fill="#0c403b"/></g><g><path d="M5195.467 32.156L5160 46.48l20.306 32.511 2.612 38.282 37.082-9.336 37.082 9.336 2.612-38.282L5280 46.48l-35.467-14.324L5220 2.727z" fill="#44e1b9"/><path d="M5238.43454 56.738131c5.43798.965349 9.649252 2.856537 9.406298 4.22514-.097007.546456-.889681.92676-2.153766 1.124865-1.681583-.934301-4.505361-1.847925-7.7713-2.427693-3.26594-.579769-6.231645-.693892-8.133046-.395641-1.117677-.620914-1.73102-1.250815-1.634013-1.797271.242953-1.368603 4.847846-1.694748 10.285826-.7294M5201.550067 56.563344c5.43798-.965348 10.042873-.639203 10.285827.7294.097007.546456-.516337 1.176357-1.634999 1.797446-1.900415-.298426-4.866121-.184303-8.13206.395466-3.26594.579768-6.089718 1.493392-7.772285 2.427868-1.2631-.198279-2.055775-.578584-2.152782-1.12504-.242954-1.368603 3.968319-3.259791 9.406299-4.22514M5220.000803 87.63179c9.597291 0 17.391028-5.821784 17.511425-13.037577l-.02408.013316c-3.492332 1.846774-10.016275 3.089457-17.487345 3.089457-7.48873 0-14.025515-1.248131-17.511426-3.102168l-.001605-.17009c0 7.294482 7.84029 13.207062 17.51303 13.207062z" fill="#0c403b"/></g><g><path d="M5315.467 32.156L5280 46.48l20.306 32.511 2.612 38.282 37.082-9.336 37.082 9.336 2.612-38.282L5400 46.48l-35.467-14.324L5340 2.727z" fill="#44e1b9"/><path d="M5358.431362 56.723596c5.4384.962978 9.650496 2.85233 9.408139 4.221039-.096769.546499-.889277.92715-2.153276 1.125804-1.68199-.933568-4.506166-1.845961-7.772357-2.424306-3.266192-.578345-6.231947-.691176-8.133217-.392096-1.117948-.620427-1.731566-1.25006-1.634797-1.796559.242357-1.368708 4.847107-1.69686 10.285508-.733882M5321.55332 56.549238c5.438401-.962979 10.043151-.634826 10.285508.733882.09677.546499-.516849 1.176132-1.635781 1.796733-1.900286-.299254-4.866041-.186423-8.132232.391922-3.266192.578345-6.090369 1.490738-7.773342 2.42448-1.263014-.198829-2.055523-.57948-2.152292-1.125978-.242357-1.368708 3.969739-3.25806 9.40814-4.22104M5340.000802 87.571949c9.585348 0 17.369385-5.80257 17.489633-12.994549l-.02405.013273c-3.487986 1.840678-10.00381 3.07926-17.465583 3.07926-7.47941 0-14.00806-1.244012-17.489634-3.09193l-.001603-.169528c0 7.270408 7.830533 13.163474 17.491237 13.163474z" fill="#0c403b"/></g><g><path d="M5435.467 32.156L5400 46.48l20.306 32.511 2.612 38.282 37.082-9.336 37.082 9.336 2.612-38.282L5520 46.48l-35.467-14.324L5460 2.727z" fill="#44e1b9"/><path d="M5478.428987 56.712738c5.438714.961207 9.651425 2.849188 9.409513 4.217976-.09659.54653-.888976.927438-2.15291 1.126505-1.682293-.93302-4.506766-1.844494-7.773146-2.421776-3.26638-.577281-6.232171-.689147-8.133344-.389448-1.11815-.620062-1.731972-1.249496-1.635382-1.796026.241912-1.368787 4.846555-1.698439 10.285269-.737231M5441.555752 56.5387c5.438714-.961207 10.043357-.631556 10.285269.737232.09659.54653-.517232 1.175964-1.636367 1.7962-1.900188-.299873-4.86598-.188007-8.13236.389274-3.266379.577282-6.090852 1.488755-7.77413 2.42195-1.26295-.199241-2.055334-.58015-2.151925-1.12668-.241911-1.368787 3.9708-3.256768 9.409513-4.217976M5460.0008 87.527244c9.576427 0 17.353219-5.788217 17.473355-12.962404l-.024027.01324c-3.48474 1.836125-9.9945 3.071643-17.449327 3.071643-7.472448 0-13.995022-1.240934-17.473354-3.084281l-.001602-.169109c0 7.252423 7.823245 13.130911 17.474956 13.130911z" fill="#0c403b"/></g><g><path d="M5555.467 32.156L5520 46.48l20.306 32.511 2.612 38.282 37.082-9.336 37.082 9.336 2.612-38.282L5640 46.48l-35.467-14.324L5580 2.727z" fill="#44e1b9"/><path d="M5598.427354 56.705275c5.438928.95999 9.652062 2.847029 9.410456 4.21587-.096468.546552-.888767.927638-2.152657 1.126987-1.682502-.932644-4.50718-1.843485-7.773688-2.420036-3.266508-.57655-6.232325-.687752-8.13343-.387628-1.11829-.619812-1.732253-1.249108-1.635785-1.79566.241606-1.368841 4.846175-1.699523 10.285104-.739533M5561.557424 56.531458c5.43893-.95999 10.043498-.629308 10.285104.739533.096468.546552-.517496 1.175848-1.63677 1.795834-1.90012-.300298-4.865937-.189096-8.132445.387454-3.266509.57655-6.091186 1.487392-7.774673 2.42021-1.262905-.199523-2.055204-.58061-2.151672-1.12716-.241606-1.368842 3.971528-3.25588 9.410456-4.21587M5580.0008 87.496517c9.570294 0 17.342105-5.778351 17.462164-12.94031l-.024011.013217c-3.482508 1.832996-9.988099 3.066407-17.438153 3.066407-7.467662 0-13.986059-1.238818-17.462164-3.079023l-.0016-.16882c0 7.24006 7.818234 13.108529 17.463764 13.108529z" fill="#0c403b"/></g><g><path d="M5675.467 32.156L5640 46.48l20.306 32.511 2.612 38.282 37.082-9.336 37.082 9.336 2.612-38.282L5760 46.48l-35.467-14.324L5700 2.727z" fill="#44e1b9"/><path d="M5718.426409 56.700958c5.439053.959286 9.65243 2.845778 9.411002 4.214651-.096398.546564-.888648.927753-2.152511 1.127266-1.682623-.932426-4.507418-1.842902-7.774001-2.41903-3.266584-.576127-6.232415-.686945-8.133481-.386574-1.11837-.619668-1.732414-1.248884-1.636017-1.795449.241428-1.368872 4.845954-1.70015 10.285008-.740864M5681.558392 56.527268c5.439053-.959286 10.04358-.628008 10.285007.740865.096398.546564-.517647 1.175781-1.637 1.795622-1.900083-.300544-4.865914-.189726-8.132497.386401-3.266583.576128-6.091379 1.486603-7.774986 2.419203-1.262879-.199686-2.055129-.580875-2.151527-1.12744-.241428-1.368872 3.97195-3.255364 9.411003-4.21465M5700.0008 87.47874c9.566746 0 17.335676-5.772643 17.45569-12.927527l-.024003.013204c-3.481216 1.831184-9.984395 3.063378-17.431687 3.063378-7.464894 0-13.980874-1.237595-17.45569-3.075982l-.0016-.168654c0 7.232909 7.815336 13.09558 17.45729 13.09558z" fill="#0c403b"/></g><g><path d="M5795.467 32.156L5760 46.48l20.306 32.511 2.612 38.282 37.082-9.336 37.082 9.336 2.612-38.282L5880 46.48l-35.467-14.324L5820 2.727z" fill="#44e1b9"/><path d="M5838.426103 56.699564c5.439094.959059 9.65255 2.845375 9.41118 4.214258-.096376.546568-.88861.92779-2.152465 1.127356-1.682661-.932356-4.507495-1.842714-7.774102-2.418705-3.266608-.57599-6.232444-.686684-8.133498-.386234-1.118394-.619621-1.732466-1.248812-1.636091-1.79538.241371-1.368883 4.845883-1.700354 10.284976-.741295M5801.558704 56.525916c5.439094-.95906 10.043606-.627589 10.284977.741294.096374.546568-.517697 1.17576-1.637076 1.795554-1.90007-.300624-4.865906-.18993-8.132513.386061-3.266607.575991-6.09144 1.486349-7.775087 2.418878-1.26287-.19974-2.055105-.580961-2.15148-1.12753-.24137-1.368882 3.972086-3.255198 9.41118-4.214257M5820.0008 87.473c9.5656 0 17.3336-5.7708 17.4536-12.9234l-.024.0132c-3.4808 1.8306-9.9832 3.0624-17.4296 3.0624-7.464 0-13.9792-1.2372-17.4536-3.075l-.0016-.1686c0 7.2306 7.8144 13.0914 17.4552 13.0914z" fill="#0c403b"/></g><g><path d="M5915.467 32.156L5880 46.48l20.306 32.511 2.612 38.282 37.082-9.336 37.082 9.336 2.612-38.282L6000 46.48l-35.467-14.324L5940 2.727z" fill="#44e1b9"/><path d="M5958.426103 56.699564c5.439094.959059 9.65255 2.845375 9.41118 4.214258-.096376.546568-.88861.92779-2.152465 1.127356-1.682661-.932356-4.507495-1.842714-7.774102-2.418705-3.266608-.57599-6.232444-.686684-8.133498-.386234-1.118394-.619621-1.732466-1.248812-1.636091-1.79538.241371-1.368883 4.845883-1.700354 10.284976-.741295M5921.558704 56.525916c5.439094-.95906 10.043606-.627589 10.284977.741294.096374.546568-.517697 1.17576-1.637076 1.795554-1.90007-.300624-4.865906-.18993-8.132513.386061-3.266607.575991-6.09144 1.486349-7.775087 2.418878-1.26287-.19974-2.055105-.580961-2.15148-1.12753-.24137-1.368882 3.972086-3.255198 9.41118-4.214257M5940.0008 87.473c9.5656 0 17.3336-5.7708 17.4536-12.9234l-.024.0132c-3.4808 1.8306-9.9832 3.0624-17.4296 3.0624-7.464 0-13.9792-1.2372-17.4536-3.075l-.0016-.1686c0 7.2306 7.8144 13.0914 17.4552 13.0914z" fill="#0c403b"/></g><g><path d="M6035.467 32.156L6000 46.48l20.306 32.511 2.612 38.282 37.082-9.336 37.082 9.336 2.612-38.282L6120 46.48l-35.467-14.324L6060 2.727z" fill="#44e1b9"/><path d="M6078.426103 56.699564c5.439094.959059 9.65255 2.845375 9.41118 4.214258-.096376.546568-.88861.92779-2.152465 1.127356-1.682661-.932356-4.507495-1.842714-7.774102-2.418705-3.266608-.57599-6.232444-.686684-8.133498-.386234-1.118394-.619621-1.732466-1.248812-1.636091-1.79538.241371-1.368883 4.845883-1.700354 10.284976-.741295M6041.558704 56.525916c5.439094-.95906 10.043606-.627589 10.284977.741294.096374.546568-.517697 1.17576-1.637076 1.795554-1.90007-.300624-4.865906-.18993-8.132513.386061-3.266607.575991-6.09144 1.486349-7.775087 2.418878-1.26287-.19974-2.055105-.580961-2.15148-1.12753-.24137-1.368882 3.972086-3.255198 9.41118-4.214257M6060.0008 87.473c9.5656 0 17.3336-5.7708 17.4536-12.9234l-.024.0132c-3.4808 1.8306-9.9832 3.0624-17.4296 3.0624-7.464 0-13.9792-1.2372-17.4536-3.075l-.0016-.1686c0 7.2306 7.8144 13.0914 17.4552 13.0914z" fill="#0c403b"/></g><g><path d="M6155.467 32.156L6120 46.48l20.306 32.511 2.612 38.282 37.082-9.336 37.082 9.336 2.612-38.282L6240 46.48l-35.467-14.324L6180 2.727z" fill="#44e1b9"/><path d="M6198.425977 56.699463c5.439086.959103 9.652527 2.845453 9.411145 4.214334-.09638.546568-.888617.927783-2.152473 1.127338-1.682654-.932369-4.50748-1.84275-7.774083-2.418767-3.266603-.576017-6.232438-.686735-8.133494-.3863-1.11839-.61963-1.732456-1.248826-1.636077-1.795394.241382-1.36888 4.845897-1.700314 10.284982-.741211M6161.55883 56.525807c5.439085-.959103 10.0436-.62767 10.284981.741211.09638.546568-.517687 1.175764-1.637061 1.795567-1.900072-.300608-4.865907-.18989-8.13251.386127-3.266602.576017-6.091428 1.486398-7.775067 2.41894-1.262872-.199728-2.05511-.580944-2.151489-1.127511-.241382-1.36888 3.97206-3.255231 9.411145-4.214334M6180.0008 87.473739c9.565821 0 17.334001-5.771156 17.454004-12.924198l-.024.013201c-3.480881 1.830713-9.983432 3.06259-17.430004 3.06259-7.464173 0-13.979523-1.237277-17.454004-3.07519l-.0016-.168611c0 7.231046 7.81458 13.092208 17.455604 13.092208z" fill="#0c403b"/></g><g><path d="M6275.467 32.156L6240 46.48l20.306 32.511 2.612 38.282 37.082-9.336 37.082 9.336 2.612-38.282L6360 46.48l-35.467-14.324L6300 2.727z" fill="#44e1b9"/><path d="M6318.408293 56.478275c5.435977.976568 9.625125 2.97782 9.356538 4.472885-.107152.596452-.90892 1.02138-2.18013 1.254276-1.669572-.99387-4.48474-1.950721-7.749476-2.537228-3.264736-.586507-6.23692-.669349-8.14901-.31892-1.109674-.66062-1.713406-1.338045-1.606254-1.934496.268587-1.495066 4.892355-1.913085 10.328332-.936517M6281.57595 56.301456c5.435977-.976568 10.059745-.558549 10.328332.936517.107152.596452-.49658 1.273877-1.607238 1.934673-1.911106-.350605-4.88329-.267763-8.148025.318744-3.264736.586506-6.079904 1.543357-7.75046 2.537404-1.270226-.233073-2.071994-.658-2.179146-1.254452-.268588-1.495066 3.92056-3.496317 9.356537-4.472886M6300.000807 87.767531c9.653842 0 17.4935-5.91276 17.614607-13.24131l-.024221.013524c-3.51291 1.875632-10.075294 3.137734-17.590386 3.137734-7.532854 0-14.108156-1.267635-17.614606-3.150644l-.001615-.172747c0 7.40847 7.886486 13.413443 17.616221 13.413443z" fill="#0c403b"/></g><g><path d="M6395.467 32.156L6360 46.48l20.306 32.511 2.612 38.282 37.082-9.336 37.082 9.336 2.612-38.282L6480 46.48l-35.467-14.324L6420 2.727z" fill="#44e1b9"/><path d="M6438.347698 55.585871c5.422833 1.047095 9.506007 3.514973 9.120006 5.514048-.153946.797273-.997567 1.400269-2.30108 1.768822-1.612159-1.24523-4.386033-2.386827-7.642876-3.01569-3.256842-.628863-6.256326-.602042-8.21717-.046723-1.071614-.827167-1.630095-1.700894-1.47615-2.498168.386002-1.999074 5.094436-2.769383 10.51727-1.722289M6401.634166 55.396284c5.422834-1.047095 10.131268-.276786 10.51727 1.722288.153945.797274-.404536 1.671001-1.477132 2.498357-1.959862-.555508-4.959347-.582329-8.216189.046534-3.256842.628864-6.030716 1.770461-7.643856 3.01588-1.302533-.368743-2.146153-.971739-2.300099-1.769012-.386-1.999075 3.697173-4.466953 9.120006-5.514047M6420.000837 88.955635c10.009796 0 18.138518-6.485407 18.26409-14.523724l-.025115.014834c-3.642437 2.057286-10.446788 3.441622-18.238975 3.441622-7.810604 0-14.62835-1.390405-18.26409-3.455782l-.001674-.189478c0 8.125976 8.177276 14.712528 18.265764 14.712528z" fill="#0c403b"/></g><g><path d="M6515.467 32.156L6480 46.48l20.306 32.511 2.612 38.282 37.082-9.336 37.082 9.336 2.612-38.282L6600 46.48l-35.467-14.324L6540 2.727z" fill="#44e1b9"/><path d="M6558.279494 53.904706c5.39532 1.180698 9.24592 4.527238 8.600522 7.476446-.257603 1.177143-1.193246 2.112752-2.56853 2.737181-1.48621-1.717423-4.16969-3.207541-7.410008-3.916644-3.240318-.709104-6.300905-.476002-8.369569.46348-.987795-1.141559-1.44714-2.382443-1.189536-3.559586.645397-2.949208 5.5418-4.381575 10.93712-3.200877M6521.697389 53.690928c5.39532-1.180699 10.291723.251669 10.93712 3.200876.257603 1.177143-.201741 2.418028-1.190513 3.559801-2.067687-.939697-5.128273-1.172798-8.368592-.463695-3.240318.709103-5.923799 2.199222-7.410986 3.916858-1.374306-.624643-2.309949-1.560252-2.567552-2.737395-.645397-2.949207 3.205202-6.295747 8.600523-7.476445M6540.000894 91.214756c10.686627 0 19.364986-7.574268 19.49905-16.962171l-.026813.017325c-3.888728 2.402692-11.153167 4.01945-19.472237 4.01945-8.338733 0-15.617473-1.623846-19.49905-4.035988l-.001788-.22129c0 9.49028 8.730198 17.182674 19.500838 17.182674z" fill="#0c403b"/></g><g><path d="M6635.467 32.156L6600 46.48l20.306 32.511 2.612 38.282 37.082-9.336 37.082 9.336 2.612-38.282L6720 46.48l-35.467-14.324L6660 2.727z" fill="#44e1b9"/><path d="M6678.269399 52.539327c5.370259 1.289903 8.999437 5.34978 8.105637 9.070942-.356633 1.48477-1.380894 2.691937-2.824847 3.522675-1.366287-2.10018-3.963636-3.874873-7.188903-4.649562-3.225266-.774689-6.345303-.373276-8.517379.877011-.908148-1.395698-1.272394-2.936376-.915762-4.421146.8938-3.721163 5.970995-5.689823 11.341254-4.39992M6641.702946 52.305776c5.370259-1.289903 10.447453.678757 11.341253 4.39992.356633 1.48477-.007613 3.025448-.916734 4.42138-2.171103-1.25052-5.29114-1.651934-8.516407-.877245-3.225267.774689-5.822616 2.549383-7.189874 4.649795-1.442981-.830971-2.467243-2.038138-2.823875-3.522908-.8938-3.721163 2.735378-7.78104 8.105637-9.070942M6660.00094 93.070345c11.24256 0 20.37238-8.468633 20.513417-18.965054l-.028208.01937c-4.091024 2.686401-11.73337 4.494064-20.485209 4.494064-8.772525 0-16.429914-1.815587-20.513416-4.512554l-.00188-.24742c0 10.610886 9.184353 19.211594 20.515296 19.211594z" fill="#0c403b"/></g><g><path d="M6755.467 32.156L6720 46.48l20.306 32.511 2.612 38.282 37.082-9.336 37.082 9.336 2.612-38.282L6840 46.48l-35.467-14.324L6780 2.727z" fill="#44e1b9"/><path d="M6798.283105 51.731123c5.354251 1.354815 8.837859 5.838349 7.781088 10.014723-.421923 1.667447-1.504142 3.03372-2.993614 3.987486-1.287287-2.327903-3.82862-4.26963-7.044273-5.083305-3.215653-.813674-6.374663-.314336-8.61519 1.120905-.855618-1.547158-1.157769-3.263725-.735846-4.931172 1.056771-4.176374 6.253584-6.463453 11.607835-5.108637M6761.686341 51.485819c5.354251-1.354816 10.551064.932263 11.607835 5.108637.421923 1.667447.119772 3.384014-.736815 4.931417-2.239558-1.435486-5.398568-1.934824-8.61422-1.12115-3.215653.813674-5.756987 2.755402-7.045243 5.08355-1.488503-.954012-2.570722-2.320284-2.992645-3.987732-1.05677-4.176374 2.426837-8.659907 7.781088-10.014722M6780.000968 94.177587c11.574288 0 20.973497-9.002307 21.118696-20.160188l-.02904.020592c-4.211736 2.855691-12.07958 4.777269-21.089656 4.777269-9.031372 0-16.914704-1.930002-21.118696-4.796925l-.001936-.263012c0 11.27956 9.455352 20.422264 21.120632 20.422264z" fill="#0c403b"/></g><g><path d="M6875.467 32.156L6840 46.48l20.306 32.511 2.612 38.282 37.082-9.336 37.082 9.336 2.612-38.282L6960 46.48l-35.467-14.324L6900 2.727z" fill="#44e1b9"/><path d="M6918.297923 51.256198c5.344411 1.393123 8.737807 6.124051 7.579267 10.568535-.462609 1.774697-1.581321 3.235756-3.099026 4.261084-1.238296-2.460923-3.744472-4.502084-6.954215-5.338765-3.209744-.836681-6.393436-.278694-8.676471 1.264326-.823076-1.635497-1.08619-3.456756-.62358-5.231453 1.15854-4.444483 6.429613-6.916851 11.774025-5.523727M6881.669742 51.003957c5.344412-1.393123 10.615485 1.079244 11.774025 5.523728.462609 1.774697.199496 3.595955-.624548 5.231705-2.282067-1.543273-5.46576-2.10126-8.675503-1.264578-3.209744.836681-5.715919 2.877841-6.955183 5.339017-1.516737-1.02558-2.63545-2.48664-3.098058-4.261337-1.15854-4.444483 2.234855-9.175411 7.579267-10.568535M6900.000984 94.832605c11.770532 0 21.329105-9.318015 21.476765-20.8672l-.029532.021314c-4.283146 2.95584-12.28439 4.944806-21.447233 4.944806-9.184499 0-17.201493-1.997686-21.476765-4.965151l-.001968-.272236c0 11.67513 9.615668 21.138467 21.478733 21.138467z" fill="#0c403b"/></g><g><path d="M6995.467 32.156L6960 46.48l20.306 32.511 2.612 38.282 37.082-9.336 37.082 9.336 2.612-38.282L7080 46.48l-35.467-14.324L7020 2.727z" fill="#44e1b9"/><path d="M7038.30876 50.98376c5.338625 1.415135 8.678418 6.288567 7.459551 10.886764-.48683 1.836572-1.626927 3.351006-3.161399 4.417435-1.209184-2.537535-3.694883-4.634437-6.901152-5.484339-3.206268-.849901-6.404276-.259608-8.71261 1.34552-.803775-1.68624-1.044006-3.566564-.557177-5.403136 1.218867-4.598196 6.534162-7.177381 11.872787-5.762245M7001.657857 50.727533c5.338625-1.415136 10.65392 1.164049 11.872787 5.762245.48683 1.836572.246598 3.716897-.558143 5.403393-2.307368-1.605385-5.505376-2.195678-8.711644-1.345777-3.206269.849902-5.691968 2.946804-6.902119 5.484595-1.533505-1.066685-2.673603-2.58112-3.160432-4.417691-1.218867-4.598197 2.120926-9.471629 7.45955-10.886765M7020.000994 95.209541c11.88346 0 21.533741-9.499692 21.682819-21.274057l-.029816.02173c-4.32424 3.01347-12.40225 5.041217-21.653003 5.041217-9.272618 0-17.36653-2.036636-21.682819-5.06196l-.001988-.277543c0 11.902766 9.707924 21.550613 21.684807 21.550613z" fill="#0c403b"/></g><g><path d="M7115.467 32.156L7080 46.48l20.306 32.511 2.612 38.282 37.082-9.336 37.082 9.336 2.612-38.282L7200 46.48l-35.467-14.324L7140 2.727z" fill="#44e1b9"/><path d="M7158.31486 50.846645c5.335673 1.426227 8.64803 6.371316 7.398177 11.047154-.498908 1.866472-1.650413 3.409448-3.193296 4.495872-1.194354-2.575787-3.669235-4.702002-6.87373-5.558564-3.204495-.856562-6.410179-.248764-8.731399 1.38731-.79407-1.711092-1.022131-3.622827-.523223-5.489298 1.249853-4.675839 6.587797-7.3087 11.92347-5.882474M7121.651223 50.588411c5.335673-1.426226 10.673618 1.206635 11.92347 5.882474.498908 1.866471.270848 3.778206-.524189 5.489556-2.320254-1.636332-5.525937-2.24413-8.730433-1.387568-3.204495.856562-5.679376 2.982777-6.874696 5.558822-1.541916-1.086682-2.693422-2.629658-3.19233-4.49613-1.249852-4.675838 2.062505-9.620927 7.398178-11.047154M7140.000999 95.399605c11.940403 0 21.636926-9.5913 21.786718-21.479208l-.029959.02194c-4.34496 3.04253-12.461679 5.08983-21.75676 5.08983-9.31705 0-17.449745-2.056275-21.786717-5.110773l-.001998-.28022c0 12.017547 9.754442 21.75843 21.788716 21.75843z" fill="#0c403b"/></g><g><path d="M7235.467 32.156L7200 46.48l20.306 32.511 2.612 38.282 37.082-9.336 37.082 9.336 2.612-38.282L7320 46.48l-35.467-14.324L7260 2.727z" fill="#44e1b9"/><path d="M7278.3168 50.80641c5.334807 1.429457 8.638993 6.39587 7.380097 11.094133-.502627 1.875828-1.657137 3.425834-3.202748 4.519051-1.189946-2.587135-3.661727-4.72161-6.865703-5.580113-3.203976-.858502-6.411839-.245884-8.736896 1.399409-.790964-1.7193-1.015796-3.6389-.51317-5.514728 1.258896-4.698263 6.60361-7.34721 11.93842-5.917752M7241.649127 50.54759c5.334808-1.429457 10.679523 1.21949 11.938419 5.917753.502626 1.875828.277794 3.795428-.514136 5.514987-2.324091-1.645552-5.531954-2.25817-8.73593-1.399668-3.203976.858503-5.675757 2.992978-6.86667 5.580372-1.544644-1.093476-2.699154-2.643482-3.201781-4.51931-1.258896-4.698263 2.04529-9.664676 7.380098-11.094133M7260.001 95.455c11.957 0 21.667-9.618 21.817-21.539l-.03.022c-4.351 3.051-12.479 5.104-21.787 5.104-9.33 0-17.474-2.062-21.817-5.125l-.002-.281c0 12.051 9.768 21.819 21.819 21.819z" fill="#0c403b"/></g></svg>
