
<svg xmlns="http://www.w3.org/2000/svg" viewBox="0 0 10920 120" width="100%" height="120"><path d="M45.195 8.182c-20.442 0-37.013 16.572-37.013 37.013v29.61c0 20.442 16.571 37.013 37.013 37.013h29.61c20.442 0 37.013-16.571 37.013-37.013v-29.61c0-20.441-16.571-37.013-37.013-37.013h-29.61z" fill="#ffad65" fill-rule="evenodd"/><g fill="#60361a"><path d="M43.636 73.636c0 10.544 7.327 19.091 16.364 19.091s16.364-8.547 16.364-19.091c0-10.543-7.327-19.091-16.364-19.091s-16.364 8.548-16.364 19.091z" fill-rule="evenodd"/><path d="M35.455 46.363c0 4.519 3.663 8.182 8.181 8.182 4.519 0 8.182-3.663 8.182-8.182 0-4.518-3.663-8.181-8.182-8.181-4.518 0-8.181 3.663-8.181 8.181zM68.182 46.363c0 4.519 3.663 8.182 8.182 8.182s8.181-3.663 8.181-8.182c0-4.518-3.662-8.181-8.181-8.181-4.519 0-8.182 3.663-8.182 8.181z"/></g><path d="M165.195 8.182c-20.442 0-37.013 16.572-37.013 37.013v29.61c0 20.442 16.571 37.013 37.013 37.013h29.61c20.442 0 37.013-16.571 37.013-37.013v-29.61c0-20.441-16.571-37.013-37.013-37.013h-29.61z" fill="#ffad65" fill-rule="evenodd"/><g fill="#60361a"><path d="M163.711 73.679414c0 10.488 7.293 18.989 16.289 18.989 8.996 0 16.289-8.501 16.289-18.989 0-10.487-7.293-18.989-16.289-18.989-8.996 0-16.289 8.502-16.289 18.989z" fill-rule="evenodd"/><path d="M155.455 46.406414c0 4.519 3.663 8.182 8.181 8.182 4.519 0 8.182-3.663 8.182-8.182 0-4.518-3.663-8.181-8.182-8.181-4.518 0-8.181 3.663-8.181 8.181zM188.182 46.406414c0 4.519 3.663 8.182 8.182 8.182s8.181-3.663 8.181-8.182c0-4.518-3.662-8.181-8.181-8.181-4.519 0-8.182 3.663-8.182 8.181z"/></g><path d="M285.195 8.182c-20.442 0-37.013 16.572-37.013 37.013v29.61c0 20.442 16.571 37.013 37.013 37.013h29.61c20.442 0 37.013-16.571 37.013-37.013v-29.61c0-20.441-16.571-37.013-37.013-37.013h-29.61z" fill="#ffad65" fill-rule="evenodd"/><g fill="#60361a"><path d="M283.977 73.833552c0 10.288 7.174 18.627 16.023 18.627s16.023-8.339 16.023-18.627c0-10.287-7.174-18.627-16.023-18.627s-16.023 8.34-16.023 18.627z" fill-rule="evenodd"/><path d="M275.455 46.560552c0 4.519 3.663 8.182 8.181 8.182 4.519 0 8.182-3.663 8.182-8.182 0-4.518-3.663-8.181-8.182-8.181-4.518 0-8.181 3.663-8.181 8.181zM308.182 46.560552c0 4.519 3.663 8.182 8.182 8.182s8.181-3.663 8.181-8.182c0-4.518-3.662-8.181-8.181-8.181-4.519 0-8.182 3.663-8.182 8.181z"/></g><path d="M405.195 8.182c-20.442 0-37.013 16.572-37.013 37.013v29.61c0 20.442 16.571 37.013 37.013 37.013h29.61c20.442 0 37.013-16.571 37.013-37.013v-29.61c0-20.441-16.571-37.013-37.013-37.013h-29.61z" fill="#ffad65" fill-rule="evenodd"/><g fill="#60361a"><path d="M404.522 74.148718c0 9.879 6.93 17.887 15.478 17.887s15.478-8.008 15.478-17.887c0-9.878-6.93-17.887-15.478-17.887s-15.478 8.009-15.478 17.887z" fill-rule="evenodd"/><path d="M395.455 46.875718c0 4.519 3.663 8.182 8.181 8.182 4.519 0 8.182-3.663 8.182-8.182 0-4.518-3.663-8.181-8.182-8.181-4.518 0-8.181 3.663-8.181 8.181zM428.182 46.875718c0 4.519 3.663 8.182 8.182 8.182s8.181-3.663 8.181-8.182c0-4.518-3.662-8.181-8.181-8.181-4.519 0-8.182 3.663-8.182 8.181z"/></g><path d="M525.195 8.182c-20.442 0-37.013 16.572-37.013 37.013v29.61c0 20.442 16.571 37.013 37.013 37.013h29.61c20.442 0 37.013-16.571 37.013-37.013v-29.61c0-20.441-16.571-37.013-37.013-37.013h-29.61z" fill="#ffad65" fill-rule="evenodd"/><g fill="#60361a"><path d="M525.459 74.691505c0 9.175 6.511 16.612 14.541 16.612 8.03 0 14.541-7.437 14.541-16.612 0-9.174-6.511-16.612-14.541-16.612-8.03 0-14.541 7.438-14.541 16.612z" fill-rule="evenodd"/><path d="M515.455 47.418505c0 4.519 3.663 8.182 8.181 8.182 4.519 0 8.182-3.663 8.182-8.182 0-4.518-3.663-8.181-8.182-8.181-4.518 0-8.181 3.663-8.181 8.181zM548.182 47.418505c0 4.519 3.663 8.182 8.182 8.182s8.181-3.663 8.181-8.182c0-4.518-3.662-8.181-8.181-8.181-4.519 0-8.182 3.663-8.182 8.181z"/></g><path d="M645.195 8.182c-20.442 0-37.013 16.572-37.013 37.013v29.61c0 20.442 16.571 37.013 37.013 37.013h29.61c20.442 0 37.013-16.571 37.013-37.013v-29.61c0-20.441-16.571-37.013-37.013-37.013h-29.61z" fill="#ffad65" fill-rule="evenodd"/><g fill="#60361a"><path d="M646.832 75.486242c0 8.144 5.896 14.746 13.168 14.746 7.272 0 13.168-6.602 13.168-14.746 0-8.143-5.896-14.746-13.168-14.746-7.272 0-13.168 6.603-13.168 14.746z" fill-rule="evenodd"/><path d="M635.455 48.213242c0 4.519 3.663 8.182 8.181 8.182 4.519 0 8.182-3.663 8.182-8.182 0-4.518-3.663-8.181-8.182-8.181-4.518 0-8.181 3.663-8.181 8.181zM668.182 48.213242c0 4.519 3.663 8.182 8.182 8.182s8.181-3.663 8.181-8.182c0-4.518-3.662-8.181-8.181-8.181-4.519 0-8.182 3.663-8.182 8.181z"/></g><path d="M765.195 8.182c-20.442 0-37.013 16.572-37.013 37.013v29.61c0 20.442 16.571 37.013 37.013 37.013h29.61c20.442 0 37.013-16.571 37.013-37.013v-29.61c0-20.441-16.571-37.013-37.013-37.013h-29.61z" fill="#ffad65" fill-rule="evenodd"/><g fill="#60361a"><path d="M768.39 76.388267c0 6.974 5.198 12.627 11.61 12.627 6.412 0 11.61-5.653 11.61-12.627 0-6.973-5.198-12.627-11.61-12.627-6.412 0-11.61 5.654-11.61 12.627z" fill-rule="evenodd"/><path d="M755.455 49.115267c0 4.519 3.663 8.182 8.181 8.182 4.519 0 8.182-3.663 8.182-8.182 0-4.518-3.663-8.181-8.182-8.181-4.518 0-8.181 3.663-8.181 8.181zM788.182 49.115267c0 4.519 3.663 8.182 8.182 8.182s8.181-3.663 8.181-8.182c0-4.518-3.662-8.181-8.181-8.181-4.519 0-8.182 3.663-8.182 8.181z"/></g><path d="M885.195 8.182c-20.442 0-37.013 16.572-37.013 37.013v29.61c0 20.442 16.571 37.013 37.013 37.013h29.61c20.442 0 37.013-16.571 37.013-37.013v-29.61c0-20.441-16.571-37.013-37.013-37.013h-29.61z" fill="#ffad65" fill-rule="evenodd"/><g fill="#60361a"><path d="M889.769 77.186665c0 5.939 4.581 10.752 10.231 10.752 5.65 0 10.231-4.813 10.231-10.752 0-5.938-4.581-10.752-10.231-10.752-5.65 0-10.231 4.814-10.231 10.752z" fill-rule="evenodd"/><path d="M875.455 49.913665c0 4.519 3.663 8.182 8.181 8.182 4.519 0 8.182-3.663 8.182-8.182 0-4.518-3.663-8.181-8.182-8.181-4.518 0-8.181 3.663-8.181 8.181zM908.182 49.913665c0 4.519 3.663 8.182 8.182 8.182s8.181-3.663 8.181-8.182c0-4.518-3.662-8.181-8.181-8.181-4.519 0-8.182 3.663-8.182 8.181z"/></g><path d="M1005.195 8.182c-20.442 0-37.013 16.572-37.013 37.013v29.61c0 20.442 16.571 37.013 37.013 37.013h29.61c20.442 0 37.013-16.571 37.013-37.013v-29.61c0-20.441-16.571-37.013-37.013-37.013h-29.61z" fill="#ffad65" fill-rule="evenodd"/><g fill="#60361a"><path d="M1010.854 77.814734c0 5.124 4.095 9.277 9.146 9.277 5.051 0 9.146-4.153 9.146-9.277 0-5.123-4.095-9.277-9.146-9.277-5.051 0-9.146 4.154-9.146 9.277z" fill-rule="evenodd"/><path d="M995.455 50.541734c0 4.519 3.663 8.182 8.181 8.182 4.519 0 8.182-3.663 8.182-8.182 0-4.518-3.663-8.181-8.182-8.181-4.518 0-8.181 3.663-8.181 8.181zM1028.182 50.541734c0 4.519 3.663 8.182 8.182 8.182s8.181-3.663 8.181-8.182c0-4.518-3.662-8.181-8.181-8.181-4.519 0-8.182 3.663-8.182 8.181z"/></g><path d="M1125.195 8.182c-20.442 0-37.013 16.572-37.013 37.013v29.61c0 20.442 16.571 37.013 37.013 37.013h29.61c20.442 0 37.013-16.571 37.013-37.013v-29.61c0-20.441-16.571-37.013-37.013-37.013h-29.61z" fill="#ffad65" fill-rule="evenodd"/><g fill="#60361a"><path d="M1131.685 78.295672c0 4.5 3.723 8.148 8.315 8.148s8.315-3.648 8.315-8.148c0-4.499-3.723-8.148-8.315-8.148s-8.315 3.649-8.315 8.148z" fill-rule="evenodd"/><path d="M1115.455 51.022672c0 4.519 3.663 8.182 8.181 8.182 4.519 0 8.182-3.663 8.182-8.182 0-4.518-3.663-8.181-8.182-8.181-4.518 0-8.181 3.663-8.181 8.181zM1148.182 51.022672c0 4.519 3.663 8.182 8.182 8.182s8.181-3.663 8.181-8.182c0-4.518-3.662-8.181-8.181-8.181-4.519 0-8.182 3.663-8.182 8.181z"/></g><path d="M1245.195 8.182c-20.442 0-37.013 16.572-37.013 37.013v29.61c0 20.442 16.571 37.013 37.013 37.013h29.61c20.442 0 37.013-16.571 37.013-37.013v-29.61c0-20.441-16.571-37.013-37.013-37.013h-29.61z" fill="#ffad65" fill-rule="evenodd"/><g fill="#60361a"><path d="M1252.321 78.66417c0 4.022 3.438 7.282 7.679 7.282s7.679-3.26 7.679-7.282c0-4.021-3.438-7.282-7.679-7.282s-7.679 3.261-7.679 7.282z" fill-rule="evenodd"/><path d="M1235.455 51.39117c0 4.519 3.663 8.182 8.181 8.182 4.519 0 8.182-3.663 8.182-8.182 0-4.518-3.663-8.181-8.182-8.181-4.518 0-8.181 3.663-8.181 8.181zM1268.182 51.39117c0 4.519 3.663 8.182 8.182 8.182s8.181-3.663 8.181-8.182c0-4.518-3.662-8.181-8.181-8.181-4.519 0-8.182 3.663-8.182 8.181z"/></g><path d="M1365.195 8.182c-20.442 0-37.013 16.572-37.013 37.013v29.61c0 20.442 16.571 37.013 37.013 37.013h29.61c20.442 0 37.013-16.571 37.013-37.013v-29.61c0-20.441-16.571-37.013-37.013-37.013h-29.61z" fill="#ffad65" fill-rule="evenodd"/><g fill="#60361a"><path d="M1372.81 78.947343c0 3.655 3.219 6.617 7.19 6.617 3.971 0 7.19-2.962 7.19-6.617 0-3.654-3.219-6.617-7.19-6.617-3.971 0-7.19 2.963-7.19 6.617z" fill-rule="evenodd"/><path d="M1355.455 51.674343c0 4.519 3.663 8.182 8.181 8.182 4.519 0 8.182-3.663 8.182-8.182 0-4.518-3.663-8.181-8.182-8.181-4.518 0-8.181 3.663-8.181 8.181zM1388.182 51.674343c0 4.519 3.663 8.182 8.182 8.182s8.181-3.663 8.181-8.182c0-4.518-3.662-8.181-8.181-8.181-4.519 0-8.182 3.663-8.182 8.181z"/></g><path d="M1485.195 8.182c-20.442 0-37.013 16.572-37.013 37.013v29.61c0 20.442 16.571 37.013 37.013 37.013h29.61c20.442 0 37.013-16.571 37.013-37.013v-29.61c0-20.441-16.571-37.013-37.013-37.013h-29.61z" fill="#ffad65" fill-rule="evenodd"/><g fill="#60361a"><path d="M1493.185 79.164445c0 3.374 3.051 6.107 6.815 6.107 3.764 0 6.815-2.733 6.815-6.107 0-3.373-3.051-6.107-6.815-6.107-3.764 0-6.815 2.734-6.815 6.107z" fill-rule="evenodd"/><path d="M1475.455 51.891445c0 4.519 3.663 8.182 8.181 8.182 4.519 0 8.182-3.663 8.182-8.182 0-4.518-3.663-8.181-8.182-8.181-4.518 0-8.181 3.663-8.181 8.181zM1508.182 51.891445c0 4.519 3.663 8.182 8.182 8.182s8.181-3.663 8.181-8.182c0-4.518-3.662-8.181-8.181-8.181-4.519 0-8.182 3.663-8.182 8.181z"/></g><path d="M1605.195 8.182c-20.442 0-37.013 16.572-37.013 37.013v29.61c0 20.442 16.571 37.013 37.013 37.013h29.61c20.442 0 37.013-16.571 37.013-37.013v-29.61c0-20.441-16.571-37.013-37.013-37.013h-29.61z" fill="#ffad65" fill-rule="evenodd"/><g fill="#60361a"><path d="M1613.47 79.329104c0 3.16 2.923 5.721 6.53 5.721s6.53-2.561 6.53-5.721c0-3.159-2.923-5.721-6.53-5.721s-6.53 2.562-6.53 5.721z" fill-rule="evenodd"/><path d="M1595.455 52.056104c0 4.519 3.663 8.182 8.181 8.182 4.519 0 8.182-3.663 8.182-8.182 0-4.518-3.663-8.181-8.182-8.181-4.518 0-8.181 3.663-8.181 8.181zM1628.182 52.056104c0 4.519 3.663 8.182 8.182 8.182s8.181-3.663 8.181-8.182c0-4.518-3.662-8.181-8.181-8.181-4.519 0-8.182 3.663-8.182 8.181z"/></g><path d="M1725.195 8.182c-20.442 0-37.013 16.572-37.013 37.013v29.61c0 20.442 16.571 37.013 37.013 37.013h29.61c20.442 0 37.013-16.571 37.013-37.013v-29.61c0-20.441-16.571-37.013-37.013-37.013h-29.61z" fill="#ffad65" fill-rule="evenodd"/><g fill="#60361a"><path d="M1733.681 79.45117c0 3.002 2.829 5.434 6.319 5.434 3.49 0 6.319-2.432 6.319-5.434 0-3.001-2.829-5.434-6.319-5.434-3.49 0-6.319 2.433-6.319 5.434z" fill-rule="evenodd"/><path d="M1715.455 52.17817c0 4.519 3.663 8.182 8.181 8.182 4.519 0 8.182-3.663 8.182-8.182 0-4.518-3.663-8.181-8.182-8.181-4.518 0-8.181 3.663-8.181 8.181zM1748.182 52.17817c0 4.519 3.663 8.182 8.182 8.182s8.181-3.663 8.181-8.182c0-4.518-3.662-8.181-8.181-8.181-4.519 0-8.182 3.663-8.182 8.181z"/></g><path d="M1845.195 8.182c-20.442 0-37.013 16.572-37.013 37.013v29.61c0 20.442 16.571 37.013 37.013 37.013h29.61c20.442 0 37.013-16.571 37.013-37.013v-29.61c0-20.441-16.571-37.013-37.013-37.013h-29.61z" fill="#ffad65" fill-rule="evenodd"/><g fill="#60361a"><path d="M1853.831 79.537938c0 2.889 2.761 5.23 6.169 5.23 3.408 0 6.169-2.341 6.169-5.23 0-2.888-2.761-5.23-6.169-5.23-3.408 0-6.169 2.342-6.169 5.23z" fill-rule="evenodd"/><path d="M1835.455 52.264938c0 4.519 3.663 8.182 8.181 8.182 4.519 0 8.182-3.663 8.182-8.182 0-4.518-3.663-8.181-8.182-8.181-4.518 0-8.181 3.663-8.181 8.181zM1868.182 52.264938c0 4.519 3.663 8.182 8.182 8.182s8.181-3.663 8.181-8.182c0-4.518-3.662-8.181-8.181-8.181-4.519 0-8.182 3.663-8.182 8.181z"/></g><path d="M1965.195 8.182c-20.442 0-37.013 16.572-37.013 37.013v29.61c0 20.442 16.571 37.013 37.013 37.013h29.61c20.442 0 37.013-16.571 37.013-37.013v-29.61c0-20.441-16.571-37.013-37.013-37.013h-29.61z" fill="#ffad65" fill-rule="evenodd"/><g fill="#60361a"><path d="M1973.929 79.594949c0 2.815 2.718 5.096 6.071 5.096 3.353 0 6.071-2.281 6.071-5.096 0-2.814-2.718-5.096-6.071-5.096-3.353 0-6.071 2.282-6.071 5.096z" fill-rule="evenodd"/><path d="M1955.455 52.321949c0 4.519 3.663 8.182 8.181 8.182 4.519 0 8.182-3.663 8.182-8.182 0-4.518-3.663-8.181-8.182-8.181-4.518 0-8.181 3.663-8.181 8.181zM1988.182 52.321949c0 4.519 3.663 8.182 8.182 8.182s8.181-3.663 8.181-8.182c0-4.518-3.662-8.181-8.181-8.181-4.519 0-8.182 3.663-8.182 8.181z"/></g><path d="M2085.195 8.182c-20.442 0-37.013 16.572-37.013 37.013v29.61c0 20.442 16.571 37.013 37.013 37.013h29.61c20.442 0 37.013-16.571 37.013-37.013v-29.61c0-20.441-16.571-37.013-37.013-37.013h-29.61z" fill="#ffad65" fill-rule="evenodd"/><g fill="#60361a"><path d="M2093.984 79.6265c0 2.774 2.693 5.022 6.016 5.022s6.016-2.248 6.016-5.022c0-2.773-2.693-5.022-6.016-5.022s-6.016 2.249-6.016 5.022z" fill-rule="evenodd"/><path d="M2075.455 52.3535c0 4.519 3.663 8.182 8.181 8.182 4.519 0 8.182-3.663 8.182-8.182 0-4.518-3.663-8.181-8.182-8.181-4.518 0-8.181 3.663-8.181 8.181zM2108.182 52.3535c0 4.519 3.663 8.182 8.182 8.182s8.181-3.663 8.181-8.182c0-4.518-3.662-8.181-8.181-8.181-4.519 0-8.182 3.663-8.182 8.181z"/></g><path d="M2205.195 8.182c-20.442 0-37.013 16.572-37.013 37.013v29.61c0 20.442 16.571 37.013 37.013 37.013h29.61c20.442 0 37.013-16.571 37.013-37.013v-29.61c0-20.441-16.571-37.013-37.013-37.013h-29.61z" fill="#ffad65" fill-rule="evenodd"/><g fill="#60361a"><path d="M2214 79.636c0 2.762 2.686 5 6 5s6-2.238 6-5c0-2.761-2.686-5-6-5s-6 2.239-6 5z" fill-rule="evenodd"/><path d="M2195.455 52.363c0 4.519 3.663 8.182 8.181 8.182 4.519 0 8.182-3.663 8.182-8.182 0-4.518-3.663-8.181-8.182-8.181-4.518 0-8.181 3.663-8.181 8.181zM2228.182 52.363c0 4.519 3.663 8.182 8.182 8.182s8.181-3.663 8.181-8.182c0-4.518-3.662-8.181-8.181-8.181-4.519 0-8.182 3.663-8.182 8.181z"/></g><path d="M2325.195 8.182c-20.442 0-37.013 16.572-37.013 37.013v29.61c0 20.442 16.571 37.013 37.013 37.013h29.61c20.442 0 37.013-16.571 37.013-37.013v-29.61c0-20.441-16.571-37.013-37.013-37.013h-29.61z" fill="#ffad65" fill-rule="evenodd"/><g fill="#60361a"><path d="M2334 79.636c0 2.762 2.686 5 6 5s6-2.238 6-5c0-2.761-2.686-5-6-5s-6 2.239-6 5z" fill-rule="evenodd"/><path d="M2315.455 52.363c0 4.519 3.663 8.182 8.181 8.182 4.519 0 8.182-3.663 8.182-8.182 0-4.518-3.663-8.181-8.182-8.181-4.518 0-8.181 3.663-8.181 8.181zM2348.182 52.363c0 4.519 3.663 8.182 8.182 8.182s8.181-3.663 8.181-8.182c0-4.518-3.662-8.181-8.181-8.181-4.519 0-8.182 3.663-8.182 8.181z"/></g><path d="M2445.195 8.182c-20.442 0-37.013 16.572-37.013 37.013v29.61c0 20.442 16.571 37.013 37.013 37.013h29.61c20.442 0 37.013-16.571 37.013-37.013v-29.61c0-20.441-16.571-37.013-37.013-37.013h-29.61z" fill="#ffad65" fill-rule="evenodd"/><g fill="#60361a"><path d="M2454 79.636c0 2.762 2.686 5 6 5s6-2.238 6-5c0-2.761-2.686-5-6-5s-6 2.239-6 5z" fill-rule="evenodd"/><path d="M2435.455 52.363c0 4.519 3.663 8.182 8.181 8.182 4.519 0 8.182-3.663 8.182-8.182 0-4.518-3.663-8.181-8.182-8.181-4.518 0-8.181 3.663-8.181 8.181zM2468.182 52.363c0 4.519 3.663 8.182 8.182 8.182s8.181-3.663 8.181-8.182c0-4.518-3.662-8.181-8.181-8.181-4.519 0-8.182 3.663-8.182 8.181z"/></g><path d="M2565.195 8.182c-20.442 0-37.013 16.572-37.013 37.013v29.61c0 20.442 16.571 37.013 37.013 37.013h29.61c20.442 0 37.013-16.571 37.013-37.013v-29.61c0-20.441-16.571-37.013-37.013-37.013h-29.61z" fill="#ffad65" fill-rule="evenodd"/><g fill="#60361a"><path d="M2574 79.636c0 2.762 2.686 5 6 5s6-2.238 6-5c0-2.761-2.686-5-6-5s-6 2.239-6 5z" fill-rule="evenodd"/><path d="M2555.455 52.363c0 4.519 3.663 8.182 8.181 8.182 4.519 0 8.182-3.663 8.182-8.182 0-4.518-3.663-8.181-8.182-8.181-4.518 0-8.181 3.663-8.181 8.181zM2588.182 52.363c0 4.519 3.663 8.182 8.182 8.182s8.181-3.663 8.181-8.182c0-4.518-3.662-8.181-8.181-8.181-4.519 0-8.182 3.663-8.182 8.181z"/></g><path d="M2685.195 8.182c-20.442 0-37.013 16.572-37.013 37.013v29.61c0 20.442 16.571 37.013 37.013 37.013h29.61c20.442 0 37.013-16.571 37.013-37.013v-29.61c0-20.441-16.571-37.013-37.013-37.013h-29.61z" fill="#ffad65" fill-rule="evenodd"/><g fill="#60361a"><path d="M2694 79.636c0 2.762 2.686 5 6 5s6-2.238 6-5c0-2.761-2.686-5-6-5s-6 2.239-6 5z" fill-rule="evenodd"/><path d="M2675.455 52.363c0 4.519 3.663 8.182 8.181 8.182 4.519 0 8.182-3.663 8.182-8.182 0-4.518-3.663-8.181-8.182-8.181-4.518 0-8.181 3.663-8.181 8.181zM2708.182 52.363c0 4.519 3.663 8.182 8.182 8.182s8.181-3.663 8.181-8.182c0-4.518-3.662-8.181-8.181-8.181-4.519 0-8.182 3.663-8.182 8.181z"/></g><path d="M2805.195 8.182c-20.442 0-37.013 16.572-37.013 37.013v29.61c0 20.442 16.571 37.013 37.013 37.013h29.61c20.442 0 37.013-16.571 37.013-37.013v-29.61c0-20.441-16.571-37.013-37.013-37.013h-29.61z" fill="#ffad65" fill-rule="evenodd"/><g fill="#60361a"><path d="M2814 79.636c0 2.762 2.686 5 6 5s6-2.238 6-5c0-2.761-2.686-5-6-5s-6 2.239-6 5z" fill-rule="evenodd"/><path d="M2795.455 52.363c0 4.519 3.663 8.182 8.181 8.182 4.519 0 8.182-3.663 8.182-8.182 0-4.518-3.663-8.181-8.182-8.181-4.518 0-8.181 3.663-8.181 8.181zM2828.182 52.363c0 4.519 3.663 8.182 8.182 8.182s8.181-3.663 8.181-8.182c0-4.518-3.662-8.181-8.181-8.181-4.519 0-8.182 3.663-8.182 8.181z"/></g><path d="M2925.195 8.182c-20.442 0-37.013 16.572-37.013 37.013v29.61c0 20.442 16.571 37.013 37.013 37.013h29.61c20.442 0 37.013-16.571 37.013-37.013v-29.61c0-20.441-16.571-37.013-37.013-37.013h-29.61z" fill="#ffad65" fill-rule="evenodd"/><g fill="#60361a"><path d="M2934 79.636c0 2.762 2.686 5 6 5s6-2.238 6-5c0-2.761-2.686-5-6-5s-6 2.239-6 5z" fill-rule="evenodd"/><path d="M2915.455 52.363c0 4.519 3.663 8.182 8.181 8.182 4.519 0 8.182-3.663 8.182-8.182 0-4.518-3.663-8.181-8.182-8.181-4.518 0-8.181 3.663-8.181 8.181zM2948.182 52.363c0 4.519 3.663 8.182 8.182 8.182s8.181-3.663 8.181-8.182c0-4.518-3.662-8.181-8.181-8.181-4.519 0-8.182 3.663-8.182 8.181z"/></g><path d="M3045.195 8.182c-20.442 0-37.013 16.572-37.013 37.013v29.61c0 20.442 16.571 37.013 37.013 37.013h29.61c20.442 0 37.013-16.571 37.013-37.013v-29.61c0-20.441-16.571-37.013-37.013-37.013h-29.61z" fill="#ffad65" fill-rule="evenodd"/><g fill="#60361a"><path d="M3054 79.636c0 2.762 2.686 5 6 5s6-2.238 6-5c0-2.761-2.686-5-6-5s-6 2.239-6 5z" fill-rule="evenodd"/><path d="M3035.455 52.363c0 4.519 3.663 8.182 8.181 8.182 4.519 0 8.182-3.663 8.182-8.182 0-4.518-3.663-8.181-8.182-8.181-4.518 0-8.181 3.663-8.181 8.181zM3068.182 52.363c0 4.519 3.663 8.182 8.182 8.182s8.181-3.663 8.181-8.182c0-4.518-3.662-8.181-8.181-8.181-4.519 0-8.182 3.663-8.182 8.181z"/></g><path d="M3165.195 8.182c-20.442 0-37.013 16.572-37.013 37.013v29.61c0 20.442 16.571 37.013 37.013 37.013h29.61c20.442 0 37.013-16.571 37.013-37.013v-29.61c0-20.441-16.571-37.013-37.013-37.013h-29.61z" fill="#ffad65" fill-rule="evenodd"/><g fill="#60361a"><path d="M3173.975 79.609179c0 2.777 2.697 5.027 6.025 5.027 3.328 0 6.025-2.25 6.025-5.027 0-2.776-2.697-5.027-6.025-5.027-3.328 0-6.025 2.251-6.025 5.027z" fill-rule="evenodd"/><path d="M3155.452 52.327797c0 4.52 3.665 8.185 8.184 8.185 4.52 0 8.185-3.665 8.185-8.185 0-4.519-3.665-8.184-8.185-8.184-4.519 0-8.184 3.665-8.184 8.184zM3188.179 52.327797c0 4.52 3.665 8.185 8.185 8.185 4.52 0 8.184-3.665 8.184-8.185 0-4.519-3.664-8.184-8.184-8.184s-8.185 3.665-8.185 8.184z"/></g><path d="M3285.195 8.182c-20.442 0-37.013 16.572-37.013 37.013v29.61c0 20.442 16.571 37.013 37.013 37.013h29.61c20.442 0 37.013-16.571 37.013-37.013v-29.61c0-20.441-16.571-37.013-37.013-37.013h-29.61z" fill="#ffad65" fill-rule="evenodd"/><g fill="#60361a"><path d="M3293.722 79.363693c0 2.924 2.811 5.294 6.278 5.294 3.467 0 6.278-2.37 6.278-5.294 0-2.923-2.811-5.294-6.278-5.294-3.467 0-6.278 2.371-6.278 5.294z" fill-rule="evenodd"/><path d="M3275.425 52.005597c0 4.535 3.677 8.212 8.211 8.212 4.535 0 8.212-3.677 8.212-8.212 0-4.534-3.677-8.211-8.212-8.211-4.534 0-8.211 3.677-8.211 8.211zM3308.152 52.005597c0 4.535 3.677 8.212 8.212 8.212s8.211-3.677 8.211-8.212c0-4.534-3.676-8.211-8.211-8.211s-8.212 3.677-8.212 8.211z"/></g><path d="M3405.195 8.182c-20.442 0-37.013 16.572-37.013 37.013v29.61c0 20.442 16.571 37.013 37.013 37.013h29.61c20.442 0 37.013-16.571 37.013-37.013v-29.61c0-20.441-16.571-37.013-37.013-37.013h-29.61z" fill="#ffad65" fill-rule="evenodd"/><g fill="#60361a"><path d="M3413.103 78.770385c0 3.287 3.087 5.95 6.897 5.95s6.897-2.663 6.897-5.95c0-3.286-3.087-5.95-6.897-5.95s-6.897 2.664-6.897 5.95z" fill-rule="evenodd"/><path d="M3395.359 51.22688c0 4.572 3.706 8.278 8.277 8.278 4.572 0 8.278-3.706 8.278-8.278 0-4.571-3.706-8.277-8.278-8.277-4.571 0-8.277 3.706-8.277 8.277zM3428.086 51.22688c0 4.572 3.706 8.278 8.278 8.278 4.572 0 8.277-3.706 8.277-8.278 0-4.571-3.705-8.277-8.277-8.277-4.572 0-8.278 3.706-8.278 8.277z"/></g><path d="M3525.195 8.182c-20.442 0-37.013 16.572-37.013 37.013v29.61c0 20.442 16.571 37.013 37.013 37.013h29.61c20.442 0 37.013-16.571 37.013-37.013v-29.61c0-20.441-16.571-37.013-37.013-37.013h-29.61z" fill="#ffad65" fill-rule="evenodd"/><g fill="#60361a"><path d="M3531.95 77.673026c0 3.96 3.604 7.17 8.05 7.17 4.446 0 8.05-3.21 8.05-7.17 0-3.959-3.604-7.17-8.05-7.17-4.446 0-8.05 3.211-8.05 7.17z" fill-rule="evenodd"/><path d="M3515.236 49.786596c0 4.64 3.761 8.401 8.4 8.401 4.64 0 8.401-3.761 8.401-8.401 0-4.639-3.761-8.4-8.401-8.4-4.639 0-8.4 3.761-8.4 8.4zM3547.963 49.786596c0 4.64 3.761 8.401 8.401 8.401s8.4-3.761 8.4-8.401c0-4.639-3.76-8.4-8.4-8.4-4.64 0-8.401 3.761-8.401 8.4z"/></g><path d="M3645.195 8.182c-20.442 0-37.013 16.572-37.013 37.013v29.61c0 20.442 16.571 37.013 37.013 37.013h29.61c20.442 0 37.013-16.571 37.013-37.013v-29.61c0-20.441-16.571-37.013-37.013-37.013h-29.61z" fill="#ffad65" fill-rule="evenodd"/><g fill="#60361a"><path d="M3650.095 75.91377c0 5.045 4.435 9.134 9.905 9.134s9.905-4.089 9.905-9.134c0-5.044-4.435-9.134-9.905-9.134s-9.905 4.09-9.905 9.134z" fill-rule="evenodd"/><path d="M3635.037 47.477572c0 4.75 3.85 8.6 8.599 8.6 4.75 0 8.6-3.85 8.6-8.6 0-4.749-3.85-8.599-8.6-8.599-4.749 0-8.599 3.85-8.599 8.599zM3667.764 47.477572c0 4.75 3.85 8.6 8.6 8.6s8.599-3.85 8.599-8.6c0-4.749-3.849-8.599-8.599-8.599s-8.6 3.85-8.6 8.599z"/></g><path d="M3765.195 8.182c-20.442 0-37.013 16.572-37.013 37.013v29.61c0 20.442 16.571 37.013 37.013 37.013h29.61c20.442 0 37.013-16.571 37.013-37.013v-29.61c0-20.441-16.571-37.013-37.013-37.013h-29.61z" fill="#ffad65" fill-rule="evenodd"/><g fill="#60361a"><path d="M3767.645 73.604739c0 6.478 5.532 11.728 12.355 11.728s12.355-5.25 12.355-11.728c0-6.477-5.532-11.728-12.355-11.728s-12.355 5.251-12.355 11.728z" fill-rule="evenodd"/><path d="M3754.775 44.44697c0 4.894 3.968 8.862 8.861 8.862 4.894 0 8.862-3.968 8.862-8.862 0-4.893-3.968-8.861-8.862-8.861-4.893 0-8.861 3.968-8.861 8.861zM3787.502 44.44697c0 4.894 3.968 8.862 8.862 8.862s8.861-3.968 8.861-8.862c0-4.893-3.967-8.861-8.861-8.861s-8.862 3.968-8.862 8.861z"/></g><path d="M3885.195 8.182c-20.442 0-37.013 16.572-37.013 37.013v29.61c0 20.442 16.571 37.013 37.013 37.013h29.61c20.442 0 37.013-16.571 37.013-37.013v-29.61c0-20.441-16.571-37.013-37.013-37.013h-29.61z" fill="#ffad65" fill-rule="evenodd"/><g fill="#60361a"><path d="M3885.179 71.292417c0 7.92 6.636 14.34 14.821 14.34 8.185 0 14.821-6.42 14.821-14.34 0-7.919-6.636-14.34-14.821-14.34-8.185 0-14.821 6.421-14.821 14.34z" fill-rule="evenodd"/><path d="M3874.511 41.412048c0 5.04 4.086 9.126 9.125 9.126 5.04 0 9.125-4.086 9.125-9.126 0-5.039-4.085-9.124-9.125-9.124-5.039 0-9.125 4.085-9.125 9.124zM3907.239 41.412048c0 5.04 4.085 9.126 9.125 9.126s9.125-4.086 9.125-9.126c0-5.039-4.085-9.124-9.125-9.124s-9.125 4.085-9.125 9.124z"/></g><path d="M4005.195 8.182c-20.442 0-37.013 16.572-37.013 37.013v29.61c0 20.442 16.571 37.013 37.013 37.013h29.61c20.442 0 37.013-16.571 37.013-37.013v-29.61c0-20.441-16.571-37.013-37.013-37.013h-29.61z" fill="#ffad65" fill-rule="evenodd"/><g fill="#60361a"><path d="M4003.134 69.379757c0 9.116 7.552 16.505 16.866 16.505s16.866-7.389 16.866-16.505c0-9.115-7.552-16.505-16.866-16.505s-16.866 7.39-16.866 16.505z" fill-rule="evenodd"/><path d="M3994.292 38.90168c0 5.161 4.184 9.345 9.344 9.345 5.161 0 9.344-4.184 9.344-9.345 0-5.16-4.183-9.343-9.344-9.343-5.16 0-9.344 4.183-9.344 9.343zM4027.02 38.90168c0 5.161 4.183 9.345 9.344 9.345s9.344-4.184 9.344-9.345c0-5.16-4.183-9.343-9.344-9.343s-9.344 4.183-9.344 9.343z"/></g><path d="M4125.195 8.182c-20.442 0-37.013 16.572-37.013 37.013v29.61c0 20.442 16.571 37.013 37.013 37.013h29.61c20.442 0 37.013-16.571 37.013-37.013v-29.61c0-20.441-16.571-37.013-37.013-37.013h-29.61z" fill="#ffad65" fill-rule="evenodd"/><g fill="#60361a"><path d="M4121.552 67.899335c0 10.041 8.26 18.181 18.448 18.181s18.448-8.14 18.448-18.181c0-10.04-8.26-18.181-18.448-18.181s-18.448 8.141-18.448 18.181z" fill-rule="evenodd"/><path d="M4114.123 36.958627c0 5.254 4.26 9.514 9.513 9.514 5.254 0 9.513-4.26 9.513-9.514 0-5.253-4.259-9.512-9.513-9.512-5.253 0-9.513 4.259-9.513 9.512zM4146.851 36.958627c0 5.254 4.259 9.514 9.513 9.514s9.513-4.26 9.513-9.514c0-5.253-4.259-9.512-9.513-9.512s-9.513 4.259-9.513 9.512z"/></g><path d="M4245.195 8.182c-20.442 0-37.013 16.572-37.013 37.013v29.61c0 20.442 16.571 37.013 37.013 37.013h29.61c20.442 0 37.013-16.571 37.013-37.013v-29.61c0-20.441-16.571-37.013-37.013-37.013h-29.61z" fill="#ffad65" fill-rule="evenodd"/><g fill="#60361a"><path d="M4240.339 66.764324c0 10.751 8.803 19.465 19.661 19.465s19.661-8.714 19.661-19.465c0-10.75-8.803-19.465-19.661-19.465s-19.661 8.715-19.661 19.465z" fill-rule="evenodd"/><path d="M4233.993 35.468925c0 5.326 4.318 9.644 9.643 9.644 5.326 0 9.643-4.318 9.643-9.644 0-5.325-4.317-9.642-9.643-9.642-5.325 0-9.643 4.317-9.643 9.642zM4266.721 35.468925c0 5.326 4.317 9.644 9.643 9.644 5.326 0 9.643-4.318 9.643-9.644 0-5.325-4.317-9.642-9.643-9.642-5.326 0-9.643 4.317-9.643 9.642z"/></g><path d="M4365.195 8.182c-20.442 0-37.013 16.572-37.013 37.013v29.61c0 20.442 16.571 37.013 37.013 37.013h29.61c20.442 0 37.013-16.571 37.013-37.013v-29.61c0-20.441-16.571-37.013-37.013-37.013h-29.61z" fill="#ffad65" fill-rule="evenodd"/><g fill="#60361a"><path d="M4359.407 65.89138c0 11.296 9.22 20.452 20.593 20.452s20.593-9.156 20.593-20.452c0-11.295-9.22-20.452-20.593-20.452s-20.593 9.157-20.593 20.452z" fill-rule="evenodd"/><path d="M4353.894 34.323186c0 5.381 4.362 9.743 9.742 9.743 5.381 0 9.743-4.362 9.743-9.743 0-5.38-4.362-9.742-9.743-9.742-5.38 0-9.742 4.362-9.742 9.742zM4386.621 34.323186c0 5.381 4.362 9.743 9.743 9.743s9.742-4.362 9.742-9.743c0-5.38-4.361-9.742-9.742-9.742-5.381 0-9.743 4.362-9.743 9.742z"/></g><path d="M4485.195 8.182c-20.442 0-37.013 16.572-37.013 37.013v29.61c0 20.442 16.571 37.013 37.013 37.013h29.61c20.442 0 37.013-16.571 37.013-37.013v-29.61c0-20.441-16.571-37.013-37.013-37.013h-29.61z" fill="#ffad65" fill-rule="evenodd"/><g fill="#60361a"><path d="M4478.689 65.219164c0 11.715 9.542 21.212 21.311 21.212s21.311-9.497 21.311-21.212c0-11.714-9.542-21.212-21.311-21.212s-21.311 9.498-21.311 21.212z" fill-rule="evenodd"/><path d="M4473.817 33.440903c0 5.423 4.397 9.82 9.819 9.82 5.423 0 9.819-4.397 9.819-9.82 0-5.422-4.396-9.818-9.819-9.818-5.422 0-9.819 4.396-9.819 9.818zM4506.545 33.440903c0 5.423 4.396 9.82 9.819 9.82 5.423 0 9.819-4.397 9.819-9.82 0-5.422-4.396-9.818-9.819-9.818-5.423 0-9.819 4.396-9.819 9.818z"/></g><path d="M4605.195 8.182c-20.442 0-37.013 16.572-37.013 37.013v29.61c0 20.442 16.571 37.013 37.013 37.013h29.61c20.442 0 37.013-16.571 37.013-37.013v-29.61c0-20.441-16.571-37.013-37.013-37.013h-29.61z" fill="#ffad65" fill-rule="evenodd"/><g fill="#60361a"><path d="M4598.139 64.704285c0 12.037 9.788 21.793 21.861 21.793s21.861-9.756 21.861-21.793c0-12.036-9.788-21.793-21.861-21.793s-21.861 9.757-21.861 21.793z" fill-rule="evenodd"/><path d="M4593.758 32.765124c0 5.456 4.423 9.879 9.878 9.879 5.456 0 9.878-4.423 9.878-9.879 0-5.455-4.422-9.877-9.878-9.877-5.455 0-9.878 4.422-9.878 9.877zM4626.486 32.765124c0 5.456 4.422 9.879 9.878 9.879s9.878-4.423 9.878-9.879c0-5.455-4.422-9.877-9.878-9.877s-9.878 4.422-9.878 9.877z"/></g><path d="M4725.195 8.182c-20.442 0-37.013 16.572-37.013 37.013v29.61c0 20.442 16.571 37.013 37.013 37.013h29.61c20.442 0 37.013-16.571 37.013-37.013v-29.61c0-20.441-16.571-37.013-37.013-37.013h-29.61z" fill="#ffad65" fill-rule="evenodd"/><g fill="#60361a"><path d="M4717.725 64.315718c0 12.279 9.973 22.232 22.275 22.232 12.302 0 22.275-9.953 22.275-22.232 0-12.278-9.973-22.232-22.275-22.232-12.302 0-22.275 9.954-22.275 22.232z" fill-rule="evenodd"/><path d="M4713.714 32.25513c0 5.48 4.443 9.923 9.922 9.923 5.48 0 9.922-4.443 9.922-9.923 0-5.479-4.442-9.921-9.922-9.921-5.479 0-9.922 4.442-9.922 9.921zM4746.442 32.25513c0 5.48 4.442 9.923 9.922 9.923s9.922-4.443 9.922-9.923c0-5.479-4.442-9.921-9.922-9.921s-9.922 4.442-9.922 9.921z"/></g><path d="M4845.195 8.182c-20.442 0-37.013 16.572-37.013 37.013v29.61c0 20.442 16.571 37.013 37.013 37.013h29.61c20.442 0 37.013-16.571 37.013-37.013v-29.61c0-20.441-16.571-37.013-37.013-37.013h-29.61z" fill="#ffad65" fill-rule="evenodd"/><g fill="#60361a"><path d="M4837.421 64.030762c0 12.457 10.109 22.554 22.579 22.554s22.579-10.097 22.579-22.554c0-12.456-10.109-22.554-22.579-22.554s-22.579 10.098-22.579 22.554z" fill-rule="evenodd"/><path d="M4833.681 31.881125c0 5.498 4.458 9.956 9.955 9.956 5.498 0 9.955-4.458 9.955-9.956 0-5.497-4.457-9.954-9.955-9.954-5.497 0-9.955 4.457-9.955 9.954zM4866.409 31.881125c0 5.498 4.457 9.956 9.955 9.956s9.955-4.458 9.955-9.956c0-5.497-4.457-9.954-9.955-9.954s-9.955 4.457-9.955 9.954z"/></g><path d="M4965.195 8.182c-20.442 0-37.013 16.572-37.013 37.013v29.61c0 20.442 16.571 37.013 37.013 37.013h29.61c20.442 0 37.013-16.571 37.013-37.013v-29.61c0-20.441-16.571-37.013-37.013-37.013h-29.61z" fill="#ffad65" fill-rule="evenodd"/><g fill="#60361a"><path d="M4957.209 63.832397c0 12.581 10.205 22.778 22.791 22.778s22.791-10.197 22.791-22.778c0-12.58-10.205-22.778-22.791-22.778s-22.791 10.198-22.791 22.778z" fill-rule="evenodd"/><path d="M4953.658 31.620772c0 5.511 4.468 9.979 9.978 9.979 5.511 0 9.978-4.468 9.978-9.979 0-5.51-4.467-9.977-9.978-9.977-5.51 0-9.978 4.467-9.978 9.977zM4986.386 31.620772c0 5.511 4.467 9.979 9.978 9.979s9.978-4.468 9.978-9.979c0-5.51-4.467-9.977-9.978-9.977s-9.978 4.467-9.978 9.977z"/></g><path d="M5085.195 8.182c-20.442 0-37.013 16.572-37.013 37.013v29.61c0 20.442 16.571 37.013 37.013 37.013h29.61c20.442 0 37.013-16.571 37.013-37.013v-29.61c0-20.441-16.571-37.013-37.013-37.013h-29.61z" fill="#ffad65" fill-rule="evenodd"/><g fill="#60361a"><path d="M5077.076 63.707561c0 12.658 10.264 22.919 22.924 22.919s22.924-10.261 22.924-22.919c0-12.657-10.264-22.919-22.924-22.919s-22.924 10.262-22.924 22.919z" fill-rule="evenodd"/><path d="M5073.644 31.456924c0 5.518 4.475 9.993 9.992 9.993 5.518 0 9.992-4.475 9.992-9.993 0-5.517-4.474-9.991-9.992-9.991-5.517 0-9.992 4.474-9.992 9.991zM5106.372 31.456924c0 5.518 4.474 9.993 9.992 9.993 5.518 0 9.992-4.475 9.992-9.993 0-5.517-4.474-9.991-9.992-9.991-5.518 0-9.992 4.474-9.992 9.991z"/></g><path d="M5205.195 8.182c-20.442 0-37.013 16.572-37.013 37.013v29.61c0 20.442 16.571 37.013 37.013 37.013h29.61c20.442 0 37.013-16.571 37.013-37.013v-29.61c0-20.441-16.571-37.013-37.013-37.013h-29.61z" fill="#ffad65" fill-rule="evenodd"/><g fill="#60361a"><path d="M5197.011 63.64602c0 12.697 10.293 22.989 22.989 22.989 12.696 0 22.989-10.292 22.989-22.989 0-12.696-10.293-22.989-22.989-22.989-12.696 0-22.989 10.293-22.989 22.989z" fill-rule="evenodd"/><path d="M5193.637 31.37615c0 5.522 4.478 10 9.999 10 5.522 0 9.999-4.478 9.999-10 0-5.521-4.477-9.998-9.999-9.998-5.521 0-9.999 4.477-9.999 9.998zM5226.365 31.37615c0 5.522 4.477 10 9.999 10s9.999-4.478 9.999-10c0-5.521-4.477-9.998-9.999-9.998s-9.999 4.477-9.999 9.998z"/></g><path d="M5325.195 8.182c-20.442 0-37.013 16.572-37.013 37.013v29.61c0 20.442 16.571 37.013 37.013 37.013h29.61c20.442 0 37.013-16.571 37.013-37.013v-29.61c0-20.441-16.571-37.013-37.013-37.013h-29.61z" fill="#ffad65" fill-rule="evenodd"/><g fill="#60361a"><path d="M5317 63.636c0 12.703 10.298 23 23 23s23-10.297 23-23c0-12.702-10.298-23-23-23s-23 10.298-23 23z" fill-rule="evenodd"/><path d="M5313.969 31.363c0 4.41 4.329 7.985 9.667 7.985 5.339 0 9.667-3.575 9.667-7.985 0-4.409-4.328-7.983-9.667-7.983-5.338 0-9.667 3.574-9.667 7.983zM5346.697 31.363c0 4.41 4.328 7.985 9.667 7.985 5.339 0 9.667-3.575 9.667-7.985 0-4.409-4.328-7.983-9.667-7.983-5.339 0-9.667 3.574-9.667 7.983z"/></g><path d="M5445.195 8.182c-20.442 0-37.013 16.572-37.013 37.013v29.61c0 20.442 16.571 37.013 37.013 37.013h29.61c20.442 0 37.013-16.571 37.013-37.013v-29.61c0-20.441-16.571-37.013-37.013-37.013h-29.61z" fill="#ffad65" fill-rule="evenodd"/><g fill="#60361a"><path d="M5437 63.636c0 12.703 10.298 23 23 23s23-10.297 23-23c0-12.702-10.298-23-23-23s-23 10.298-23 23z" fill-rule="evenodd"/><path d="M5435.42 31.364c0-.436 3.679-.788 8.216-.788 4.538 0 8.217.352 8.217.788 0 .435-3.679.788-8.217.788-4.537 0-8.216-.353-8.216-.788zM5468.147 31.364c0-.436 3.679-.788 8.217-.788s8.216.352 8.216.788c0 .435-3.678.788-8.216.788-4.538 0-8.217-.353-8.217-.788z"/></g><g><path d="M5565.195 8.182c-20.442 0-37.013 16.572-37.013 37.013v29.61c0 20.442 16.571 37.013 37.013 37.013h29.61c20.442 0 37.013-16.571 37.013-37.013v-29.61c0-20.441-16.571-37.013-37.013-37.013h-29.61z" fill="#ffad65" fill-rule="evenodd"/><g fill="#60361a"><path d="M5557 63.636c0 12.703 10.298 23 23 23s23-10.297 23-23c0-12.702-10.298-23-23-23s-23 10.298-23 23z" fill-rule="evenodd"/><path d="M5555.455 31.364c0 .594 3.663 1.077 8.181 1.077 4.519 0 8.182-.483 8.182-1.077 0-.595-3.663-1.077-8.182-1.077-4.518 0-8.181.482-8.181 1.077zM5588.182 31.364c0 .594 3.663 1.077 8.182 1.077s8.181-.483 8.181-1.077c0-.595-3.662-1.077-8.181-1.077-4.519 0-8.182.482-8.182 1.077z"/></g></g><g><path d="M5685.195 8.182c-20.442 0-37.013 16.572-37.013 37.013v29.61c0 20.442 16.571 37.013 37.013 37.013h29.61c20.442 0 37.013-16.571 37.013-37.013v-29.61c0-20.441-16.571-37.013-37.013-37.013h-29.61z" fill="#ffad65" fill-rule="evenodd"/><g fill="#60361a"><path d="M5677 63.636c0 12.703 10.298 23 23 23s23-10.297 23-23c0-12.702-10.298-23-23-23s-23 10.298-23 23z" fill-rule="evenodd"/><path d="M5675.455 31.363c0 3.876 3.663 7.018 8.181 7.018 4.519 0 8.182-3.142 8.182-7.018 0-3.875-3.663-7.017-8.182-7.017-4.518 0-8.181 3.142-8.181 7.017zM5708.182 31.363c0 3.876 3.663 7.018 8.182 7.018s8.181-3.142 8.181-7.018c0-3.875-3.662-7.017-8.181-7.017-4.519 0-8.182 3.142-8.182 7.017z"/></g></g><g><path d="M5805.195 8.182c-20.442 0-37.013 16.572-37.013 37.013v29.61c0 20.442 16.571 37.013 37.013 37.013h29.61c20.442 0 37.013-16.571 37.013-37.013v-29.61c0-20.441-16.571-37.013-37.013-37.013h-29.61z" fill="#ffad65" fill-rule="evenodd"/><g fill="#60361a"><path d="M5797 63.636c0 12.703 10.298 23 23 23s23-10.297 23-23c0-12.702-10.298-23-23-23s-23 10.298-23 23z" fill-rule="evenodd"/><path d="M5795.455 31.363c0 4.511 3.663 8.168 8.181 8.168 4.519 0 8.182-3.657 8.182-8.168 0-4.51-3.663-8.167-8.182-8.167-4.518 0-8.181 3.657-8.181 8.167zM5828.182 31.363c0 4.511 3.663 8.168 8.182 8.168s8.181-3.657 8.181-8.168c0-4.51-3.662-8.167-8.181-8.167-4.519 0-8.182 3.657-8.182 8.167z"/></g></g><g><path d="M5925.195 8.182c-20.442 0-37.013 16.572-37.013 37.013v29.61c0 20.442 16.571 37.013 37.013 37.013h29.61c20.442 0 37.013-16.571 37.013-37.013v-29.61c0-20.441-16.571-37.013-37.013-37.013h-29.61z" fill="#ffad65" fill-rule="evenodd"/><g fill="#60361a"><path d="M5917 63.636c0 12.703 10.298 23 23 23s23-10.297 23-23c0-12.702-10.298-23-23-23s-23 10.298-23 23z" fill-rule="evenodd"/><path d="M5915.06 31.364c0 .765 3.84 1.387 8.576 1.387 4.737 0 8.577-.622 8.577-1.387 0-.766-3.84-1.387-8.577-1.387-4.736 0-8.576.621-8.576 1.387zM5947.787 31.364c0 .765 3.84 1.387 8.577 1.387s8.576-.622 8.576-1.387c0-.766-3.839-1.387-8.576-1.387s-8.577.621-8.577 1.387z"/></g></g><g><path d="M6045.195 8.182c-20.442 0-37.013 16.572-37.013 37.013v29.61c0 20.442 16.571 37.013 37.013 37.013h29.61c20.442 0 37.013-16.571 37.013-37.013v-29.61c0-20.441-16.571-37.013-37.013-37.013h-29.61z" fill="#ffad65" fill-rule="evenodd"/><g fill="#60361a"><path d="M6037 63.636c0 12.703 10.298 23 23 23s23-10.297 23-23c0-12.702-10.298-23-23-23s-23 10.298-23 23z" fill-rule="evenodd"/><path d="M6035.455 31.364c0-.51 3.663-.923 8.181-.923 4.519 0 8.182.413 8.182.923 0 .509-3.663.923-8.182.923-4.518 0-8.181-.414-8.181-.923zM6068.182 31.364c0-.51 3.663-.923 8.182-.923s8.181.413 8.181.923c0 .509-3.662.923-8.181.923-4.519 0-8.182-.414-8.182-.923z"/></g></g><g><path d="M6165.195 8.182c-20.442 0-37.013 16.572-37.013 37.013v29.61c0 20.442 16.571 37.013 37.013 37.013h29.61c20.442 0 37.013-16.571 37.013-37.013v-29.61c0-20.441-16.571-37.013-37.013-37.013h-29.61z" fill="#ffad65" fill-rule="evenodd"/><g fill="#60361a"><path d="M6157 63.636c0 12.703 10.298 23 23 23s23-10.297 23-23c0-12.702-10.298-23-23-23s-23 10.298-23 23z" fill-rule="evenodd"/><path d="M6155.455 31.363c0 2.666 3.663 4.826 8.181 4.826 4.519 0 8.182-2.16 8.182-4.826 0-2.665-3.663-4.825-8.182-4.825-4.518 0-8.181 2.16-8.181 4.825zM6188.182 31.363c0 2.666 3.663 4.826 8.182 4.826s8.181-2.16 8.181-4.826c0-2.665-3.662-4.825-8.181-4.825-4.519 0-8.182 2.16-8.182 4.825z"/></g></g><g><path d="M6285.195 8.182c-20.442 0-37.013 16.572-37.013 37.013v29.61c0 20.442 16.571 37.013 37.013 37.013h29.61c20.442 0 37.013-16.571 37.013-37.013v-29.61c0-20.441-16.571-37.013-37.013-37.013h-29.61z" fill="#ffad65" fill-rule="evenodd"/><g fill="#60361a"><path d="M6277 63.636c0 12.703 10.298 23 23 23s23-10.297 23-23c0-12.702-10.298-23-23-23s-23 10.298-23 23z" fill-rule="evenodd"/><path d="M6275.455 31.363c0 4.334 3.663 7.846 8.181 7.846 4.519 0 8.182-3.512 8.182-7.846 0-4.333-3.663-7.845-8.182-7.845-4.518 0-8.181 3.512-8.181 7.845zM6308.182 31.363c0 4.334 3.663 7.846 8.182 7.846s8.181-3.512 8.181-7.846c0-4.333-3.662-7.845-8.181-7.845-4.519 0-8.182 3.512-8.182 7.845z"/></g></g><g><path d="M6405.195 8.182c-20.442 0-37.013 16.572-37.013 37.013v29.61c0 20.442 16.571 37.013 37.013 37.013h29.61c20.442 0 37.013-16.571 37.013-37.013v-29.61c0-20.441-16.571-37.013-37.013-37.013h-29.61z" fill="#ffad65" fill-rule="evenodd"/><g fill="#60361a"><path d="M6397 63.636c0 12.703 10.298 23 23 23s23-10.297 23-23c0-12.702-10.298-23-23-23s-23 10.298-23 23z" fill-rule="evenodd"/><path d="M6395.455 31.363c0 4.519 3.663 8.182 8.181 8.182 4.519 0 8.182-3.663 8.182-8.182 0-4.518-3.663-8.181-8.182-8.181-4.518 0-8.181 3.663-8.181 8.181zM6428.182 31.363c0 4.519 3.663 8.182 8.182 8.182s8.181-3.663 8.181-8.182c0-4.518-3.662-8.181-8.181-8.181-4.519 0-8.182 3.663-8.182 8.181z"/></g></g><g><path d="M6525.195 8.182c-20.442 0-37.013 16.572-37.013 37.013v29.61c0 20.442 16.571 37.013 37.013 37.013h29.61c20.442 0 37.013-16.571 37.013-37.013v-29.61c0-20.441-16.571-37.013-37.013-37.013h-29.61z" fill="#ffad65" fill-rule="evenodd"/><g fill="#60361a"><path d="M6517 63.636c0 12.703 10.298 23 23 23s23-10.297 23-23c0-12.702-10.298-23-23-23s-23 10.298-23 23z" fill-rule="evenodd"/><path d="M6515.455 31.363c0 4.519 3.663 8.182 8.181 8.182 4.519 0 8.182-3.663 8.182-8.182 0-4.518-3.663-8.181-8.182-8.181-4.518 0-8.181 3.663-8.181 8.181zM6548.182 31.363c0 4.519 3.663 8.182 8.182 8.182s8.181-3.663 8.181-8.182c0-4.518-3.662-8.181-8.181-8.181-4.519 0-8.182 3.663-8.182 8.181z"/></g></g><g><path d="M6645.195 8.182c-20.442 0-37.013 16.572-37.013 37.013v29.61c0 20.442 16.571 37.013 37.013 37.013h29.61c20.442 0 37.013-16.571 37.013-37.013v-29.61c0-20.441-16.571-37.013-37.013-37.013h-29.61z" fill="#ffad65" fill-rule="evenodd"/><g fill="#60361a"><path d="M6637 63.636c0 12.703 10.298 23 23 23s23-10.297 23-23c0-12.702-10.298-23-23-23s-23 10.298-23 23z" fill-rule="evenodd"/><path d="M6635.455 31.363c0 4.519 3.663 8.182 8.181 8.182 4.519 0 8.182-3.663 8.182-8.182 0-4.518-3.663-8.181-8.182-8.181-4.518 0-8.181 3.663-8.181 8.181zM6668.182 31.363c0 4.519 3.663 8.182 8.182 8.182s8.181-3.663 8.181-8.182c0-4.518-3.662-8.181-8.181-8.181-4.519 0-8.182 3.663-8.182 8.181z"/></g></g><g><path d="M6765.195 8.182c-20.442 0-37.013 16.572-37.013 37.013v29.61c0 20.442 16.571 37.013 37.013 37.013h29.61c20.442 0 37.013-16.571 37.013-37.013v-29.61c0-20.441-16.571-37.013-37.013-37.013h-29.61z" fill="#ffad65" fill-rule="evenodd"/><g fill="#60361a"><path d="M6757 63.636c0 12.703 10.298 23 23 23s23-10.297 23-23c0-12.702-10.298-23-23-23s-23 10.298-23 23z" fill-rule="evenodd"/><path d="M6755.455 31.363c0 4.519 3.663 8.182 8.181 8.182 4.519 0 8.182-3.663 8.182-8.182 0-4.518-3.663-8.181-8.182-8.181-4.518 0-8.181 3.663-8.181 8.181zM6788.182 31.363c0 4.519 3.663 8.182 8.182 8.182s8.181-3.663 8.181-8.182c0-4.518-3.662-8.181-8.181-8.181-4.519 0-8.182 3.663-8.182 8.181z"/></g></g><g><path d="M6885.195 8.182c-20.442 0-37.013 16.572-37.013 37.013v29.61c0 20.442 16.571 37.013 37.013 37.013h29.61c20.442 0 37.013-16.571 37.013-37.013v-29.61c0-20.441-16.571-37.013-37.013-37.013h-29.61z" fill="#ffad65" fill-rule="evenodd"/><g fill="#60361a"><path d="M6877 63.636c0 12.703 10.298 23 23 23s23-10.297 23-23c0-12.702-10.298-23-23-23s-23 10.298-23 23z" fill-rule="evenodd"/><path d="M6875.455 31.363c0 4.519 3.663 8.182 8.181 8.182 4.519 0 8.182-3.663 8.182-8.182 0-4.518-3.663-8.181-8.182-8.181-4.518 0-8.181 3.663-8.181 8.181zM6908.182 31.363c0 4.519 3.663 8.182 8.182 8.182s8.181-3.663 8.181-8.182c0-4.518-3.662-8.181-8.181-8.181-4.519 0-8.182 3.663-8.182 8.181z"/></g></g><g><path d="M7005.195 8.182c-20.442 0-37.013 16.572-37.013 37.013v29.61c0 20.442 16.571 37.013 37.013 37.013h29.61c20.442 0 37.013-16.571 37.013-37.013v-29.61c0-20.441-16.571-37.013-37.013-37.013h-29.61z" fill="#ffad65" fill-rule="evenodd"/><g fill="#60361a"><path d="M6997 63.636c0 12.703 10.298 23 23 23s23-10.297 23-23c0-12.702-10.298-23-23-23s-23 10.298-23 23z" fill-rule="evenodd"/><path d="M6995.455 31.363c0 4.519 3.663 8.182 8.181 8.182 4.519 0 8.182-3.663 8.182-8.182 0-4.518-3.663-8.181-8.182-8.181-4.518 0-8.181 3.663-8.181 8.181zM7028.182 31.363c0 4.519 3.663 8.182 8.182 8.182s8.181-3.663 8.181-8.182c0-4.518-3.662-8.181-8.181-8.181-4.519 0-8.182 3.663-8.182 8.181z"/></g></g><g><path d="M7125.195 8.182c-20.442 0-37.013 16.572-37.013 37.013v29.61c0 20.442 16.571 37.013 37.013 37.013h29.61c20.442 0 37.013-16.571 37.013-37.013v-29.61c0-20.441-16.571-37.013-37.013-37.013h-29.61z" fill="#ffad65" fill-rule="evenodd"/><g fill="#60361a"><path d="M7117 63.636c0 12.703 10.298 23 23 23s23-10.297 23-23c0-12.702-10.298-23-23-23s-23 10.298-23 23z" fill-rule="evenodd"/><path d="M7115.455 31.363c0 4.519 3.663 8.182 8.181 8.182 4.519 0 8.182-3.663 8.182-8.182 0-4.518-3.663-8.181-8.182-8.181-4.518 0-8.181 3.663-8.181 8.181zM7148.182 31.363c0 4.519 3.663 8.182 8.182 8.182s8.181-3.663 8.181-8.182c0-4.518-3.662-8.181-8.181-8.181-4.519 0-8.182 3.663-8.182 8.181z"/></g></g><g><path d="M7245.195 8.182c-20.442 0-37.013 16.572-37.013 37.013v29.61c0 20.442 16.571 37.013 37.013 37.013h29.61c20.442 0 37.013-16.571 37.013-37.013v-29.61c0-20.441-16.571-37.013-37.013-37.013h-29.61z" fill="#ffad65" fill-rule="evenodd"/><g fill="#60361a"><path d="M7237 63.636c0 12.703 10.298 23 23 23s23-10.297 23-23c0-12.702-10.298-23-23-23s-23 10.298-23 23z" fill-rule="evenodd"/><path d="M7235.455 31.363c0 4.519 3.663 8.182 8.181 8.182 4.519 0 8.182-3.663 8.182-8.182 0-4.518-3.663-8.181-8.182-8.181-4.518 0-8.181 3.663-8.181 8.181zM7268.182 31.363c0 4.519 3.663 8.182 8.182 8.182s8.181-3.663 8.181-8.182c0-4.518-3.662-8.181-8.181-8.181-4.519 0-8.182 3.663-8.182 8.181z"/></g></g><g><path d="M7365.195 8.182c-20.442 0-37.013 16.572-37.013 37.013v29.61c0 20.442 16.571 37.013 37.013 37.013h29.61c20.442 0 37.013-16.571 37.013-37.013v-29.61c0-20.441-16.571-37.013-37.013-37.013h-29.61z" fill="#ffad65" fill-rule="evenodd"/><g fill="#60361a"><path d="M7357 63.636c0 12.703 10.298 23 23 23s23-10.297 23-23c0-12.702-10.298-23-23-23s-23 10.298-23 23z" fill-rule="evenodd"/><path d="M7355.455 31.363c0 4.519 3.663 8.182 8.181 8.182 4.519 0 8.182-3.663 8.182-8.182 0-4.518-3.663-8.181-8.182-8.181-4.518 0-8.181 3.663-8.181 8.181zM7388.182 31.363c0 4.519 3.663 8.182 8.182 8.182s8.181-3.663 8.181-8.182c0-4.518-3.662-8.181-8.181-8.181-4.519 0-8.182 3.663-8.182 8.181z"/></g></g><g><path d="M7485.195 8.182c-20.442 0-37.013 16.572-37.013 37.013v29.61c0 20.442 16.571 37.013 37.013 37.013h29.61c20.442 0 37.013-16.571 37.013-37.013v-29.61c0-20.441-16.571-37.013-37.013-37.013h-29.61z" fill="#ffad65" fill-rule="evenodd"/><g fill="#60361a"><path d="M7477 63.636c0 12.703 10.298 23 23 23s23-10.297 23-23c0-12.702-10.298-23-23-23s-23 10.298-23 23z" fill-rule="evenodd"/><path d="M7475.455 31.363c0 4.519 3.663 8.182 8.181 8.182 4.519 0 8.182-3.663 8.182-8.182 0-4.518-3.663-8.181-8.182-8.181-4.518 0-8.181 3.663-8.181 8.181zM7508.182 31.363c0 4.519 3.663 8.182 8.182 8.182s8.181-3.663 8.181-8.182c0-4.518-3.662-8.181-8.181-8.181-4.519 0-8.182 3.663-8.182 8.181z"/></g></g><g><path d="M7605.195 8.182c-20.442 0-37.013 16.572-37.013 37.013v29.61c0 20.442 16.571 37.013 37.013 37.013h29.61c20.442 0 37.013-16.571 37.013-37.013v-29.61c0-20.441-16.571-37.013-37.013-37.013h-29.61z" fill="#ffad65" fill-rule="evenodd"/><g fill="#60361a"><path d="M7597 63.636c0 12.703 10.298 23 23 23s23-10.297 23-23c0-12.702-10.298-23-23-23s-23 10.298-23 23z" fill-rule="evenodd"/><path d="M7595.455 31.363c0 4.519 3.663 8.182 8.181 8.182 4.519 0 8.182-3.663 8.182-8.182 0-4.518-3.663-8.181-8.182-8.181-4.518 0-8.181 3.663-8.181 8.181zM7628.182 31.363c0 4.519 3.663 8.182 8.182 8.182s8.181-3.663 8.181-8.182c0-4.518-3.662-8.181-8.181-8.181-4.519 0-8.182 3.663-8.182 8.181z"/></g></g><g><path d="M7725.195 8.182c-20.442 0-37.013 16.572-37.013 37.013v29.61c0 20.442 16.571 37.013 37.013 37.013h29.61c20.442 0 37.013-16.571 37.013-37.013v-29.61c0-20.441-16.571-37.013-37.013-37.013h-29.61z" fill="#ffad65" fill-rule="evenodd"/><g fill="#60361a"><path d="M7717 63.636c0 12.703 10.298 23 23 23s23-10.297 23-23c0-12.702-10.298-23-23-23s-23 10.298-23 23z" fill-rule="evenodd"/><path d="M7715.455 31.363c0 4.519 3.663 8.182 8.181 8.182 4.519 0 8.182-3.663 8.182-8.182 0-4.518-3.663-8.181-8.182-8.181-4.518 0-8.181 3.663-8.181 8.181zM7748.182 31.363c0 4.519 3.663 8.182 8.182 8.182s8.181-3.663 8.181-8.182c0-4.518-3.662-8.181-8.181-8.181-4.519 0-8.182 3.663-8.182 8.181z"/></g></g><g><path d="M7845.195 8.182c-20.442 0-37.013 16.572-37.013 37.013v29.61c0 20.442 16.571 37.013 37.013 37.013h29.61c20.442 0 37.013-16.571 37.013-37.013v-29.61c0-20.441-16.571-37.013-37.013-37.013h-29.61z" fill="#ffad65" fill-rule="evenodd"/><g fill="#60361a"><path d="M7837 63.636c0 12.703 10.298 23 23 23s23-10.297 23-23c0-12.702-10.298-23-23-23s-23 10.298-23 23z" fill-rule="evenodd"/><path d="M7835.455 31.363c0 4.519 3.663 8.182 8.181 8.182 4.519 0 8.182-3.663 8.182-8.182 0-4.518-3.663-8.181-8.182-8.181-4.518 0-8.181 3.663-8.181 8.181zM7868.182 31.363c0 4.519 3.663 8.182 8.182 8.182s8.181-3.663 8.181-8.182c0-4.518-3.662-8.181-8.181-8.181-4.519 0-8.182 3.663-8.182 8.181z"/></g></g><g><path d="M7965.195 8.182c-20.442 0-37.013 16.572-37.013 37.013v29.61c0 20.442 16.571 37.013 37.013 37.013h29.61c20.442 0 37.013-16.571 37.013-37.013v-29.61c0-20.441-16.571-37.013-37.013-37.013h-29.61z" fill="#ffad65" fill-rule="evenodd"/><g fill="#60361a"><path d="M7957 63.636c0 12.703 10.298 23 23 23s23-10.297 23-23c0-12.702-10.298-23-23-23s-23 10.298-23 23z" fill-rule="evenodd"/><path d="M7955.455 31.363c0 4.519 3.663 8.182 8.181 8.182 4.519 0 8.182-3.663 8.182-8.182 0-4.518-3.663-8.181-8.182-8.181-4.518 0-8.181 3.663-8.181 8.181zM7988.182 31.363c0 4.519 3.663 8.182 8.182 8.182s8.181-3.663 8.181-8.182c0-4.518-3.662-8.181-8.181-8.181-4.519 0-8.182 3.663-8.182 8.181z"/></g></g><g><path d="M8085.195 8.182c-20.442 0-37.013 16.572-37.013 37.013v29.61c0 20.442 16.571 37.013 37.013 37.013h29.61c20.442 0 37.013-16.571 37.013-37.013v-29.61c0-20.441-16.571-37.013-37.013-37.013h-29.61z" fill="#ffad65" fill-rule="evenodd"/><g fill="#60361a"><path d="M8077 63.636c0 12.703 10.298 23 23 23s23-10.297 23-23c0-12.702-10.298-23-23-23s-23 10.298-23 23z" fill-rule="evenodd"/><path d="M8075.455 31.363c0 4.519 3.663 8.182 8.181 8.182 4.519 0 8.182-3.663 8.182-8.182 0-4.518-3.663-8.181-8.182-8.181-4.518 0-8.181 3.663-8.181 8.181zM8108.182 31.363c0 4.519 3.663 8.182 8.182 8.182s8.181-3.663 8.181-8.182c0-4.518-3.662-8.181-8.181-8.181-4.519 0-8.182 3.663-8.182 8.181z"/></g></g><g><path d="M8205.195 8.182c-20.442 0-37.013 16.572-37.013 37.013v29.61c0 20.442 16.571 37.013 37.013 37.013h29.61c20.442 0 37.013-16.571 37.013-37.013v-29.61c0-20.441-16.571-37.013-37.013-37.013h-29.61z" fill="#ffad65" fill-rule="evenodd"/><g fill="#60361a"><path d="M8197 63.636c0 12.703 10.298 23 23 23s23-10.297 23-23c0-12.702-10.298-23-23-23s-23 10.298-23 23z" fill-rule="evenodd"/><path d="M8195.455 31.363c0 4.519 3.663 8.182 8.181 8.182 4.519 0 8.182-3.663 8.182-8.182 0-4.518-3.663-8.181-8.182-8.181-4.518 0-8.181 3.663-8.181 8.181zM8228.182 31.363c0 4.519 3.663 8.182 8.182 8.182s8.181-3.663 8.181-8.182c0-4.518-3.662-8.181-8.181-8.181-4.519 0-8.182 3.663-8.182 8.181z"/></g></g><g><path d="M8325.195 8.182c-20.442 0-37.013 16.572-37.013 37.013v29.61c0 20.442 16.571 37.013 37.013 37.013h29.61c20.442 0 37.013-16.571 37.013-37.013v-29.61c0-20.441-16.571-37.013-37.013-37.013h-29.61z" fill="#ffad65" fill-rule="evenodd"/><g fill="#60361a"><path d="M8317 63.63617c0 12.703 10.298 23 23 23s23-10.297 23-23c0-12.702-10.298-23-23-23s-23 10.298-23 23z" fill-rule="evenodd"/><path d="M8315.455 31.363255c0 4.519 3.663 8.182 8.181 8.182 4.519 0 8.182-3.663 8.182-8.182 0-4.518-3.663-8.181-8.182-8.181-4.518 0-8.181 3.663-8.181 8.181zM8348.182 31.363255c0 4.519 3.663 8.182 8.182 8.182s8.181-3.663 8.181-8.182c0-4.518-3.662-8.181-8.181-8.181-4.519 0-8.182 3.663-8.182 8.181z"/></g></g><g><path d="M8445.195 8.182c-20.442 0-37.013 16.572-37.013 37.013v29.61c0 20.442 16.571 37.013 37.013 37.013h29.61c20.442 0 37.013-16.571 37.013-37.013v-29.61c0-20.441-16.571-37.013-37.013-37.013h-29.61z" fill="#ffad65" fill-rule="evenodd"/><g fill="#60361a"><path d="M8437.039 63.694514c0 12.69 10.28 22.977 22.961 22.977s22.961-10.287 22.961-22.977c0-12.689-10.28-22.977-22.961-22.977s-22.961 10.288-22.961 22.977z" fill-rule="evenodd"/><path d="M8435.455 31.45077c0 4.519 3.663 8.182 8.181 8.182 4.519 0 8.182-3.663 8.182-8.182 0-4.518-3.663-8.181-8.182-8.181-4.518 0-8.181 3.663-8.181 8.181zM8468.182 31.45077c0 4.519 3.663 8.182 8.182 8.182s8.181-3.663 8.181-8.182c0-4.518-3.662-8.181-8.181-8.181-4.519 0-8.182 3.663-8.182 8.181z"/></g></g><g><path d="M8565.195 8.182c-20.442 0-37.013 16.572-37.013 37.013v29.61c0 20.442 16.571 37.013 37.013 37.013h29.61c20.442 0 37.013-16.571 37.013-37.013v-29.61c0-20.441-16.571-37.013-37.013-37.013h-29.61z" fill="#ffad65" fill-rule="evenodd"/><g fill="#60361a"><path d="M8557.163 63.882167c0 12.65 10.225 22.904 22.837 22.904s22.837-10.254 22.837-22.904c0-12.649-10.225-22.904-22.837-22.904s-22.837 10.255-22.837 22.904z" fill-rule="evenodd"/><path d="M8555.455 31.73225c0 4.519 3.663 8.182 8.181 8.182 4.519 0 8.182-3.663 8.182-8.182 0-4.518-3.663-8.181-8.182-8.181-4.518 0-8.181 3.663-8.181 8.181zM8588.182 31.73225c0 4.519 3.663 8.182 8.182 8.182s8.181-3.663 8.181-8.182c0-4.518-3.662-8.181-8.181-8.181-4.519 0-8.182 3.663-8.182 8.181z"/></g></g><g><path d="M8685.195 8.182c-20.442 0-37.013 16.572-37.013 37.013v29.61c0 20.442 16.571 37.013 37.013 37.013h29.61c20.442 0 37.013-16.571 37.013-37.013v-29.61c0-20.441-16.571-37.013-37.013-37.013h-29.61z" fill="#ffad65" fill-rule="evenodd"/><g fill="#60361a"><path d="M8677.406 64.247484c0 12.571 10.116 22.761 22.594 22.761 12.478 0 22.594-10.19 22.594-22.761 0-12.57-10.116-22.761-22.594-22.761-12.478 0-22.594 10.191-22.594 22.761z" fill-rule="evenodd"/><path d="M8675.455 32.280227c0 4.519 3.663 8.182 8.181 8.182 4.519 0 8.182-3.663 8.182-8.182 0-4.518-3.663-8.181-8.182-8.181-4.518 0-8.181 3.663-8.181 8.181zM8708.182 32.280227c0 4.519 3.663 8.182 8.182 8.182s8.181-3.663 8.181-8.182c0-4.518-3.662-8.181-8.181-8.181-4.519 0-8.182 3.663-8.182 8.181z"/></g></g><g><path d="M8805.195 8.182c-20.442 0-37.013 16.572-37.013 37.013v29.61c0 20.442 16.571 37.013 37.013 37.013h29.61c20.442 0 37.013-16.571 37.013-37.013v-29.61c0-20.441-16.571-37.013-37.013-37.013h-29.61z" fill="#ffad65" fill-rule="evenodd"/><g fill="#60361a"><path d="M8797.81 64.856892c0 12.439 9.935 22.523 22.19 22.523s22.19-10.084 22.19-22.523c0-12.438-9.935-22.523-22.19-22.523s-22.19 10.085-22.19 22.523z" fill-rule="evenodd"/><path d="M8795.455 33.194337c0 4.519 3.663 8.182 8.181 8.182 4.519 0 8.182-3.663 8.182-8.182 0-4.518-3.663-8.181-8.182-8.181-4.518 0-8.181 3.663-8.181 8.181zM8828.182 33.194337c0 4.519 3.663 8.182 8.182 8.182s8.181-3.663 8.181-8.182c0-4.518-3.662-8.181-8.181-8.181-4.519 0-8.182 3.663-8.182 8.181z"/></g></g><g><path d="M8925.195 8.182c-20.442 0-37.013 16.572-37.013 37.013v29.61c0 20.442 16.571 37.013 37.013 37.013h29.61c20.442 0 37.013-16.571 37.013-37.013v-29.61c0-20.441-16.571-37.013-37.013-37.013h-29.61z" fill="#ffad65" fill-rule="evenodd"/><g fill="#60361a"><path d="M8918.419 65.774736c0 12.241 9.663 22.164 21.581 22.164s21.581-9.923 21.581-22.164c0-12.24-9.663-22.164-21.581-22.164s-21.581 9.924-21.581 22.164z" fill-rule="evenodd"/><path d="M8915.455 34.571105c0 4.519 3.663 8.182 8.181 8.182 4.519 0 8.182-3.663 8.182-8.182 0-4.518-3.663-8.181-8.182-8.181-4.518 0-8.181 3.663-8.181 8.181zM8948.182 34.571105c0 4.519 3.663 8.182 8.182 8.182s8.181-3.663 8.181-8.182c0-4.518-3.662-8.181-8.181-8.181-4.519 0-8.182 3.663-8.182 8.181z"/></g></g><g><path d="M9045.195 8.182c-20.442 0-37.013 16.572-37.013 37.013v29.61c0 20.442 16.571 37.013 37.013 37.013h29.61c20.442 0 37.013-16.571 37.013-37.013v-29.61c0-20.441-16.571-37.013-37.013-37.013h-29.61z" fill="#ffad65" fill-rule="evenodd"/><g fill="#60361a"><path d="M9039.216 66.97518c0 11.982 9.306 21.695 20.784 21.695s20.784-9.713 20.784-21.695c0-11.981-9.306-21.695-20.784-21.695s-20.784 9.714-20.784 21.695z" fill-rule="evenodd"/><path d="M9035.455 36.37177c0 4.519 3.663 8.182 8.181 8.182 4.519 0 8.182-3.663 8.182-8.182 0-4.518-3.663-8.181-8.182-8.181-4.518 0-8.181 3.663-8.181 8.181zM9068.182 36.37177c0 4.519 3.663 8.182 8.182 8.182s8.181-3.663 8.181-8.182c0-4.518-3.662-8.181-8.181-8.181-4.519 0-8.182 3.663-8.182 8.181z"/></g></g><g><path d="M9165.195 8.182c-20.442 0-37.013 16.572-37.013 37.013v29.61c0 20.442 16.571 37.013 37.013 37.013h29.61c20.442 0 37.013-16.571 37.013-37.013v-29.61c0-20.441-16.571-37.013-37.013-37.013h-29.61z" fill="#ffad65" fill-rule="evenodd"/><g fill="#60361a"><path d="M9160.067 68.258248c0 11.705 8.925 21.193 19.933 21.193s19.933-9.488 19.933-21.193c0-11.704-8.925-21.193-19.933-21.193s-19.933 9.489-19.933 21.193z" fill-rule="evenodd"/><path d="M9155.455 38.296372c0 4.519 3.663 8.182 8.181 8.182 4.519 0 8.182-3.663 8.182-8.182 0-4.518-3.663-8.181-8.182-8.181-4.518 0-8.181 3.663-8.181 8.181zM9188.182 38.296372c0 4.519 3.663 8.182 8.182 8.182s8.181-3.663 8.181-8.182c0-4.518-3.662-8.181-8.181-8.181-4.519 0-8.182 3.663-8.182 8.181z"/></g></g><g><path d="M9285.195 8.182c-20.442 0-37.013 16.572-37.013 37.013v29.61c0 20.442 16.571 37.013 37.013 37.013h29.61c20.442 0 37.013-16.571 37.013-37.013v-29.61c0-20.441-16.571-37.013-37.013-37.013h-29.61z" fill="#ffad65" fill-rule="evenodd"/><g fill="#60361a"><path d="M9280.829 69.405904c0 11.457 8.584 20.745 19.171 20.745s19.171-9.288 19.171-20.745c0-11.456-8.584-20.745-19.171-20.745s-19.171 9.289-19.171 20.745z" fill-rule="evenodd"/><path d="M9275.455 40.017855c0 4.519 3.663 8.182 8.181 8.182 4.519 0 8.182-3.663 8.182-8.182 0-4.518-3.663-8.181-8.182-8.181-4.518 0-8.181 3.663-8.181 8.181zM9308.182 40.017855c0 4.519 3.663 8.182 8.182 8.182s8.181-3.663 8.181-8.182c0-4.518-3.662-8.181-8.181-8.181-4.519 0-8.182 3.663-8.182 8.181z"/></g></g><g><path d="M9405.195 8.182c-20.442 0-37.013 16.572-37.013 37.013v29.61c0 20.442 16.571 37.013 37.013 37.013h29.61c20.442 0 37.013-16.571 37.013-37.013v-29.61c0-20.441-16.571-37.013-37.013-37.013h-29.61z" fill="#ffad65" fill-rule="evenodd"/><g fill="#60361a"><path d="M9401.452 70.345283c0 11.254 8.305 20.377 18.548 20.377 10.243 0 18.548-9.123 18.548-20.377 0-11.253-8.305-20.377-18.548-20.377-10.243 0-18.548 9.124-18.548 20.377z" fill-rule="evenodd"/><path d="M9395.455 41.426925c0 4.519 3.663 8.182 8.181 8.182 4.519 0 8.182-3.663 8.182-8.182 0-4.518-3.663-8.181-8.182-8.181-4.518 0-8.181 3.663-8.181 8.181zM9428.182 41.426925c0 4.519 3.663 8.182 8.182 8.182s8.181-3.663 8.181-8.182c0-4.518-3.662-8.181-8.181-8.181-4.519 0-8.182 3.663-8.182 8.181z"/></g></g><g><path d="M9525.195 8.182c-20.442 0-37.013 16.572-37.013 37.013v29.61c0 20.442 16.571 37.013 37.013 37.013h29.61c20.442 0 37.013-16.571 37.013-37.013v-29.61c0-20.441-16.571-37.013-37.013-37.013h-29.61z" fill="#ffad65" fill-rule="evenodd"/><g fill="#60361a"><path d="M9521.949 71.094515c0 11.093 8.083 20.084 18.051 20.084 9.968 0 18.051-8.991 18.051-20.084 0-11.092-8.083-20.084-18.051-20.084-9.968 0-18.051 8.992-18.051 20.084z" fill-rule="evenodd"/><path d="M9515.455 42.550773c0 4.519 3.663 8.182 8.181 8.182 4.519 0 8.182-3.663 8.182-8.182 0-4.518-3.663-8.181-8.182-8.181-4.518 0-8.181 3.663-8.181 8.181zM9548.182 42.550773c0 4.519 3.663 8.182 8.182 8.182s8.181-3.663 8.181-8.182c0-4.518-3.662-8.181-8.181-8.181-4.519 0-8.182 3.663-8.182 8.181z"/></g></g><g><path d="M9645.195 8.182c-20.442 0-37.013 16.572-37.013 37.013v29.61c0 20.442 16.571 37.013 37.013 37.013h29.61c20.442 0 37.013-16.571 37.013-37.013v-29.61c0-20.441-16.571-37.013-37.013-37.013h-29.61z" fill="#ffad65" fill-rule="evenodd"/><g fill="#60361a"><path d="M9642.345 71.690704c0 10.964 7.905 19.851 17.655 19.851s17.655-8.887 17.655-19.851c0-10.963-7.905-19.851-17.655-19.851s-17.655 8.888-17.655 19.851z" fill-rule="evenodd"/><path d="M9635.455 43.445055c0 4.519 3.663 8.182 8.181 8.182 4.519 0 8.182-3.663 8.182-8.182 0-4.518-3.663-8.181-8.182-8.181-4.518 0-8.181 3.663-8.181 8.181zM9668.182 43.445055c0 4.519 3.663 8.182 8.182 8.182s8.181-3.663 8.181-8.182c0-4.518-3.662-8.181-8.181-8.181-4.519 0-8.182 3.663-8.182 8.181z"/></g></g><g><path d="M9765.195 8.182c-20.442 0-37.013 16.572-37.013 37.013v29.61c0 20.442 16.571 37.013 37.013 37.013h29.61c20.442 0 37.013-16.571 37.013-37.013v-29.61c0-20.441-16.571-37.013-37.013-37.013h-29.61z" fill="#ffad65" fill-rule="evenodd"/><g fill="#60361a"><path d="M9762.661 72.166408c0 10.861 7.763 19.665 17.339 19.665 9.576 0 17.339-8.804 17.339-19.665 0-10.86-7.763-19.665-17.339-19.665-9.576 0-17.339 8.805-17.339 19.665z" fill-rule="evenodd"/><path d="M9755.455 44.158612c0 4.519 3.663 8.182 8.181 8.182 4.519 0 8.182-3.663 8.182-8.182 0-4.518-3.663-8.181-8.182-8.181-4.518 0-8.181 3.663-8.181 8.181zM9788.182 44.158612c0 4.519 3.663 8.182 8.182 8.182s8.181-3.663 8.181-8.182c0-4.518-3.662-8.181-8.181-8.181-4.519 0-8.182 3.663-8.182 8.181z"/></g></g><g><path d="M9885.195 8.182c-20.442 0-37.013 16.572-37.013 37.013v29.61c0 20.442 16.571 37.013 37.013 37.013h29.61c20.442 0 37.013-16.571 37.013-37.013v-29.61c0-20.441-16.571-37.013-37.013-37.013h-29.61z" fill="#ffad65" fill-rule="evenodd"/><g fill="#60361a"><path d="M9882.913 72.546427c0 10.779 7.651 19.517 17.087 19.517s17.087-8.738 17.087-19.517c0-10.778-7.651-19.517-17.087-19.517s-17.087 8.739-17.087 19.517z" fill-rule="evenodd"/><path d="M9875.455 44.72864c0 4.519 3.663 8.182 8.181 8.182 4.519 0 8.182-3.663 8.182-8.182 0-4.518-3.663-8.181-8.182-8.181-4.518 0-8.181 3.663-8.181 8.181zM9908.182 44.72864c0 4.519 3.663 8.182 8.182 8.182s8.181-3.663 8.181-8.182c0-4.518-3.662-8.181-8.181-8.181-4.519 0-8.182 3.663-8.182 8.181z"/></g></g><g><path d="M10005.195 8.182c-20.442 0-37.013 16.572-37.013 37.013v29.61c0 20.442 16.571 37.013 37.013 37.013h29.61c20.442 0 37.013-16.571 37.013-37.013v-29.61c0-20.441-16.571-37.013-37.013-37.013h-29.61z" fill="#ffad65" fill-rule="evenodd"/><g fill="#60361a"><path d="M10003.114 72.84915c0 10.714 7.561 19.399 16.886 19.399s16.886-8.685 16.886-19.399c0-10.713-7.561-19.399-16.886-19.399s-16.886 8.686-16.886 19.399z" fill-rule="evenodd"/><path d="M9995.455 45.182725c0 4.519 3.663 8.182 8.181 8.182 4.519 0 8.182-3.663 8.182-8.182 0-4.518-3.663-8.181-8.182-8.181-4.518 0-8.181 3.663-8.181 8.181zM10028.182 45.182725c0 4.519 3.663 8.182 8.182 8.182s8.181-3.663 8.181-8.182c0-4.518-3.662-8.181-8.181-8.181-4.519 0-8.182 3.663-8.182 8.181z"/></g></g><g><path d="M10125.195 8.182c-20.442 0-37.013 16.572-37.013 37.013v29.61c0 20.442 16.571 37.013 37.013 37.013h29.61c20.442 0 37.013-16.571 37.013-37.013v-29.61c0-20.441-16.571-37.013-37.013-37.013h-29.61z" fill="#ffad65" fill-rule="evenodd"/><g fill="#60361a"><path d="M10123.273 73.088297c0 10.662 7.489 19.305 16.727 19.305s16.727-8.643 16.727-19.305c0-10.661-7.489-19.305-16.727-19.305s-16.727 8.644-16.727 19.305z" fill-rule="evenodd"/><path d="M10115.455 45.541445c0 4.519 3.663 8.182 8.181 8.182 4.519 0 8.182-3.663 8.182-8.182 0-4.518-3.663-8.181-8.182-8.181-4.518 0-8.181 3.663-8.181 8.181zM10148.182 45.541445c0 4.519 3.663 8.182 8.182 8.182s8.181-3.663 8.181-8.182c0-4.518-3.662-8.181-8.181-8.181-4.519 0-8.182 3.663-8.182 8.181z"/></g></g><g><path d="M10245.195 8.182c-20.442 0-37.013 16.572-37.013 37.013v29.61c0 20.442 16.571 37.013 37.013 37.013h29.61c20.442 0 37.013-16.571 37.013-37.013v-29.61c0-20.441-16.571-37.013-37.013-37.013h-29.61z" fill="#ffad65" fill-rule="evenodd"/><g fill="#60361a"><path d="M10243.396 73.274269c0 10.622 7.434 19.232 16.604 19.232 9.17 0 16.604-8.61 16.604-19.232 0-10.621-7.434-19.232-16.604-19.232-9.17 0-16.604 8.611-16.604 19.232z" fill-rule="evenodd"/><path d="M10235.455 45.820403c0 4.519 3.663 8.182 8.181 8.182 4.519 0 8.182-3.663 8.182-8.182 0-4.518-3.663-8.181-8.182-8.181-4.518 0-8.181 3.663-8.181 8.181zM10268.182 45.820403c0 4.519 3.663 8.182 8.182 8.182s8.181-3.663 8.181-8.182c0-4.518-3.662-8.181-8.181-8.181-4.519 0-8.182 3.663-8.182 8.181z"/></g></g><g><path d="M10365.195 8.182c-20.442 0-37.013 16.572-37.013 37.013v29.61c0 20.442 16.571 37.013 37.013 37.013h29.61c20.442 0 37.013-16.571 37.013-37.013v-29.61c0-20.441-16.571-37.013-37.013-37.013h-29.61z" fill="#ffad65" fill-rule="evenodd"/><g fill="#60361a"><path d="M10363.489 73.415096c0 10.592 7.393 19.177 16.511 19.177 9.118 0 16.511-8.585 16.511-19.177 0-10.591-7.393-19.177-16.511-19.177-9.118 0-16.511 8.586-16.511 19.177z" fill-rule="evenodd"/><path d="M10355.455 46.031643c0 4.519 3.663 8.182 8.181 8.182 4.519 0 8.182-3.663 8.182-8.182 0-4.518-3.663-8.181-8.182-8.181-4.518 0-8.181 3.663-8.181 8.181zM10388.182 46.031643c0 4.519 3.663 8.182 8.182 8.182s8.181-3.663 8.181-8.182c0-4.518-3.662-8.181-8.181-8.181-4.519 0-8.182 3.663-8.182 8.181z"/></g></g><g><path d="M10485.195 8.182c-20.442 0-37.013 16.572-37.013 37.013v29.61c0 20.442 16.571 37.013 37.013 37.013h29.61c20.442 0 37.013-16.571 37.013-37.013v-29.61c0-20.441-16.571-37.013-37.013-37.013h-29.61z" fill="#ffad65" fill-rule="evenodd"/><g fill="#60361a"><path d="M10483.557 73.51709c0 10.57 7.362 19.137 16.443 19.137 9.081 0 16.443-8.567 16.443-19.137 0-10.569-7.362-19.137-16.443-19.137-9.081 0-16.443 8.568-16.443 19.137z" fill-rule="evenodd"/><path d="M10475.455 46.184635c0 4.519 3.663 8.182 8.181 8.182 4.519 0 8.182-3.663 8.182-8.182 0-4.518-3.663-8.181-8.182-8.181-4.518 0-8.181 3.663-8.181 8.181zM10508.182 46.184635c0 4.519 3.663 8.182 8.182 8.182s8.181-3.663 8.181-8.182c0-4.518-3.662-8.181-8.181-8.181-4.519 0-8.182 3.663-8.182 8.181z"/></g></g><g><path d="M10605.195 8.182c-20.442 0-37.013 16.572-37.013 37.013v29.61c0 20.442 16.571 37.013 37.013 37.013h29.61c20.442 0 37.013-16.571 37.013-37.013v-29.61c0-20.441-16.571-37.013-37.013-37.013h-29.61z" fill="#ffad65" fill-rule="evenodd"/><g fill="#60361a"><path d="M10603.602 73.585298c0 10.555 7.342 19.111 16.398 19.111 9.056 0 16.398-8.556 16.398-19.111 0-10.554-7.342-19.111-16.398-19.111-9.056 0-16.398 8.557-16.398 19.111z" fill-rule="evenodd"/><path d="M10595.455 46.286946c0 4.519 3.663 8.182 8.181 8.182 4.519 0 8.182-3.663 8.182-8.182 0-4.518-3.663-8.181-8.182-8.181-4.518 0-8.181 3.663-8.181 8.181zM10628.182 46.286946c0 4.519 3.663 8.182 8.182 8.182s8.181-3.663 8.181-8.182c0-4.518-3.662-8.181-8.181-8.181-4.519 0-8.182 3.663-8.182 8.181z"/></g></g><g><path d="M10725.195 8.182c-20.442 0-37.013 16.572-37.013 37.013v29.61c0 20.442 16.571 37.013 37.013 37.013h29.61c20.442 0 37.013-16.571 37.013-37.013v-29.61c0-20.441-16.571-37.013-37.013-37.013h-29.61z" fill="#ffad65" fill-rule="evenodd"/><g fill="#60361a"><path d="M10723.628 73.623812c0 10.547 7.331 19.096 16.372 19.096s16.372-8.549 16.372-19.096c0-10.546-7.331-19.096-16.372-19.096s-16.372 8.55-16.372 19.096z" fill-rule="evenodd"/><path d="M10715.455 46.344718c0 4.519 3.663 8.182 8.181 8.182 4.519 0 8.182-3.663 8.182-8.182 0-4.518-3.663-8.181-8.182-8.181-4.518 0-8.181 3.663-8.181 8.181zM10748.182 46.344718c0 4.519 3.663 8.182 8.182 8.182s8.181-3.663 8.181-8.182c0-4.518-3.662-8.181-8.181-8.181-4.519 0-8.182 3.663-8.182 8.181z"/></g></g><g><path d="M10845.195 8.182c-20.442 0-37.013 16.572-37.013 37.013v29.61c0 20.442 16.571 37.013 37.013 37.013h29.61c20.442 0 37.013-16.571 37.013-37.013v-29.61c0-20.441-16.571-37.013-37.013-37.013h-29.61z" fill="#ffad65" fill-rule="evenodd"/><g fill="#60361a"><path d="M10843.636 73.636c0 10.544 7.327 19.091 16.364 19.091s16.364-8.547 16.364-19.091c0-10.543-7.327-19.091-16.364-19.091s-16.364 8.548-16.364 19.091z" fill-rule="evenodd"/><path d="M10835.455 46.363c0 4.519 3.663 8.182 8.181 8.182 4.519 0 8.182-3.663 8.182-8.182 0-4.518-3.663-8.181-8.182-8.181-4.518 0-8.181 3.663-8.181 8.181zM10868.182 46.363c0 4.519 3.663 8.182 8.182 8.182s8.181-3.663 8.181-8.182c0-4.518-3.662-8.181-8.181-8.181-4.519 0-8.182 3.663-8.182 8.181z"/></g></g></svg>
