
<svg xmlns="http://www.w3.org/2000/svg" viewBox="0 0 10920 120" width="100%" height="120"><path d="M79.091 103.636v.045c0 6-5.086 10.864-11.359 10.864H52.268c-6.273 0-11.359-4.864-11.359-10.864v-.045h38.182zM59.339 2.732c25.909-.357 47.025 20.291 47.025 45.813 0 16.48-8.806 30.926-22.019 38.999-2.756 1.683-4.475 4.617-4.475 7.818v2.82H40.706v-2.473c0-3.246-1.769-6.209-4.583-7.883-13.304-7.914-22.259-22.241-22.483-38.652-.338-24.895 20.508-46.095 45.699-46.442z" fill="#ffd348"/><path d="M35.455 38.182c0 4.518 3.663 8.182 8.181 8.182 4.519 0 8.182-3.664 8.182-8.182 0-4.519-3.663-8.182-8.182-8.182-4.518 0-8.181 3.663-8.181 8.182zm32.727 0c0 4.518 3.663 8.182 8.182 8.182s8.181-3.664 8.181-8.182c0-4.519-3.662-8.182-8.181-8.182-4.519 0-8.182 3.663-8.182 8.182z" fill="#60361a"/><path d="M60.5 84c-9.2-.2-19.6-7-20.9-16.9-1.5-12.1 11.7-12.8 20.9-13 9.3.2 22.4.9 20.9 13.1C80.1 77 69.8 83.8 60.5 84z" fill="#6a3909" fill-rule="evenodd"/><path d="M199.091 103.636v.045c0 6-5.086 10.864-11.359 10.864h-15.464c-6.273 0-11.359-4.864-11.359-10.864v-.045h38.182zM179.339 2.732c25.909-.357 47.025 20.291 47.025 45.813 0 16.48-8.806 30.926-22.019 38.999-2.756 1.683-4.475 4.617-4.475 7.818v2.82h-39.164v-2.473c0-3.246-1.769-6.209-4.583-7.883-13.304-7.914-22.259-22.241-22.483-38.652-.338-24.895 20.508-46.095 45.699-46.442z" fill="#ffd348"/><path d="M155.455 38.281c0 4.518 3.663 8.182 8.181 8.182 4.519 0 8.182-3.664 8.182-8.182 0-4.519-3.663-8.182-8.182-8.182-4.518 0-8.181 3.663-8.181 8.182zm32.727 0c0 4.518 3.663 8.182 8.182 8.182s8.181-3.664 8.181-8.182c0-4.519-3.662-8.182-8.181-8.182-4.519 0-8.182 3.663-8.182 8.182z" fill="#60361a"/><path d="M180.501 83.987c-9.198-.2-19.596-6.993-20.895-16.884-1.5-12.089 11.695-12.785 20.895-12.985 9.299.2 22.395.896 20.895 13.085-1.3 9.791-11.597 16.584-20.895 16.784z" fill="#6a3909" fill-rule="evenodd"/><path d="M319.091 103.636v.045c0 6-5.086 10.864-11.359 10.864h-15.464c-6.273 0-11.359-4.864-11.359-10.864v-.045h38.182zM299.339 2.732c25.909-.357 47.025 20.291 47.025 45.813 0 16.48-8.806 30.926-22.019 38.999-2.756 1.683-4.475 4.617-4.475 7.818v2.82h-39.164v-2.473c0-3.246-1.769-6.209-4.583-7.883-13.304-7.914-22.259-22.241-22.483-38.652-.338-24.895 20.508-46.095 45.699-46.442z" fill="#ffd348"/><path d="M275.455 38.677c0 4.518 3.663 8.182 8.181 8.182 4.519 0 8.182-3.664 8.182-8.182 0-4.519-3.663-8.182-8.182-8.182-4.518 0-8.181 3.663-8.181 8.182zm32.727 0c0 4.518 3.663 8.182 8.182 8.182s8.181-3.664 8.181-8.182c0-4.519-3.662-8.182-8.181-8.182-4.519 0-8.182 3.663-8.182 8.182z" fill="#60361a"/><path d="M300.503 83.946c-9.191-.199-19.581-6.973-20.879-16.834-1.499-12.053 11.682-12.738 20.879-12.937 9.298.199 22.379.884 20.88 13.036-1.299 9.762-11.589 16.536-20.88 16.735z" fill="#6a3909" fill-rule="evenodd"/><path d="M439.091 103.636v.045c0 6-5.086 10.864-11.359 10.864h-15.464c-6.273 0-11.359-4.864-11.359-10.864v-.045h38.182zM419.339 2.732c25.909-.357 47.025 20.291 47.025 45.813 0 16.48-8.806 30.926-22.019 38.999-2.756 1.683-4.475 4.617-4.475 7.818v2.82h-39.164v-2.473c0-3.246-1.769-6.209-4.583-7.883-13.304-7.914-22.259-22.241-22.483-38.652-.338-24.895 20.508-46.095 45.699-46.442z" fill="#ffd348"/><path d="M395.455 39.563c0 4.518 3.663 8.182 8.181 8.182 4.519 0 8.182-3.664 8.182-8.182 0-4.519-3.663-8.182-8.182-8.182-4.518 0-8.181 3.663-8.181 8.182zm32.727 0c0 4.518 3.663 8.182 8.182 8.182s8.181-3.664 8.181-8.182c0-4.519-3.662-8.182-8.181-8.182-4.519 0-8.182 3.663-8.182 8.182z" fill="#60361a"/><path d="M420.508 83.87c-9.178-.198-19.554-6.935-20.851-16.742-1.497-11.988 11.656-12.65 20.851-12.848 9.295.198 22.348.86 20.851 12.947-1.297 9.708-11.573 16.445-20.851 16.643z" fill="#6a3909" fill-rule="evenodd"/><path d="M559.091 103.636v.045c0 6-5.086 10.864-11.359 10.864h-15.464c-6.273 0-11.359-4.864-11.359-10.864v-.045h38.182zM539.339 2.732c25.909-.357 47.025 20.291 47.025 45.813 0 16.48-8.806 30.926-22.019 38.999-2.756 1.683-4.475 4.617-4.475 7.818v2.82h-39.164v-2.473c0-3.246-1.769-6.209-4.583-7.883-13.304-7.914-22.259-22.241-22.483-38.652-.338-24.895 20.508-46.095 45.699-46.442z" fill="#ffd348"/><path d="M515.455 40.739c0 4.518 3.663 8.182 8.181 8.182 4.519 0 8.182-3.664 8.182-8.182 0-4.519-3.663-8.182-8.182-8.182-4.518 0-8.181 3.663-8.181 8.182zm32.727 0c0 4.518 3.663 8.182 8.182 8.182s8.181-3.664 8.181-8.182c0-4.519-3.662-8.182-8.181-8.182-4.519 0-8.182 3.663-8.182 8.182z" fill="#60361a"/><path d="M540.515 83.754c-9.159-.196-19.513-6.876-20.807-16.602-1.494-11.886 11.617-12.515 20.807-12.712 9.29.197 22.302.826 20.808 12.811-1.294 9.627-11.549 16.307-20.808 16.503z" fill="#6a3909" fill-rule="evenodd"/><path d="M679.091 103.636v.045c0 6-5.086 10.864-11.359 10.864h-15.464c-6.273 0-11.359-4.864-11.359-10.864v-.045h38.182zM659.339 2.732c25.909-.357 47.025 20.291 47.025 45.813 0 16.48-8.806 30.926-22.019 38.999-2.756 1.683-4.475 4.617-4.475 7.818v2.82h-39.164v-2.473c0-3.246-1.769-6.209-4.583-7.883-13.304-7.914-22.259-22.241-22.483-38.652-.338-24.895 20.508-46.095 45.699-46.442z" fill="#ffd348"/><path d="M635.455 41.648c0 4.518 3.663 8.182 8.181 8.182 4.519 0 8.182-3.664 8.182-8.182 0-4.519-3.663-8.182-8.182-8.182-4.518 0-8.181 3.663-8.181 8.182zm32.727 0c0 4.518 3.663 8.182 8.182 8.182s8.181-3.664 8.181-8.182c0-4.519-3.662-8.182-8.181-8.182-4.519 0-8.182 3.663-8.182 8.182z" fill="#60361a"/><path d="M660.526 83.589c-9.132-.194-19.456-6.794-20.746-16.402-1.489-11.743 11.562-12.324 20.746-12.518 9.282.194 22.234.775 20.746 12.615-1.291 9.511-11.515 16.111-20.746 16.305z" fill="#6a3909" fill-rule="evenodd"/><path d="M799.091 103.636v.045c0 6-5.086 10.864-11.359 10.864h-15.464c-6.273 0-11.359-4.864-11.359-10.864v-.045h38.182zM779.339 2.732c25.909-.357 47.025 20.291 47.025 45.813 0 16.48-8.806 30.926-22.019 38.999-2.756 1.683-4.475 4.617-4.475 7.818v2.82h-39.164v-2.473c0-3.246-1.769-6.209-4.583-7.883-13.304-7.914-22.259-22.241-22.483-38.652-.338-24.895 20.508-46.095 45.699-46.442z" fill="#ffd348"/><path d="M755.455 42.247c0 4.518 3.663 8.182 8.181 8.182 4.519 0 8.182-3.664 8.182-8.182 0-4.519-3.663-8.182-8.182-8.182-4.518 0-8.181 3.663-8.181 8.182zm32.727 0c0 4.518 3.663 8.182 8.182 8.182s8.181-3.664 8.181-8.182c0-4.519-3.662-8.182-8.181-8.182-4.519 0-8.182 3.663-8.182 8.182z" fill="#60361a"/><path d="M780.54 83.365c-9.096-.191-19.377-6.681-20.662-16.13-1.483-11.549 11.487-12.065 20.662-12.256 9.273.191 22.144.707 20.662 12.351-1.286 9.354-11.468 15.844-20.662 16.035z" fill="#6a3909" fill-rule="evenodd"/><path d="M919.091 103.636v.045c0 6-5.086 10.864-11.359 10.864h-15.464c-6.273 0-11.359-4.864-11.359-10.864v-.045h38.182zM899.339 2.732c25.909-.357 47.025 20.291 47.025 45.813 0 16.48-8.806 30.926-22.019 38.999-2.756 1.683-4.475 4.617-4.475 7.818v2.82h-39.164v-2.473c0-3.246-1.769-6.209-4.583-7.883-13.304-7.914-22.259-22.241-22.483-38.652-.338-24.895 20.508-46.095 45.699-46.442z" fill="#ffd348"/><path d="M875.455 42.639c0 4.518 3.663 8.182 8.181 8.182 4.519 0 8.182-3.664 8.182-8.182 0-4.519-3.663-8.182-8.182-8.182-4.518 0-8.181 3.663-8.181 8.182zm32.727 0c0 4.518 3.663 8.182 8.182 8.182s8.181-3.664 8.181-8.182c0-4.519-3.662-8.182-8.181-8.182-4.519 0-8.182 3.663-8.182 8.182z" fill="#60361a"/><path d="M900.558 83.071c-9.047-.186-19.273-6.533-20.552-15.774-1.475-11.293 11.389-11.725 20.552-11.912 9.261.187 22.027.619 20.552 12.006-1.279 9.147-11.407 15.494-20.552 15.68z" fill="#6a3909" fill-rule="evenodd"/><path d="M1039.091 103.636v.045c0 6-5.086 10.864-11.359 10.864h-15.464c-6.273 0-11.359-4.864-11.359-10.864v-.045h38.182zM1019.339 2.732c25.909-.357 47.025 20.291 47.025 45.813 0 16.48-8.806 30.926-22.019 38.999-2.756 1.683-4.475 4.617-4.475 7.818v2.82h-39.164v-2.473c0-3.246-1.769-6.209-4.583-7.883-13.304-7.914-22.259-22.241-22.483-38.652-.338-24.895 20.508-46.095 45.699-46.442z" fill="#ffd348"/><path d="M995.455 42.895c0 4.518 3.663 8.182 8.181 8.182 4.519 0 8.182-3.664 8.182-8.182 0-4.519-3.663-8.182-8.182-8.182-4.518 0-8.181 3.663-8.181 8.182zm32.727 0c0 4.518 3.663 8.182 8.182 8.182s8.181-3.664 8.181-8.182c0-4.519-3.662-8.182-8.181-8.182-4.519 0-8.182 3.663-8.182 8.182z" fill="#60361a"/><path d="M1020.581 82.698c-8.985-.181-19.142-6.346-20.411-15.321-1.465-10.97 11.264-11.293 20.411-11.475 9.246.182 21.877.505 20.412 11.566-1.27 8.884-11.329 15.049-20.412 15.23z" fill="#6a3909" fill-rule="evenodd"/><path d="M1159.091 103.636v.045c0 6-5.086 10.864-11.359 10.864h-15.464c-6.273 0-11.359-4.864-11.359-10.864v-.045h38.182zM1139.339 2.732c25.909-.357 47.025 20.291 47.025 45.813 0 16.48-8.806 30.926-22.019 38.999-2.756 1.683-4.475 4.617-4.475 7.818v2.82h-39.164v-2.473c0-3.246-1.769-6.209-4.583-7.883-13.304-7.914-22.259-22.241-22.483-38.652-.338-24.895 20.508-46.095 45.699-46.442z" fill="#ffd348"/><path d="M1115.455 43.055c0 4.518 3.663 8.182 8.181 8.182 4.519 0 8.182-3.664 8.182-8.182 0-4.519-3.663-8.182-8.182-8.182-4.518 0-8.181 3.663-8.181 8.182zm32.727 0c0 4.518 3.663 8.182 8.182 8.182s8.181-3.664 8.181-8.182c0-4.519-3.662-8.182-8.181-8.182-4.519 0-8.182 3.663-8.182 8.182z" fill="#60361a"/><path d="M1140.61 82.241c-8.91-.175-18.981-6.117-20.24-14.767-1.453-10.572 11.111-10.764 20.24-10.938 9.226.174 21.692.366 20.24 11.026-1.259 8.562-11.234 14.504-20.24 14.679z" fill="#6a3909" fill-rule="evenodd"/><path d="M1279.091 103.636v.045c0 6-5.086 10.864-11.359 10.864h-15.464c-6.273 0-11.359-4.864-11.359-10.864v-.045h38.182zM1259.339 2.732c25.909-.357 47.025 20.291 47.025 45.813 0 16.48-8.806 30.926-22.019 38.999-2.756 1.683-4.475 4.617-4.475 7.818v2.82h-39.164v-2.473c0-3.246-1.769-6.209-4.583-7.883-13.304-7.914-22.259-22.241-22.483-38.652-.338-24.895 20.508-46.095 45.699-46.442z" fill="#ffd348"/><path d="M1235.455 43.145c0 4.518 3.663 8.182 8.181 8.182 4.519 0 8.182-3.664 8.182-8.182 0-4.519-3.663-8.182-8.182-8.182-4.518 0-8.181 3.663-8.181 8.182zm32.727 0c0 4.518 3.663 8.182 8.182 8.182s8.181-3.664 8.181-8.182c0-4.519-3.662-8.182-8.181-8.182-4.519 0-8.182 3.663-8.182 8.182z" fill="#60361a"/><path d="M1260.643 81.709c-8.821-.168-18.794-5.85-20.04-14.122-1.439-10.11 10.932-10.148 20.04-10.315 9.204.167 21.479.205 20.041 10.399-1.247 8.188-11.123 13.87-20.041 14.038z" fill="#6a3909" fill-rule="evenodd"/><path d="M1399.091 103.636v.045c0 6-5.086 10.864-11.359 10.864h-15.464c-6.273 0-11.359-4.864-11.359-10.864v-.045h38.182zM1379.339 2.732c25.909-.357 47.025 20.291 47.025 45.813 0 16.48-8.806 30.926-22.019 38.999-2.756 1.683-4.475 4.617-4.475 7.818v2.82h-39.164v-2.473c0-3.246-1.769-6.209-4.583-7.883-13.304-7.914-22.259-22.241-22.483-38.652-.338-24.895 20.508-46.095 45.699-46.442z" fill="#ffd348"/><path d="M1355.455 43.18c0 4.518 3.663 8.182 8.181 8.182 4.519 0 8.182-3.664 8.182-8.182 0-4.519-3.663-8.182-8.182-8.182-4.518 0-8.181 3.663-8.181 8.182zm32.727 0c0 4.518 3.663 8.182 8.182 8.182s8.181-3.664 8.181-8.182c0-4.519-3.662-8.182-8.181-8.182-4.519 0-8.182 3.663-8.182 8.182z" fill="#60361a"/><path d="M1380.679 81.129c-8.726-.158-18.59-5.558-19.823-13.419-1.423-9.607 10.739-9.478 19.823-9.637 9.18.159 21.246.03 19.824 9.717-1.234 7.781-11.003 13.181-19.824 13.339z" fill="#6a3909" fill-rule="evenodd"/><path d="M1519.091 103.636v.045c0 6-5.086 10.864-11.359 10.864h-15.464c-6.273 0-11.359-4.864-11.359-10.864v-.045h38.182zM1499.339 2.732c25.909-.357 47.025 20.291 47.025 45.813 0 16.48-8.806 30.926-22.019 38.999-2.756 1.683-4.475 4.617-4.475 7.818v2.82h-39.164v-2.473c0-3.246-1.769-6.209-4.583-7.883-13.304-7.914-22.259-22.241-22.483-38.652-.338-24.895 20.508-46.095 45.699-46.442z" fill="#ffd348"/><path d="M1475.455 43.182c0 3.286 3.663 5.951 8.181 5.951 4.519 0 8.182-2.665 8.182-5.951 0-3.287-3.663-5.951-8.182-5.951-4.518 0-8.181 2.664-8.181 5.951zm32.727 0c0 3.286 3.663 5.951 8.182 5.951s8.181-2.665 8.181-5.951c0-3.287-3.662-5.951-8.181-5.951-4.519 0-8.182 2.664-8.182 5.951z" fill="#60361a"/><path d="M1500.716 80.542c-8.629-.15-18.384-5.263-19.603-12.707-1.407-9.098 10.542-8.799 19.603-8.949 9.155.15 21.01-.149 19.603 9.025-1.22 7.368-10.88 12.481-19.603 12.631z" fill="#6a3909" fill-rule="evenodd"/><path d="M1639.091 103.636v.045c0 6-5.086 10.864-11.359 10.864h-15.464c-6.273 0-11.359-4.864-11.359-10.864v-.045h38.182zM1619.339 2.732c25.909-.357 47.025 20.291 47.025 45.813 0 16.48-8.806 30.926-22.019 38.999-2.756 1.683-4.475 4.617-4.475 7.818v2.82h-39.164v-2.473c0-3.246-1.769-6.209-4.583-7.883-13.304-7.914-22.259-22.241-22.483-38.652-.338-24.895 20.508-46.095 45.699-46.442z" fill="#ffd348"/><path d="M1595.455 43.182c0 .866 3.663 1.569 8.181 1.569 4.519 0 8.182-.703 8.182-1.569s-3.663-1.569-8.182-1.569c-4.518 0-8.181.703-8.181 1.569zm32.727 0c0 .866 3.663 1.569 8.182 1.569s8.181-.703 8.181-1.569-3.662-1.569-8.181-1.569c-4.519 0-8.182.703-8.182 1.569z" fill="#60361a"/><path d="M1620.751 79.982c-8.537-.142-18.187-4.982-19.393-12.028-1.392-8.612 10.354-8.151 19.393-8.293 9.131.142 20.785-.319 19.393 8.365-1.207 6.974-10.764 11.814-19.393 11.956z" fill="#6a3909" fill-rule="evenodd"/><path d="M1759.091 103.636v.045c0 6-5.086 10.864-11.359 10.864h-15.464c-6.273 0-11.359-4.864-11.359-10.864v-.045h38.182zM1739.339 2.732c25.909-.357 47.025 20.291 47.025 45.813 0 16.48-8.806 30.926-22.019 38.999-2.756 1.683-4.475 4.617-4.475 7.818v2.82h-39.164v-2.473c0-3.246-1.769-6.209-4.583-7.883-13.304-7.914-22.259-22.241-22.483-38.652-.338-24.895 20.508-46.095 45.699-46.442z" fill="#ffd348"/><path d="M1715.455 43.182c0 .558 3.663 1.011 8.181 1.011 4.519 0 8.182-.453 8.182-1.011 0-.558-3.663-1.011-8.182-1.011-4.518 0-8.181.453-8.181 1.011zm32.727 0c0 .558 3.663 1.011 8.182 1.011s8.181-.453 8.181-1.011c0-.558-3.662-1.011-8.181-1.011-4.519 0-8.182.453-8.182 1.011z" fill="#60361a"/><path d="M1740.783 79.47c-8.452-.135-18.007-4.725-19.201-11.407-1.378-8.167 10.183-7.558 19.201-7.693 9.11.135 20.579-.474 19.201 7.761-1.195 6.614-10.657 11.204-19.201 11.339z" fill="#6a3909" fill-rule="evenodd"/><path d="M1879.091 103.636v.045c0 6-5.086 10.864-11.359 10.864h-15.464c-6.273 0-11.359-4.864-11.359-10.864v-.045h38.182zM1859.339 2.732c25.909-.357 47.025 20.291 47.025 45.813 0 16.48-8.806 30.926-22.019 38.999-2.756 1.683-4.475 4.617-4.475 7.818v2.82h-39.164v-2.473c0-3.246-1.769-6.209-4.583-7.883-13.304-7.914-22.259-22.241-22.483-38.652-.338-24.895 20.508-46.095 45.699-46.442z" fill="#ffd348"/><path d="M1835.455 43.182c0 1.179 3.663 2.135 8.181 2.135 4.519 0 8.182-.956 8.182-2.135 0-1.179-3.663-2.135-8.182-2.135-4.518 0-8.181.956-8.181 2.135zm32.727 0c0 1.179 3.663 2.135 8.182 2.135s8.181-.956 8.181-2.135c0-1.179-3.662-2.135-8.181-2.135-4.519 0-8.182.956-8.182 2.135z" fill="#60361a"/><path d="M1860.812 79.013c-8.377-.128-17.846-4.495-19.03-10.853-1.366-7.77 10.03-7.028 19.03-7.157 9.09.129 20.394-.613 19.029 7.222-1.184 6.293-10.562 10.66-19.029 10.788z" fill="#6a3909" fill-rule="evenodd"/><path d="M1999.091 103.636v.045c0 6-5.086 10.864-11.359 10.864h-15.464c-6.273 0-11.359-4.864-11.359-10.864v-.045h38.182zM1979.339 2.732c25.909-.357 47.025 20.291 47.025 45.813 0 16.48-8.806 30.926-22.019 38.999-2.756 1.683-4.475 4.617-4.475 7.818v2.82h-39.164v-2.473c0-3.246-1.769-6.209-4.583-7.883-13.304-7.914-22.259-22.241-22.483-38.652-.338-24.895 20.508-46.095 45.699-46.442z" fill="#ffd348"/><path d="M1955.455 43.182c0 2.992 3.663 5.418 8.181 5.418 4.519 0 8.182-2.426 8.182-5.418s-3.663-5.418-8.182-5.418c-4.518 0-8.181 2.426-8.181 5.418zm32.727 0c0 2.992 3.663 5.418 8.182 5.418s8.181-2.426 8.181-5.418-3.662-5.418-8.181-5.418c-4.519 0-8.182 2.426-8.182 5.418z" fill="#60361a"/><path d="M1980.837 78.609c-8.31-.122-17.704-4.292-18.878-10.363-1.355-7.419 9.894-6.562 18.878-6.684 9.074.122 20.232-.735 18.878 6.746-1.175 6.009-10.478 10.179-18.878 10.301z" fill="#6a3909" fill-rule="evenodd"/><path d="M2119.091 103.636v.045c0 6-5.086 10.864-11.359 10.864h-15.464c-6.273 0-11.359-4.864-11.359-10.864v-.045h38.182zM2099.339 2.732c25.909-.357 47.025 20.291 47.025 45.813 0 16.48-8.806 30.926-22.019 38.999-2.756 1.683-4.475 4.617-4.475 7.818v2.82h-39.164v-2.473c0-3.246-1.769-6.209-4.583-7.883-13.304-7.914-22.259-22.241-22.483-38.652-.338-24.895 20.508-46.095 45.699-46.442z" fill="#ffd348"/><path d="M2075.455 43.182c0 3.988 3.663 7.222 8.181 7.222 4.519 0 8.182-3.234 8.182-7.222 0-3.989-3.663-7.222-8.182-7.222-4.518 0-8.181 3.233-8.181 7.222zm32.727 0c0 3.988 3.663 7.222 8.182 7.222s8.181-3.234 8.181-7.222c0-3.989-3.662-7.222-8.181-7.222-4.519 0-8.182 3.233-8.182 7.222z" fill="#60361a"/><path d="M2100.859 78.255c-8.251-.118-17.579-4.115-18.745-9.933-1.345-7.112 9.776-6.152 18.745-6.269 9.059.117 20.09-.843 18.745 6.328-1.167 5.759-10.404 9.756-18.745 9.874z" fill="#6a3909" fill-rule="evenodd"/><path d="M2239.091 103.636v.045c0 6-5.086 10.864-11.359 10.864h-15.464c-6.273 0-11.359-4.864-11.359-10.864v-.045h38.182zM2219.339 2.732c25.909-.357 47.025 20.291 47.025 45.813 0 16.48-8.806 30.926-22.019 38.999-2.756 1.683-4.475 4.617-4.475 7.818v2.82h-39.164v-2.473c0-3.246-1.769-6.209-4.583-7.883-13.304-7.914-22.259-22.241-22.483-38.652-.338-24.895 20.508-46.095 45.699-46.442z" fill="#ffd348"/><path d="M2195.455 43.182c0 4.391 3.663 7.952 8.181 7.952 4.519 0 8.182-3.561 8.182-7.952 0-4.392-3.663-7.952-8.182-7.952-4.518 0-8.181 3.56-8.181 7.952zm32.727 0c0 4.391 3.663 7.952 8.182 7.952s8.181-3.561 8.181-7.952c0-4.392-3.662-7.952-8.181-7.952-4.519 0-8.182 3.56-8.182 7.952z" fill="#60361a"/><path d="M2220.879 77.943c-8.2-.112-17.47-3.958-18.629-9.555-1.337-6.842 9.672-5.791 18.629-5.904 9.045.113 19.964-.938 18.628 5.961-1.16 5.54-10.34 9.386-18.628 9.498z" fill="#6a3909" fill-rule="evenodd"/><path d="M2359.091 103.636v.045c0 6-5.086 10.864-11.359 10.864h-15.464c-6.273 0-11.359-4.864-11.359-10.864v-.045h38.182zM2339.339 2.732c25.909-.357 47.025 20.291 47.025 45.813 0 16.48-8.806 30.926-22.019 38.999-2.756 1.683-4.475 4.617-4.475 7.818v2.82h-39.164v-2.473c0-3.246-1.769-6.209-4.583-7.883-13.304-7.914-22.259-22.241-22.483-38.652-.338-24.895 20.508-46.095 45.699-46.442z" fill="#ffd348"/><path d="M2315.455 43.182c0 4.515 3.663 8.177 8.181 8.177 4.519 0 8.182-3.662 8.182-8.177 0-4.516-3.663-8.177-8.182-8.177-4.518 0-8.181 3.661-8.181 8.177zm32.727 0c0 4.515 3.663 8.177 8.182 8.177s8.181-3.662 8.181-8.177c0-4.516-3.662-8.177-8.181-8.177-4.519 0-8.182 3.661-8.182 8.177z" fill="#60361a"/><path d="M2340.896 77.67c-8.155-.109-17.374-3.821-18.526-9.224-1.33-6.604 9.58-5.475 18.526-5.584 9.034.109 19.854-1.02 18.525 5.639-1.153 5.348-10.282 9.06-18.525 9.169z" fill="#6a3909" fill-rule="evenodd"/><path d="M2479.091 103.636v.045c0 6-5.086 10.864-11.359 10.864h-15.464c-6.273 0-11.359-4.864-11.359-10.864v-.045h38.182zM2459.339 2.732c25.909-.357 47.025 20.291 47.025 45.813 0 16.48-8.806 30.926-22.019 38.999-2.756 1.683-4.475 4.617-4.475 7.818v2.82h-39.164v-2.473c0-3.246-1.769-6.209-4.583-7.883-13.304-7.914-22.259-22.241-22.483-38.652-.338-24.895 20.508-46.095 45.699-46.442z" fill="#ffd348"/><path d="M2435.455 43.182c0 4.518 3.663 8.182 8.181 8.182 4.519 0 8.182-3.664 8.182-8.182 0-4.519-3.663-8.182-8.182-8.182-4.518 0-8.181 3.663-8.181 8.182zm32.727 0c0 4.518 3.663 8.182 8.182 8.182s8.181-3.664 8.181-8.182c0-4.519-3.662-8.182-8.181-8.182-4.519 0-8.182 3.663-8.182 8.182z" fill="#60361a"/><path d="M2460.911 77.43c-8.115-.106-17.289-3.7-18.436-8.933-1.323-6.395 9.499-5.196 18.436-5.302 9.024.106 19.758-1.093 18.435 5.355-1.147 5.18-10.233 8.774-18.435 8.88z" fill="#6a3909" fill-rule="evenodd"/><path d="M2599.091 103.636v.045c0 6-5.086 10.864-11.359 10.864h-15.464c-6.273 0-11.359-4.864-11.359-10.864v-.045h38.182zM2579.339 2.732c25.909-.357 47.025 20.291 47.025 45.813 0 16.48-8.806 30.926-22.019 38.999-2.756 1.683-4.475 4.617-4.475 7.818v2.82h-39.164v-2.473c0-3.246-1.769-6.209-4.583-7.883-13.304-7.914-22.259-22.241-22.483-38.652-.338-24.895 20.508-46.095 45.699-46.442z" fill="#ffd348"/><path d="M2555.455 43.182c0 4.518 3.663 8.182 8.181 8.182 4.519 0 8.182-3.664 8.182-8.182 0-4.519-3.663-8.182-8.182-8.182-4.518 0-8.181 3.663-8.181 8.182zm32.727 0c0 4.518 3.663 8.182 8.182 8.182s8.181-3.664 8.181-8.182c0-4.519-3.662-8.182-8.181-8.182-4.519 0-8.182 3.663-8.182 8.182z" fill="#60361a"/><path d="M2580.924 77.218c-8.08-.102-17.215-3.594-18.356-8.676-1.318-6.212 9.428-4.952 18.356-5.054 9.015.102 19.673-1.158 18.356 5.106-1.143 5.03-10.189 8.522-18.356 8.624z" fill="#6a3909" fill-rule="evenodd"/><path d="M2719.091 103.636v.045c0 6-5.086 10.864-11.359 10.864h-15.464c-6.273 0-11.359-4.864-11.359-10.864v-.045h38.182zM2699.339 2.732c25.909-.357 47.025 20.291 47.025 45.813 0 16.48-8.806 30.926-22.019 38.999-2.756 1.683-4.475 4.617-4.475 7.818v2.82h-39.164v-2.473c0-3.246-1.769-6.209-4.583-7.883-13.304-7.914-22.259-22.241-22.483-38.652-.338-24.895 20.508-46.095 45.699-46.442z" fill="#ffd348"/><path d="M2675.455 43.182c0 4.518 3.663 8.182 8.181 8.182 4.519 0 8.182-3.664 8.182-8.182 0-4.519-3.663-8.182-8.182-8.182-4.518 0-8.181 3.663-8.181 8.182zm32.727 0c0 4.518 3.663 8.182 8.182 8.182s8.181-3.664 8.181-8.182c0-4.519-3.662-8.182-8.181-8.182-4.519 0-8.182 3.663-8.182 8.182z" fill="#60361a"/><path d="M2700.936 77.032c-8.05-.1-17.149-3.5-18.287-8.45-1.312-6.05 9.366-4.736 18.287-4.836 9.007.1 19.597-1.214 18.286 4.886-1.138 4.9-10.15 8.3-18.286 8.4z" fill="#6a3909" fill-rule="evenodd"/><path d="M2839.091 103.636v.045c0 6-5.086 10.864-11.359 10.864h-15.464c-6.273 0-11.359-4.864-11.359-10.864v-.045h38.182zM2819.339 2.732c25.909-.357 47.025 20.291 47.025 45.813 0 16.48-8.806 30.926-22.019 38.999-2.756 1.683-4.475 4.617-4.475 7.818v2.82h-39.164v-2.473c0-3.246-1.769-6.209-4.583-7.883-13.304-7.914-22.259-22.241-22.483-38.652-.338-24.895 20.508-46.095 45.699-46.442z" fill="#ffd348"/><path d="M2795.455 43.182c0 4.439 3.663 8.038 8.181 8.038 4.519 0 8.182-3.599 8.182-8.038 0-4.44-3.663-8.038-8.182-8.038-4.518 0-8.181 3.598-8.181 8.038zm32.727 0c0 4.439 3.663 8.038 8.182 8.038s8.181-3.599 8.181-8.038c0-4.44-3.662-8.038-8.181-8.038-4.519 0-8.182 3.598-8.182 8.038z" fill="#60361a"/><path d="M2820.946 76.868c-8.023-.098-17.092-3.418-18.225-8.252-1.308-5.907 9.311-4.546 18.225-4.643 9 .097 19.532-1.264 18.224 4.693-1.134 4.784-10.115 8.104-18.224 8.202z" fill="#6a3909" fill-rule="evenodd"/><path d="M2959.091 103.636v.045c0 6-5.086 10.864-11.359 10.864h-15.464c-6.273 0-11.359-4.864-11.359-10.864v-.045h38.182zM2939.339 2.732c25.909-.357 47.025 20.291 47.025 45.813 0 16.48-8.806 30.926-22.019 38.999-2.756 1.683-4.475 4.617-4.475 7.818v2.82h-39.164v-2.473c0-3.246-1.769-6.209-4.583-7.883-13.304-7.914-22.259-22.241-22.483-38.652-.338-24.895 20.508-46.095 45.699-46.442z" fill="#ffd348"/><path d="M2915.455 43.182c0 1.565 3.663 2.835 8.181 2.835 4.519 0 8.182-1.27 8.182-2.835s-3.663-2.835-8.182-2.835c-4.518 0-8.181 1.27-8.181 2.835zm32.727 0c0 1.565 3.663 2.835 8.182 2.835s8.181-1.27 8.181-2.835-3.662-2.835-8.181-2.835c-4.519 0-8.182 1.27-8.182 2.835z" fill="#60361a"/><path d="M2940.955 76.724c-7.999-.095-17.041-3.346-18.171-8.077-1.304-5.782 9.263-4.38 18.171-4.475 8.994.095 19.474-1.307 18.17 4.523-1.131 4.683-10.085 7.934-18.17 8.029z" fill="#6a3909" fill-rule="evenodd"/><path d="M3079.091 103.636v.045c0 6-5.086 10.864-11.359 10.864h-15.464c-6.273 0-11.359-4.864-11.359-10.864v-.045h38.182zM3059.339 2.732c25.909-.357 47.025 20.291 47.025 45.813 0 16.48-8.806 30.926-22.019 38.999-2.756 1.683-4.475 4.617-4.475 7.818v2.82h-39.164v-2.473c0-3.246-1.769-6.209-4.583-7.883-13.304-7.914-22.259-22.241-22.483-38.652-.338-24.895 20.508-46.095 45.699-46.442z" fill="#ffd348"/><path d="M3035.455 43.182c0 .595 3.663 1.077 8.181 1.077 4.519 0 8.182-.482 8.182-1.077s-3.663-1.077-8.182-1.077c-4.518 0-8.181.482-8.181 1.077zm32.727 0c0 .595 3.663 1.077 8.182 1.077s8.181-.482 8.181-1.077-3.662-1.077-8.181-1.077c-4.519 0-8.182.482-8.182 1.077z" fill="#60361a"/><path d="M3060.963 76.598c-7.978-.094-16.997-3.283-18.124-7.924-1.301-5.673 9.221-4.234 18.124-4.327 8.989.093 19.423-1.346 18.123 4.374-1.128 4.594-10.06 7.783-18.123 7.877z" fill="#6a3909" fill-rule="evenodd"/><path d="M3199.091 103.636v.045c0 6-5.086 10.864-11.359 10.864h-15.464c-6.273 0-11.359-4.864-11.359-10.864v-.045h38.182zM3179.339 2.732c25.909-.357 47.025 20.291 47.025 45.813 0 16.48-8.806 30.926-22.019 38.999-2.756 1.683-4.475 4.617-4.475 7.818v2.82h-39.164v-2.473c0-3.246-1.769-6.209-4.583-7.883-13.304-7.914-22.259-22.241-22.483-38.652-.338-24.895 20.508-46.095 45.699-46.442z" fill="#ffd348"/><path d="M3155.455 43.182c0 .712 3.663 1.29 8.181 1.29 4.519 0 8.182-.578 8.182-1.29 0-.712-3.663-1.29-8.182-1.29-4.518 0-8.181.578-8.181 1.29zm32.727 0c0 .712 3.663 1.29 8.182 1.29s8.181-.578 8.181-1.29c0-.712-3.662-1.29-8.181-1.29-4.519 0-8.182.578-8.182 1.29z" fill="#60361a"/><path d="M3180.97 76.487c-7.96-.092-16.958-3.226-18.082-7.79-1.298-5.577 9.183-4.106 18.082-4.198 8.984.092 19.379-1.379 18.081 4.245-1.125 4.517-10.036 7.651-18.081 7.743z" fill="#6a3909" fill-rule="evenodd"/><path d="M3319.091 103.636v.045c0 6-5.086 10.864-11.359 10.864h-15.464c-6.273 0-11.359-4.864-11.359-10.864v-.045h38.182zM3299.339 2.732c25.909-.357 47.025 20.291 47.025 45.813 0 16.48-8.806 30.926-22.019 38.999-2.756 1.683-4.475 4.617-4.475 7.818v2.82h-39.164v-2.473c0-3.246-1.769-6.209-4.583-7.883-13.304-7.914-22.259-22.241-22.483-38.652-.338-24.895 20.508-46.095 45.699-46.442z" fill="#ffd348"/><path d="M3275.455 43.182c0 2.106 3.663 3.814 8.181 3.814 4.519 0 8.182-1.708 8.182-3.814 0-2.107-3.663-3.814-8.182-3.814-4.518 0-8.181 1.707-8.181 3.814zm32.727 0c0 2.106 3.663 3.814 8.182 3.814s8.181-1.708 8.181-3.814c0-2.107-3.662-3.814-8.181-3.814-4.519 0-8.182 1.707-8.182 3.814z" fill="#60361a"/><path d="M3300.976 76.391c-7.944-.09-16.924-3.178-18.046-7.673-1.296-5.494 9.151-3.995 18.046-4.086 8.98.091 19.34-1.408 18.045 4.132-1.123 4.449-10.016 7.537-18.045 7.627z" fill="#6a3909" fill-rule="evenodd"/><path d="M3439.091 103.636v.045c0 6-5.086 10.864-11.359 10.864h-15.464c-6.273 0-11.359-4.864-11.359-10.864v-.045h38.182zM3419.339 2.732c25.909-.357 47.025 20.291 47.025 45.813 0 16.48-8.806 30.926-22.019 38.999-2.756 1.683-4.475 4.617-4.475 7.818v2.82h-39.164v-2.473c0-3.246-1.769-6.209-4.583-7.883-13.304-7.914-22.259-22.241-22.483-38.652-.338-24.895 20.508-46.095 45.699-46.442z" fill="#ffd348"/><path d="M3395.455 43.182c0 3.609 3.663 6.536 8.181 6.536 4.519 0 8.182-2.927 8.182-6.536 0-3.61-3.663-6.536-8.182-6.536-4.518 0-8.181 2.926-8.181 6.536zm32.727 0c0 3.609 3.663 6.536 8.182 6.536s8.181-2.927 8.181-6.536c0-3.61-3.662-6.536-8.181-6.536-4.519 0-8.182 2.926-8.182 6.536z" fill="#60361a"/><path d="M3420.981 76.308c-7.93-.089-16.895-3.136-18.015-7.573-1.293-5.421 9.123-3.899 18.015-3.988 8.977.089 19.307-1.433 18.014 4.034-1.121 4.391-9.999 7.438-18.014 7.527z" fill="#6a3909" fill-rule="evenodd"/><path d="M3559.091 103.636v.045c0 6-5.086 10.864-11.359 10.864h-15.464c-6.273 0-11.359-4.864-11.359-10.864v-.045h38.182zM3539.339 2.732c25.909-.357 47.025 20.291 47.025 45.813 0 16.48-8.806 30.926-22.019 38.999-2.756 1.683-4.475 4.617-4.475 7.818v2.82h-39.164v-2.473c0-3.246-1.769-6.209-4.583-7.883-13.304-7.914-22.259-22.241-22.483-38.652-.338-24.895 20.508-46.095 45.699-46.442z" fill="#ffd348"/><path d="M3515.455 43.182c0 4.24 3.663 7.679 8.181 7.679 4.519 0 8.182-3.439 8.182-7.679 0-4.241-3.663-7.679-8.182-7.679-4.518 0-8.181 3.438-8.181 7.679zm32.727 0c0 4.24 3.663 7.679 8.182 7.679s8.181-3.439 8.181-7.679c0-4.241-3.662-7.679-8.181-7.679-4.519 0-8.182 3.438-8.182 7.679z" fill="#60361a"/><path d="M3540.985 76.238c-7.918-.089-16.869-3.102-17.988-7.487-1.291-5.361 9.1-3.817 17.988-3.906 8.974.089 19.279-1.455 17.988 3.95-1.119 4.341-9.984 7.354-17.988 7.443z" fill="#6a3909" fill-rule="evenodd"/><path d="M3679.091 103.636v.045c0 6-5.086 10.864-11.359 10.864h-15.464c-6.273 0-11.359-4.864-11.359-10.864v-.045h38.182zM3659.339 2.732c25.909-.357 47.025 20.291 47.025 45.813 0 16.48-8.806 30.926-22.019 38.999-2.756 1.683-4.475 4.617-4.475 7.818v2.82h-39.164v-2.473c0-3.246-1.769-6.209-4.583-7.883-13.304-7.914-22.259-22.241-22.483-38.652-.338-24.895 20.508-46.095 45.699-46.442z" fill="#ffd348"/><path d="M3635.455 43.182c0 4.48 3.663 8.113 8.181 8.113 4.519 0 8.182-3.633 8.182-8.113 0-4.481-3.663-8.113-8.182-8.113-4.518 0-8.181 3.632-8.181 8.113zm32.727 0c0 4.48 3.663 8.113 8.182 8.113s8.181-3.633 8.181-8.113c0-4.481-3.662-8.113-8.181-8.113-4.519 0-8.182 3.632-8.182 8.113z" fill="#60361a"/><path d="M3660.989 76.177c-7.908-.087-16.849-3.071-17.966-7.414-1.289-5.308 9.08-3.747 17.966-3.835 8.971.088 19.254-1.473 17.965 3.88-1.118 4.298-9.971 7.282-17.965 7.369z" fill="#6a3909" fill-rule="evenodd"/><g><path d="M3799.091 103.636v.045c0 6-5.086 10.864-11.359 10.864h-15.464c-6.273 0-11.359-4.864-11.359-10.864v-.045h38.182zM3779.339 2.732c25.909-.357 47.025 20.291 47.025 45.813 0 16.48-8.806 30.926-22.019 38.999-2.756 1.683-4.475 4.617-4.475 7.818v2.82h-39.164v-2.473c0-3.246-1.769-6.209-4.583-7.883-13.304-7.914-22.259-22.241-22.483-38.652-.338-24.895 20.508-46.095 45.699-46.442z" fill="#ffd348"/><path d="M3755.455 43.182c0 4.518 3.663 8.182 8.181 8.182 4.519 0 8.182-3.664 8.182-8.182 0-4.519-3.663-8.182-8.182-8.182-4.518 0-8.181 3.663-8.181 8.182zm32.727 0c0 4.518 3.663 8.182 8.182 8.182s8.181-3.664 8.181-8.182c0-4.519-3.662-8.182-8.181-8.182-4.519 0-8.182 3.663-8.182 8.182z" fill="#60361a"/><path d="M3780.992 76.127c-7.9-.086-16.831-3.046-17.947-7.353-1.288-5.265 9.063-3.69 17.947-3.776 8.969.086 19.234-1.489 17.947 3.82-1.117 4.263-9.962 7.223-17.947 7.309z" fill="#6a3909" fill-rule="evenodd"/></g><g><path d="M3919.091 103.636v.045c0 6-5.086 10.864-11.359 10.864h-15.464c-6.273 0-11.359-4.864-11.359-10.864v-.045h38.182zM3899.339 2.732c25.909-.357 47.025 20.291 47.025 45.813 0 16.48-8.806 30.926-22.019 38.999-2.756 1.683-4.475 4.617-4.475 7.818v2.82h-39.164v-2.473c0-3.246-1.769-6.209-4.583-7.883-13.304-7.914-22.259-22.241-22.483-38.652-.338-24.895 20.508-46.095 45.699-46.442z" fill="#ffd348"/><path d="M3875.455 43.182c0 4.518 3.663 8.182 8.181 8.182 4.519 0 8.182-3.664 8.182-8.182 0-4.519-3.663-8.182-8.182-8.182-4.518 0-8.181 3.663-8.181 8.182zm32.727 0c0 4.518 3.663 8.182 8.182 8.182s8.181-3.664 8.181-8.182c0-4.519-3.662-8.182-8.181-8.182-4.519 0-8.182 3.663-8.182 8.182z" fill="#60361a"/><path d="M3900.995 76.087c-7.894-.087-16.817-3.026-17.932-7.304-1.287-5.23 9.049-3.643 17.932-3.729 8.967.086 19.217-1.501 17.931 3.772-1.116 4.235-9.953 7.174-17.931 7.261z" fill="#6a3909" fill-rule="evenodd"/></g><g><path d="M4039.091 103.636v.045c0 6-5.086 10.864-11.359 10.864h-15.464c-6.273 0-11.359-4.864-11.359-10.864v-.045h38.182zM4019.339 2.732c25.909-.357 47.025 20.291 47.025 45.813 0 16.48-8.806 30.926-22.019 38.999-2.756 1.683-4.475 4.617-4.475 7.818v2.82h-39.164v-2.473c0-3.246-1.769-6.209-4.583-7.883-13.304-7.914-22.259-22.241-22.483-38.652-.338-24.895 20.508-46.095 45.699-46.442z" fill="#ffd348"/><path d="M3995.455 43.182c0 4.518 3.663 8.182 8.181 8.182 4.519 0 8.182-3.664 8.182-8.182 0-4.519-3.663-8.182-8.182-8.182-4.518 0-8.181 3.663-8.181 8.182zm32.727 0c0 4.518 3.663 8.182 8.182 8.182s8.181-3.664 8.181-8.182c0-4.519-3.662-8.182-8.181-8.182-4.519 0-8.182 3.663-8.182 8.182z" fill="#60361a"/><path d="M4020.997 76.054c-7.888-.085-16.806-3.009-17.92-7.265-1.286-5.201 9.038-3.605 17.92-3.69 8.966.085 19.204-1.511 17.919 3.734-1.115 4.212-9.946 7.136-17.919 7.221z" fill="#6a3909" fill-rule="evenodd"/></g><g><path d="M4159.091 103.636v.045c0 6-5.086 10.864-11.359 10.864h-15.464c-6.273 0-11.359-4.864-11.359-10.864v-.045h38.182zM4139.339 2.732c25.909-.357 47.025 20.291 47.025 45.813 0 16.48-8.806 30.926-22.019 38.999-2.756 1.683-4.475 4.617-4.475 7.818v2.82h-39.164v-2.473c0-3.246-1.769-6.209-4.583-7.883-13.304-7.914-22.259-22.241-22.483-38.652-.338-24.895 20.508-46.095 45.699-46.442z" fill="#ffd348"/><path d="M4115.455 43.182c0 4.518 3.663 8.182 8.181 8.182 4.519 0 8.182-3.664 8.182-8.182 0-4.519-3.663-8.182-8.182-8.182-4.518 0-8.181 3.663-8.181 8.182zm32.727 0c0 4.518 3.663 8.182 8.182 8.182s8.181-3.664 8.181-8.182c0-4.519-3.662-8.182-8.181-8.182-4.519 0-8.182 3.663-8.182 8.182z" fill="#60361a"/><path d="M4140.998 76.03c-7.884-.085-16.796-2.997-17.91-7.235-1.286-5.181 9.03-3.577 17.91-3.663 8.965.086 19.195-1.518 17.91 3.706-1.114 4.195-9.941 7.107-17.91 7.192z" fill="#6a3909" fill-rule="evenodd"/></g><g><path d="M4279.091 103.636v.045c0 6-5.086 10.864-11.359 10.864h-15.464c-6.273 0-11.359-4.864-11.359-10.864v-.045h38.182zM4259.339 2.732c25.909-.357 47.025 20.291 47.025 45.813 0 16.48-8.806 30.926-22.019 38.999-2.756 1.683-4.475 4.617-4.475 7.818v2.82h-39.164v-2.473c0-3.246-1.769-6.209-4.583-7.883-13.304-7.914-22.259-22.241-22.483-38.652-.338-24.895 20.508-46.095 45.699-46.442z" fill="#ffd348"/><path d="M4235.455 43.182c0 4.518 3.663 8.182 8.181 8.182 4.519 0 8.182-3.664 8.182-8.182 0-4.519-3.663-8.182-8.182-8.182-4.518 0-8.181 3.663-8.181 8.182zm32.727 0c0 4.518 3.663 8.182 8.182 8.182s8.181-3.664 8.181-8.182c0-4.519-3.662-8.182-8.181-8.182-4.519 0-8.182 3.663-8.182 8.182z" fill="#60361a"/><path d="M4260.999 76.013c-7.881-.085-16.791-2.988-17.904-7.215-1.285-5.165 9.025-3.557 17.904-3.642 8.965.085 19.189-1.523 17.904 3.685-1.114 4.184-9.938 7.087-17.904 7.172z" fill="#6a3909" fill-rule="evenodd"/></g><g><path d="M4399.091 103.636v.045c0 6-5.086 10.864-11.359 10.864h-15.464c-6.273 0-11.359-4.864-11.359-10.864v-.045h38.182zM4379.339 2.732c25.909-.357 47.025 20.291 47.025 45.813 0 16.48-8.806 30.926-22.019 38.999-2.756 1.683-4.475 4.617-4.475 7.818v2.82h-39.164v-2.473c0-3.246-1.769-6.209-4.583-7.883-13.304-7.914-22.259-22.241-22.483-38.652-.338-24.895 20.508-46.095 45.699-46.442z" fill="#ffd348"/><path d="M4355.455 43.182c0 4.518 3.663 8.182 8.181 8.182 4.519 0 8.182-3.664 8.182-8.182 0-4.519-3.663-8.182-8.182-8.182-4.518 0-8.181 3.663-8.181 8.182zm32.727 0c0 4.518 3.663 8.182 8.182 8.182s8.181-3.664 8.181-8.182c0-4.519-3.662-8.182-8.181-8.182-4.519 0-8.182 3.663-8.182 8.182z" fill="#60361a"/><path d="M4381 76.003c-7.88-.085-16.787-2.983-17.9-7.203-1.286-5.157 9.021-3.546 17.9-3.631 8.964.085 19.184-1.526 17.9 3.674-1.114 4.177-9.936 7.075-17.9 7.16z" fill="#6a3909" fill-rule="evenodd"/></g><g><path d="M4519.091 103.636v.045c0 6-5.086 10.864-11.359 10.864h-15.464c-6.273 0-11.359-4.864-11.359-10.864v-.045h38.182zM4499.339 2.732c25.909-.357 47.025 20.291 47.025 45.813 0 16.48-8.806 30.926-22.019 38.999-2.756 1.683-4.475 4.617-4.475 7.818v2.82h-39.164v-2.473c0-3.246-1.769-6.209-4.583-7.883-13.304-7.914-22.259-22.241-22.483-38.652-.338-24.895 20.508-46.095 45.699-46.442z" fill="#ffd348"/><path d="M4475.455 43.182c0 4.518 3.663 8.182 8.181 8.182 4.519 0 8.182-3.664 8.182-8.182 0-4.519-3.663-8.182-8.182-8.182-4.518 0-8.181 3.663-8.181 8.182zm32.727 0c0 4.518 3.663 8.182 8.182 8.182s8.181-3.664 8.181-8.182c0-4.519-3.662-8.182-8.181-8.182-4.519 0-8.182 3.663-8.182 8.182z" fill="#60361a"/><path d="M4501 76c-7.879-.085-16.786-2.982-17.899-7.199-1.285-5.154 9.02-3.542 17.899-3.627 8.964.085 19.183-1.527 17.899 3.67-1.114 4.174-9.935 7.071-17.899 7.156z" fill="#6a3909" fill-rule="evenodd"/></g><g><path d="M4639.091 103.636v.045c0 6-5.086 10.864-11.359 10.864h-15.464c-6.273 0-11.359-4.864-11.359-10.864v-.045h38.182zM4619.339 2.732c25.909-.357 47.025 20.291 47.025 45.813 0 16.48-8.806 30.926-22.019 38.999-2.756 1.683-4.475 4.617-4.475 7.818v2.82h-39.164v-2.473c0-3.246-1.769-6.209-4.583-7.883-13.304-7.914-22.259-22.241-22.483-38.652-.338-24.895 20.508-46.095 45.699-46.442z" fill="#ffd348"/><path d="M4595.438 43.010403c0 4.528 3.67 8.199 8.198 8.199 4.529 0 8.199-3.671 8.199-8.199 0-4.529-3.67-8.199-8.199-8.199-4.528 0-8.198 3.67-8.198 8.199zm32.727 0c0 4.528 3.67 8.199 8.199 8.199s8.198-3.671 8.198-8.199c0-4.529-3.669-8.199-8.198-8.199s-8.199 3.67-8.199 8.199z" fill="#60361a"/><path d="M4620.999 75.989403c-7.896-.086-16.796-3.016-17.91-7.253-1.285-5.158 9.028-3.552 17.91-3.638 8.967.086 19.194-1.523 17.91 3.681-1.115 4.193-9.929 7.124-17.91 7.21z" fill="#6a3909" fill-rule="evenodd"/></g><g><path d="M4759.091 103.636v.045c0 6-5.086 10.864-11.359 10.864h-15.464c-6.273 0-11.359-4.864-11.359-10.864v-.045h38.182zM4739.339 2.732c25.909-.357 47.025 20.291 47.025 45.813 0 16.48-8.806 30.926-22.019 38.999-2.756 1.683-4.475 4.617-4.475 7.818v2.82h-39.164v-2.473c0-3.246-1.769-6.209-4.583-7.883-13.304-7.914-22.259-22.241-22.483-38.652-.338-24.895 20.508-46.095 45.699-46.442z" fill="#ffd348"/><path d="M4715.369 42.334805c0 4.565 3.702 8.268 8.267 8.268 4.566 0 8.268-3.703 8.268-8.268 0-4.566-3.702-8.268-8.268-8.268-4.565 0-8.267 3.702-8.267 8.268zm32.727 0c0 4.565 3.702 8.268 8.268 8.268 4.566 0 8.267-3.703 8.267-8.268 0-4.566-3.701-8.268-8.267-8.268-4.566 0-8.268 3.702-8.268 8.268z" fill="#60361a"/><path d="M4740.995 75.938805c-7.956-.087-16.829-3.136-17.949-7.44-1.282-5.173 9.058-3.591 17.949-3.677 8.976.086 19.232-1.509 17.949 3.72-1.12 4.26-9.908 7.31-17.949 7.397z" fill="#6a3909" fill-rule="evenodd"/></g><g><path d="M4879.091 103.636v.045c0 6-5.086 10.864-11.359 10.864h-15.464c-6.273 0-11.359-4.864-11.359-10.864v-.045h38.182zM4859.339 2.732c25.909-.357 47.025 20.291 47.025 45.813 0 16.48-8.806 30.926-22.019 38.999-2.756 1.683-4.475 4.617-4.475 7.818v2.82h-39.164v-2.473c0-3.246-1.769-6.209-4.583-7.883-13.304-7.914-22.259-22.241-22.483-38.652-.338-24.895 20.508-46.095 45.699-46.442z" fill="#ffd348"/><path d="M4835.221 40.870863c0 4.647 3.768 8.416 8.415 8.416 4.648 0 8.415-3.769 8.415-8.416 0-4.648-3.767-8.415-8.415-8.415-4.647 0-8.415 3.767-8.415 8.415zm32.728 0c0 4.647 3.767 8.416 8.415 8.416s8.415-3.769 8.415-8.416c0-4.648-3.767-8.415-8.415-8.415s-8.415 3.767-8.415 8.415z" fill="#60361a"/><path d="M4860.988 75.811863c-8.069-.089-16.893-3.361-18.024-7.794-1.277-5.2 9.115-3.662 18.024-3.751 8.994.089 19.303-1.481 18.023 3.793-1.129 4.387-9.869 7.663-18.023 7.752z" fill="#6a3909" fill-rule="evenodd"/></g><g><path d="M4999.091 103.636v.045c0 6-5.086 10.864-11.359 10.864h-15.464c-6.273 0-11.359-4.864-11.359-10.864v-.045h38.182zM4979.339 2.732c25.909-.357 47.025 20.291 47.025 45.813 0 16.48-8.806 30.926-22.019 38.999-2.756 1.683-4.475 4.617-4.475 7.818v2.82h-39.164v-2.473c0-3.246-1.769-6.209-4.583-7.883-13.304-7.914-22.259-22.241-22.483-38.652-.338-24.895 20.508-46.095 45.699-46.442z" fill="#ffd348"/><path d="M4954.965 38.33041c0 4.789 3.882 8.672 8.671 8.672 4.79 0 8.672-3.883 8.672-8.672 0-4.79-3.882-8.672-8.672-8.672-4.789 0-8.671 3.882-8.671 8.672zm32.727 0c0 4.789 3.882 8.672 8.672 8.672 4.79 0 8.671-3.883 8.671-8.672 0-4.79-3.881-8.672-8.671-8.672-4.79 0-8.672 3.882-8.672 8.672z" fill="#60361a"/><path d="M4980.976 75.57441c-8.248-.092-16.994-3.718-18.141-8.356-1.271-5.245 9.204-3.776 18.141-3.868 9.024.092 19.416-1.438 18.141 3.909-1.142 4.589-9.806 8.223-18.141 8.315z" fill="#6a3909" fill-rule="evenodd"/></g><g><path d="M5119.091 103.636v.045c0 6-5.086 10.864-11.359 10.864h-15.464c-6.273 0-11.359-4.864-11.359-10.864v-.045h38.182zM5099.339 2.732c25.909-.357 47.025 20.291 47.025 45.813 0 16.48-8.806 30.926-22.019 38.999-2.756 1.683-4.475 4.617-4.475 7.818v2.82h-39.164v-2.473c0-3.246-1.769-6.209-4.583-7.883-13.304-7.914-22.259-22.241-22.483-38.652-.338-24.895 20.508-46.095 45.699-46.442z" fill="#ffd348"/><path d="M5074.639 35.109595c0 4.968 4.029 8.997 8.997 8.997 4.969 0 8.997-4.029 8.997-8.997 0-4.969-4.028-8.997-8.997-8.997-4.968 0-8.997 4.028-8.997 8.997zm32.728 0c0 4.968 4.028 8.997 8.997 8.997s8.997-4.029 8.997-8.997c0-4.969-4.028-8.997-8.997-8.997s-8.997 4.028-8.997 8.997z" fill="#60361a"/><path d="M5100.959 75.310595c-8.512-.097-17.142-4.243-18.313-9.18-1.261-5.309 9.334-3.942 18.313-4.039 9.066.097 19.582-1.375 18.313 4.079-1.162 4.884-9.715 9.043-18.313 9.14z" fill="#6a3909" fill-rule="evenodd"/></g><g><path d="M5239.091 103.636v.045c0 6-5.086 10.864-11.359 10.864h-15.464c-6.273 0-11.359-4.864-11.359-10.864v-.045h38.182zM5219.339 2.732c25.909-.357 47.025 20.291 47.025 45.813 0 16.48-8.806 30.926-22.019 38.999-2.756 1.683-4.475 4.617-4.475 7.818v2.82h-39.164v-2.473c0-3.246-1.769-6.209-4.583-7.883-13.304-7.914-22.259-22.241-22.483-38.652-.338-24.895 20.508-46.095 45.699-46.442z" fill="#ffd348"/><path d="M5194.351 32.260733c0 5.127 4.158 9.285 9.285 9.285 5.128 0 9.285-4.158 9.285-9.285 0-5.129-4.157-9.285-9.285-9.285-5.127 0-9.285 4.156-9.285 9.285zm32.728 0c0 5.127 4.157 9.285 9.285 9.285s9.285-4.158 9.285-9.285c0-5.129-4.157-9.285-9.285-9.285s-9.285 4.156-9.285 9.285z" fill="#60361a"/><path d="M5220.935 75.215733c-8.877-.104-17.347-4.973-18.552-10.326-1.247-5.4 9.515-4.174 18.552-4.278 9.125.104 19.813-1.287 18.552 4.315-1.19 5.295-9.586 10.185-18.552 10.289z" fill="#6a3909" fill-rule="evenodd"/></g><g><path d="M5359.091 103.636v.045c0 6-5.086 10.864-11.359 10.864h-15.464c-6.273 0-11.359-4.864-11.359-10.864v-.045h38.182zM5339.339 2.732c25.909-.357 47.025 20.291 47.025 45.813 0 16.48-8.806 30.926-22.019 38.999-2.756 1.683-4.475 4.617-4.475 7.818v2.82h-39.164v-2.473c0-3.246-1.769-6.209-4.583-7.883-13.304-7.914-22.259-22.241-22.483-38.652-.338-24.895 20.508-46.095 45.699-46.442z" fill="#ffd348"/><path d="M5314.136 30.132023c0 5.246 4.254 9.5 9.5 9.5 5.247 0 9.5-4.254 9.5-9.5 0-5.247-4.253-9.5-9.5-9.5-5.246 0-9.5 4.253-9.5 9.5zm32.728 0c0 5.246 4.253 9.5 9.5 9.5s9.5-4.254 9.5-9.5c0-5.247-4.253-9.5-9.5-9.5s-9.5 4.253-9.5 9.5z" fill="#60361a"/><path d="M5340.904 75.364023c-9.362-.114-17.62-5.939-18.87-11.845-1.228-5.518 9.756-4.48 18.87-4.594 9.203.114 20.119-1.17 18.869 4.629-1.227 5.839-9.417 11.696-18.869 11.81z" fill="#6a3909" fill-rule="evenodd"/></g><g><path d="M5479.091 103.636v.045c0 6-5.086 10.864-11.359 10.864h-15.464c-6.273 0-11.359-4.864-11.359-10.864v-.045h38.182zM5459.339 2.732c25.909-.357 47.025 20.291 47.025 45.813 0 16.48-8.806 30.926-22.019 38.999-2.756 1.683-4.475 4.617-4.475 7.818v2.82h-39.164v-2.473c0-3.246-1.769-6.209-4.583-7.883-13.304-7.914-22.259-22.241-22.483-38.652-.338-24.895 20.508-46.095 45.699-46.442z" fill="#ffd348"/><path d="M5433.98 28.587551c0 5.332 4.324 9.656 9.656 9.656 5.333 0 9.656-4.324 9.656-9.656 0-5.333-4.323-9.656-9.656-9.656-5.332 0-9.656 4.323-9.656 9.656zm32.728 0c0 5.332 4.323 9.656 9.656 9.656s9.656-4.324 9.656-9.656c0-5.333-4.323-9.656-9.656-9.656s-9.656 4.323-9.656 9.656z" fill="#60361a"/><path d="M5460.865 75.730551c-9.964-.125-17.958-7.139-19.263-13.729-1.205-5.666 10.054-4.86 19.263-4.986 9.3.126 20.498-1.026 19.263 5.018-1.273 6.514-9.208 13.572-19.263 13.697z" fill="#6a3909" fill-rule="evenodd"/></g><g><path d="M5599.091 103.636v.045c0 6-5.086 10.864-11.359 10.864h-15.464c-6.273 0-11.359-4.864-11.359-10.864v-.045h38.182zM5579.339 2.732c25.909-.357 47.025 20.291 47.025 45.813 0 16.48-8.806 30.926-22.019 38.999-2.756 1.683-4.475 4.617-4.475 7.818v2.82h-39.164v-2.473c0-3.246-1.769-6.209-4.583-7.883-13.304-7.914-22.259-22.241-22.483-38.652-.338-24.895 20.508-46.095 45.699-46.442z" fill="#ffd348"/><path d="M5553.866 27.46201c0 5.395 4.375 9.77 9.77 9.77 5.396 0 9.77-4.375 9.77-9.77 0-5.396-4.374-9.77-9.77-9.77-5.395 0-9.77 4.374-9.77 9.77zm32.728 0c0 5.395 4.374 9.77 9.77 9.77s9.77-4.375 9.77-9.77c0-5.396-4.374-9.77-9.77-9.77s-9.77 4.374-9.77 9.77z" fill="#60361a"/><path d="M5580.82 76.24901c-10.644-.138-18.34-8.496-19.708-15.86-1.179-5.834 10.392-5.291 19.708-5.43 9.411.139 20.929-.862 19.709 5.458-1.325 7.278-8.97 15.694-19.709 15.832z" fill="#6a3909" fill-rule="evenodd"/></g><g><path d="M5719.091 103.636v.045c0 6-5.086 10.864-11.359 10.864h-15.464c-6.273 0-11.359-4.864-11.359-10.864v-.045h38.182zM5699.339 2.732c25.909-.357 47.025 20.291 47.025 45.813 0 16.48-8.806 30.926-22.019 38.999-2.756 1.683-4.475 4.617-4.475 7.818v2.82h-39.164v-2.473c0-3.246-1.769-6.209-4.583-7.883-13.304-7.914-22.259-22.241-22.483-38.652-.338-24.895 20.508-46.095 45.699-46.442z" fill="#ffd348"/><path d="M5673.784 26.64241c0 5.441 4.411 9.853 9.852 9.853 5.442 0 9.852-4.412 9.852-9.853s-4.41-9.852-9.852-9.852c-5.441 0-9.852 4.411-9.852 9.852zm32.728 0c0 5.441 4.41 9.853 9.852 9.853s9.852-4.412 9.852-9.853-4.41-9.852-9.852-9.852-9.852 4.411-9.852 9.852z" fill="#60361a"/><path d="M5700.775 76.83141c-11.336-.152-18.73-9.877-20.161-18.03-1.152-6.004 10.735-5.729 20.161-5.881 9.523.152 21.366-.696 20.162 5.905-1.378 8.056-8.728 17.854-20.162 18.006z" fill="#6a3909" fill-rule="evenodd"/></g><g><path d="M5839.091 103.636v.045c0 6-5.086 10.864-11.359 10.864h-15.464c-6.273 0-11.359-4.864-11.359-10.864v-.045h38.182zM5819.339 2.732c25.909-.357 47.025 20.291 47.025 45.813 0 16.48-8.806 30.926-22.019 38.999-2.756 1.683-4.475 4.617-4.475 7.818v2.82h-39.164v-2.473c0-3.246-1.769-6.209-4.583-7.883-13.304-7.914-22.259-22.241-22.483-38.652-.338-24.895 20.508-46.095 45.699-46.442z" fill="#ffd348"/><path d="M5793.724 26.053212c0 5.473 4.439 9.912 9.912 9.912 5.474 0 9.912-4.439 9.912-9.912 0-5.474-4.438-9.912-9.912-9.912-5.473 0-9.912 4.438-9.912 9.912zm32.728 0c0 5.473 4.438 9.912 9.912 9.912 5.474 0 9.912-4.439 9.912-9.912 0-5.474-4.438-9.912-9.912-9.912-5.474 0-9.912 4.438-9.912 9.912z" fill="#60361a"/><path d="M5820.733 77.403212c-11.981-.165-19.092-11.164-20.583-20.051-1.128-6.163 11.055-6.138 20.583-6.302 9.627.164 21.773-.541 20.584 6.322-1.427 8.78-8.503 19.866-20.584 20.031z" fill="#6a3909" fill-rule="evenodd"/></g><g><path d="M5959.091 103.636v.045c0 6-5.086 10.864-11.359 10.864h-15.464c-6.273 0-11.359-4.864-11.359-10.864v-.045h38.182zM5939.339 2.732c25.909-.357 47.025 20.291 47.025 45.813 0 16.48-8.806 30.926-22.019 38.999-2.756 1.683-4.475 4.617-4.475 7.818v2.82h-39.164v-2.473c0-3.246-1.769-6.209-4.583-7.883-13.304-7.914-22.259-22.241-22.483-38.652-.338-24.895 20.508-46.095 45.699-46.442z" fill="#ffd348"/><path d="M5913.683 25.64394c0 5.496 4.457 9.953 9.953 9.953 5.497 0 9.953-4.457 9.953-9.953 0-5.498-4.456-9.954-9.953-9.954-5.496 0-9.953 4.456-9.953 9.954zm32.728 0c0 5.496 4.456 9.953 9.953 9.953 5.497 0 9.953-4.457 9.953-9.953 0-5.498-4.456-9.954-9.953-9.954-5.497 0-9.953 4.456-9.953 9.954z" fill="#60361a"/><path d="M5940.696 77.92594c-12.551-.175-19.413-12.3-20.956-21.835-1.105-6.304 11.338-6.498 20.956-6.674 9.72.176 22.133-.404 20.957 6.691-1.47 9.419-8.304 21.643-20.957 21.818z" fill="#6a3909" fill-rule="evenodd"/></g><g><path d="M6079.091 103.636v.045c0 6-5.086 10.864-11.359 10.864h-15.464c-6.273 0-11.359-4.864-11.359-10.864v-.045h38.182zM6059.339 2.732c25.909-.357 47.025 20.291 47.025 45.813 0 16.48-8.806 30.926-22.019 38.999-2.756 1.683-4.475 4.617-4.475 7.818v2.82h-39.164v-2.473c0-3.246-1.769-6.209-4.583-7.883-13.304-7.914-22.259-22.241-22.483-38.652-.338-24.895 20.508-46.095 45.699-46.442z" fill="#ffd348"/><path d="M6033.656 25.377666c0 5.511 4.469 9.981 9.98 9.981 5.512 0 9.98-4.47 9.98-9.981 0-5.512-4.468-9.98-9.98-9.98-5.511 0-9.98 4.468-9.98 9.98zm32.728 0c0 5.511 4.468 9.981 9.98 9.981 5.512 0 9.98-4.47 9.98-9.981 0-5.512-4.468-9.98-9.98-9.98-5.512 0-9.98 4.468-9.98 9.98z" fill="#60361a"/><path d="M6060.664 78.390666c-13.041-.185-19.688-13.278-21.277-23.372-1.086-6.424 11.581-6.808 21.277-6.993 9.799.185 22.442-.286 21.278 7.007-1.508 9.971-8.133 23.173-21.278 23.358z" fill="#6a3909" fill-rule="evenodd"/></g><g><path d="M6199.091 103.636v.045c0 6-5.086 10.864-11.359 10.864h-15.464c-6.273 0-11.359-4.864-11.359-10.864v-.045h38.182zM6179.339 2.732c25.909-.357 47.025 20.291 47.025 45.813 0 16.48-8.806 30.926-22.019 38.999-2.756 1.683-4.475 4.617-4.475 7.818v2.82h-39.164v-2.473c0-3.246-1.769-6.209-4.583-7.883-13.304-7.914-22.259-22.241-22.483-38.652-.338-24.895 20.508-46.095 45.699-46.442z" fill="#ffd348"/><path d="M6153.641 25.230093c0 5.52 4.476 9.996 9.995 9.996 5.52 0 9.995-4.476 9.995-9.996 0-5.52-4.475-9.995-9.995-9.995-5.519 0-9.995 4.475-9.995 9.995zm32.728 0c0 5.52 4.475 9.996 9.995 9.996s9.995-4.476 9.995-9.996c0-5.52-4.475-9.995-9.995-9.995s-9.995 4.475-9.995 9.995z" fill="#60361a"/><path d="M6180.637 78.800093c-13.46-.193-19.924-14.112-21.551-24.682-1.07-6.527 11.789-7.073 21.551-7.266 9.866.193 22.706-.186 21.552 7.277-1.54 10.441-7.987 24.478-21.552 24.671z" fill="#6a3909" fill-rule="evenodd"/></g><g><path d="M6319.091 103.636v.045c0 6-5.086 10.864-11.359 10.864h-15.464c-6.273 0-11.359-4.864-11.359-10.864v-.045h38.182zM6299.339 2.732c25.909-.357 47.025 20.291 47.025 45.813 0 16.48-8.806 30.926-22.019 38.999-2.756 1.683-4.475 4.617-4.475 7.818v2.82h-39.164v-2.473c0-3.246-1.769-6.209-4.583-7.883-13.304-7.914-22.259-22.241-22.483-38.652-.338-24.895 20.508-46.095 45.699-46.442z" fill="#ffd348"/><path d="M6273.636 25.182017c0 5.522 4.478 10 10 10 5.523 0 10-4.478 10-10 0-5.523-4.477-10-10-10-5.522 0-10 4.477-10 10zm32.728 0c0 5.522 4.477 10 10 10s10-4.478 10-10c0-5.523-4.477-10-10-10s-10 4.477-10 10z" fill="#60361a"/><path d="M6300.614 79.162017c-13.817-.2-20.124-14.823-21.784-25.799-1.057-6.615 11.965-7.299 21.784-7.499 9.924.2 22.931-.1 21.785 7.508-1.567 10.841-7.863 25.59-21.785 25.79z" fill="#6a3909" fill-rule="evenodd"/></g><g><path d="M6439.091 103.636v.045c0 6-5.086 10.864-11.359 10.864h-15.464c-6.273 0-11.359-4.864-11.359-10.864v-.045h38.182zM6419.339 2.732c25.909-.357 47.025 20.291 47.025 45.813 0 16.48-8.806 30.926-22.019 38.999-2.756 1.683-4.475 4.617-4.475 7.818v2.82h-39.164v-2.473c0-3.246-1.769-6.209-4.583-7.883-13.304-7.914-22.259-22.241-22.483-38.652-.338-24.895 20.508-46.095 45.699-46.442z" fill="#ffd348"/><path d="M6393.636 25.182c0 5.522 4.478 10 10 10 5.523 0 10-4.478 10-10 0-5.523-4.477-10-10-10-5.522 0-10 4.477-10 10zm32.728 0c0 5.522 4.477 10 10 10s10-4.478 10-10c0-5.523-4.477-10-10-10s-10 4.477-10 10z" fill="#60361a"/><path d="M6420.594 79.478c-14.121-.206-20.295-15.43-21.983-26.753-1.045-6.689 12.116-7.491 21.983-7.697 9.973.206 23.124-.026 21.984 7.705-1.59 11.183-7.756 26.539-21.984 26.745z" fill="#6a3909" fill-rule="evenodd"/></g><g><path d="M6559.091 103.636v.045c0 6-5.086 10.864-11.359 10.864h-15.464c-6.273 0-11.359-4.864-11.359-10.864v-.045h38.182zM6539.339 2.732c25.909-.357 47.025 20.291 47.025 45.813 0 16.48-8.806 30.926-22.019 38.999-2.756 1.683-4.475 4.617-4.475 7.818v2.82h-39.164v-2.473c0-3.246-1.769-6.209-4.583-7.883-13.304-7.914-22.259-22.241-22.483-38.652-.338-24.895 20.508-46.095 45.699-46.442z" fill="#ffd348"/><path d="M6513.636 25.182c0 5.522 4.478 10 10 10 5.523 0 10-4.478 10-10 0-5.523-4.477-10-10-10-5.522 0-10 4.477-10 10zm32.728 0c0 5.522 4.477 10 10 10s10-4.478 10-10c0-5.523-4.477-10-10-10s-10 4.477-10 10z" fill="#60361a"/><path d="M6540.577 79.748c-14.381-.211-20.441-15.949-22.153-27.567-1.035-6.753 12.245-7.656 22.153-7.866 10.015.21 23.288.036 22.155 7.873-1.61 11.474-7.666 27.349-22.155 27.56z" fill="#6a3909" fill-rule="evenodd"/></g><g><path d="M6679.091 103.636v.045c0 6-5.086 10.864-11.359 10.864h-15.464c-6.273 0-11.359-4.864-11.359-10.864v-.045h38.182zM6659.339 2.732c25.909-.357 47.025 20.291 47.025 45.813 0 16.48-8.806 30.926-22.019 38.999-2.756 1.683-4.475 4.617-4.475 7.818v2.82h-39.164v-2.473c0-3.246-1.769-6.209-4.583-7.883-13.304-7.914-22.259-22.241-22.483-38.652-.338-24.895 20.508-46.095 45.699-46.442z" fill="#ffd348"/><path d="M6633.636 25.182c0 5.522 4.478 10 10 10 5.523 0 10-4.478 10-10 0-5.523-4.477-10-10-10-5.522 0-10 4.477-10 10zm32.728 0c0 5.522 4.477 10 10 10s10-4.478 10-10c0-5.523-4.477-10-10-10s-10 4.477-10 10z" fill="#60361a"/><path d="M6660.563 79.978c-14.603-.215-20.566-16.391-22.299-28.263-1.027-6.807 12.356-7.796 22.299-8.011 10.051.215 23.428.09 22.3 8.017-1.627 11.723-7.589 28.042-22.3 28.257z" fill="#6a3909" fill-rule="evenodd"/></g><g><path d="M6799.091 103.636v.045c0 6-5.086 10.864-11.359 10.864h-15.464c-6.273 0-11.359-4.864-11.359-10.864v-.045h38.182zM6779.339 2.732c25.909-.357 47.025 20.291 47.025 45.813 0 16.48-8.806 30.926-22.019 38.999-2.756 1.683-4.475 4.617-4.475 7.818v2.82h-39.164v-2.473c0-3.246-1.769-6.209-4.583-7.883-13.304-7.914-22.259-22.241-22.483-38.652-.338-24.895 20.508-46.095 45.699-46.442z" fill="#ffd348"/><path d="M6753.636 25.182c0 4.799 4.478 8.69 10 8.69 5.523 0 10-3.891 10-8.69 0-4.799-4.477-8.69-10-8.69-5.522 0-10 3.891-10 8.69zm32.728 0c0 4.799 4.477 8.69 10 8.69s10-3.891 10-8.69c0-4.799-4.477-8.69-10-8.69s-10 3.891-10 8.69z" fill="#60361a"/><path d="M6780.551 80.175c-14.794-.218-20.674-16.77-22.423-28.857-1.02-6.855 12.449-7.917 22.423-8.135 10.081.218 23.547.135 22.424 8.139-1.642 11.937-7.523 28.635-22.424 28.853z" fill="#6a3909" fill-rule="evenodd"/></g><g><path d="M6919.091 103.636v.045c0 6-5.086 10.864-11.359 10.864h-15.464c-6.273 0-11.359-4.864-11.359-10.864v-.045h38.182zM6899.339 2.732c25.909-.357 47.025 20.291 47.025 45.813 0 16.48-8.806 30.926-22.019 38.999-2.756 1.683-4.475 4.617-4.475 7.818v2.82h-39.164v-2.473c0-3.246-1.769-6.209-4.583-7.883-13.304-7.914-22.259-22.241-22.483-38.652-.338-24.895 20.508-46.095 45.699-46.442z" fill="#ffd348"/><path d="M6873.636 25.182c0 1.439 4.478 2.607 10 2.607 5.523 0 10-1.168 10-2.607 0-1.439-4.477-2.607-10-2.607-5.522 0-10 1.168-10 2.607zm32.728 0c0 1.439 4.477 2.607 10 2.607s10-1.168 10-2.607c0-1.439-4.477-2.607-10-2.607s-10 1.168-10 2.607z" fill="#60361a"/><path d="M6900.54 80.343c-14.955-.221-20.764-17.093-22.529-29.364-1.013-6.895 12.53-8.019 22.529-8.241 10.108.222 23.65.174 22.53 8.244-1.654 12.119-7.466 29.14-22.53 29.361z" fill="#6a3909" fill-rule="evenodd"/></g><g><path d="M7039.091 103.636v.045c0 6-5.086 10.864-11.359 10.864h-15.464c-6.273 0-11.359-4.864-11.359-10.864v-.045h38.182zM7019.339 2.732c25.909-.357 47.025 20.291 47.025 45.813 0 16.48-8.806 30.926-22.019 38.999-2.756 1.683-4.475 4.617-4.475 7.818v2.82h-39.164v-2.473c0-3.246-1.769-6.209-4.583-7.883-13.304-7.914-22.259-22.241-22.483-38.652-.338-24.895 20.508-46.095 45.699-46.442z" fill="#ffd348"/><path d="M6993.636 25.182c0 .598 4.478 1.083 10 1.083 5.523 0 10-.485 10-1.083s-4.477-1.083-10-1.083c-5.522 0-10 .485-10 1.083zm32.728 0c0 .598 4.477 1.083 10 1.083s10-.485 10-1.083-4.477-1.083-10-1.083-10 .485-10 1.083z" fill="#60361a"/><path d="M7020.531 80.486c-15.092-.225-20.841-17.367-22.619-29.795-1.008-6.928 12.599-8.106 22.619-8.33 10.13.224 23.737.207 22.62 8.332-1.664 12.273-7.418 29.568-22.62 29.793z" fill="#6a3909" fill-rule="evenodd"/></g><g><path d="M7159.091 103.636v.045c0 6-5.086 10.864-11.359 10.864h-15.464c-6.273 0-11.359-4.864-11.359-10.864v-.045h38.182zM7139.339 2.732c25.909-.357 47.025 20.291 47.025 45.813 0 16.48-8.806 30.926-22.019 38.999-2.756 1.683-4.475 4.617-4.475 7.818v2.82h-39.164v-2.473c0-3.246-1.769-6.209-4.583-7.883-13.304-7.914-22.259-22.241-22.483-38.652-.338-24.895 20.508-46.095 45.699-46.442z" fill="#ffd348"/><path d="M7113.636 25.182c0 .675 4.478 1.222 10 1.222 5.523 0 10-.547 10-1.222 0-.675-4.477-1.222-10-1.222-5.522 0-10 .547-10 1.222zm32.728 0c0 .675 4.477 1.222 10 1.222s10-.547 10-1.222c0-.675-4.477-1.222-10-1.222s-10 .547-10 1.222z" fill="#60361a"/><path d="M7140.524 80.606c-15.209-.226-20.907-17.598-22.695-30.158-1.004-6.957 12.656-8.179 22.695-8.406 10.148.227 23.809.235 22.695 8.408-1.673 12.403-7.377 29.93-22.695 30.156z" fill="#6a3909" fill-rule="evenodd"/></g><g><path d="M7279.091 103.636v.045c0 6-5.086 10.864-11.359 10.864h-15.464c-6.273 0-11.359-4.864-11.359-10.864v-.045h38.182zM7259.339 2.732c25.909-.357 47.025 20.291 47.025 45.813 0 16.48-8.806 30.926-22.019 38.999-2.756 1.683-4.475 4.617-4.475 7.818v2.82h-39.164v-2.473c0-3.246-1.769-6.209-4.583-7.883-13.304-7.914-22.259-22.241-22.483-38.652-.338-24.895 20.508-46.095 45.699-46.442z" fill="#ffd348"/><path d="M7233.636 25.182c0 1.799 4.478 3.259 10 3.259 5.523 0 10-1.46 10-3.259 0-1.8-4.477-3.259-10-3.259-5.522 0-10 1.459-10 3.259zm32.728 0c0 1.799 4.477 3.259 10 3.259s10-1.46 10-3.259c0-1.8-4.477-3.259-10-3.259s-10 1.459-10 3.259z" fill="#60361a"/><path d="M7260.517 80.707c-15.305-.229-20.961-17.792-22.758-30.462-1-6.981 12.704-8.24 22.758-8.469 10.165.229 23.871.258 22.759 8.47-1.68 12.512-7.343 30.232-22.759 30.461z" fill="#6a3909" fill-rule="evenodd"/></g><g><path d="M7399.091 103.636v.045c0 6-5.086 10.864-11.359 10.864h-15.464c-6.273 0-11.359-4.864-11.359-10.864v-.045h38.182zM7379.339 2.732c25.909-.357 47.025 20.291 47.025 45.813 0 16.48-8.806 30.926-22.019 38.999-2.756 1.683-4.475 4.617-4.475 7.818v2.82h-39.164v-2.473c0-3.246-1.769-6.209-4.583-7.883-13.304-7.914-22.259-22.241-22.483-38.652-.338-24.895 20.508-46.095 45.699-46.442z" fill="#ffd348"/><path d="M7353.636 25.182c0 3.738 4.478 6.769 10 6.769 5.523 0 10-3.031 10-6.769s-4.477-6.769-10-6.769c-5.522 0-10 3.031-10 6.769zm32.728 0c0 3.738 4.477 6.769 10 6.769s10-3.031 10-6.769-4.477-6.769-10-6.769-10 3.031-10 6.769z" fill="#60361a"/><path d="M7380.512 80.79c-15.385-.23-21.006-17.951-22.81-30.712-.997-7.001 12.743-8.291 22.81-8.521 10.177.23 23.921.277 22.812 8.522-1.687 12.601-7.316 30.481-22.812 30.711z" fill="#6a3909" fill-rule="evenodd"/></g><g><path d="M7519.091 103.636v.045c0 6-5.086 10.864-11.359 10.864h-15.464c-6.273 0-11.359-4.864-11.359-10.864v-.045h38.182zM7499.339 2.732c25.909-.357 47.025 20.291 47.025 45.813 0 16.48-8.806 30.926-22.019 38.999-2.756 1.683-4.475 4.617-4.475 7.818v2.82h-39.164v-2.473c0-3.246-1.769-6.209-4.583-7.883-13.304-7.914-22.259-22.241-22.483-38.652-.338-24.895 20.508-46.095 45.699-46.442z" fill="#ffd348"/><path d="M7473.636 25.182c0 4.788 4.478 8.671 10 8.671 5.523 0 10-3.883 10-8.671 0-4.789-4.477-8.671-10-8.671-5.522 0-10 3.882-10 8.671zm32.728 0c0 4.788 4.477 8.671 10 8.671s10-3.883 10-8.671c0-4.789-4.477-8.671-10-8.671s-10 3.882-10 8.671z" fill="#60361a"/><path d="M7500.508 80.857c-15.45-.232-21.042-18.08-22.853-30.915-.994-7.016 12.776-8.331 22.853-8.563 10.188.232 23.962.293 22.854 8.564-1.692 12.674-7.294 30.682-22.854 30.914z" fill="#6a3909" fill-rule="evenodd"/></g><g><path d="M7639.091 103.636v.045c0 6-5.086 10.864-11.359 10.864h-15.464c-6.273 0-11.359-4.864-11.359-10.864v-.045h38.182zM7619.339 2.732c25.909-.357 47.025 20.291 47.025 45.813 0 16.48-8.806 30.926-22.019 38.999-2.756 1.683-4.475 4.617-4.475 7.818v2.82h-39.164v-2.473c0-3.246-1.769-6.209-4.583-7.883-13.304-7.914-22.259-22.241-22.483-38.652-.338-24.895 20.508-46.095 45.699-46.442z" fill="#ffd348"/><path d="M7593.636 25.182c0 5.281 4.478 9.564 10 9.564 5.523 0 10-4.283 10-9.564 0-5.282-4.477-9.564-10-9.564-5.522 0-10 4.282-10 9.564zm32.728 0c0 5.281 4.477 9.564 10 9.564s10-4.283 10-9.564c0-5.282-4.477-9.564-10-9.564s-10 4.282-10 9.564z" fill="#60361a"/><path d="M7620.505 80.909c-15.501-.232-21.071-18.18-22.886-31.073-.992-7.028 12.801-8.364 22.886-8.596 10.196.232 23.994.305 22.886 8.597-1.695 12.73-7.275 30.84-22.886 31.072z" fill="#6a3909" fill-rule="evenodd"/></g><g><path d="M7759.091 103.636v.045c0 6-5.086 10.864-11.359 10.864h-15.464c-6.273 0-11.359-4.864-11.359-10.864v-.045h38.182zM7739.339 2.732c25.909-.357 47.025 20.291 47.025 45.813 0 16.48-8.806 30.926-22.019 38.999-2.756 1.683-4.475 4.617-4.475 7.818v2.82h-39.164v-2.473c0-3.246-1.769-6.209-4.583-7.883-13.304-7.914-22.259-22.241-22.483-38.652-.338-24.895 20.508-46.095 45.699-46.442z" fill="#ffd348"/><path d="M7713.636 25.182c0 5.486 4.478 9.935 10 9.935 5.523 0 10-4.449 10-9.935 0-5.487-4.477-9.935-10-9.935-5.522 0-10 4.448-10 9.935zm32.728 0c0 5.486 4.477 9.935 10 9.935s10-4.449 10-9.935c0-5.487-4.477-9.935-10-9.935s-10 4.448-10 9.935z" fill="#60361a"/><path d="M7740.502 80.949c-15.539-.233-21.092-18.257-22.911-31.193-.99-7.038 12.82-8.388 22.911-8.621 10.202.233 24.018.315 22.912 8.622-1.698 12.773-7.262 30.959-22.912 31.192z" fill="#6a3909" fill-rule="evenodd"/></g><g><path d="M7879.091 103.636v.045c0 6-5.086 10.864-11.359 10.864h-15.464c-6.273 0-11.359-4.864-11.359-10.864v-.045h38.182zM7859.339 2.732c25.909-.357 47.025 20.291 47.025 45.813 0 16.48-8.806 30.926-22.019 38.999-2.756 1.683-4.475 4.617-4.475 7.818v2.82h-39.164v-2.473c0-3.246-1.769-6.209-4.583-7.883-13.304-7.914-22.259-22.241-22.483-38.652-.338-24.895 20.508-46.095 45.699-46.442z" fill="#ffd348"/><path d="M7833.636 25.182c0 5.522 4.478 10 10 10 5.523 0 10-4.478 10-10 0-5.523-4.477-10-10-10-5.522 0-10 4.477-10 10zm32.728 0c0 5.522 4.477 10 10 10s10-4.478 10-10c0-5.523-4.477-10-10-10s-10 4.477-10 10z" fill="#60361a"/><path d="M7860.5 80.976c-15.565-.233-21.107-18.309-22.928-31.276-.99-7.044 12.833-8.404 22.928-8.638 10.207.234 24.035.321 22.93 8.639-1.701 12.803-7.253 31.042-22.93 31.275z" fill="#6a3909" fill-rule="evenodd"/></g><g><path d="M7999.091 103.636v.045c0 6-5.086 10.864-11.359 10.864h-15.464c-6.273 0-11.359-4.864-11.359-10.864v-.045h38.182zM7979.339 2.732c25.909-.357 47.025 20.291 47.025 45.813 0 16.48-8.806 30.926-22.019 38.999-2.756 1.683-4.475 4.617-4.475 7.818v2.82h-39.164v-2.473c0-3.246-1.769-6.209-4.583-7.883-13.304-7.914-22.259-22.241-22.483-38.652-.338-24.895 20.508-46.095 45.699-46.442z" fill="#ffd348"/><path d="M7953.636 25.182c0 5.522 4.478 10 10 10 5.523 0 10-4.478 10-10 0-5.523-4.477-10-10-10-5.522 0-10 4.477-10 10zm32.728 0c0 5.522 4.477 10 10 10s10-4.478 10-10c0-5.523-4.477-10-10-10s-10 4.477-10 10z" fill="#60361a"/><path d="M7980.499 80.993c-15.581-.234-21.116-18.342-22.938-31.326-.99-7.049 12.84-8.415 22.938-8.649 10.209.234 24.045.324 22.94 8.649-1.701 12.821-7.247 31.092-22.94 31.326z" fill="#6a3909" fill-rule="evenodd"/></g><g><path d="M8119.091 103.636v.045c0 6-5.086 10.864-11.359 10.864h-15.464c-6.273 0-11.359-4.864-11.359-10.864v-.045h38.182zM8099.339 2.732c25.909-.357 47.025 20.291 47.025 45.813 0 16.48-8.806 30.926-22.019 38.999-2.756 1.683-4.475 4.617-4.475 7.818v2.82h-39.164v-2.473c0-3.246-1.769-6.209-4.583-7.883-13.304-7.914-22.259-22.241-22.483-38.652-.338-24.895 20.508-46.095 45.699-46.442z" fill="#ffd348"/><path d="M8073.636 25.182c0 5.522 4.478 10 10 10 5.523 0 10-4.478 10-10 0-5.523-4.477-10-10-10-5.522 0-10 4.477-10 10zm32.728 0c0 5.522 4.477 10 10 10s10-4.478 10-10c0-5.523-4.477-10-10-10s-10 4.477-10 10z" fill="#60361a"/><path d="M8100.499 81c-15.588-.234-21.12-18.355-22.943-31.347-.989-7.05 12.844-8.419 22.943-8.653 10.21.234 24.049.326 22.944 8.653-1.702 12.829-7.245 31.113-22.944 31.347z" fill="#6a3909" fill-rule="evenodd"/></g><g><path d="M8239.091 103.636v.045c0 6-5.086 10.864-11.359 10.864h-15.464c-6.273 0-11.359-4.864-11.359-10.864v-.045h38.182zM8219.339 2.732c25.909-.357 47.025 20.291 47.025 45.813 0 16.48-8.806 30.926-22.019 38.999-2.756 1.683-4.475 4.617-4.475 7.818v2.82h-39.164v-2.473c0-3.246-1.769-6.209-4.583-7.883-13.304-7.914-22.259-22.241-22.483-38.652-.338-24.895 20.508-46.095 45.699-46.442z" fill="#ffd348"/><path d="M8193.644 25.235409c0 5.518 4.474 9.993 9.992 9.993 5.519 0 9.992-4.475 9.992-9.993 0-5.518-4.473-9.992-9.992-9.992-5.518 0-9.992 4.474-9.992 9.992zm32.728 0c0 5.518 4.473 9.993 9.992 9.993 5.519 0 9.992-4.475 9.992-9.993 0-5.518-4.473-9.992-9.992-9.992-5.519 0-9.992 4.474-9.992 9.992z" fill="#60361a"/><path d="M8220.499 81.012409c-15.562-.234-21.114-18.308-22.935-31.287-.991-7.071 12.84-8.437 22.935-8.671 10.206.234 24.042.328 22.936 8.671-1.701 12.817-7.263 31.053-22.936 31.287z" fill="#6a3909" fill-rule="evenodd"/></g><g><path d="M8359.091 103.636v.045c0 6-5.086 10.864-11.359 10.864h-15.464c-6.273 0-11.359-4.864-11.359-10.864v-.045h38.182zM8339.339 2.732c25.909-.357 47.025 20.291 47.025 45.813 0 16.48-8.806 30.926-22.019 38.999-2.756 1.683-4.475 4.617-4.475 7.818v2.82h-39.164v-2.473c0-3.246-1.769-6.209-4.583-7.883-13.304-7.914-22.259-22.241-22.483-38.652-.338-24.895 20.508-46.095 45.699-46.442z" fill="#ffd348"/><path d="M8313.679 25.488827c0 5.498 4.459 9.957 9.957 9.957 5.499 0 9.957-4.459 9.957-9.957 0-5.499-4.458-9.957-9.957-9.957-5.498 0-9.957 4.458-9.957 9.957zm32.728 0c0 5.498 4.458 9.957 9.957 9.957 5.499 0 9.957-4.459 9.957-9.957 0-5.499-4.458-9.957-9.957-9.957-5.499 0-9.957 4.458-9.957 9.957z" fill="#60361a"/><path d="M8340.499 81.070827c-15.437-.233-21.084-18.087-22.895-31.006-1.001-7.169 12.817-8.522 22.895-8.756 10.189.234 24.01.34 22.896 8.758-1.693 12.758-7.348 30.771-22.896 31.004z" fill="#6a3909" fill-rule="evenodd"/></g><g><path d="M8479.091 103.636v.045c0 6-5.086 10.864-11.359 10.864h-15.464c-6.273 0-11.359-4.864-11.359-10.864v-.045h38.182zM8459.339 2.732c25.909-.357 47.025 20.291 47.025 45.813 0 16.48-8.806 30.926-22.019 38.999-2.756 1.683-4.475 4.617-4.475 7.818v2.82h-39.164v-2.473c0-3.246-1.769-6.209-4.583-7.883-13.304-7.914-22.259-22.241-22.483-38.652-.338-24.895 20.508-46.095 45.699-46.442z" fill="#ffd348"/><path d="M8433.755 26.030819c0 5.456 4.425 9.881 9.881 9.881 5.457 0 9.881-4.425 9.881-9.881 0-5.458-4.424-9.882-9.881-9.882-5.456 0-9.881 4.424-9.881 9.882zm32.728 0c0 5.456 4.424 9.881 9.881 9.881s9.881-4.425 9.881-9.881c0-5.458-4.424-9.882-9.881-9.882s-9.881 4.424-9.881 9.882z" fill="#60361a"/><path d="M8460.499 81.195819c-15.171-.232-21.021-17.614-22.81-30.404-1.022-7.38 12.77-8.705 22.81-8.937 10.151.232 23.941.364 22.811 8.944-1.676 12.631-7.53 30.165-22.811 30.397z" fill="#6a3909" fill-rule="evenodd"/></g><g><path d="M8599.091 103.636v.045c0 6-5.086 10.864-11.359 10.864h-15.464c-6.273 0-11.359-4.864-11.359-10.864v-.045h38.182zM8579.339 2.732c25.909-.357 47.025 20.291 47.025 45.813 0 16.48-8.806 30.926-22.019 38.999-2.756 1.683-4.475 4.617-4.475 7.818v2.82h-39.164v-2.473c0-3.246-1.769-6.209-4.583-7.883-13.304-7.914-22.259-22.241-22.483-38.652-.338-24.895 20.508-46.095 45.699-46.442z" fill="#ffd348"/><path d="M8553.888 26.982546c0 5.383 4.365 9.748 9.748 9.748 5.384 0 9.748-4.365 9.748-9.748 0-5.384-4.364-9.748-9.748-9.748-5.383 0-9.748 4.364-9.748 9.748zm32.728 0c0 5.383 4.364 9.748 9.748 9.748 5.384 0 9.748-4.365 9.748-9.748 0-5.384-4.364-9.748-9.748-9.748-5.384 0-9.748 4.364-9.748 9.748z" fill="#60361a"/><path d="M8580.499 81.415546c-14.703-.229-20.909-16.782-22.66-29.346-1.06-7.749 12.686-9.026 22.66-9.255 10.084.229 23.821.406 22.661 9.269-1.646 12.409-7.848 29.103-22.661 29.332z" fill="#6a3909" fill-rule="evenodd"/></g><g><path d="M8719.091 103.636v.045c0 6-5.086 10.864-11.359 10.864h-15.464c-6.273 0-11.359-4.864-11.359-10.864v-.045h38.182zM8699.339 2.732c25.909-.357 47.025 20.291 47.025 45.813 0 16.48-8.806 30.926-22.019 38.999-2.756 1.683-4.475 4.617-4.475 7.818v2.82h-39.164v-2.473c0-3.246-1.769-6.209-4.583-7.883-13.304-7.914-22.259-22.241-22.483-38.652-.338-24.895 20.508-46.095 45.699-46.442z" fill="#ffd348"/><path d="M8674.093 28.447505c0 5.27 4.273 9.543 9.543 9.543 5.271 0 9.543-4.273 9.543-9.543 0-5.271-4.272-9.544-9.543-9.544-5.27 0-9.543 4.273-9.543 9.544zm32.728 0c0 5.27 4.272 9.543 9.543 9.543 5.271 0 9.543-4.273 9.543-9.543 0-5.271-4.272-9.544-9.543-9.544-5.271 0-9.543 4.273-9.543 9.544z" fill="#60361a"/><path d="M8700.499 81.753505c-13.983-.225-20.738-15.503-22.43-27.718-1.117-8.319 12.557-9.52 22.43-9.745 9.982.225 23.635.47 22.431 9.77-1.601 12.068-8.339 27.468-22.431 27.693z" fill="#6a3909" fill-rule="evenodd"/></g><g><path d="M8839.091 103.636v.045c0 6-5.086 10.864-11.359 10.864h-15.464c-6.273 0-11.359-4.864-11.359-10.864v-.045h38.182zM8819.339 2.732c25.909-.357 47.025 20.291 47.025 45.813 0 16.48-8.806 30.926-22.019 38.999-2.756 1.683-4.475 4.617-4.475 7.818v2.82h-39.164v-2.473c0-3.246-1.769-6.209-4.583-7.883-13.304-7.914-22.259-22.241-22.483-38.652-.338-24.895 20.508-46.095 45.699-46.442z" fill="#ffd348"/><path d="M8794.351 30.288404c0 5.128 4.157 9.286 9.285 9.286 5.129 0 9.286-4.158 9.286-9.286 0-5.129-4.157-9.286-9.286-9.286-5.128 0-9.285 4.157-9.285 9.286zm32.727 0c0 5.128 4.157 9.286 9.286 9.286s9.285-4.158 9.285-9.286c0-5.129-4.156-9.286-9.285-9.286-5.129 0-9.286 4.157-9.286 9.286z" fill="#60361a"/><path d="M8820.499 82.178404c-13.078-.221-20.523-13.895-22.14-25.672-1.19-9.034 12.395-10.14 22.14-10.361 9.853.221 23.402.552 22.142 10.4-1.545 11.639-8.956 25.412-22.142 25.633z" fill="#6a3909" fill-rule="evenodd"/></g><g><path d="M8959.091 103.636v.045c0 6-5.086 10.864-11.359 10.864h-15.464c-6.273 0-11.359-4.864-11.359-10.864v-.045h38.182zM8939.339 2.732c25.909-.357 47.025 20.291 47.025 45.813 0 16.48-8.806 30.926-22.019 38.999-2.756 1.683-4.475 4.617-4.475 7.818v2.82h-39.164v-2.473c0-3.246-1.769-6.209-4.583-7.883-13.304-7.914-22.259-22.241-22.483-38.652-.338-24.895 20.508-46.095 45.699-46.442z" fill="#ffd348"/><path d="M8914.602 32.08492c0 4.989 4.045 9.034 9.034 9.034 4.99 0 9.035-4.045 9.035-9.034 0-4.99-4.045-9.035-9.035-9.035-4.989 0-9.034 4.045-9.034 9.035zm32.727 0c0 4.989 4.045 9.034 9.035 9.034s9.034-4.045 9.034-9.034c0-4.99-4.044-9.035-9.034-9.035-4.99 0-9.035 4.045-9.035 9.035z" fill="#60361a"/><path d="M8940.5 82.59292c-12.197-.216-20.313-12.326-21.859-23.676-1.26-9.731 12.237-10.745 21.859-10.961 9.726.216 23.173.631 21.858 11.014-1.488 11.221-9.557 23.407-21.858 23.623z" fill="#6a3909" fill-rule="evenodd"/></g><g><path d="M9079.091 103.636v.045c0 6-5.086 10.864-11.359 10.864h-15.464c-6.273 0-11.359-4.864-11.359-10.864v-.045h38.182zM9059.339 2.732c25.909-.357 47.025 20.291 47.025 45.813 0 16.48-8.806 30.926-22.019 38.999-2.756 1.683-4.475 4.617-4.475 7.818v2.82h-39.164v-2.473c0-3.246-1.769-6.209-4.583-7.883-13.304-7.914-22.259-22.241-22.483-38.652-.338-24.895 20.508-46.095 45.699-46.442z" fill="#ffd348"/><path d="M9034.809 33.566966c0 4.874 3.953 8.827 8.827 8.827 4.875 0 8.827-3.953 8.827-8.827 0-4.876-3.952-8.828-8.827-8.828-4.874 0-8.827 3.952-8.827 8.828zm32.728 0c0 4.874 3.952 8.827 8.827 8.827s8.827-3.953 8.827-8.827c0-4.876-3.952-8.828-8.827-8.828s-8.827 3.952-8.827 8.828z" fill="#60361a"/><path d="M9060.5 82.934966c-11.468-.212-20.14-11.031-21.626-22.029-1.318-10.307 12.106-11.245 21.626-11.457 9.623.212 22.985.697 21.625 11.522-1.442 10.875-10.054 21.752-21.625 21.964z" fill="#6a3909" fill-rule="evenodd"/></g><g><path d="M9199.091 103.636v.045c0 6-5.086 10.864-11.359 10.864h-15.464c-6.273 0-11.359-4.864-11.359-10.864v-.045h38.182zM9179.339 2.732c25.909-.357 47.025 20.291 47.025 45.813 0 16.48-8.806 30.926-22.019 38.999-2.756 1.683-4.475 4.617-4.475 7.818v2.82h-39.164v-2.473c0-3.246-1.769-6.209-4.583-7.883-13.304-7.914-22.259-22.241-22.483-38.652-.338-24.895 20.508-46.095 45.699-46.442z" fill="#ffd348"/><path d="M9154.971 34.72267c0 4.785 3.88 8.666 8.665 8.666 4.786 0 8.666-3.881 8.666-8.666 0-4.786-3.88-8.666-8.666-8.666-4.785 0-8.665 3.88-8.665 8.666zm32.727 0c0 4.785 3.88 8.666 8.666 8.666 4.786 0 8.665-3.881 8.665-8.666 0-4.786-3.879-8.666-8.665-8.666s-8.666 3.88-8.666 8.666z" fill="#60361a"/><path d="M9180.5 83.20167c-10.9-.209-20.005-10.022-21.444-20.744-1.364-10.757 12.005-11.635 21.444-11.844 9.542.209 22.839.748 21.444 11.917-1.407 10.606-10.441 20.462-21.444 20.671z" fill="#6a3909" fill-rule="evenodd"/></g><g><path d="M9319.091 103.636v.045c0 6-5.086 10.864-11.359 10.864h-15.464c-6.273 0-11.359-4.864-11.359-10.864v-.045h38.182zM9299.339 2.732c25.909-.357 47.025 20.291 47.025 45.813 0 16.48-8.806 30.926-22.019 38.999-2.756 1.683-4.475 4.617-4.475 7.818v2.82h-39.164v-2.473c0-3.246-1.769-6.209-4.583-7.883-13.304-7.914-22.259-22.241-22.483-38.652-.338-24.895 20.508-46.095 45.699-46.442z" fill="#ffd348"/><path d="M9275.096 35.616973c0 4.716 3.824 8.54 8.54 8.54 4.717 0 8.541-3.824 8.541-8.54 0-4.718-3.824-8.541-8.541-8.541-4.716 0-8.54 3.823-8.54 8.541zm32.727 0c0 4.716 3.824 8.54 8.541 8.54 4.717 0 8.54-3.824 8.54-8.54 0-4.718-3.823-8.541-8.54-8.541-4.717 0-8.541 3.823-8.541 8.541z" fill="#60361a"/><path d="M9300.5 83.407973c-10.461-.207-19.9-9.241-21.303-19.751-1.4-11.103 11.925-11.935 21.303-12.142 9.479.207 22.725.787 21.303 12.222-1.379 10.398-10.74 19.464-21.303 19.671z" fill="#6a3909" fill-rule="evenodd"/></g><g><path d="M9439.091 103.636v.045c0 6-5.086 10.864-11.359 10.864h-15.464c-6.273 0-11.359-4.864-11.359-10.864v-.045h38.182zM9419.339 2.732c25.909-.357 47.025 20.291 47.025 45.813 0 16.48-8.806 30.926-22.019 38.999-2.756 1.683-4.475 4.617-4.475 7.818v2.82h-39.164v-2.473c0-3.246-1.769-6.209-4.583-7.883-13.304-7.914-22.259-22.241-22.483-38.652-.338-24.895 20.508-46.095 45.699-46.442z" fill="#ffd348"/><path d="M9395.193 36.310034c0 4.663 3.78 8.444 8.443 8.444 4.664 0 8.444-3.781 8.444-8.444s-3.78-8.444-8.444-8.444c-4.663 0-8.443 3.781-8.443 8.444zm32.727 0c0 4.663 3.78 8.444 8.444 8.444 4.664 0 8.443-3.781 8.443-8.444s-3.779-8.444-8.443-8.444-8.444 3.781-8.444 8.444z" fill="#60361a"/><path d="M9420.5 83.568034c-10.12-.205-19.819-8.635-21.194-18.98-1.427-11.373 11.864-12.169 21.194-12.374 9.431.205 22.637.817 21.194 12.459-1.358 10.237-10.973 18.69-21.194 18.895z" fill="#6a3909" fill-rule="evenodd"/></g><g><path d="M9559.091 103.636v.045c0 6-5.086 10.864-11.359 10.864h-15.464c-6.273 0-11.359-4.864-11.359-10.864v-.045h38.182zM9539.339 2.732c25.909-.357 47.025 20.291 47.025 45.813 0 16.48-8.806 30.926-22.019 38.999-2.756 1.683-4.475 4.617-4.475 7.818v2.82h-39.164v-2.473c0-3.246-1.769-6.209-4.583-7.883-13.304-7.914-22.259-22.241-22.483-38.652-.338-24.895 20.508-46.095 45.699-46.442z" fill="#ffd348"/><path d="M9515.268 36.849391c0 4.621 3.747 8.368 8.368 8.368 4.622 0 8.368-3.747 8.368-8.368 0-4.622-3.746-8.369-8.368-8.369-4.621 0-8.368 3.747-8.368 8.369zm32.728 0c0 4.621 3.746 8.368 8.368 8.368s8.368-3.747 8.368-8.368c0-4.622-3.746-8.369-8.368-8.369s-8.368 3.747-8.368 8.369z" fill="#60361a"/><path d="M9540.5 83.692391c-9.855-.203-19.756-8.164-21.11-18.381-1.447-11.583 11.818-12.351 21.11-12.555 9.393.204 22.569.842 21.109 12.644-1.341 10.111-11.153 18.089-21.109 18.292z" fill="#6a3909" fill-rule="evenodd"/></g><g><path d="M9679.091 103.636v.045c0 6-5.086 10.864-11.359 10.864h-15.464c-6.273 0-11.359-4.864-11.359-10.864v-.045h38.182zM9659.339 2.732c25.909-.357 47.025 20.291 47.025 45.813 0 16.48-8.806 30.926-22.019 38.999-2.756 1.683-4.475 4.617-4.475 7.818v2.82h-39.164v-2.473c0-3.246-1.769-6.209-4.583-7.883-13.304-7.914-22.259-22.241-22.483-38.652-.338-24.895 20.508-46.095 45.699-46.442z" fill="#ffd348"/><path d="M9635.327 37.265584c0 4.589 3.72 8.31 8.309 8.31 4.59 0 8.31-3.721 8.31-8.31s-3.72-8.31-8.31-8.31c-4.589 0-8.309 3.721-8.309 8.31zm32.727 0c0 4.589 3.72 8.31 8.31 8.31s8.309-3.721 8.309-8.31-3.719-8.31-8.309-8.31-8.31 3.721-8.31 8.31z" fill="#60361a"/><path d="M9660.5 83.788584c-9.65-.202-19.707-7.8-21.044-17.918-1.464-11.744 11.781-12.491 21.044-12.694 9.364.203 22.516.86 21.044 12.787-1.328 10.013-11.293 17.623-21.044 17.825z" fill="#6a3909" fill-rule="evenodd"/></g><g><path d="M9799.091 103.636v.045c0 6-5.086 10.864-11.359 10.864h-15.464c-6.273 0-11.359-4.864-11.359-10.864v-.045h38.182zM9779.339 2.732c25.909-.357 47.025 20.291 47.025 45.813 0 16.48-8.806 30.926-22.019 38.999-2.756 1.683-4.475 4.617-4.475 7.818v2.82h-39.164v-2.473c0-3.246-1.769-6.209-4.583-7.883-13.304-7.914-22.259-22.241-22.483-38.652-.338-24.895 20.508-46.095 45.699-46.442z" fill="#ffd348"/><path d="M9755.371 37.584055c0 4.564 3.701 8.266 8.265 8.266 4.565 0 8.266-3.702 8.266-8.266 0-4.565-3.701-8.265-8.266-8.265-4.564 0-8.265 3.7-8.265 8.265zm32.727 0c0 4.564 3.701 8.266 8.266 8.266 4.565 0 8.265-3.702 8.265-8.266 0-4.565-3.7-8.265-8.265-8.265s-8.266 3.7-8.266 8.265z" fill="#60361a"/><path d="M9780.5 83.862055c-9.494-.202-19.67-7.522-20.994-17.564-1.476-11.868 11.753-12.599 20.994-12.8 9.342.201 22.476.873 20.994 12.895-1.319 9.939-11.4 17.267-20.994 17.469z" fill="#6a3909" fill-rule="evenodd"/></g><g><path d="M9919.091 103.636v.045c0 6-5.086 10.864-11.359 10.864h-15.464c-6.273 0-11.359-4.864-11.359-10.864v-.045h38.182zM9899.339 2.732c25.909-.357 47.025 20.291 47.025 45.813 0 16.48-8.806 30.926-22.019 38.999-2.756 1.683-4.475 4.617-4.475 7.818v2.82h-39.164v-2.473c0-3.246-1.769-6.209-4.583-7.883-13.304-7.914-22.259-22.241-22.483-38.652-.338-24.895 20.508-46.095 45.699-46.442z" fill="#ffd348"/><path d="M9875.405 37.821816c0 4.546 3.685 8.232 8.231 8.232 4.547 0 8.232-3.686 8.232-8.232 0-4.547-3.685-8.233-8.232-8.233-4.546 0-8.231 3.686-8.231 8.233zm32.727 0c0 4.546 3.685 8.232 8.232 8.232 4.547 0 8.231-3.686 8.231-8.232 0-4.547-3.684-8.233-8.231-8.233s-8.232 3.686-8.232 8.233z" fill="#60361a"/><path d="M9900.5 83.916816c-9.377-.201-19.642-7.315-20.957-17.301-1.486-11.96 11.732-12.678 20.957-12.879 9.325.201 22.446.884 20.957 12.977-1.311 9.884-11.48 17.002-20.957 17.203z" fill="#6a3909" fill-rule="evenodd"/></g><g><path d="M10039.091 103.636v.045c0 6-5.086 10.864-11.359 10.864h-15.464c-6.273 0-11.359-4.864-11.359-10.864v-.045h38.182zm-19.752-100.904c25.909-.357 47.025 20.291 47.025 45.813 0 16.48-8.806 30.926-22.019 38.999-2.756 1.683-4.475 4.617-4.475 7.818v2.82h-39.164v-2.473c0-3.246-1.769-6.209-4.583-7.883-13.304-7.914-22.259-22.241-22.483-38.652-.338-24.895 20.508-46.095 45.699-46.442z" fill="#ffd348"/><path d="M9995.428 37.990892c0 4.533 3.675 8.209 8.208 8.209 4.534 0 8.209-3.676 8.209-8.209 0-4.534-3.675-8.209-8.209-8.209-4.533 0-8.208 3.675-8.208 8.209zm32.727 0c0 4.533 3.675 8.209 8.209 8.209s8.208-3.676 8.208-8.209c0-4.534-3.674-8.209-8.208-8.209-4.534 0-8.209 3.675-8.209 8.209z" fill="#60361a"/><path d="M10020.5 83.955892c-9.294-.2-19.622-7.167-20.93-17.112-1.493-12.026 11.717-12.736 20.93-12.936 9.313.2 22.424.891 20.93 13.034-1.306 9.845-11.536 16.814-20.93 17.014z" fill="#6a3909" fill-rule="evenodd"/></g><g><path d="M10159.091 103.636v.045c0 6-5.086 10.864-11.359 10.864h-15.464c-6.273 0-11.359-4.864-11.359-10.864v-.045h38.182zm-19.752-100.904c25.909-.357 47.025 20.291 47.025 45.813 0 16.48-8.806 30.926-22.019 38.999-2.756 1.683-4.475 4.617-4.475 7.818v2.82h-39.164v-2.473c0-3.246-1.769-6.209-4.583-7.883-13.304-7.914-22.259-22.241-22.483-38.652-.338-24.895 20.508-46.095 45.699-46.442z" fill="#ffd348"/><path d="M10115.444 38.102617c0 4.524 3.668 8.193 8.192 8.193 4.525 0 8.193-3.669 8.193-8.193 0-4.525-3.668-8.193-8.193-8.193-4.524 0-8.192 3.668-8.192 8.193zm32.727 0c0 4.524 3.668 8.193 8.193 8.193 4.525 0 8.192-3.669 8.192-8.193 0-4.525-3.667-8.193-8.192-8.193s-8.193 3.668-8.193 8.193z" fill="#60361a"/><path d="M10140.5 83.981617c-9.239-.2-19.609-7.07-20.913-16.989-1.496-12.069 11.707-12.773 20.913-12.973 9.306.2 22.41.897 20.913 13.073-1.303 9.818-11.574 16.689-20.913 16.889z" fill="#6a3909" fill-rule="evenodd"/></g><g><path d="M10279.091 103.636v.045c0 6-5.086 10.864-11.359 10.864h-15.464c-6.273 0-11.359-4.864-11.359-10.864v-.045h38.182zm-19.752-100.904c25.909-.357 47.025 20.291 47.025 45.813 0 16.48-8.806 30.926-22.019 38.999-2.756 1.683-4.475 4.617-4.475 7.818v2.82h-39.164v-2.473c0-3.246-1.769-6.209-4.583-7.883-13.304-7.914-22.259-22.241-22.483-38.652-.338-24.895 20.508-46.095 45.699-46.442z" fill="#ffd348"/><path d="M10235.452 38.163826c0 4.519 3.665 8.185 8.184 8.185 4.52 0 8.185-3.666 8.185-8.185 0-4.52-3.665-8.184-8.185-8.184-4.519 0-8.184 3.664-8.184 8.184zm32.727 0c0 4.519 3.665 8.185 8.185 8.185 4.52 0 8.184-3.666 8.184-8.185 0-4.52-3.664-8.184-8.184-8.184s-8.185 3.664-8.185 8.184z" fill="#60361a"/><path d="M10260.5 83.995826c-9.209-.2-19.602-7.016-20.903-16.92-1.499-12.093 11.702-12.794 20.903-12.994 9.301.2 22.402.899 20.903 13.094-1.301 9.804-11.594 16.62-20.903 16.82z" fill="#6a3909" fill-rule="evenodd"/></g><g><path d="M10399.091 103.636v.045c0 6-5.086 10.864-11.359 10.864h-15.464c-6.273 0-11.359-4.864-11.359-10.864v-.045h38.182zm-19.752-100.904c25.909-.357 47.025 20.291 47.025 45.813 0 16.48-8.806 30.926-22.019 38.999-2.756 1.683-4.475 4.617-4.475 7.818v2.82h-39.164v-2.473c0-3.246-1.769-6.209-4.583-7.883-13.304-7.914-22.259-22.241-22.483-38.652-.338-24.895 20.508-46.095 45.699-46.442z" fill="#ffd348"/><path d="M10355.455 38.182c0 4.518 3.663 8.182 8.181 8.182 4.519 0 8.182-3.664 8.182-8.182 0-4.519-3.663-8.182-8.182-8.182-4.518 0-8.181 3.663-8.181 8.182zm32.727 0c0 4.518 3.663 8.182 8.182 8.182s8.181-3.664 8.181-8.182c0-4.519-3.662-8.182-8.181-8.182-4.519 0-8.182 3.663-8.182 8.182z" fill="#60361a"/><path d="M10380.5 84c-9.2-.2-19.6-7-20.9-16.9-1.5-12.1 11.7-12.8 20.9-13 9.3.2 22.4.9 20.9 13.1-1.3 9.8-11.6 16.6-20.9 16.8z" fill="#6a3909" fill-rule="evenodd"/></g><g><path d="M10519.091 103.636v.045c0 6-5.086 10.864-11.359 10.864h-15.464c-6.273 0-11.359-4.864-11.359-10.864v-.045h38.182zm-19.752-100.904c25.909-.357 47.025 20.291 47.025 45.813 0 16.48-8.806 30.926-22.019 38.999-2.756 1.683-4.475 4.617-4.475 7.818v2.82h-39.164v-2.473c0-3.246-1.769-6.209-4.583-7.883-13.304-7.914-22.259-22.241-22.483-38.652-.338-24.895 20.508-46.095 45.699-46.442z" fill="#ffd348"/><path d="M10475.455 38.182c0 4.518 3.663 8.182 8.181 8.182 4.519 0 8.182-3.664 8.182-8.182 0-4.519-3.663-8.182-8.182-8.182-4.518 0-8.181 3.663-8.181 8.182zm32.727 0c0 4.518 3.663 8.182 8.182 8.182s8.181-3.664 8.181-8.182c0-4.519-3.662-8.182-8.181-8.182-4.519 0-8.182 3.663-8.182 8.182z" fill="#60361a"/><path d="M10500.5 84c-9.2-.2-19.6-7-20.9-16.9-1.5-12.1 11.7-12.8 20.9-13 9.3.2 22.4.9 20.9 13.1-1.3 9.8-11.6 16.6-20.9 16.8z" fill="#6a3909" fill-rule="evenodd"/></g><g><path d="M10639.091 103.636v.045c0 6-5.086 10.864-11.359 10.864h-15.464c-6.273 0-11.359-4.864-11.359-10.864v-.045h38.182zm-19.752-100.904c25.909-.357 47.025 20.291 47.025 45.813 0 16.48-8.806 30.926-22.019 38.999-2.756 1.683-4.475 4.617-4.475 7.818v2.82h-39.164v-2.473c0-3.246-1.769-6.209-4.583-7.883-13.304-7.914-22.259-22.241-22.483-38.652-.338-24.895 20.508-46.095 45.699-46.442z" fill="#ffd348"/><path d="M10595.455 38.182c0 4.518 3.663 8.182 8.181 8.182 4.519 0 8.182-3.664 8.182-8.182 0-4.519-3.663-8.182-8.182-8.182-4.518 0-8.181 3.663-8.181 8.182zm32.727 0c0 4.518 3.663 8.182 8.182 8.182s8.181-3.664 8.181-8.182c0-4.519-3.662-8.182-8.181-8.182-4.519 0-8.182 3.663-8.182 8.182z" fill="#60361a"/><path d="M10620.5 84c-9.2-.2-19.6-7-20.9-16.9-1.5-12.1 11.7-12.8 20.9-13 9.3.2 22.4.9 20.9 13.1-1.3 9.8-11.6 16.6-20.9 16.8z" fill="#6a3909" fill-rule="evenodd"/></g><g><path d="M10759.091 103.636v.045c0 6-5.086 10.864-11.359 10.864h-15.464c-6.273 0-11.359-4.864-11.359-10.864v-.045h38.182zm-19.752-100.904c25.909-.357 47.025 20.291 47.025 45.813 0 16.48-8.806 30.926-22.019 38.999-2.756 1.683-4.475 4.617-4.475 7.818v2.82h-39.164v-2.473c0-3.246-1.769-6.209-4.583-7.883-13.304-7.914-22.259-22.241-22.483-38.652-.338-24.895 20.508-46.095 45.699-46.442z" fill="#ffd348"/><path d="M10715.455 38.182c0 4.518 3.663 8.182 8.181 8.182 4.519 0 8.182-3.664 8.182-8.182 0-4.519-3.663-8.182-8.182-8.182-4.518 0-8.181 3.663-8.181 8.182zm32.727 0c0 4.518 3.663 8.182 8.182 8.182s8.181-3.664 8.181-8.182c0-4.519-3.662-8.182-8.181-8.182-4.519 0-8.182 3.663-8.182 8.182z" fill="#60361a"/><path d="M10740.5 84c-9.2-.2-19.6-7-20.9-16.9-1.5-12.1 11.7-12.8 20.9-13 9.3.2 22.4.9 20.9 13.1-1.3 9.8-11.6 16.6-20.9 16.8z" fill="#6a3909" fill-rule="evenodd"/></g><g><path d="M10879.091 103.636v.045c0 6-5.086 10.864-11.359 10.864h-15.464c-6.273 0-11.359-4.864-11.359-10.864v-.045h38.182zm-19.752-100.904c25.909-.357 47.025 20.291 47.025 45.813 0 16.48-8.806 30.926-22.019 38.999-2.756 1.683-4.475 4.617-4.475 7.818v2.82h-39.164v-2.473c0-3.246-1.769-6.209-4.583-7.883-13.304-7.914-22.259-22.241-22.483-38.652-.338-24.895 20.508-46.095 45.699-46.442z" fill="#ffd348"/><path d="M10835.455 38.182c0 4.518 3.663 8.182 8.181 8.182 4.519 0 8.182-3.664 8.182-8.182 0-4.519-3.663-8.182-8.182-8.182-4.518 0-8.181 3.663-8.181 8.182zm32.727 0c0 4.518 3.663 8.182 8.182 8.182s8.181-3.664 8.181-8.182c0-4.519-3.662-8.182-8.181-8.182-4.519 0-8.182 3.663-8.182 8.182z" fill="#60361a"/><path d="M10860.5 84c-9.2-.2-19.6-7-20.9-16.9-1.5-12.1 11.7-12.8 20.9-13 9.3.2 22.4.9 20.9 13.1-1.3 9.8-11.6 16.6-20.9 16.8z" fill="#6a3909" fill-rule="evenodd"/></g></svg>
