
<svg xmlns="http://www.w3.org/2000/svg" viewBox="0 0 2440 40" width="100%" height="40"><path d="M0 20.058c0 10.994 8.954 19.906 20 19.906s20-8.912 20-19.906C40 9.064 31.046.152 20 .152S0 9.064 0 20.058z" fill="#8395f8" fill-rule="evenodd"/><g fill="#021563"><path d="M20 33c7.18 0 13-5.673 13-12.671 0 0-3.009-1.329-13-1.329S7 20.329 7 20.329C7 27.327 12.82 33 20 33" fill-rule="evenodd"/><path d="M10 12c1.657 0 3 1.408 3 3.145 0 .694-.214 1.335-.577 1.855-.546-.782-1.428-1.29-2.423-1.29-.995 0-1.877.508-2.423 1.29C7.214 16.48 7 15.839 7 15.145 7 13.408 8.343 12 10 12m20 0c1.657 0 3 1.408 3 3.145 0 .694-.214 1.335-.577 1.855-.546-.782-1.428-1.29-2.423-1.29-.995 0-1.877.508-2.423 1.29-.363-.52-.577-1.161-.577-1.855C27 13.408 28.343 12 30 12"/></g><path d="M40 20.058c0 10.994 8.954 19.906 20 19.906s20-8.912 20-19.906C80 9.064 71.046.152 60 .152S40 9.064 40 20.058z" fill="#8395f8" fill-rule="evenodd"/><g fill="#021563"><path d="M60 32.404684c7.18 0 13-5.535 13-12.363 0 0-3.009-1.297-13-1.297s-13 1.297-13 1.297c0 6.828 5.82 12.363 13 12.363" fill-rule="evenodd"/><path d="M50 12.659684c1.657 0 3 .893 3 1.994 0 .44-.214.847-.577 1.176-.546-.495-1.428-.818-2.423-.818-.995 0-1.877.323-2.423.818-.363-.329-.577-.736-.577-1.176 0-1.101 1.343-1.994 3-1.994m20 0c1.657 0 3 .893 3 1.994 0 .44-.214.847-.577 1.176-.546-.495-1.428-.818-2.423-.818-.995 0-1.877.323-2.423.818-.363-.329-.577-.736-.577-1.176 0-1.101 1.343-1.994 3-1.994"/></g><path d="M80 20.058c0 10.994 8.954 19.906 20 19.906s20-8.912 20-19.906C120 9.064 111.046.152 100 .152S80 9.064 80 20.058z" fill="#8395f8" fill-rule="evenodd"/><g fill="#021563"><path d="M100 29.799245c7.18 0 13-4.932 13-11.016 0 0-3.009-1.155-13-1.155s-13 1.155-13 1.155c0 6.084 5.82 11.016 13 11.016" fill-rule="evenodd"/><path d="M90 12.470245c1.657 0 3 .371 3 .828 0 .183-.214.351-.577.488-.546-.205-1.428-.339-2.423-.339-.995 0-1.877.134-2.423.339-.363-.137-.577-.305-.577-.488 0-.457 1.343-.828 3-.828m20 0c1.657 0 3 .371 3 .828 0 .183-.214.351-.577.488-.546-.205-1.428-.339-2.423-.339-.995 0-1.877.134-2.423.339-.363-.137-.577-.305-.577-.488 0-.457 1.343-.828 3-.828"/></g><path d="M120 20.058c0 10.994 8.954 19.906 20 19.906s20-8.912 20-19.906C160 9.064 151.046.152 140 .152s-20 8.912-20 19.906z" fill="#8395f8" fill-rule="evenodd"/><g fill="#021563"><path d="M140 27.571316c7.18 0 13-4.416 13-9.864 0 0-3.009-1.034-13-1.034s-13 1.034-13 1.034c0 5.448 5.82 9.864 13 9.864" fill-rule="evenodd"/><path d="M130 11.673316c1.657 0 3 .282 3 .629 0 .139-.214.267-.577.371-.546-.156-1.428-.258-2.423-.258-.995 0-1.877.102-2.423.258-.363-.104-.577-.232-.577-.371 0-.347 1.343-.629 3-.629m20 0c1.657 0 3 .282 3 .629 0 .139-.214.267-.577.371-.546-.156-1.428-.258-2.423-.258-.995 0-1.877.102-2.423.258-.363-.104-.577-.232-.577-.371 0-.347 1.343-.629 3-.629"/></g><path d="M160 20.058c0 10.994 8.954 19.906 20 19.906s20-8.912 20-19.906C200 9.064 191.046.152 180 .152s-20 8.912-20 19.906z" fill="#8395f8" fill-rule="evenodd"/><g fill="#021563"><path d="M180 26.554673c7.18 0 13-4.181 13-9.338 0 0-3.009-.979-13-.979s-13 .979-13 .979c0 5.157 5.82 9.338 13 9.338" fill-rule="evenodd"/><path d="M170 11.077673c1.657 0 3 .372 3 .83 0 .184-.214.353-.577.49-.546-.206-1.428-.341-2.423-.341-.995 0-1.877.135-2.423.341-.363-.137-.577-.306-.577-.49 0-.458 1.343-.83 3-.83m20 0c1.657 0 3 .372 3 .83 0 .184-.214.353-.577.49-.546-.206-1.428-.341-2.423-.341-.995 0-1.877.135-2.423.341-.363-.137-.577-.306-.577-.49 0-.458 1.343-.83 3-.83"/></g><path d="M200 20.058c0 10.994 8.954 19.906 20 19.906s20-8.912 20-19.906C240 9.064 231.046.152 220 .152s-20 8.912-20 19.906z" fill="#8395f8" fill-rule="evenodd"/><g fill="#021563"><path d="M220 26.116924c7.18 0 13-4.079 13-9.112 0 0-3.009-.955-13-.955s-13 .955-13 .955c0 5.033 5.82 9.112 13 9.112" fill-rule="evenodd"/><path d="M210 10.152924c1.657 0 3 .787 3 1.757 0 .388-.214.746-.577 1.037-.546-.437-1.428-.721-2.423-.721-.995 0-1.877.284-2.423.721-.363-.291-.577-.649-.577-1.037 0-.97 1.343-1.757 3-1.757m20 0c1.657 0 3 .787 3 1.757 0 .388-.214.746-.577 1.037-.546-.437-1.428-.721-2.423-.721-.995 0-1.877.284-2.423.721-.363-.291-.577-.649-.577-1.037 0-.97 1.343-1.757 3-1.757"/></g><path d="M240 20.058c0 10.994 8.954 19.906 20 19.906s20-8.912 20-19.906C280 9.064 271.046.152 260 .152s-20 8.912-20 19.906z" fill="#8395f8" fill-rule="evenodd"/><g fill="#021563"><path d="M260 26c7.18 0 13-4.052 13-9.051 0 0-3.009-.949-13-.949s-13 .949-13 .949c0 4.999 5.82 9.051 13 9.051" fill-rule="evenodd"/><path d="M250 9.455c1.657 0 3 1.152 3 2.573 0 .567-.214 1.091-.577 1.517-.546-.64-1.428-1.055-2.423-1.055-.995 0-1.877.415-2.423 1.055-.363-.426-.577-.95-.577-1.517 0-1.421 1.343-2.573 3-2.573m20 0c1.657 0 3 1.152 3 2.573 0 .567-.214 1.091-.577 1.517-.546-.64-1.428-1.055-2.423-1.055-.995 0-1.877.415-2.423 1.055-.363-.426-.577-.95-.577-1.517 0-1.421 1.343-2.573 3-2.573"/></g><path d="M280 20.058c0 10.994 8.954 19.906 20 19.906s20-8.912 20-19.906C320 9.064 311.046.152 300 .152s-20 8.912-20 19.906z" fill="#8395f8" fill-rule="evenodd"/><g fill="#021563"><path d="M300 26.579967c7.18 0 13-4.19 13-9.359 0 0-3.009-.981-13-.981s-13 .981-13 .981c0 5.169 5.82 9.359 13 9.359" fill-rule="evenodd"/><path d="M290 9.399967c1.657 0 3 1.318 3 2.944 0 .649-.214 1.249-.577 1.736-.546-.732-1.428-1.208-2.423-1.208-.995 0-1.877.476-2.423 1.208-.363-.487-.577-1.087-.577-1.736 0-1.626 1.343-2.944 3-2.944m20 0c1.657 0 3 1.318 3 2.944 0 .649-.214 1.249-.577 1.736-.546-.732-1.428-1.208-2.423-1.208-.995 0-1.877.476-2.423 1.208-.363-.487-.577-1.087-.577-1.736 0-1.626 1.343-2.944 3-2.944"/></g><path d="M320 20.058c0 10.994 8.954 19.906 20 19.906s20-8.912 20-19.906C360 9.064 351.046.152 340 .152s-20 8.912-20 19.906z" fill="#8395f8" fill-rule="evenodd"/><g fill="#021563"><path d="M340 29.174273c7.18 0 13-4.793 13-10.706 0 0-3.009-1.123-13-1.123s-13 1.123-13 1.123c0 5.913 5.82 10.706 13 10.706" fill-rule="evenodd"/><path d="M330 10.379273c1.657 0 3 1.389 3 3.102 0 .685-.214 1.317-.577 1.83-.546-.771-1.428-1.272-2.423-1.272-.995 0-1.877.501-2.423 1.272-.363-.513-.577-1.145-.577-1.83 0-1.713 1.343-3.102 3-3.102m20 0c1.657 0 3 1.389 3 3.102 0 .685-.214 1.317-.577 1.83-.546-.771-1.428-1.272-2.423-1.272-.995 0-1.877.501-2.423 1.272-.363-.513-.577-1.145-.577-1.83 0-1.713 1.343-3.102 3-3.102"/></g><path d="M360 20.058c0 10.994 8.954 19.906 20 19.906s20-8.912 20-19.906C400 9.064 391.046.152 380 .152s-20 8.912-20 19.906z" fill="#8395f8" fill-rule="evenodd"/><g fill="#021563"><path d="M380 31.41912c7.18 0 13-5.309 13-11.858 0 0-3.009-1.244-13-1.244s-13 1.244-13 1.244c0 6.549 5.82 11.858 13 11.858" fill-rule="evenodd"/><path d="M370 11.31712c1.657 0 3 1.408 3 3.145 0 .694-.214 1.335-.577 1.855-.546-.782-1.428-1.29-2.423-1.29-.995 0-1.877.508-2.423 1.29-.363-.52-.577-1.161-.577-1.855 0-1.737 1.343-3.145 3-3.145m20 0c1.657 0 3 1.408 3 3.145 0 .694-.214 1.335-.577 1.855-.546-.782-1.428-1.29-2.423-1.29-.995 0-1.877.508-2.423 1.29-.363-.52-.577-1.161-.577-1.855 0-1.737 1.343-3.145 3-3.145"/></g><path d="M400 20.058c0 10.994 8.954 19.906 20 19.906s20-8.912 20-19.906C440 9.064 431.046.152 420 .152s-20 8.912-20 19.906z" fill="#8395f8" fill-rule="evenodd"/><g fill="#021563"><path d="M420 32.442456c7.18 0 13-5.544 13-12.384 0 0-3.009-1.299-13-1.299s-13 1.299-13 1.299c0 6.84 5.82 12.384 13 12.384" fill-rule="evenodd"/><path d="M410 11.759456c1.657 0 3 1.408 3 3.145 0 .694-.214 1.335-.577 1.855-.546-.782-1.428-1.29-2.423-1.29-.995 0-1.877.508-2.423 1.29-.363-.52-.577-1.161-.577-1.855 0-1.737 1.343-3.145 3-3.145m20 0c1.657 0 3 1.408 3 3.145 0 .694-.214 1.335-.577 1.855-.546-.782-1.428-1.29-2.423-1.29-.995 0-1.877.508-2.423 1.29-.363-.52-.577-1.161-.577-1.855 0-1.737 1.343-3.145 3-3.145"/></g><path d="M440 20.058c0 10.994 8.954 19.906 20 19.906s20-8.912 20-19.906C480 9.064 471.046.152 460 .152s-20 8.912-20 19.906z" fill="#8395f8" fill-rule="evenodd"/><g fill="#021563"><path d="M460 32.882534c7.18 0 13-5.646 13-12.61 0 0-3.009-1.323-13-1.323s-13 1.323-13 1.323c0 6.964 5.82 12.61 13 12.61" fill-rule="evenodd"/><path d="M450 11.949534c1.657 0 3 1.408 3 3.145 0 .694-.214 1.335-.577 1.855-.546-.782-1.428-1.29-2.423-1.29-.995 0-1.877.508-2.423 1.29-.363-.52-.577-1.161-.577-1.855 0-1.737 1.343-3.145 3-3.145m20 0c1.657 0 3 1.408 3 3.145 0 .694-.214 1.335-.577 1.855-.546-.782-1.428-1.29-2.423-1.29-.995 0-1.877.508-2.423 1.29-.363-.52-.577-1.161-.577-1.855 0-1.737 1.343-3.145 3-3.145"/></g><path d="M480 20.058c0 10.994 8.954 19.906 20 19.906s20-8.912 20-19.906C520 9.064 511.046.152 500 .152s-20 8.912-20 19.906z" fill="#8395f8" fill-rule="evenodd"/><g fill="#021563"><path d="M500 33c7.18 0 13-5.673 13-12.671 0 0-3.009-1.329-13-1.329s-13 1.329-13 1.329C487 27.327 492.82 33 500 33" fill-rule="evenodd"/><path d="M490 12c1.657 0 3 1.408 3 3.145 0 .694-.214 1.335-.577 1.855-.546-.782-1.428-1.29-2.423-1.29-.995 0-1.877.508-2.423 1.29-.363-.52-.577-1.161-.577-1.855 0-1.737 1.343-3.145 3-3.145m20 0c1.657 0 3 1.408 3 3.145 0 .694-.214 1.335-.577 1.855-.546-.782-1.428-1.29-2.423-1.29-.995 0-1.877.508-2.423 1.29-.363-.52-.577-1.161-.577-1.855 0-1.737 1.343-3.145 3-3.145"/></g><path d="M520 20.058c0 10.994 8.954 19.906 20 19.906s20-8.912 20-19.906C560 9.064 551.046.152 540 .152s-20 8.912-20 19.906z" fill="#8395f8" fill-rule="evenodd"/><g fill="#021563"><path d="M540 32.422937c7.18 0 13-5.535 13-12.363 0 0-3.009-1.297-13-1.297s-13 1.297-13 1.297c0 6.828 5.82 12.363 13 12.363" fill-rule="evenodd"/><path d="M530 12.641937c1.657 0 3 .913 3 2.039 0 .45-.214.866-.577 1.203-.546-.507-1.428-.836-2.423-.836-.995 0-1.877.329-2.423.836-.363-.337-.577-.753-.577-1.203 0-1.126 1.343-2.039 3-2.039m20 0c1.657 0 3 .913 3 2.039 0 .45-.214.866-.577 1.203-.546-.507-1.428-.836-2.423-.836-.995 0-1.877.329-2.423.836-.363-.337-.577-.753-.577-1.203 0-1.126 1.343-2.039 3-2.039"/></g><path d="M560 20.058c0 10.994 8.954 19.906 20 19.906s20-8.912 20-19.906C600 9.064 591.046.152 580 .152s-20 8.912-20 19.906z" fill="#8395f8" fill-rule="evenodd"/><g fill="#021563"><path d="M580 29.838845c7.18 0 13-4.932 13-11.016 0 0-3.009-1.155-13-1.155s-13 1.155-13 1.155c0 6.084 5.82 11.016 13 11.016" fill-rule="evenodd"/><path d="M570 12.505845c1.657 0 3 .373 3 .833 0 .184-.214.354-.577.491-.546-.206-1.428-.341-2.423-.341-.995 0-1.877.135-2.423.341-.363-.137-.577-.307-.577-.491 0-.46 1.343-.833 3-.833m20 0c1.657 0 3 .373 3 .833 0 .184-.214.354-.577.491-.546-.206-1.428-.341-2.423-.341-.995 0-1.877.135-2.423.341-.363-.137-.577-.307-.577-.491 0-.46 1.343-.833 3-.833"/></g><path d="M600 20.058c0 10.994 8.954 19.906 20 19.906s20-8.912 20-19.906C640 9.064 631.046.152 620 .152s-20 8.912-20 19.906z" fill="#8395f8" fill-rule="evenodd"/><g fill="#021563"><path d="M620 27.590463c7.18 0 13-4.416 13-9.864 0 0-3.009-1.034-13-1.034s-13 1.034-13 1.034c0 5.448 5.82 9.864 13 9.864" fill-rule="evenodd"/><path d="M610 11.692463c1.657 0 3 .282 3 .629 0 .139-.214.267-.577.371-.546-.156-1.428-.258-2.423-.258-.995 0-1.877.102-2.423.258-.363-.104-.577-.232-.577-.371 0-.347 1.343-.629 3-.629m20 0c1.657 0 3 .282 3 .629 0 .139-.214.267-.577.371-.546-.156-1.428-.258-2.423-.258-.995 0-1.877.102-2.423.258-.363-.104-.577-.232-.577-.371 0-.347 1.343-.629 3-.629"/></g><path d="M640 20.058c0 10.994 8.954 19.906 20 19.906s20-8.912 20-19.906C680 9.064 671.046.152 660 .152s-20 8.912-20 19.906z" fill="#8395f8" fill-rule="evenodd"/><g fill="#021563"><path d="M660 26.563316c7.18 0 13-4.181 13-9.338 0 0-3.009-.979-13-.979s-13 .979-13 .979c0 5.157 5.82 9.338 13 9.338" fill-rule="evenodd"/><path d="M650 11.074316c1.657 0 3 .379 3 .845 0 .187-.214.359-.577.499-.546-.21-1.428-.347-2.423-.347-.995 0-1.877.137-2.423.347-.363-.14-.577-.312-.577-.499 0-.466 1.343-.845 3-.845m20 0c1.657 0 3 .379 3 .845 0 .187-.214.359-.577.499-.546-.21-1.428-.347-2.423-.347-.995 0-1.877.137-2.423.347-.363-.14-.577-.312-.577-.499 0-.466 1.343-.845 3-.845"/></g><path d="M680 20.058c0 10.994 8.954 19.906 20 19.906s20-8.912 20-19.906C720 9.064 711.046.152 700 .152s-20 8.912-20 19.906z" fill="#8395f8" fill-rule="evenodd"/><g fill="#021563"><path d="M700 26.120211c7.18 0 13-4.079 13-9.112 0 0-3.009-.955-13-.955s-13 .955-13 .955c0 5.033 5.82 9.112 13 9.112" fill-rule="evenodd"/><path d="M690 10.130211c1.657 0 3 .802 3 1.79 0 .395-.214.76-.577 1.056-.546-.445-1.428-.734-2.423-.734-.995 0-1.877.289-2.423.734-.363-.296-.577-.661-.577-1.056 0-.988 1.343-1.79 3-1.79m20 0c1.657 0 3 .802 3 1.79 0 .395-.214.76-.577 1.056-.546-.445-1.428-.734-2.423-.734-.995 0-1.877.289-2.423.734-.363-.296-.577-.661-.577-1.056 0-.988 1.343-1.79 3-1.79"/></g><path d="M720 20.058c0 10.994 8.954 19.906 20 19.906s20-8.912 20-19.906C760 9.064 751.046.152 740 .152s-20 8.912-20 19.906z" fill="#8395f8" fill-rule="evenodd"/><g fill="#021563"><path d="M740 26.00004c7.18 0 13-4.052 13-9.051 0 0-3.009-.949-13-.949s-13 .949-13 .949c0 4.999 5.82 9.051 13 9.051" fill-rule="evenodd"/><path d="M730 9.44304c1.657 0 3 1.158 3 2.588 0 .571-.214 1.098-.577 1.526-.546-.643-1.428-1.061-2.423-1.061-.995 0-1.877.418-2.423 1.061-.363-.428-.577-.955-.577-1.526 0-1.43 1.343-2.588 3-2.588m20 0c1.657 0 3 1.158 3 2.588 0 .571-.214 1.098-.577 1.526-.546-.643-1.428-1.061-2.423-1.061-.995 0-1.877.418-2.423 1.061-.363-.428-.577-.955-.577-1.526 0-1.43 1.343-2.588 3-2.588"/></g><path d="M760 20.058c0 10.994 8.954 19.906 20 19.906s20-8.912 20-19.906C800 9.064 791.046.152 780 .152s-20 8.912-20 19.906z" fill="#8395f8" fill-rule="evenodd"/><g fill="#021563"><path d="M780 26.579967c7.18 0 13-4.19 13-9.359 0 0-3.009-.981-13-.981s-13 .981-13 .981c0 5.169 5.82 9.359 13 9.359" fill-rule="evenodd"/><path d="M770 9.394967c1.657 0 3 1.321 3 2.95 0 .651-.214 1.253-.577 1.74-.546-.733-1.428-1.21-2.423-1.21-.995 0-1.877.477-2.423 1.21-.363-.487-.577-1.089-.577-1.74 0-1.629 1.343-2.95 3-2.95m20 0c1.657 0 3 1.321 3 2.95 0 .651-.214 1.253-.577 1.74-.546-.733-1.428-1.21-2.423-1.21-.995 0-1.877.477-2.423 1.21-.363-.487-.577-1.089-.577-1.74 0-1.629 1.343-2.95 3-2.95"/></g><path d="M800 20.058c0 10.994 8.954 19.906 20 19.906s20-8.912 20-19.906C840 9.064 831.046.152 820 .152s-20 8.912-20 19.906z" fill="#8395f8" fill-rule="evenodd"/><g fill="#021563"><path d="M820 29.174273c7.18 0 13-4.793 13-10.706 0 0-3.009-1.123-13-1.123s-13 1.123-13 1.123c0 5.913 5.82 10.706 13 10.706" fill-rule="evenodd"/><path d="M810 10.377273c1.657 0 3 1.39 3 3.105 0 .685-.214 1.318-.577 1.831-.546-.772-1.428-1.273-2.423-1.273-.995 0-1.877.501-2.423 1.273-.363-.513-.577-1.146-.577-1.831 0-1.715 1.343-3.105 3-3.105m20 0c1.657 0 3 1.39 3 3.105 0 .685-.214 1.318-.577 1.831-.546-.772-1.428-1.273-2.423-1.273-.995 0-1.877.501-2.423 1.273-.363-.513-.577-1.146-.577-1.831 0-1.715 1.343-3.105 3-3.105"/></g><path d="M840 20.058c0 10.994 8.954 19.906 20 19.906s20-8.912 20-19.906C880 9.064 871.046.152 860 .152s-20 8.912-20 19.906z" fill="#8395f8" fill-rule="evenodd"/><g fill="#021563"><path d="M860 31.41912c7.18 0 13-5.309 13-11.858 0 0-3.009-1.244-13-1.244s-13 1.244-13 1.244c0 6.549 5.82 11.858 13 11.858" fill-rule="evenodd"/><path d="M850 11.31712c1.657 0 3 1.408 3 3.145 0 .694-.214 1.335-.577 1.855-.546-.782-1.428-1.29-2.423-1.29-.995 0-1.877.508-2.423 1.29-.363-.52-.577-1.161-.577-1.855 0-1.737 1.343-3.145 3-3.145m20 0c1.657 0 3 1.408 3 3.145 0 .694-.214 1.335-.577 1.855-.546-.782-1.428-1.29-2.423-1.29-.995 0-1.877.508-2.423 1.29-.363-.52-.577-1.161-.577-1.855 0-1.737 1.343-3.145 3-3.145"/></g><path d="M880 20.058c0 10.994 8.954 19.906 20 19.906s20-8.912 20-19.906C920 9.064 911.046.152 900 .152s-20 8.912-20 19.906z" fill="#8395f8" fill-rule="evenodd"/><g fill="#021563"><path d="M900 32.442456c7.18 0 13-5.544 13-12.384 0 0-3.009-1.299-13-1.299s-13 1.299-13 1.299c0 6.84 5.82 12.384 13 12.384" fill-rule="evenodd"/><path d="M890 11.759456c1.657 0 3 1.408 3 3.145 0 .694-.214 1.335-.577 1.855-.546-.782-1.428-1.29-2.423-1.29-.995 0-1.877.508-2.423 1.29-.363-.52-.577-1.161-.577-1.855 0-1.737 1.343-3.145 3-3.145m20 0c1.657 0 3 1.408 3 3.145 0 .694-.214 1.335-.577 1.855-.546-.782-1.428-1.29-2.423-1.29-.995 0-1.877.508-2.423 1.29-.363-.52-.577-1.161-.577-1.855 0-1.737 1.343-3.145 3-3.145"/></g><path d="M920 20.058c0 10.994 8.954 19.906 20 19.906s20-8.912 20-19.906C960 9.064 951.046.152 940 .152s-20 8.912-20 19.906z" fill="#8395f8" fill-rule="evenodd"/><g fill="#021563"><path d="M940 32.882534c7.18 0 13-5.646 13-12.61 0 0-3.009-1.323-13-1.323s-13 1.323-13 1.323c0 6.964 5.82 12.61 13 12.61" fill-rule="evenodd"/><path d="M930 11.949534c1.657 0 3 1.408 3 3.145 0 .694-.214 1.335-.577 1.855-.546-.782-1.428-1.29-2.423-1.29-.995 0-1.877.508-2.423 1.29-.363-.52-.577-1.161-.577-1.855 0-1.737 1.343-3.145 3-3.145m20 0c1.657 0 3 1.408 3 3.145 0 .694-.214 1.335-.577 1.855-.546-.782-1.428-1.29-2.423-1.29-.995 0-1.877.508-2.423 1.29-.363-.52-.577-1.161-.577-1.855 0-1.737 1.343-3.145 3-3.145"/></g><path d="M960 20.058c0 10.994 8.954 19.906 20 19.906s20-8.912 20-19.906c0-10.994-8.954-19.906-20-19.906s-20 8.912-20 19.906z" fill="#8395f8" fill-rule="evenodd"/><g fill="#021563"><path d="M980 33c7.18 0 13-5.673 13-12.671 0 0-3.009-1.329-13-1.329s-13 1.329-13 1.329C967 27.327 972.82 33 980 33" fill-rule="evenodd"/><path d="M970 12c1.657 0 3 1.408 3 3.145 0 .694-.214 1.335-.577 1.855-.546-.782-1.428-1.29-2.423-1.29-.995 0-1.877.508-2.423 1.29-.363-.52-.577-1.161-.577-1.855 0-1.737 1.343-3.145 3-3.145m20 0c1.657 0 3 1.408 3 3.145 0 .694-.214 1.335-.577 1.855-.546-.782-1.428-1.29-2.423-1.29-.995 0-1.877.508-2.423 1.29-.363-.52-.577-1.161-.577-1.855 0-1.737 1.343-3.145 3-3.145"/></g><path d="M1000 20.058c0 10.994 8.954 19.906 20 19.906s20-8.912 20-19.906c0-10.994-8.954-19.906-20-19.906s-20 8.912-20 19.906z" fill="#8395f8" fill-rule="evenodd"/><g fill="#021563"><path d="M1020 32.404684c7.18 0 13-5.535 13-12.363 0 0-3.009-1.297-13-1.297s-13 1.297-13 1.297c0 6.828 5.82 12.363 13 12.363" fill-rule="evenodd"/><path d="M1010 11.744684c1.657 0 3 1.408 3 3.145 0 .694-.214 1.335-.577 1.855-.546-.782-1.428-1.29-2.423-1.29-.995 0-1.877.508-2.423 1.29-.363-.52-.577-1.161-.577-1.855 0-1.737 1.343-3.145 3-3.145m20 0c1.657 0 3 1.408 3 3.145 0 .694-.214 1.335-.577 1.855-.546-.782-1.428-1.29-2.423-1.29-.995 0-1.877.508-2.423 1.29-.363-.52-.577-1.161-.577-1.855 0-1.737 1.343-3.145 3-3.145"/></g><path d="M1040 20.058c0 10.994 8.954 19.906 20 19.906s20-8.912 20-19.906c0-10.994-8.954-19.906-20-19.906s-20 8.912-20 19.906z" fill="#8395f8" fill-rule="evenodd"/><g fill="#021563"><path d="M1060 29.799245c7.18 0 13-4.932 13-11.016 0 0-3.009-1.155-13-1.155s-13 1.155-13 1.155c0 6.084 5.82 11.016 13 11.016" fill-rule="evenodd"/><path d="M1050 10.628245c1.657 0 3 1.408 3 3.145 0 .694-.214 1.335-.577 1.855-.546-.782-1.428-1.29-2.423-1.29-.995 0-1.877.508-2.423 1.29-.363-.52-.577-1.161-.577-1.855 0-1.737 1.343-3.145 3-3.145m20 0c1.657 0 3 1.408 3 3.145 0 .694-.214 1.335-.577 1.855-.546-.782-1.428-1.29-2.423-1.29-.995 0-1.877.508-2.423 1.29-.363-.52-.577-1.161-.577-1.855 0-1.737 1.343-3.145 3-3.145"/></g><path d="M1080 20.058c0 10.994 8.954 19.906 20 19.906s20-8.912 20-19.906c0-10.994-8.954-19.906-20-19.906s-20 8.912-20 19.906z" fill="#8395f8" fill-rule="evenodd"/><g fill="#021563"><path d="M1100 27.571316c7.18 0 13-4.416 13-9.864 0 0-3.009-1.034-13-1.034s-13 1.034-13 1.034c0 5.448 5.82 9.864 13 9.864" fill-rule="evenodd"/><path d="M1090 9.673316c1.657 0 3 1.408 3 3.145 0 .694-.214 1.335-.577 1.855-.546-.782-1.428-1.29-2.423-1.29-.995 0-1.877.508-2.423 1.29-.363-.52-.577-1.161-.577-1.855 0-1.737 1.343-3.145 3-3.145m20 0c1.657 0 3 1.408 3 3.145 0 .694-.214 1.335-.577 1.855-.546-.782-1.428-1.29-2.423-1.29-.995 0-1.877.508-2.423 1.29-.363-.52-.577-1.161-.577-1.855 0-1.737 1.343-3.145 3-3.145"/></g><path d="M1120 20.058c0 10.994 8.954 19.906 20 19.906s20-8.912 20-19.906c0-10.994-8.954-19.906-20-19.906s-20 8.912-20 19.906z" fill="#8395f8" fill-rule="evenodd"/><g fill="#021563"><path d="M1140 26.554673c7.18 0 13-4.181 13-9.338 0 0-3.009-.979-13-.979s-13 .979-13 .979c0 5.157 5.82 9.338 13 9.338" fill-rule="evenodd"/><path d="M1130 9.237673c1.657 0 3 1.408 3 3.145 0 .694-.214 1.335-.577 1.855-.546-.782-1.428-1.29-2.423-1.29-.995 0-1.877.508-2.423 1.29-.363-.52-.577-1.161-.577-1.855 0-1.737 1.343-3.145 3-3.145m20 0c1.657 0 3 1.408 3 3.145 0 .694-.214 1.335-.577 1.855-.546-.782-1.428-1.29-2.423-1.29-.995 0-1.877.508-2.423 1.29-.363-.52-.577-1.161-.577-1.855 0-1.737 1.343-3.145 3-3.145"/></g><path d="M1160 20.058c0 10.994 8.954 19.906 20 19.906s20-8.912 20-19.906c0-10.994-8.954-19.906-20-19.906s-20 8.912-20 19.906z" fill="#8395f8" fill-rule="evenodd"/><g fill="#021563"><path d="M1180 26.116924c7.18 0 13-4.079 13-9.112 0 0-3.009-.955-13-.955s-13 .955-13 .955c0 5.033 5.82 9.112 13 9.112" fill-rule="evenodd"/><path d="M1170 9.049924c1.657 0 3 1.408 3 3.145 0 .694-.214 1.335-.577 1.855-.546-.782-1.428-1.29-2.423-1.29-.995 0-1.877.508-2.423 1.29-.363-.52-.577-1.161-.577-1.855 0-1.737 1.343-3.145 3-3.145m20 0c1.657 0 3 1.408 3 3.145 0 .694-.214 1.335-.577 1.855-.546-.782-1.428-1.29-2.423-1.29-.995 0-1.877.508-2.423 1.29-.363-.52-.577-1.161-.577-1.855 0-1.737 1.343-3.145 3-3.145"/></g><path d="M1200 20.058c0 10.994 8.954 19.906 20 19.906s20-8.912 20-19.906c0-10.994-8.954-19.906-20-19.906s-20 8.912-20 19.906z" fill="#8395f8" fill-rule="evenodd"/><g fill="#021563"><path d="M1220 26c7.18 0 13-4.052 13-9.051 0 0-3.009-.949-13-.949s-13 .949-13 .949c0 4.999 5.82 9.051 13 9.051" fill-rule="evenodd"/><path d="M1210 9c1.657 0 3 1.408 3 3.145 0 .694-.214 1.335-.577 1.855-.546-.782-1.428-1.29-2.423-1.29-.995 0-1.877.508-2.423 1.29-.363-.52-.577-1.161-.577-1.855 0-1.737 1.343-3.145 3-3.145m20 0c1.657 0 3 1.408 3 3.145 0 .694-.214 1.335-.577 1.855-.546-.782-1.428-1.29-2.423-1.29-.995 0-1.877.508-2.423 1.29-.363-.52-.577-1.161-.577-1.855 0-1.737 1.343-3.145 3-3.145"/></g><g><path d="M1240 20.058c0 10.994 8.954 19.906 20 19.906s20-8.912 20-19.906c0-10.994-8.954-19.906-20-19.906s-20 8.912-20 19.906z" fill="#8395f8" fill-rule="evenodd"/><g fill="#021563"><path d="M1260 26.598464c7.18 0 13-4.19 13-9.359 0 0-3.009-.981-13-.981s-13 .981-13 .981c0 5.169 5.82 9.359 13 9.359" fill-rule="evenodd"/><path d="M1250 9.972464c1.657 0 3 1.006 3 2.247 0 .495-.214.953-.577 1.325-.546-.559-1.428-.922-2.423-.922-.995 0-1.877.363-2.423.922-.363-.372-.577-.83-.577-1.325 0-1.241 1.343-2.247 3-2.247m20 0c1.657 0 3 1.006 3 2.247 0 .495-.214.953-.577 1.325-.546-.559-1.428-.922-2.423-.922-.995 0-1.877.363-2.423.922-.363-.372-.577-.83-.577-1.325 0-1.241 1.343-2.247 3-2.247"/></g></g><g><path d="M1280 20.058c0 10.994 8.954 19.906 20 19.906s20-8.912 20-19.906c0-10.994-8.954-19.906-20-19.906s-20 8.912-20 19.906z" fill="#8395f8" fill-rule="evenodd"/><g fill="#021563"><path d="M1300 29.213916c7.18 0 13-4.793 13-10.706 0 0-3.009-1.123-13-1.123s-13 1.123-13 1.123c0 5.913 5.82 10.706 13 10.706" fill-rule="evenodd"/><path d="M1290 12.184916c1.657 0 3 .395 3 .881 0 .194-.214.373-.577.519-.546-.219-1.428-.361-2.423-.361-.995 0-1.877.142-2.423.361-.363-.146-.577-.325-.577-.519 0-.486 1.343-.881 3-.881m20 0c1.657 0 3 .395 3 .881 0 .194-.214.373-.577.519-.546-.219-1.428-.361-2.423-.361-.995 0-1.877.142-2.423.361-.363-.146-.577-.325-.577-.519 0-.486 1.343-.881 3-.881"/></g></g><g><path d="M1320 20.058c0 10.994 8.954 19.906 20 19.906s20-8.912 20-19.906c0-10.994-8.954-19.906-20-19.906s-20 8.912-20 19.906z" fill="#8395f8" fill-rule="evenodd"/><g fill="#021563"><path d="M1340 31.438134c7.18 0 13-5.309 13-11.858 0 0-3.009-1.244-13-1.244s-13 1.244-13 1.244c0 6.549 5.82 11.858 13 11.858" fill-rule="evenodd"/><path d="M1330 13.335134c1.657 0 3 .283 3 .63 0 .14-.214.268-.577.372-.546-.156-1.428-.259-2.423-.259-.995 0-1.877.103-2.423.259-.363-.104-.577-.232-.577-.372 0-.347 1.343-.63 3-.63m20 0c1.657 0 3 .283 3 .63 0 .14-.214.268-.577.372-.546-.156-1.428-.259-2.423-.259-.995 0-1.877.103-2.423.259-.363-.104-.577-.232-.577-.372 0-.347 1.343-.63 3-.63"/></g></g><g><path d="M1360 20.058c0 10.994 8.954 19.906 20 19.906s20-8.912 20-19.906c0-10.994-8.954-19.906-20-19.906s-20 8.912-20 19.906z" fill="#8395f8" fill-rule="evenodd"/><g fill="#021563"><path d="M1380 32.451c7.18 0 13-5.544 13-12.384 0 0-3.009-1.299-13-1.299s-13 1.299-13 1.299c0 6.84 5.82 12.384 13 12.384" fill-rule="evenodd"/><path d="M1370 13.631c1.657 0 3 .359 3 .801 0 .177-.214.341-.577.473-.546-.199-1.428-.329-2.423-.329-.995 0-1.877.13-2.423.329-.363-.132-.577-.296-.577-.473 0-.442 1.343-.801 3-.801m20 0c1.657 0 3 .359 3 .801 0 .177-.214.341-.577.473-.546-.199-1.428-.329-2.423-.329-.995 0-1.877.13-2.423.329-.363-.132-.577-.296-.577-.473 0-.442 1.343-.801 3-.801"/></g></g><g><path d="M1400 20.058c0 10.994 8.954 19.906 20 19.906s20-8.912 20-19.906c0-10.994-8.954-19.906-20-19.906s-20 8.912-20 19.906z" fill="#8395f8" fill-rule="evenodd"/><g fill="#021563"><path d="M1420 32.885736c7.18 0 13-5.646 13-12.61 0 0-3.009-1.323-13-1.323s-13 1.323-13 1.323c0 6.964 5.82 12.61 13 12.61" fill-rule="evenodd"/><path d="M1410 13.109736c1.657 0 3 .757 3 1.69 0 .372-.214.717-.577.996-.546-.42-1.428-.693-2.423-.693-.995 0-1.877.273-2.423.693-.363-.279-.577-.624-.577-.996 0-.933 1.343-1.69 3-1.69m20 0c1.657 0 3 .757 3 1.69 0 .372-.214.717-.577.996-.546-.42-1.428-.693-2.423-.693-.995 0-1.877.273-2.423.693-.363-.279-.577-.624-.577-.996 0-.933 1.343-1.69 3-1.69"/></g></g><g><path d="M1440 20.058c0 10.994 8.954 19.906 20 19.906s20-8.912 20-19.906c0-10.994-8.954-19.906-20-19.906s-20 8.912-20 19.906z" fill="#8395f8" fill-rule="evenodd"/><g fill="#021563"><path d="M1460 32.999842c7.18 0 13-5.673 13-12.671 0 0-3.009-1.329-13-1.329s-13 1.329-13 1.329c0 6.998 5.82 12.671 13 12.671" fill-rule="evenodd"/><path d="M1450 12.481842c1.657 0 3 1.136 3 2.539 0 .56-.214 1.078-.577 1.497-.546-.631-1.428-1.041-2.423-1.041-.995 0-1.877.41-2.423 1.041-.363-.419-.577-.937-.577-1.497 0-1.403 1.343-2.539 3-2.539m20 0c1.657 0 3 1.136 3 2.539 0 .56-.214 1.078-.577 1.497-.546-.631-1.428-1.041-2.423-1.041-.995 0-1.877.41-2.423 1.041-.363-.419-.577-.937-.577-1.497 0-1.403 1.343-2.539 3-2.539"/></g></g><g><path d="M1480 20.058c0 10.994 8.954 19.906 20 19.906s20-8.912 20-19.906c0-10.994-8.954-19.906-20-19.906s-20 8.912-20 19.906z" fill="#8395f8" fill-rule="evenodd"/><g fill="#021563"><path d="M1500 32.385505c7.18 0 13-5.535 13-12.363 0 0-3.009-1.297-13-1.297s-13 1.297-13 1.297c0 6.828 5.82 12.363 13 12.363" fill-rule="evenodd"/><path d="M1490 11.897505c1.657 0 3 1.311 3 2.929 0 .646-.214 1.243-.577 1.727-.546-.728-1.428-1.201-2.423-1.201-.995 0-1.877.473-2.423 1.201-.363-.484-.577-1.081-.577-1.727 0-1.618 1.343-2.929 3-2.929m20 0c1.657 0 3 1.311 3 2.929 0 .646-.214 1.243-.577 1.727-.546-.728-1.428-1.201-2.423-1.201-.995 0-1.877.473-2.423 1.201-.363-.484-.577-1.081-.577-1.727 0-1.618 1.343-2.929 3-2.929"/></g></g><g><path d="M1520 20.058c0 10.994 8.954 19.906 20 19.906s20-8.912 20-19.906c0-10.994-8.954-19.906-20-19.906s-20 8.912-20 19.906z" fill="#8395f8" fill-rule="evenodd"/><g fill="#021563"><path d="M1540 29.760127c7.18 0 13-4.932 13-11.016 0 0-3.009-1.155-13-1.155s-13 1.155-13 1.155c0 6.084 5.82 11.016 13 11.016" fill-rule="evenodd"/><path d="M1530 10.627127c1.657 0 3 1.387 3 3.097 0 .684-.214 1.315-.577 1.827-.546-.77-1.428-1.27-2.423-1.27-.995 0-1.877.5-2.423 1.27-.363-.512-.577-1.143-.577-1.827 0-1.71 1.343-3.097 3-3.097m20 0c1.657 0 3 1.387 3 3.097 0 .684-.214 1.315-.577 1.827-.546-.77-1.428-1.27-2.423-1.27-.995 0-1.877.5-2.423 1.27-.363-.512-.577-1.143-.577-1.827 0-1.71 1.343-3.097 3-3.097"/></g></g><g><path d="M1560 20.058c0 10.994 8.954 19.906 20 19.906s20-8.912 20-19.906c0-10.994-8.954-19.906-20-19.906s-20 8.912-20 19.906z" fill="#8395f8" fill-rule="evenodd"/><g fill="#021563"><path d="M1580 27.552621c7.18 0 13-4.416 13-9.864 0 0-3.009-1.034-13-1.034s-13 1.034-13 1.034c0 5.448 5.82 9.864 13 9.864" fill-rule="evenodd"/><path d="M1570 9.654621c1.657 0 3 1.408 3 3.145 0 .694-.214 1.335-.577 1.855-.546-.782-1.428-1.29-2.423-1.29-.995 0-1.877.508-2.423 1.29-.363-.52-.577-1.161-.577-1.855 0-1.737 1.343-3.145 3-3.145m20 0c1.657 0 3 1.408 3 3.145 0 .694-.214 1.335-.577 1.855-.546-.782-1.428-1.29-2.423-1.29-.995 0-1.877.508-2.423 1.29-.363-.52-.577-1.161-.577-1.855 0-1.737 1.343-3.145 3-3.145"/></g></g><g><path d="M1600 20.058c0 10.994 8.954 19.906 20 19.906s20-8.912 20-19.906c0-10.994-8.954-19.906-20-19.906s-20 8.912-20 19.906z" fill="#8395f8" fill-rule="evenodd"/><g fill="#021563"><path d="M1620 26.546241c7.18 0 13-4.181 13-9.338 0 0-3.009-.979-13-.979s-13 .979-13 .979c0 5.157 5.82 9.338 13 9.338" fill-rule="evenodd"/><path d="M1610 10.036241c1.657 0 3 .954 3 2.13 0 .47-.214.904-.577 1.256-.546-.53-1.428-.874-2.423-.874-.995 0-1.877.344-2.423.874-.363-.352-.577-.786-.577-1.256 0-1.176 1.343-2.13 3-2.13m20 0c1.657 0 3 .954 3 2.13 0 .47-.214.904-.577 1.256-.546-.53-1.428-.874-2.423-.874-.995 0-1.877.344-2.423.874-.363-.352-.577-.786-.577-1.256 0-1.176 1.343-2.13 3-2.13"/></g></g><g><path d="M1640 20.058c0 10.994 8.954 19.906 20 19.906s20-8.912 20-19.906c0-10.994-8.954-19.906-20-19.906s-20 8.912-20 19.906z" fill="#8395f8" fill-rule="evenodd"/><g fill="#021563"><path d="M1660 26.113757c7.18 0 13-4.079 13-9.112 0 0-3.009-.955-13-.955s-13 .955-13 .955c0 5.033 5.82 9.112 13 9.112" fill-rule="evenodd"/><path d="M1650 10.864757c1.657 0 3 .384 3 .858 0 .19-.214.364-.577.506-.546-.213-1.428-.352-2.423-.352-.995 0-1.877.139-2.423.352-.363-.142-.577-.316-.577-.506 0-.474 1.343-.858 3-.858m20 0c1.657 0 3 .384 3 .858 0 .19-.214.364-.577.506-.546-.213-1.428-.352-2.423-.352-.995 0-1.877.139-2.423.352-.363-.142-.577-.316-.577-.506 0-.474 1.343-.858 3-.858"/></g></g><g><path d="M1680 20.058c0 10.994 8.954 19.906 20 19.906s20-8.912 20-19.906c0-10.994-8.954-19.906-20-19.906s-20 8.912-20 19.906z" fill="#8395f8" fill-rule="evenodd"/><g fill="#021563"><path d="M1700 26.00016c7.18 0 13-4.052 13-9.051 0 0-3.009-.949-13-.949s-13 .949-13 .949c0 4.999 5.82 9.051 13 9.051" fill-rule="evenodd"/><path d="M1690 11.00016c1.657 0 3 .282 3 .629 0 .139-.214.267-.577.371-.546-.156-1.428-.258-2.423-.258-.995 0-1.877.102-2.423.258-.363-.104-.577-.232-.577-.371 0-.347 1.343-.629 3-.629m20 0c1.657 0 3 .282 3 .629 0 .139-.214.267-.577.371-.546-.156-1.428-.258-2.423-.258-.995 0-1.877.102-2.423.258-.363-.104-.577-.232-.577-.371 0-.347 1.343-.629 3-.629"/></g></g><g><path d="M1720 20.058c0 10.994 8.954 19.906 20 19.906s20-8.912 20-19.906c0-10.994-8.954-19.906-20-19.906s-20 8.912-20 19.906z" fill="#8395f8" fill-rule="evenodd"/><g fill="#021563"><path d="M1740 26.6179c7.18 0 13-4.19 13-9.359 0 0-3.009-.981-13-.981s-13 .981-13 .981c0 5.169 5.82 9.359 13 9.359" fill-rule="evenodd"/><path d="M1730 9.2779c1.657 0 3 1.408 3 3.145 0 .694-.214 1.335-.577 1.855-.546-.782-1.428-1.29-2.423-1.29-.995 0-1.877.508-2.423 1.29-.363-.52-.577-1.161-.577-1.855 0-1.737 1.343-3.145 3-3.145m20 0c1.657 0 3 1.408 3 3.145 0 .694-.214 1.335-.577 1.855-.546-.782-1.428-1.29-2.423-1.29-.995 0-1.877.508-2.423 1.29-.363-.52-.577-1.161-.577-1.855 0-1.737 1.343-3.145 3-3.145"/></g></g><g><path d="M1760 20.058c0 10.994 8.954 19.906 20 19.906s20-8.912 20-19.906c0-10.994-8.954-19.906-20-19.906s-20 8.912-20 19.906z" fill="#8395f8" fill-rule="evenodd"/><g fill="#021563"><path d="M1780 29.253055c7.18 0 13-4.793 13-10.706 0 0-3.009-1.123-13-1.123s-13 1.123-13 1.123c0 5.913 5.82 10.706 13 10.706" fill-rule="evenodd"/><path d="M1770 10.424055c1.657 0 3 1.408 3 3.145 0 .694-.214 1.335-.577 1.855-.546-.782-1.428-1.29-2.423-1.29-.995 0-1.877.508-2.423 1.29-.363-.52-.577-1.161-.577-1.855 0-1.737 1.343-3.145 3-3.145m20 0c1.657 0 3 1.408 3 3.145 0 .694-.214 1.335-.577 1.855-.546-.782-1.428-1.29-2.423-1.29-.995 0-1.877.508-2.423 1.29-.363-.52-.577-1.161-.577-1.855 0-1.737 1.343-3.145 3-3.145"/></g></g><g><path d="M1800 20.058c0 10.994 8.954 19.906 20 19.906s20-8.912 20-19.906c0-10.994-8.954-19.906-20-19.906s-20 8.912-20 19.906z" fill="#8395f8" fill-rule="evenodd"/><g fill="#021563"><path d="M1820 31.456697c7.18 0 13-5.309 13-11.858 0 0-3.009-1.244-13-1.244s-13 1.244-13 1.244c0 6.549 5.82 11.858 13 11.858" fill-rule="evenodd"/><path d="M1810 11.354697c1.657 0 3 1.408 3 3.145 0 .694-.214 1.335-.577 1.855-.546-.782-1.428-1.29-2.423-1.29-.995 0-1.877.508-2.423 1.29-.363-.52-.577-1.161-.577-1.855 0-1.737 1.343-3.145 3-3.145m20 0c1.657 0 3 1.408 3 3.145 0 .694-.214 1.335-.577 1.855-.546-.782-1.428-1.29-2.423-1.29-.995 0-1.877.508-2.423 1.29-.363-.52-.577-1.161-.577-1.855 0-1.737 1.343-3.145 3-3.145"/></g></g><g><path d="M1840 20.058c0 10.994 8.954 19.906 20 19.906s20-8.912 20-19.906c0-10.994-8.954-19.906-20-19.906s-20 8.912-20 19.906z" fill="#8395f8" fill-rule="evenodd"/><g fill="#021563"><path d="M1860 32.459333c7.18 0 13-5.544 13-12.384 0 0-3.009-1.299-13-1.299s-13 1.299-13 1.299c0 6.84 5.82 12.384 13 12.384" fill-rule="evenodd"/><path d="M1850 13.616333c1.657 0 3 .372 3 .83 0 .184-.214.353-.577.49-.546-.206-1.428-.341-2.423-.341-.995 0-1.877.135-2.423.341-.363-.137-.577-.306-.577-.49 0-.458 1.343-.83 3-.83m20 0c1.657 0 3 .372 3 .83 0 .184-.214.353-.577.49-.546-.206-1.428-.341-2.423-.341-.995 0-1.877.135-2.423.341-.363-.137-.577-.306-.577-.49 0-.458 1.343-.83 3-.83"/></g></g><g><path d="M1880 20.058c0 10.994 8.954 19.906 20 19.906s20-8.912 20-19.906c0-10.994-8.954-19.906-20-19.906s-20 8.912-20 19.906z" fill="#8395f8" fill-rule="evenodd"/><g fill="#021563"><path d="M1900 32.88882c7.18 0 13-5.646 13-12.61 0 0-3.009-1.323-13-1.323s-13 1.323-13 1.323c0 6.964 5.82 12.61 13 12.61" fill-rule="evenodd"/><path d="M1890 13.05882c1.657 0 3 .787 3 1.757 0 .388-.214.746-.577 1.037-.546-.437-1.428-.721-2.423-.721-.995 0-1.877.284-2.423.721-.363-.291-.577-.649-.577-1.037 0-.97 1.343-1.757 3-1.757m20 0c1.657 0 3 .787 3 1.757 0 .388-.214.746-.577 1.037-.546-.437-1.428-.721-2.423-.721-.995 0-1.877.284-2.423.721-.363-.291-.577-.649-.577-1.037 0-.97 1.343-1.757 3-1.757"/></g></g><g><path d="M1920 20.058c0 10.994 8.954 19.906 20 19.906s20-8.912 20-19.906c0-10.994-8.954-19.906-20-19.906s-20 8.912-20 19.906z" fill="#8395f8" fill-rule="evenodd"/><g fill="#021563"><path d="M1940 32.999363c7.18 0 13-5.673 13-12.671 0 0-3.009-1.329-13-1.329s-13 1.329-13 1.329c0 6.998 5.82 12.671 13 12.671" fill-rule="evenodd"/><path d="M1930 12.454363c1.657 0 3 1.152 3 2.573 0 .567-.214 1.091-.577 1.517-.546-.64-1.428-1.055-2.423-1.055-.995 0-1.877.415-2.423 1.055-.363-.426-.577-.95-.577-1.517 0-1.421 1.343-2.573 3-2.573m20 0c1.657 0 3 1.152 3 2.573 0 .567-.214 1.091-.577 1.517-.546-.64-1.428-1.055-2.423-1.055-.995 0-1.877.415-2.423 1.055-.363-.426-.577-.95-.577-1.517 0-1.421 1.343-2.573 3-2.573"/></g></g><g><path d="M1960 20.058c0 10.994 8.954 19.906 20 19.906s20-8.912 20-19.906c0-10.994-8.954-19.906-20-19.906s-20 8.912-20 19.906z" fill="#8395f8" fill-rule="evenodd"/><g fill="#021563"><path d="M1980 32.365376c7.18 0 13-5.535 13-12.363 0 0-3.009-1.297-13-1.297s-13 1.297-13 1.297c0 6.828 5.82 12.363 13 12.363" fill-rule="evenodd"/><path d="M1970 11.865376c1.657 0 3 1.318 3 2.944 0 .649-.214 1.249-.577 1.736-.546-.732-1.428-1.208-2.423-1.208-.995 0-1.877.476-2.423 1.208-.363-.487-.577-1.087-.577-1.736 0-1.626 1.343-2.944 3-2.944m20 0c1.657 0 3 1.318 3 2.944 0 .649-.214 1.249-.577 1.736-.546-.732-1.428-1.208-2.423-1.208-.995 0-1.877.476-2.423 1.208-.363-.487-.577-1.087-.577-1.736 0-1.626 1.343-2.944 3-2.944"/></g></g><g><path d="M2000 20.058c0 10.994 8.954 19.906 20 19.906s20-8.912 20-19.906c0-10.994-8.954-19.906-20-19.906s-20 8.912-20 19.906z" fill="#8395f8" fill-rule="evenodd"/><g fill="#021563"><path d="M2020 29.721542c7.18 0 13-4.932 13-11.016 0 0-3.009-1.155-13-1.155s-13 1.155-13 1.155c0 6.084 5.82 11.016 13 11.016" fill-rule="evenodd"/><path d="M2010 10.584542c1.657 0 3 1.389 3 3.102 0 .685-.214 1.317-.577 1.83-.546-.771-1.428-1.272-2.423-1.272-.995 0-1.877.501-2.423 1.272-.363-.513-.577-1.145-.577-1.83 0-1.713 1.343-3.102 3-3.102m20 0c1.657 0 3 1.389 3 3.102 0 .685-.214 1.317-.577 1.83-.546-.771-1.428-1.272-2.423-1.272-.995 0-1.877.501-2.423 1.272-.363-.513-.577-1.145-.577-1.83 0-1.713 1.343-3.102 3-3.102"/></g></g><g><path d="M2040 20.058c0 10.994 8.954 19.906 20 19.906s20-8.912 20-19.906c0-10.994-8.954-19.906-20-19.906s-20 8.912-20 19.906z" fill="#8395f8" fill-rule="evenodd"/><g fill="#021563"><path d="M2060 27.534368c7.18 0 13-4.416 13-9.864 0 0-3.009-1.034-13-1.034s-13 1.034-13 1.034c0 5.448 5.82 9.864 13 9.864" fill-rule="evenodd"/><path d="M2050 9.636368c1.657 0 3 1.408 3 3.145 0 .694-.214 1.335-.577 1.855-.546-.782-1.428-1.29-2.423-1.29-.995 0-1.877.508-2.423 1.29-.363-.52-.577-1.161-.577-1.855 0-1.737 1.343-3.145 3-3.145m20 0c1.657 0 3 1.408 3 3.145 0 .694-.214 1.335-.577 1.855-.546-.782-1.428-1.29-2.423-1.29-.995 0-1.877.508-2.423 1.29-.363-.52-.577-1.161-.577-1.855 0-1.737 1.343-3.145 3-3.145"/></g></g><g><path d="M2080 20.058c0 10.994 8.954 19.906 20 19.906s20-8.912 20-19.906c0-10.994-8.954-19.906-20-19.906s-20 8.912-20 19.906z" fill="#8395f8" fill-rule="evenodd"/><g fill="#021563"><path d="M2100 26.538017c7.18 0 13-4.181 13-9.338 0 0-3.009-.979-13-.979s-13 .979-13 .979c0 5.157 5.82 9.338 13 9.338" fill-rule="evenodd"/><path d="M2090 9.221017c1.657 0 3 1.408 3 3.145 0 .694-.214 1.335-.577 1.855-.546-.782-1.428-1.29-2.423-1.29-.995 0-1.877.508-2.423 1.29-.363-.52-.577-1.161-.577-1.855 0-1.737 1.343-3.145 3-3.145m20 0c1.657 0 3 1.408 3 3.145 0 .694-.214 1.335-.577 1.855-.546-.782-1.428-1.29-2.423-1.29-.995 0-1.877.508-2.423 1.29-.363-.52-.577-1.161-.577-1.855 0-1.737 1.343-3.145 3-3.145"/></g></g><g><path d="M2120 20.058c0 10.994 8.954 19.906 20 19.906s20-8.912 20-19.906c0-10.994-8.954-19.906-20-19.906s-20 8.912-20 19.906z" fill="#8395f8" fill-rule="evenodd"/><g fill="#021563"><path d="M2140 26.110709c7.18 0 13-4.079 13-9.112 0 0-3.009-.955-13-.955s-13 .955-13 .955c0 5.033 5.82 9.112 13 9.112" fill-rule="evenodd"/><path d="M2130 9.043709c1.657 0 3 1.408 3 3.145 0 .694-.214 1.335-.577 1.855-.546-.782-1.428-1.29-2.423-1.29-.995 0-1.877.508-2.423 1.29-.363-.52-.577-1.161-.577-1.855 0-1.737 1.343-3.145 3-3.145m20 0c1.657 0 3 1.408 3 3.145 0 .694-.214 1.335-.577 1.855-.546-.782-1.428-1.29-2.423-1.29-.995 0-1.877.508-2.423 1.29-.363-.52-.577-1.161-.577-1.855 0-1.737 1.343-3.145 3-3.145"/></g></g><g><path d="M2160 20.058c0 10.994 8.954 19.906 20 19.906s20-8.912 20-19.906c0-10.994-8.954-19.906-20-19.906s-20 8.912-20 19.906z" fill="#8395f8" fill-rule="evenodd"/><g fill="#021563"><path d="M2180 26.000644c7.18 0 13-4.052 13-9.051 0 0-3.009-.949-13-.949s-13 .949-13 .949c0 4.999 5.82 9.051 13 9.051" fill-rule="evenodd"/><path d="M2170 9.000644c1.657 0 3 1.408 3 3.145 0 .694-.214 1.335-.577 1.855-.546-.782-1.428-1.29-2.423-1.29-.995 0-1.877.508-2.423 1.29-.363-.52-.577-1.161-.577-1.855 0-1.737 1.343-3.145 3-3.145m20 0c1.657 0 3 1.408 3 3.145 0 .694-.214 1.335-.577 1.855-.546-.782-1.428-1.29-2.423-1.29-.995 0-1.877.508-2.423 1.29-.363-.52-.577-1.161-.577-1.855 0-1.737 1.343-3.145 3-3.145"/></g></g><g><path d="M2200 20.058c0 10.994 8.954 19.906 20 19.906s20-8.912 20-19.906c0-10.994-8.954-19.906-20-19.906s-20 8.912-20 19.906z" fill="#8395f8" fill-rule="evenodd"/><g fill="#021563"><path d="M2220 26.6383c7.18 0 13-4.19 13-9.359 0 0-3.009-.981-13-.981s-13 .981-13 .981c0 5.169 5.82 9.359 13 9.359" fill-rule="evenodd"/><path d="M2210 9.2983c1.657 0 3 1.408 3 3.145 0 .694-.214 1.335-.577 1.855-.546-.782-1.428-1.29-2.423-1.29-.995 0-1.877.508-2.423 1.29-.363-.52-.577-1.161-.577-1.855 0-1.737 1.343-3.145 3-3.145m20 0c1.657 0 3 1.408 3 3.145 0 .694-.214 1.335-.577 1.855-.546-.782-1.428-1.29-2.423-1.29-.995 0-1.877.508-2.423 1.29-.363-.52-.577-1.161-.577-1.855 0-1.737 1.343-3.145 3-3.145"/></g></g><g><path d="M2240 20.058c0 10.994 8.954 19.906 20 19.906s20-8.912 20-19.906c0-10.994-8.954-19.906-20-19.906s-20 8.912-20 19.906z" fill="#8395f8" fill-rule="evenodd"/><g fill="#021563"><path d="M2260 29.29164c7.18 0 13-4.793 13-10.706 0 0-3.009-1.123-13-1.123s-13 1.123-13 1.123c0 5.913 5.82 10.706 13 10.706" fill-rule="evenodd"/><path d="M2250 10.46264c1.657 0 3 1.408 3 3.145 0 .694-.214 1.335-.577 1.855-.546-.782-1.428-1.29-2.423-1.29-.995 0-1.877.508-2.423 1.29-.363-.52-.577-1.161-.577-1.855 0-1.737 1.343-3.145 3-3.145m20 0c1.657 0 3 1.408 3 3.145 0 .694-.214 1.335-.577 1.855-.546-.782-1.428-1.29-2.423-1.29-.995 0-1.877.508-2.423 1.29-.363-.52-.577-1.161-.577-1.855 0-1.737 1.343-3.145 3-3.145"/></g></g><g><path d="M2280 20.058c0 10.994 8.954 19.906 20 19.906s20-8.912 20-19.906c0-10.994-8.954-19.906-20-19.906s-20 8.912-20 19.906z" fill="#8395f8" fill-rule="evenodd"/><g fill="#021563"><path d="M2300 31.47482c7.18 0 13-5.309 13-11.858 0 0-3.009-1.244-13-1.244s-13 1.244-13 1.244c0 6.549 5.82 11.858 13 11.858" fill-rule="evenodd"/><path d="M2290 11.37282c1.657 0 3 1.408 3 3.145 0 .694-.214 1.335-.577 1.855-.546-.782-1.428-1.29-2.423-1.29-.995 0-1.877.508-2.423 1.29-.363-.52-.577-1.161-.577-1.855 0-1.737 1.343-3.145 3-3.145m20 0c1.657 0 3 1.408 3 3.145 0 .694-.214 1.335-.577 1.855-.546-.782-1.428-1.29-2.423-1.29-.995 0-1.877.508-2.423 1.29-.363-.52-.577-1.161-.577-1.855 0-1.737 1.343-3.145 3-3.145"/></g></g><g><path d="M2320 20.058c0 10.994 8.954 19.906 20 19.906s20-8.912 20-19.906c0-10.994-8.954-19.906-20-19.906s-20 8.912-20 19.906z" fill="#8395f8" fill-rule="evenodd"/><g fill="#021563"><path d="M2340 32.46746c7.18 0 13-5.544 13-12.384 0 0-3.009-1.299-13-1.299s-13 1.299-13 1.299c0 6.84 5.82 12.384 13 12.384" fill-rule="evenodd"/><path d="M2330 11.78446c1.657 0 3 1.408 3 3.145 0 .694-.214 1.335-.577 1.855-.546-.782-1.428-1.29-2.423-1.29-.995 0-1.877.508-2.423 1.29-.363-.52-.577-1.161-.577-1.855 0-1.737 1.343-3.145 3-3.145m20 0c1.657 0 3 1.408 3 3.145 0 .694-.214 1.335-.577 1.855-.546-.782-1.428-1.29-2.423-1.29-.995 0-1.877.508-2.423 1.29-.363-.52-.577-1.161-.577-1.855 0-1.737 1.343-3.145 3-3.145"/></g></g><g><path d="M2360 20.058c0 10.994 8.954 19.906 20 19.906s20-8.912 20-19.906c0-10.994-8.954-19.906-20-19.906s-20 8.912-20 19.906z" fill="#8395f8" fill-rule="evenodd"/><g fill="#021563"><path d="M2380 32.891784c7.18 0 13-5.646 13-12.61 0 0-3.009-1.323-13-1.323s-13 1.323-13 1.323c0 6.964 5.82 12.61 13 12.61" fill-rule="evenodd"/><path d="M2370 11.958784c1.657 0 3 1.408 3 3.145 0 .694-.214 1.335-.577 1.855-.546-.782-1.428-1.29-2.423-1.29-.995 0-1.877.508-2.423 1.29-.363-.52-.577-1.161-.577-1.855 0-1.737 1.343-3.145 3-3.145m20 0c1.657 0 3 1.408 3 3.145 0 .694-.214 1.335-.577 1.855-.546-.782-1.428-1.29-2.423-1.29-.995 0-1.877.508-2.423 1.29-.363-.52-.577-1.161-.577-1.855 0-1.737 1.343-3.145 3-3.145"/></g></g><g><path d="M2400 20.058c0 10.994 8.954 19.906 20 19.906s20-8.912 20-19.906c0-10.994-8.954-19.906-20-19.906s-20 8.912-20 19.906z" fill="#8395f8" fill-rule="evenodd"/><g fill="#021563"><path d="M2420 33c7.18 0 13-5.673 13-12.671 0 0-3.009-1.329-13-1.329s-13 1.329-13 1.329c0 6.998 5.82 12.671 13 12.671" fill-rule="evenodd"/><path d="M2410 12c1.657 0 3 1.408 3 3.145 0 .694-.214 1.335-.577 1.855-.546-.782-1.428-1.29-2.423-1.29-.995 0-1.877.508-2.423 1.29-.363-.52-.577-1.161-.577-1.855 0-1.737 1.343-3.145 3-3.145m20 0c1.657 0 3 1.408 3 3.145 0 .694-.214 1.335-.577 1.855-.546-.782-1.428-1.29-2.423-1.29-.995 0-1.877.508-2.423 1.29-.363-.52-.577-1.161-.577-1.855 0-1.737 1.343-3.145 3-3.145"/></g></g></svg>
