
<svg xmlns="http://www.w3.org/2000/svg" viewBox="0 0 10920 120" width="100%" height="120"><path d="M66.72 17.122L60 23.897l-6.72-6.775c-12.196-12.163-31.975-12.163-44.171 0-12.145 12.209-12.145 32.014 0 44.223L60 111.636l50.891-50.291c12.145-12.209 12.145-32.014 0-44.223C104.793 11.041 96.799 8 88.805 8c-7.994 0-15.987 3.041-22.085 9.122z" fill="#ff5246"/><g fill="#720906"><path d="M32.727 48.909c0 4.519 3.664 8.182 8.182 8.182 4.519 0 8.182-3.663 8.182-8.182 0-4.518-3.663-8.182-8.182-8.182-4.518 0-8.182 3.664-8.182 8.182zM70.909 48.909c0 4.519 3.663 8.182 8.182 8.182s8.182-3.663 8.182-8.182c0-4.518-3.663-8.182-8.182-8.182s-8.182 3.664-8.182 8.182z"/></g><path d="M60 66.8c-5.9 0-11.4-1.3-16.3-3.7.2 8.9 7.4 16 16.3 16s16.2-7.2 16.3-16c-4.9 2.3-10.4 3.7-16.3 3.7z" fill="#720906"/><path d="M186.72 17.122L180 23.897l-6.72-6.775c-12.196-12.163-31.975-12.163-44.171 0-12.145 12.209-12.145 32.014 0 44.223L180 111.636l50.891-50.291c12.145-12.209 12.145-32.014 0-44.223C224.793 11.041 216.799 8 208.805 8c-7.994 0-15.987 3.041-22.085 9.122z" fill="#ff5246"/><g fill="#720906"><path d="M152.762 49.106c0 4.507 3.654 8.16 8.159 8.16 4.507 0 8.16-3.653 8.16-8.16 0-4.505-3.653-8.159-8.16-8.159-4.505 0-8.159 3.654-8.159 8.159zM190.919 49.106c0 4.507 3.653 8.16 8.16 8.16 4.506 0 8.159-3.653 8.159-8.16 0-4.505-3.653-8.159-8.159-8.159-4.507 0-8.16 3.654-8.16 8.159z"/></g><path d="M180 66.8c-5.9 0-11.4-1.3-16.3-3.7.2 8.9 7.4 16 16.3 16s16.2-7.2 16.3-16c-4.9 2.3-10.4 3.7-16.3 3.7z" fill="#720906"/><path d="M306.72 17.122L300 23.897l-6.72-6.775c-12.196-12.163-31.975-12.163-44.171 0-12.145 12.209-12.145 32.014 0 44.223L300 111.636l50.891-50.291c12.145-12.209 12.145-32.014 0-44.223C344.793 11.041 336.799 8 328.805 8c-7.994 0-15.987 3.041-22.085 9.122z" fill="#ff5246"/><g fill="#720906"><path d="M272.846 49.58c0 4.477 3.63 8.105 8.105 8.105 4.477 0 8.105-3.628 8.105-8.105 0-4.476-3.628-8.105-8.105-8.105-4.475 0-8.105 3.629-8.105 8.105zM310.944 49.58c0 4.477 3.628 8.105 8.105 8.105 4.476 0 8.105-3.628 8.105-8.105 0-4.476-3.629-8.105-8.105-8.105-4.477 0-8.105 3.629-8.105 8.105z"/></g><path d="M300 66.8c-5.9 0-11.4-1.3-16.3-3.7.2 8.9 7.4 16 16.3 16s16.2-7.2 16.3-16c-4.9 2.3-10.4 3.7-16.3 3.7z" fill="#720906"/><path d="M426.72 17.122L420 23.897l-6.72-6.775c-12.196-12.163-31.975-12.163-44.171 0-12.145 12.209-12.145 32.014 0 44.223L420 111.636l50.891-50.291c12.145-12.209 12.145-32.014 0-44.223C464.793 11.041 456.799 8 448.805 8c-7.994 0-15.987 3.041-22.085 9.122z" fill="#ff5246"/><g fill="#720906"><path d="M392.947 50.154c0 4.44 3.601 8.04 8.04 8.04 4.441 0 8.04-3.6 8.04-8.04 0-4.44-3.599-8.04-8.04-8.04-4.439 0-8.04 3.6-8.04 8.04zM430.973 50.154c0 4.44 3.599 8.04 8.04 8.04 4.44 0 8.04-3.6 8.04-8.04 0-4.44-3.6-8.04-8.04-8.04-4.441 0-8.04 3.6-8.04 8.04z"/></g><path d="M420 66.8c-5.9 0-11.4-1.3-16.3-3.7.2 8.9 7.4 16 16.3 16s16.2-7.2 16.3-16c-4.9 2.3-10.4 3.7-16.3 3.7z" fill="#720906"/><path d="M546.72 17.122L540 23.897l-6.72-6.775c-12.196-12.163-31.975-12.163-44.171 0-12.145 12.209-12.145 32.014 0 44.223L540 111.636l50.891-50.291c12.145-12.209 12.145-32.014 0-44.223C584.793 11.041 576.799 8 568.805 8c-7.994 0-15.987 3.041-22.085 9.122z" fill="#ff5246"/><g fill="#720906"><path d="M513.036 50.651c0 4.409 3.574 7.983 7.982 7.983 4.41 0 7.983-3.574 7.983-7.983 0-4.408-3.573-7.983-7.983-7.983-4.408 0-7.982 3.575-7.982 7.983zM550.999 50.651c0 4.409 3.573 7.983 7.983 7.983 4.409 0 7.982-3.574 7.982-7.983 0-4.408-3.573-7.983-7.982-7.983-4.41 0-7.983 3.575-7.983 7.983z"/></g><path d="M540 66.8c-5.9 0-11.4-1.3-16.3-3.7.2 8.9 7.4 16 16.3 16s16.2-7.2 16.3-16c-4.9 2.3-10.4 3.7-16.3 3.7z" fill="#720906"/><path d="M666.72 17.122L660 23.897l-6.72-6.775c-12.196-12.163-31.975-12.163-44.171 0-12.145 12.209-12.145 32.014 0 44.223L660 111.636l50.891-50.291c12.145-12.209 12.145-32.014 0-44.223C704.793 11.041 696.799 8 688.805 8c-7.994 0-15.987 3.041-22.085 9.122z" fill="#ff5246"/><g fill="#720906"><path d="M633.079 50.894c0 4.394 3.562 7.955 7.955 7.955 4.394 0 7.955-3.561 7.955-7.955 0-4.393-3.561-7.955-7.955-7.955-4.393 0-7.955 3.562-7.955 7.955zM671.011 50.894c0 4.394 3.561 7.955 7.955 7.955s7.955-3.561 7.955-7.955c0-4.393-3.561-7.955-7.955-7.955s-7.955 3.562-7.955 7.955z"/></g><path d="M660 66.794c-5.901 0-11.401-1.3-16.302-3.7.201 8.9 7.399 16.007 16.302 16.007 8.903 0 16.201-7.207 16.302-16.007-4.901 2.3-10.401 3.7-16.302 3.7z" fill="#720906"/><path d="M786.72 17.122L780 23.897l-6.72-6.775c-12.196-12.163-31.975-12.163-44.171 0-12.145 12.209-12.145 32.014 0 44.223L780 111.636l50.891-50.291c12.145-12.209 12.145-32.014 0-44.223C824.793 11.041 816.799 8 808.805 8c-7.994 0-15.987 3.041-22.085 9.122z" fill="#ff5246"/><g fill="#720906"><path d="M753.045 50.707c0 4.405 3.572 7.976 7.977 7.976 4.406 0 7.977-3.571 7.977-7.976 0-4.405-3.571-7.977-7.977-7.977-4.405 0-7.977 3.572-7.977 7.977zM791.001 50.707c0 4.405 3.571 7.976 7.977 7.976 4.406 0 7.977-3.571 7.977-7.976 0-4.405-3.571-7.977-7.977-7.977-4.406 0-7.977 3.572-7.977 7.977z"/></g><path d="M780 66.406c-5.936 0-11.469-1.302-16.399-3.711.201 8.934 7.313 16.456 16.399 16.456 9.086 0 16.299-7.622 16.399-16.456-4.93 2.309-10.463 3.711-16.399 3.711z" fill="#720906"/><path d="M906.72 17.122L900 23.897l-6.72-6.775c-12.196-12.163-31.975-12.163-44.171 0-12.145 12.209-12.145 32.014 0 44.223L900 111.636l50.891-50.291c12.145-12.209 12.145-32.014 0-44.223C944.793 11.041 936.799 8 928.805 8c-7.994 0-15.987 3.041-22.085 9.122z" fill="#ff5246"/><g fill="#720906"><path d="M872.905 49.912c0 4.456 3.612 8.068 8.067 8.068 4.456 0 8.067-3.612 8.067-8.068 0-4.454-3.611-8.067-8.067-8.067-4.455 0-8.067 3.613-8.067 8.067zM910.961 49.912c0 4.456 3.611 8.068 8.067 8.068 4.456 0 8.067-3.612 8.067-8.068 0-4.454-3.611-8.067-8.067-8.067-4.456 0-8.067 3.613-8.067 8.067z"/></g><path d="M900 65.442c-6.024 0-11.639-1.304-16.641-3.736.204 9.017 7.102 17.569 16.641 17.569 9.539 0 16.539-8.653 16.641-17.569-5.002 2.33-10.617 3.736-16.641 3.736z" fill="#720906"/><path d="M1026.72 17.122l-6.72 6.775-6.72-6.775c-12.196-12.163-31.975-12.163-44.171 0-12.145 12.209-12.145 32.014 0 44.223L1020 111.636l50.891-50.291c12.145-12.209 12.145-32.014 0-44.223-6.098-6.081-14.092-9.122-22.086-9.122-7.994 0-15.987 3.041-22.085 9.122z" fill="#ff5246"/><g fill="#720906"><path d="M992.625 48.334c0 4.555 3.694 8.248 8.248 8.248 4.555 0 8.248-3.693 8.248-8.248 0-4.554-3.693-8.248-8.248-8.248-4.554 0-8.248 3.694-8.248 8.248zM1030.879 48.334c0 4.555 3.693 8.248 8.248 8.248s8.248-3.693 8.248-8.248c0-4.554-3.693-8.248-8.248-8.248s-8.248 3.694-8.248 8.248z"/></g><path d="M1020 63.982c-6.156 0-11.896-1.308-17.009-3.773.209 9.141 6.782 19.255 17.009 19.255s16.904-10.216 17.009-19.255c-5.113 2.362-10.853 3.773-17.009 3.773z" fill="#720906"/><path d="M1146.72 17.122l-6.72 6.775-6.72-6.775c-12.196-12.163-31.975-12.163-44.171 0-12.145 12.209-12.145 32.014 0 44.223L1140 111.636l50.891-50.291c12.145-12.209 12.145-32.014 0-44.223-6.098-6.081-14.092-9.122-22.086-9.122-7.994 0-15.987 3.041-22.085 9.122z" fill="#ff5246"/><g fill="#720906"><path d="M1112.175 45.795c0 4.715 3.824 8.538 8.538 8.538 4.716 0 8.538-3.823 8.538-8.538s-3.822-8.538-8.538-8.538c-4.714 0-8.538 3.823-8.538 8.538zM1150.749 45.795c0 4.715 3.822 8.538 8.538 8.538 4.715 0 8.538-3.823 8.538-8.538s-3.823-8.538-8.538-8.538c-4.716 0-8.538 3.823-8.538 8.538z"/></g><path d="M1140 62.147c-6.323 0-12.218-1.314-17.47-3.821.214 9.299 6.38 21.375 17.47 21.375s17.363-12.181 17.47-21.375c-5.252 2.403-11.147 3.821-17.47 3.821z" fill="#720906"/><path d="M1266.72 17.122l-6.72 6.775-6.72-6.775c-12.196-12.163-31.975-12.163-44.171 0-12.145 12.209-12.145 32.014 0 44.223L1260 111.636l50.891-50.291c12.145-12.209 12.145-32.014 0-44.223-6.098-6.081-14.092-9.122-22.086-9.122-7.994 0-15.987 3.041-22.085 9.122z" fill="#ff5246"/><g fill="#720906"><path d="M1231.524 42.119c0 4.947 4.012 8.957 8.958 8.957 4.948 0 8.958-4.01 8.958-8.957 0-4.947-4.01-8.958-8.958-8.958-4.946 0-8.958 4.011-8.958 8.958zM1270.56 42.119c0 4.947 4.01 8.957 8.958 8.957 4.947 0 8.958-4.01 8.958-8.957 0-4.947-4.011-8.958-8.958-8.958-4.948 0-8.958 4.011-8.958 8.958z"/></g><path d="M1260 60.088c-6.511 0-12.58-1.319-17.987-3.875.22 9.476 5.927 23.754 17.987 23.754 12.06 0 17.877-14.384 17.987-23.754-5.407 2.449-11.476 3.875-17.987 3.875z" fill="#720906"/><path d="M1386.72 17.122l-6.72 6.775-6.72-6.775c-12.196-12.163-31.975-12.163-44.171 0-12.145 12.209-12.145 32.014 0 44.223L1380 111.636l50.891-50.291c12.145-12.209 12.145-32.014 0-44.223-6.098-6.081-14.092-9.122-22.086-9.122-7.994 0-15.987 3.041-22.085 9.122z" fill="#ff5246"/><g fill="#720906"><path d="M1350.772 37.873c0 5.215 4.229 9.443 9.443 9.443 5.216 0 9.443-4.228 9.443-9.443 0-5.216-4.227-9.443-9.443-9.443-5.214 0-9.443 4.227-9.443 9.443zM1390.342 37.873c0 5.215 4.227 9.443 9.443 9.443 5.215 0 9.443-4.228 9.443-9.443 0-5.216-4.228-9.443-9.443-9.443-5.216 0-9.443 4.227-9.443 9.443z"/></g><path d="M1380 57.976c-6.703 0-12.952-1.326-18.518-3.93.227 9.658 5.464 26.193 18.518 26.193s18.405-16.644 18.518-26.193c-5.566 2.496-11.815 3.93-18.518 3.93z" fill="#720906"/><path d="M1506.72 17.122l-6.72 6.775-6.72-6.775c-12.196-12.163-31.975-12.163-44.171 0-12.145 12.209-12.145 32.014 0 44.223L1500 111.636l50.891-50.291c12.145-12.209 12.145-32.014 0-44.223-6.098-6.081-14.092-9.122-22.086-9.122-7.994 0-15.987 3.041-22.085 9.122z" fill="#ff5246"/><g fill="#720906"><path d="M1470.222 34.764c0 5.412 4.387 9.799 9.798 9.799 5.412 0 9.798-4.387 9.798-9.799 0-5.411-4.386-9.798-9.798-9.798-5.411 0-9.798 4.387-9.798 9.798zM1510.182 34.764c0 5.412 4.386 9.799 9.798 9.799s9.798-4.387 9.798-9.799c0-5.411-4.386-9.798-9.798-9.798s-9.798 4.387-9.798 9.798z"/></g><path d="M1500 55.985c-6.884 0-13.302-1.332-19.019-3.981.233 9.828 5.028 28.492 19.019 28.492s18.902-18.775 19.019-28.492c-5.717 2.539-12.135 3.981-19.019 3.981z" fill="#720906"/><path d="M1626.72 17.122l-6.72 6.775-6.72-6.775c-12.196-12.163-31.975-12.163-44.171 0-12.145 12.209-12.145 32.014 0 44.223L1620 111.636l50.891-50.291c12.145-12.209 12.145-32.014 0-44.223-6.098-6.081-14.092-9.122-22.086-9.122-7.994 0-15.987 3.041-22.085 9.122z" fill="#ff5246"/><g fill="#720906"><path d="M1589.857 32.708c0 5.542 4.493 10.034 10.034 10.034s10.033-4.492 10.033-10.034c0-5.541-4.492-10.033-10.033-10.033-5.541 0-10.034 4.492-10.034 10.033zM1630.076 32.708c0 5.542 4.492 10.034 10.033 10.034 5.542 0 10.034-4.492 10.034-10.034 0-5.541-4.492-10.033-10.034-10.033-5.541 0-10.033 4.492-10.033 10.033z"/></g><path d="M1620 54.28c-7.039 0-13.602-1.337-19.448-4.026.239 9.974 4.654 30.462 19.448 30.462s19.328-20.6 19.448-30.462c-5.846 2.577-12.409 4.026-19.448 4.026z" fill="#720906"/><path d="M1746.72 17.122l-6.72 6.775-6.72-6.775c-12.196-12.163-31.975-12.163-44.171 0-12.145 12.209-12.145 32.014 0 44.223L1740 111.636l50.891-50.291c12.145-12.209 12.145-32.014 0-44.223-6.098-6.081-14.092-9.122-22.086-9.122-7.994 0-15.987 3.041-22.085 9.122z" fill="#ff5246"/><g fill="#720906"><path d="M1709.648 31.528c0 5.616 4.554 10.169 10.169 10.169s10.168-4.553 10.168-10.169c0-5.615-4.553-10.168-10.168-10.168-5.615 0-10.169 4.553-10.169 10.168zM1750.015 31.528c0 5.616 4.553 10.169 10.168 10.169 5.616 0 10.169-4.553 10.169-10.169 0-5.615-4.553-10.168-10.169-10.168-5.615 0-10.168 4.553-10.168 10.168z"/></g><path d="M1740 53.001c-7.155 0-13.827-1.34-19.769-4.059.242 10.084 4.373 31.939 19.769 31.939 15.396 0 19.648-21.969 19.769-31.939-5.942 2.606-12.614 4.059-19.769 4.059z" fill="#720906"/><path d="M1866.72 17.122l-6.72 6.775-6.72-6.775c-12.196-12.163-31.975-12.163-44.171 0-12.145 12.209-12.145 32.014 0 44.223L1860 111.636l50.891-50.291c12.145-12.209 12.145-32.014 0-44.223-6.098-6.081-14.092-9.122-22.086-9.122-7.994 0-15.987 3.041-22.085 9.122z" fill="#ff5246"/><g fill="#720906"><path d="M1829.563 31.048c0 5.646 4.578 10.223 10.223 10.223 5.646 0 10.223-4.577 10.223-10.223 0-5.647-4.577-10.224-10.223-10.224-5.645 0-10.223 4.577-10.223 10.224zM1869.991 31.048c0 5.646 4.577 10.223 10.223 10.223 5.646 0 10.223-4.577 10.223-10.223 0-5.647-4.577-10.224-10.223-10.224-5.646 0-10.223 4.577-10.223 10.224z"/></g><path d="M1860 52.255c-7.223 0-13.958-1.343-19.957-4.079.245 10.148 4.21 32.802 19.957 32.802s19.834-22.769 19.957-32.802c-5.999 2.622-12.734 4.079-19.957 4.079z" fill="#720906"/><path d="M1986.72 17.122l-6.72 6.775-6.72-6.775c-12.196-12.163-31.975-12.163-44.171 0-12.145 12.209-12.145 32.014 0 44.223L1980 111.636l50.891-50.291c12.145-12.209 12.145-32.014 0-44.223-6.098-6.081-14.092-9.122-22.086-9.122-7.994 0-15.987 3.041-22.085 9.122z" fill="#ff5246"/><g fill="#720906"><path d="M1949.571 31.089c0 5.644 4.575 10.218 10.218 10.218s10.218-4.574 10.218-10.218-4.575-10.218-10.218-10.218-10.218 4.574-10.218 10.218zM1989.993 31.089c0 5.644 4.575 10.218 10.218 10.218 5.644 0 10.218-4.574 10.218-10.218s-4.574-10.218-10.218-10.218c-5.643 0-10.218 4.574-10.218 10.218z"/></g><path d="M1980 52.075c-7.363 0-14.111-1.364-20.118-4.09.246 10.165 4.212 33.03 20.118 33.03 15.906 0 19.994-22.98 20.118-33.03-6.007 2.612-12.755 4.09-20.118 4.09z" fill="#720906"/><path d="M2106.72 17.122l-6.72 6.775-6.72-6.775c-12.196-12.163-31.975-12.163-44.171 0-12.145 12.209-12.145 32.014 0 44.223L2100 111.636l50.891-50.291c12.145-12.209 12.145-32.014 0-44.223-6.098-6.081-14.092-9.122-22.086-9.122-7.994 0-15.987 3.041-22.085 9.122z" fill="#ff5246"/><g fill="#720906"><path d="M2069.639 31.476c0 5.619 4.556 10.174 10.174 10.174 5.619 0 10.174-4.555 10.174-10.174s-4.555-10.174-10.174-10.174c-5.618 0-10.174 4.555-10.174 10.174zM2110.013 31.476c0 5.619 4.555 10.174 10.174 10.174s10.174-4.555 10.174-10.174-4.555-10.174-10.174-10.174-10.174 4.555-10.174 10.174z"/></g><path d="M2100 52.043c-7.85 0-14.593-1.446-20.581-4.116.251 10.17 4.37 33.146 20.581 33.146s20.455-23.091 20.581-33.146c-5.988 2.555-12.731 4.116-20.581 4.116z" fill="#720906"/><path d="M2226.72 17.122l-6.72 6.775-6.72-6.775c-12.196-12.163-31.975-12.163-44.171 0-12.145 12.209-12.145 32.014 0 44.223L2220 111.636l50.891-50.291c12.145-12.209 12.145-32.014 0-44.223-6.098-6.081-14.092-9.122-22.086-9.122-7.994 0-15.987 3.041-22.085 9.122z" fill="#ff5246"/><g fill="#720906"><path d="M2189.738 32.032c0 5.584 4.527 10.11 10.11 10.11 5.584 0 10.111-4.526 10.111-10.11s-4.527-10.111-10.111-10.111c-5.583 0-10.11 4.527-10.11 10.111zM2230.041 32.032c0 5.584 4.527 10.11 10.111 10.11 5.584 0 10.11-4.526 10.11-10.11s-4.526-10.111-10.11-10.111-10.111 4.527-10.111 10.111z"/></g><path d="M2220 52.013c-8.322 0-15.061-1.527-21.03-4.142.255 10.175 4.523 33.258 21.03 33.258s20.902-23.198 21.03-33.258c-5.969 2.501-12.708 4.142-21.03 4.142z" fill="#720906"/><path d="M2346.72 17.122l-6.72 6.775-6.72-6.775c-12.196-12.163-31.975-12.163-44.171 0-12.145 12.209-12.145 32.014 0 44.223L2340 111.636l50.891-50.291c12.145-12.209 12.145-32.014 0-44.223-6.098-6.081-14.092-9.122-22.086-9.122-7.994 0-15.987 3.041-22.085 9.122z" fill="#ff5246"/><g fill="#720906"><path d="M2309.835 32.58c0 5.549 4.499 10.048 10.048 10.048s10.048-4.499 10.048-10.048c0-5.55-4.499-10.048-10.048-10.048s-10.048 4.498-10.048 10.048zM2350.069 32.58c0 5.549 4.499 10.048 10.048 10.048 5.55 0 10.048-4.499 10.048-10.048 0-5.55-4.498-10.048-10.048-10.048-5.549 0-10.048 4.498-10.048 10.048z"/></g><path d="M2340 51.983c-8.78 0-15.514-1.605-21.465-4.166.26 10.179 4.671 33.366 21.465 33.366s21.335-23.302 21.465-33.366c-5.951 2.447-12.685 4.166-21.465 4.166z" fill="#720906"/><path d="M2466.72 17.122l-6.72 6.775-6.72-6.775c-12.196-12.163-31.975-12.163-44.171 0-12.145 12.209-12.145 32.014 0 44.223L2460 111.636l50.891-50.291c12.145-12.209 12.145-32.014 0-44.223-6.098-6.081-14.092-9.122-22.086-9.122-7.994 0-15.987 3.041-22.085 9.122z" fill="#ff5246"/><g fill="#720906"><path d="M2429.899 32.943c0 5.526 4.481 10.006 10.006 10.006 5.527 0 10.007-4.48 10.007-10.006 0-5.527-4.48-10.007-10.007-10.007-5.525 0-10.006 4.48-10.006 10.007zM2470.088 32.943c0 5.526 4.48 10.006 10.007 10.006 5.526 0 10.006-4.48 10.006-10.006 0-5.527-4.48-10.007-10.006-10.007-5.527 0-10.007 4.48-10.007 10.007z"/></g><path d="M2460 51.954c-9.223 0-15.952-1.68-21.886-4.19.264 10.184 4.814 33.472 21.886 33.472s21.754-23.403 21.886-33.472c-5.934 2.396-12.663 4.19-21.886 4.19z" fill="#720906"/><path d="M2586.72 17.122l-6.72 6.775-6.72-6.775c-12.196-12.163-31.975-12.163-44.171 0-12.145 12.209-12.145 32.014 0 44.223L2580 111.636l50.891-50.291c12.145-12.209 12.145-32.014 0-44.223-6.098-6.081-14.092-9.122-22.086-9.122-7.994 0-15.987 3.041-22.085 9.122z" fill="#ff5246"/><g fill="#720906"><path d="M2549.909 33c0 5.523 4.478 10 10 10 5.523 0 10-4.477 10-10s-4.477-10-10-10c-5.522 0-10 4.477-10 10zM2590.091 33c0 5.523 4.477 10 10 10s10-4.477 10-10-4.477-10-10-10-10 4.477-10 10z"/></g><path d="M2580 51.926c-9.651 0-16.376-1.752-22.293-4.213.268 10.189 4.952 33.574 22.293 33.574s22.159-23.5 22.293-33.574c-5.917 2.347-12.642 4.213-22.293 4.213z" fill="#720906"/><path d="M2706.72 17.122l-6.72 6.775-6.72-6.775c-12.196-12.163-31.975-12.163-44.171 0-12.145 12.209-12.145 32.014 0 44.223L2700 111.636l50.891-50.291c12.145-12.209 12.145-32.014 0-44.223-6.098-6.081-14.092-9.122-22.086-9.122-7.994 0-15.987 3.041-22.085 9.122z" fill="#ff5246"/><g fill="#720906"><path d="M2669.909 33c0 5.523 4.478 10 10 10 5.523 0 10-4.477 10-10s-4.477-10-10-10c-5.522 0-10 4.477-10 10zM2710.091 33c0 5.523 4.477 10 10 10s10-4.477 10-10-4.477-10-10-10-10 4.477-10 10z"/></g><path d="M2700 51.899c-10.064 0-16.785-1.822-22.686-4.235.272 10.193 5.086 33.672 22.686 33.672s22.55-23.594 22.686-33.672c-5.901 2.298-12.622 4.235-22.686 4.235z" fill="#720906"/><path d="M2826.72 17.122l-6.72 6.775-6.72-6.775c-12.196-12.163-31.975-12.163-44.171 0-12.145 12.209-12.145 32.014 0 44.223L2820 111.636l50.891-50.291c12.145-12.209 12.145-32.014 0-44.223-6.098-6.081-14.092-9.122-22.086-9.122-7.994 0-15.987 3.041-22.085 9.122z" fill="#ff5246"/><g fill="#720906"><path d="M2789.909 33c0 5.523 4.478 10 10 10 5.523 0 10-4.477 10-10s-4.477-10-10-10c-5.522 0-10 4.477-10 10zM2830.091 33c0 5.523 4.477 10 10 10s10-4.477 10-10-4.477-10-10-10-10 4.477-10 10z"/></g><path d="M2820 51.873c-10.463 0-17.18-1.89-23.065-4.256.276 10.197 5.215 33.766 23.065 33.766s22.927-23.684 23.065-33.766c-5.885 2.252-12.602 4.256-23.065 4.256z" fill="#720906"/><path d="M2946.72 17.122l-6.72 6.775-6.72-6.775c-12.196-12.163-31.975-12.163-44.171 0-12.145 12.209-12.145 32.014 0 44.223L2940 111.636l50.891-50.291c12.145-12.209 12.145-32.014 0-44.223-6.098-6.081-14.092-9.122-22.086-9.122-7.994 0-15.987 3.041-22.085 9.122z" fill="#ff5246"/><g fill="#720906"><path d="M2909.909 33c0 5.523 4.478 10 10 10 5.523 0 10-4.477 10-10s-4.477-10-10-10c-5.522 0-10 4.477-10 10zM2950.091 33c0 5.523 4.477 10 10 10s10-4.477 10-10-4.477-10-10-10-10 4.477-10 10z"/></g><path d="M2940 51.848c-10.847 0-17.56-1.955-23.43-4.277.28 10.201 5.34 33.858 23.43 33.858s23.29-23.772 23.43-33.858c-5.87 2.208-12.583 4.277-23.43 4.277z" fill="#720906"/><path d="M3066.72 17.122l-6.72 6.775-6.72-6.775c-12.196-12.163-31.975-12.163-44.171 0-12.145 12.209-12.145 32.014 0 44.223L3060 111.636l50.891-50.291c12.145-12.209 12.145-32.014 0-44.223-6.098-6.081-14.092-9.122-22.086-9.122-7.994 0-15.987 3.041-22.085 9.122z" fill="#ff5246"/><g fill="#720906"><path d="M3029.909 33c0 .227 4.478.41 10 .41 5.523 0 10-.183 10-.41 0-.227-4.477-.41-10-.41-5.522 0-10 .183-10 .41zM3070.091 33c0 .227 4.477.41 10 .41s10-.183 10-.41c0-.227-4.477-.41-10-.41s-10 .183-10 .41z"/></g><path d="M3060 51.824c-11.216 0-17.925-2.018-23.781-4.297.283 10.205 5.459 33.946 23.781 33.946s23.639-23.856 23.781-33.946c-5.856 2.165-12.565 4.297-23.781 4.297z" fill="#720906"/><path d="M3186.72 17.122l-6.72 6.775-6.72-6.775c-12.196-12.163-31.975-12.163-44.171 0-12.145 12.209-12.145 32.014 0 44.223L3180 111.636l50.891-50.291c12.145-12.209 12.145-32.014 0-44.223-6.098-6.081-14.092-9.122-22.086-9.122-7.994 0-15.987 3.041-22.085 9.122z" fill="#ff5246"/><g fill="#720906"><path d="M3149.909 33c0-.426 4.478-.772 10-.772 5.523 0 10 .346 10 .772 0 .426-4.477.772-10 .772-5.522 0-10-.346-10-.772zM3190.091 33c0-.426 4.477-.772 10-.772s10 .346 10 .772c0 .426-4.477.772-10 .772s-10-.346-10-.772z"/></g><path d="M3180 51.801c-11.57 0-18.276-2.078-24.118-4.316.287 10.209 5.574 34.03 24.118 34.03 18.544 0 23.974-23.936 24.118-34.03-5.842 2.124-12.548 4.316-24.118 4.316z" fill="#720906"/><path d="M3306.72 17.122l-6.72 6.775-6.72-6.775c-12.196-12.163-31.975-12.163-44.171 0-12.145 12.209-12.145 32.014 0 44.223L3300 111.636l50.891-50.291c12.145-12.209 12.145-32.014 0-44.223-6.098-6.081-14.092-9.122-22.086-9.122-7.994 0-15.987 3.041-22.085 9.122z" fill="#ff5246"/><g fill="#720906"><path d="M3269.909 33c0 2.149 4.478 3.892 10 3.892 5.523 0 10-1.743 10-3.892s-4.477-3.892-10-3.892c-5.522 0-10 1.743-10 3.892zM3310.091 33c0 2.149 4.477 3.892 10 3.892s10-1.743 10-3.892-4.477-3.892-10-3.892-10 1.743-10 3.892z"/></g><path d="M3300 51.779c-11.91 0-18.612-2.135-24.441-4.334.29 10.212 5.684 34.11 24.441 34.11 18.757 0 24.296-24.013 24.441-34.11-5.829 2.084-12.531 4.334-24.441 4.334z" fill="#720906"/><path d="M3426.72 17.122l-6.72 6.775-6.72-6.775c-12.196-12.163-31.975-12.163-44.171 0-12.145 12.209-12.145 32.014 0 44.223L3420 111.636l50.891-50.291c12.145-12.209 12.145-32.014 0-44.223-6.098-6.081-14.092-9.122-22.086-9.122-7.994 0-15.987 3.041-22.085 9.122z" fill="#ff5246"/><g fill="#720906"><path d="M3389.909 33c0 4.597 4.478 8.324 10 8.324 5.523 0 10-3.727 10-8.324 0-4.597-4.477-8.324-10-8.324-5.522 0-10 3.727-10 8.324zM3430.091 33c0 4.597 4.477 8.324 10 8.324s10-3.727 10-8.324c0-4.597-4.477-8.324-10-8.324s-10 3.727-10 8.324z"/></g><path d="M3420 51.758c-12.234 0-18.934-2.191-24.75-4.352.294 10.216 5.789 34.188 24.75 34.188s24.603-24.087 24.75-34.188c-5.816 2.047-12.516 4.352-24.75 4.352z" fill="#720906"/><path d="M3546.72 17.122l-6.72 6.775-6.72-6.775c-12.196-12.163-31.975-12.163-44.171 0-12.145 12.209-12.145 32.014 0 44.223L3540 111.636l50.891-50.291c12.145-12.209 12.145-32.014 0-44.223-6.098-6.081-14.092-9.122-22.086-9.122-7.994 0-15.987 3.041-22.085 9.122z" fill="#ff5246"/><g fill="#720906"><path d="M3509.909 33c0 5.38 4.478 9.742 10 9.742 5.523 0 10-4.362 10-9.742 0-5.38-4.477-9.742-10-9.742-5.522 0-10 4.362-10 9.742zM3550.091 33c0 5.38 4.477 9.742 10 9.742s10-4.362 10-9.742c0-5.38-4.477-9.742-10-9.742s-10 4.362-10 9.742z"/></g><path d="M3540 51.738c-12.545 0-19.241-2.243-25.045-4.369.297 10.219 5.89 34.262 25.045 34.262s24.896-24.158 25.045-34.262c-5.804 2.011-12.5 4.369-25.045 4.369z" fill="#720906"/><path d="M3666.72 17.122l-6.72 6.775-6.72-6.775c-12.196-12.163-31.975-12.163-44.171 0-12.145 12.209-12.145 32.014 0 44.223L3660 111.636l50.891-50.291c12.145-12.209 12.145-32.014 0-44.223-6.098-6.081-14.092-9.122-22.086-9.122-7.994 0-15.987 3.041-22.085 9.122z" fill="#ff5246"/><g fill="#720906"><path d="M3629.909 33c0 5.523 4.478 10 10 10 5.523 0 10-4.477 10-10s-4.477-10-10-10c-5.522 0-10 4.477-10 10zM3670.091 33c0 5.523 4.477 10 10 10s10-4.477 10-10-4.477-10-10-10-10 4.477-10 10z"/></g><path d="M3660 51.719c-12.84 0-19.533-2.294-25.326-4.385.3 10.223 5.986 34.332 25.326 34.332s25.176-24.224 25.326-34.332c-5.793 1.976-12.486 4.385-25.326 4.385z" fill="#720906"/><g><path d="M3786.72 17.122l-6.72 6.775-6.72-6.775c-12.196-12.163-31.975-12.163-44.171 0-12.145 12.209-12.145 32.014 0 44.223L3780 111.636l50.891-50.291c12.145-12.209 12.145-32.014 0-44.223-6.098-6.081-14.092-9.122-22.086-9.122-7.994 0-15.987 3.041-22.085 9.122z" fill="#ff5246"/><g fill="#720906"><path d="M3749.909 33c0 5.523 4.478 10 10 10 5.523 0 10-4.477 10-10s-4.477-10-10-10c-5.522 0-10 4.477-10 10zM3790.091 33c0 5.523 4.477 10 10 10s10-4.477 10-10-4.477-10-10-10-10 4.477-10 10z"/></g><path d="M3780 51.701c-13.12 0-19.811-2.342-25.593-4.4.303 10.225 6.077 34.398 25.593 34.398s25.441-24.288 25.593-34.398c-5.782 1.944-12.473 4.4-25.593 4.4z" fill="#720906"/></g><g><path d="M3906.72 17.122l-6.72 6.775-6.72-6.775c-12.196-12.163-31.975-12.163-44.171 0-12.145 12.209-12.145 32.014 0 44.223L3900 111.636l50.891-50.291c12.145-12.209 12.145-32.014 0-44.223-6.098-6.081-14.092-9.122-22.086-9.122-7.994 0-15.987 3.041-22.085 9.122z" fill="#ff5246"/><g fill="#720906"><path d="M3869.909 33c0 5.523 4.478 10 10 10 5.523 0 10-4.477 10-10s-4.477-10-10-10c-5.522 0-10 4.477-10 10zM3910.091 33c0 5.523 4.477 10 10 10s10-4.477 10-10-4.477-10-10-10-10 4.477-10 10z"/></g><path d="M3900 51.683c-13.386 0-20.074-2.386-25.846-4.414.305 10.228 6.163 34.462 25.846 34.462s25.693-24.349 25.846-34.462c-5.772 1.913-12.46 4.414-25.846 4.414z" fill="#720906"/></g><g><path d="M4026.72 17.122l-6.72 6.775-6.72-6.775c-12.196-12.163-31.975-12.163-44.171 0-12.145 12.209-12.145 32.014 0 44.223L4020 111.636l50.891-50.291c12.145-12.209 12.145-32.014 0-44.223-6.098-6.081-14.092-9.122-22.086-9.122-7.994 0-15.987 3.041-22.085 9.122z" fill="#ff5246"/><g fill="#720906"><path d="M3989.909 33c0 5.523 4.478 10 10 10 5.523 0 10-4.477 10-10s-4.477-10-10-10c-5.522 0-10 4.477-10 10zM4030.091 33c0 5.523 4.477 10 10 10s10-4.477 10-10-4.477-10-10-10-10 4.477-10 10z"/></g><path d="M4020 51.667c-13.637 0-20.323-2.429-26.084-4.428.307 10.231 6.243 34.522 26.084 34.522s25.93-24.406 26.084-34.522c-5.761 1.884-12.447 4.428-26.084 4.428z" fill="#720906"/></g><g><path d="M4146.72 17.122l-6.72 6.775-6.72-6.775c-12.196-12.163-31.975-12.163-44.171 0-12.145 12.209-12.145 32.014 0 44.223L4140 111.636l50.891-50.291c12.145-12.209 12.145-32.014 0-44.223-6.098-6.081-14.092-9.122-22.086-9.122-7.994 0-15.987 3.041-22.085 9.122z" fill="#ff5246"/><g fill="#720906"><path d="M4109.909 33c0 .227 4.478.41 10 .41 5.523 0 10-.183 10-.41 0-.227-4.477-.41-10-.41-5.522 0-10 .183-10 .41zM4150.091 33c0 .227 4.477.41 10 .41s10-.183 10-.41c0-.227-4.477-.41-10-.41s-10 .183-10 .41z"/></g><path d="M4140 51.652c-13.874 0-20.557-2.47-26.309-4.441.31 10.234 6.32 34.578 26.309 34.578s26.154-24.459 26.309-34.578c-5.752 1.857-12.435 4.441-26.309 4.441z" fill="#720906"/></g><g><path d="M4266.72 17.122l-6.72 6.775-6.72-6.775c-12.196-12.163-31.975-12.163-44.171 0-12.145 12.209-12.145 32.014 0 44.223L4260 111.636l50.891-50.291c12.145-12.209 12.145-32.014 0-44.223-6.098-6.081-14.092-9.122-22.086-9.122-7.994 0-15.987 3.041-22.085 9.122z" fill="#ff5246"/><g fill="#720906"><path d="M4229.909 33c0-.426 4.478-.772 10-.772 5.523 0 10 .346 10 .772 0 .426-4.477.772-10 .772-5.522 0-10-.346-10-.772zM4270.091 33c0-.426 4.477-.772 10-.772s10 .346 10 .772c0 .426-4.477.772-10 .772s-10-.346-10-.772z"/></g><path d="M4260 51.637c-14.095 0-20.776-2.507-26.52-4.452.312 10.236 6.392 34.63 26.52 34.63s26.363-24.509 26.52-34.63c-5.744 1.831-12.425 4.452-26.52 4.452z" fill="#720906"/></g><g><path d="M4386.72 17.122l-6.72 6.775-6.72-6.775c-12.196-12.163-31.975-12.163-44.171 0-12.145 12.209-12.145 32.014 0 44.223L4380 111.636l50.891-50.291c12.145-12.209 12.145-32.014 0-44.223-6.098-6.081-14.092-9.122-22.086-9.122-7.994 0-15.987 3.041-22.085 9.122z" fill="#ff5246"/><g fill="#720906"><path d="M4349.909 33c0 2.149 4.478 3.892 10 3.892 5.523 0 10-1.743 10-3.892s-4.477-3.892-10-3.892c-5.522 0-10 1.743-10 3.892zM4390.091 33c0 2.149 4.477 3.892 10 3.892s10-1.743 10-3.892-4.477-3.892-10-3.892-10 1.743-10 3.892z"/></g><path d="M4380 51.624c-14.302 0-20.981-2.542-26.717-4.464.314 10.238 6.459 34.68 26.717 34.68s26.559-24.557 26.717-34.68c-5.736 1.807-12.415 4.464-26.717 4.464z" fill="#720906"/></g><g><path d="M4506.72 17.122l-6.72 6.775-6.72-6.775c-12.196-12.163-31.975-12.163-44.171 0-12.145 12.209-12.145 32.014 0 44.223L4500 111.636l50.891-50.291c12.145-12.209 12.145-32.014 0-44.223-6.098-6.081-14.092-9.122-22.086-9.122-7.994 0-15.987 3.041-22.085 9.122z" fill="#ff5246"/><g fill="#720906"><path d="M4469.909 33c0 4.597 4.478 8.324 10 8.324 5.523 0 10-3.727 10-8.324 0-4.597-4.477-8.324-10-8.324-5.522 0-10 3.727-10 8.324zM4510.091 33c0 4.597 4.477 8.324 10 8.324s10-3.727 10-8.324c0-4.597-4.477-8.324-10-8.324s-10 3.727-10 8.324z"/></g><path d="M4500 51.611c-14.494 0-21.171-2.574-26.899-4.473.315 10.239 6.521 34.724 26.899 34.724s26.741-24.6 26.899-34.724c-5.728 1.784-12.405 4.473-26.899 4.473z" fill="#720906"/></g><g><path d="M4626.72 17.122l-6.72 6.775-6.72-6.775c-12.196-12.163-31.975-12.163-44.171 0-12.145 12.209-12.145 32.014 0 44.223L4620 111.636l50.891-50.291c12.145-12.209 12.145-32.014 0-44.223-6.098-6.081-14.092-9.122-22.086-9.122-7.994 0-15.987 3.041-22.085 9.122z" fill="#ff5246"/><g fill="#720906"><path d="M4589.909 33c0 5.38 4.478 9.742 10 9.742 5.523 0 10-4.362 10-9.742 0-5.38-4.477-9.742-10-9.742-5.522 0-10 4.362-10 9.742zM4630.091 33c0 5.38 4.477 9.742 10 9.742s10-4.362 10-9.742c0-5.38-4.477-9.742-10-9.742s-10 4.362-10 9.742z"/></g><path d="M4620 51.6c-14.672 0-21.347-2.605-27.068-4.483.317 10.241 6.579 34.766 27.068 34.766s26.909-24.64 27.068-34.766c-5.721 1.763-12.396 4.483-27.068 4.483z" fill="#720906"/></g><g><path d="M4746.72 17.122l-6.72 6.775-6.72-6.775c-12.196-12.163-31.975-12.163-44.171 0-12.145 12.209-12.145 32.014 0 44.223L4740 111.636l50.891-50.291c12.145-12.209 12.145-32.014 0-44.223-6.098-6.081-14.092-9.122-22.086-9.122-7.994 0-15.987 3.041-22.085 9.122z" fill="#ff5246"/><g fill="#720906"><path d="M4709.909 33c0 5.523 4.478 10 10 10 5.523 0 10-4.477 10-10s-4.477-10-10-10c-5.522 0-10 4.477-10 10zM4750.091 33c0 5.523 4.477 10 10 10s10-4.477 10-10-4.477-10-10-10-10 4.477-10 10z"/></g><path d="M4740 51.589c-14.834 0-21.508-2.632-27.223-4.492.319 10.244 6.632 34.806 27.223 34.806s27.063-24.677 27.223-34.806c-5.715 1.745-12.389 4.492-27.223 4.492z" fill="#720906"/></g><g><path d="M4866.72 17.122l-6.72 6.775-6.72-6.775c-12.196-12.163-31.975-12.163-44.171 0-12.145 12.209-12.145 32.014 0 44.223L4860 111.636l50.891-50.291c12.145-12.209 12.145-32.014 0-44.223-6.098-6.081-14.092-9.122-22.086-9.122-7.994 0-15.987 3.041-22.085 9.122z" fill="#ff5246"/><g fill="#720906"><path d="M4829.909 33c0 5.523 4.478 10 10 10 5.523 0 10-4.477 10-10s-4.477-10-10-10c-5.522 0-10 4.477-10 10zM4870.091 33c0 5.523 4.477 10 10 10s10-4.477 10-10-4.477-10-10-10-10 4.477-10 10z"/></g><path d="M4860 51.58c-14.982 0-21.654-2.658-27.363-4.5.32 10.245 6.679 34.84 27.363 34.84 20.684 0 27.203-24.71 27.363-34.84-5.709 1.727-12.381 4.5-27.363 4.5z" fill="#720906"/></g><g><path d="M4986.72 17.122l-6.72 6.775-6.72-6.775c-12.196-12.163-31.975-12.163-44.171 0-12.145 12.209-12.145 32.014 0 44.223L4980 111.636l50.891-50.291c12.145-12.209 12.145-32.014 0-44.223-6.098-6.081-14.092-9.122-22.086-9.122-7.994 0-15.987 3.041-22.085 9.122z" fill="#ff5246"/><g fill="#720906"><path d="M4949.909 33c0 5.523 4.478 10 10 10 5.523 0 10-4.477 10-10s-4.477-10-10-10c-5.522 0-10 4.477-10 10zM4990.091 33c0 5.523 4.477 10 10 10s10-4.477 10-10-4.477-10-10-10-10 4.477-10 10z"/></g><path d="M4980 51.571c-15.116 0-21.786-2.68-27.49-4.507.322 10.246 6.722 34.872 27.49 34.872 20.768 0 27.328-24.741 27.49-34.872-5.704 1.712-12.374 4.507-27.49 4.507z" fill="#720906"/></g><g><path d="M5106.72 17.122l-6.72 6.775-6.72-6.775c-12.196-12.163-31.975-12.163-44.171 0-12.145 12.209-12.145 32.014 0 44.223L5100 111.636l50.891-50.291c12.145-12.209 12.145-32.014 0-44.223-6.098-6.081-14.092-9.122-22.086-9.122-7.994 0-15.987 3.041-22.085 9.122z" fill="#ff5246"/><g fill="#720906"><path d="M5069.909 33c0 5.523 4.478 10 10 10 5.523 0 10-4.477 10-10s-4.477-10-10-10c-5.522 0-10 4.477-10 10zM5110.091 33c0 5.523 4.477 10 10 10s10-4.477 10-10-4.477-10-10-10-10 4.477-10 10z"/></g><path d="M5100 51.563c-15.234 0-21.903-2.7-27.602-4.513.322 10.247 6.76 34.9 27.602 34.9s27.441-24.768 27.602-34.9c-5.699 1.698-12.368 4.513-27.602 4.513z" fill="#720906"/></g><g><path d="M5226.72 17.122l-6.72 6.775-6.72-6.775c-12.196-12.163-31.975-12.163-44.171 0-12.145 12.209-12.145 32.014 0 44.223L5220 111.636l50.891-50.291c12.145-12.209 12.145-32.014 0-44.223-6.098-6.081-14.092-9.122-22.086-9.122-7.994 0-15.987 3.041-22.085 9.122z" fill="#ff5246"/><g fill="#720906"><path d="M5189.909 33c0 5.523 4.478 10 10 10 5.523 0 10-4.477 10-10s-4.477-10-10-10c-5.522 0-10 4.477-10 10zM5230.091 33c0 5.523 4.477 10 10 10s10-4.477 10-10-4.477-10-10-10-10 4.477-10 10z"/></g><path d="M5220 51.556c-15.338 0-22.006-2.717-27.701-4.519.324 10.249 6.794 34.926 27.701 34.926s27.539-24.792 27.701-34.926c-5.695 1.687-12.363 4.519-27.701 4.519z" fill="#720906"/></g><g><path d="M5346.72 17.122l-6.72 6.775-6.72-6.775c-12.196-12.163-31.975-12.163-44.171 0-12.145 12.209-12.145 32.014 0 44.223L5340 111.636l50.891-50.291c12.145-12.209 12.145-32.014 0-44.223-6.098-6.081-14.092-9.122-22.086-9.122-7.994 0-15.987 3.041-22.085 9.122z" fill="#ff5246"/><g fill="#720906"><path d="M5309.909 33c0 5.523 4.478 10 10 10 5.523 0 10-4.477 10-10s-4.477-10-10-10c-5.522 0-10 4.477-10 10zM5350.091 33c0 5.523 4.477 10 10 10s10-4.477 10-10-4.477-10-10-10-10 4.477-10 10z"/></g><path d="M5340 51.551c-15.427 0-22.094-2.733-27.786-4.524.325 10.249 6.823 34.946 27.786 34.946s27.623-24.812 27.786-34.946c-5.692 1.676-12.359 4.524-27.786 4.524z" fill="#720906"/></g><g><path d="M5466.72 17.122l-6.72 6.775-6.72-6.775c-12.196-12.163-31.975-12.163-44.171 0-12.145 12.209-12.145 32.014 0 44.223L5460 111.636l50.891-50.291c12.145-12.209 12.145-32.014 0-44.223-6.098-6.081-14.092-9.122-22.086-9.122-7.994 0-15.987 3.041-22.085 9.122z" fill="#ff5246"/><g fill="#720906"><path d="M5429.909 33c0 5.523 4.478 10 10 10 5.523 0 10-4.477 10-10s-4.477-10-10-10c-5.522 0-10 4.477-10 10zM5470.091 33c0 5.523 4.477 10 10 10s10-4.477 10-10-4.477-10-10-10-10 4.477-10 10z"/></g><path d="M5460 51.546c-15.501 0-22.167-2.745-27.856-4.528.325 10.25 6.847 34.964 27.856 34.964s27.693-24.829 27.856-34.964c-5.689 1.668-12.355 4.528-27.856 4.528z" fill="#720906"/></g><g><path d="M5586.72 17.122l-6.72 6.775-6.72-6.775c-12.196-12.163-31.975-12.163-44.171 0-12.145 12.209-12.145 32.014 0 44.223L5580 111.636l50.891-50.291c12.145-12.209 12.145-32.014 0-44.223-6.098-6.081-14.092-9.122-22.086-9.122-7.994 0-15.987 3.041-22.085 9.122z" fill="#ff5246"/><g fill="#720906"><path d="M5549.909 33c0 5.523 4.478 10 10 10 5.523 0 10-4.477 10-10s-4.477-10-10-10c-5.522 0-10 4.477-10 10zM5590.091 33c0 5.523 4.477 10 10 10s10-4.477 10-10-4.477-10-10-10-10 4.477-10 10z"/></g><path d="M5580 51.542c-15.56 0-22.226-2.755-27.913-4.531.326 10.251 6.867 34.978 27.913 34.978s27.749-24.842 27.913-34.978c-5.687 1.661-12.353 4.531-27.913 4.531z" fill="#720906"/></g><g><path d="M5706.72 17.122l-6.72 6.775-6.72-6.775c-12.196-12.163-31.975-12.163-44.171 0-12.145 12.209-12.145 32.014 0 44.223L5700 111.636l50.891-50.291c12.145-12.209 12.145-32.014 0-44.223-6.098-6.081-14.092-9.122-22.086-9.122-7.994 0-15.987 3.041-22.085 9.122z" fill="#ff5246"/><g fill="#720906"><path d="M5669.909 33c0 5.523 4.478 10 10 10 5.523 0 10-4.477 10-10s-4.477-10-10-10c-5.522 0-10 4.477-10 10zM5710.091 33c0 5.523 4.477 10 10 10s10-4.477 10-10-4.477-10-10-10-10 4.477-10 10z"/></g><path d="M5700 51.539c-15.605 0-22.27-2.763-27.955-4.533.326 10.251 6.881 34.988 27.955 34.988 21.074 0 27.791-24.852 27.955-34.988-5.685 1.655-12.35 4.533-27.955 4.533z" fill="#720906"/></g><g><path d="M5826.72 17.122l-6.72 6.775-6.72-6.775c-12.196-12.163-31.975-12.163-44.171 0-12.145 12.209-12.145 32.014 0 44.223L5820 111.636l50.891-50.291c12.145-12.209 12.145-32.014 0-44.223-6.098-6.081-14.092-9.122-22.086-9.122-7.994 0-15.987 3.041-22.085 9.122z" fill="#ff5246"/><g fill="#720906"><path d="M5789.909 33c0 5.523 4.478 10 10 10 5.523 0 10-4.477 10-10s-4.477-10-10-10c-5.522 0-10 4.477-10 10zM5830.091 33c0 5.523 4.477 10 10 10s10-4.477 10-10-4.477-10-10-10-10 4.477-10 10z"/></g><path d="M5820 51.537c-15.635 0-22.3-2.768-27.984-4.535.327 10.252 6.891 34.996 27.984 34.996 21.093 0 27.82-24.859 27.984-34.996-5.684 1.652-12.349 4.535-27.984 4.535z" fill="#720906"/></g><g><path d="M5946.72 17.122l-6.72 6.775-6.72-6.775c-12.196-12.163-31.975-12.163-44.171 0-12.145 12.209-12.145 32.014 0 44.223L5940 111.636l50.891-50.291c12.145-12.209 12.145-32.014 0-44.223-6.098-6.081-14.092-9.122-22.086-9.122-7.994 0-15.987 3.041-22.085 9.122z" fill="#ff5246"/><g fill="#720906"><path d="M5909.909 33c0-.024 4.478-.044 10-.044 5.523 0 10 .02 10 .044 0 .024-4.477.044-10 .044-5.522 0-10-.02-10-.044zM5950.091 33c0-.024 4.477-.044 10-.044s10 .02 10 .044c0 .024-4.477.044-10 .044s-10-.02-10-.044z"/></g><path d="M5940 51.536c-15.65 0-22.315-2.771-27.998-4.536.327 10.252 6.895 35 27.998 35s27.834-24.863 27.998-35c-5.683 1.65-12.348 4.536-27.998 4.536z" fill="#720906"/></g><g><path d="M6066.72 17.122l-6.72 6.775-6.72-6.775c-12.196-12.163-31.975-12.163-44.171 0-12.145 12.209-12.145 32.014 0 44.223L6060 111.636l50.891-50.291c12.145-12.209 12.145-32.014 0-44.223-6.098-6.081-14.092-9.122-22.086-9.122-7.994 0-15.987 3.041-22.085 9.122z" fill="#ff5246"/><g fill="#720906"><path d="M6029.909 33c0-.349 4.478-.633 10-.633 5.523 0 10 .284 10 .633 0 .349-4.477.633-10 .633-5.522 0-10-.284-10-.633zM6070.091 33c0-.349 4.477-.633 10-.633s10 .284 10 .633c0 .349-4.477.633-10 .633s-10-.284-10-.633z"/></g><path d="M6060 51.536c-15.652 0-22.317-2.771-28-4.536.327 10.252 6.896 35 28 35s27.836-24.863 28-35c-5.683 1.65-12.348 4.536-28 4.536z" fill="#720906"/></g><g><path d="M6186.72 17.122l-6.72 6.775-6.72-6.775c-12.196-12.163-31.975-12.163-44.171 0-12.145 12.209-12.145 32.014 0 44.223L6180 111.636l50.891-50.291c12.145-12.209 12.145-32.014 0-44.223-6.098-6.081-14.092-9.122-22.086-9.122-7.994 0-15.987 3.041-22.085 9.122z" fill="#ff5246"/><g fill="#720906"><path d="M6149.909 33c0 2.486 4.478 4.5 10 4.5 5.523 0 10-2.014 10-4.5 0-2.485-4.477-4.5-10-4.5-5.522 0-10 2.015-10 4.5zM6190.091 33c0 2.486 4.477 4.5 10 4.5s10-2.014 10-4.5c0-2.485-4.477-4.5-10-4.5s-10 2.015-10 4.5z"/></g><path d="M6180 51.536c-15.652 0-22.317-2.771-28-4.536.327 10.252 6.896 35 28 35s27.836-24.863 28-35c-5.683 1.65-12.348 4.536-28 4.536z" fill="#720906"/></g><g><path d="M6306.72 17.122l-6.72 6.775-6.72-6.775c-12.196-12.163-31.975-12.163-44.171 0-12.145 12.209-12.145 32.014 0 44.223L6300 111.636l50.891-50.291c12.145-12.209 12.145-32.014 0-44.223-6.098-6.081-14.092-9.122-22.086-9.122-7.994 0-15.987 3.041-22.085 9.122z" fill="#ff5246"/><g fill="#720906"><path d="M6269.909 33c0 4.711 4.478 8.53 10 8.53 5.523 0 10-3.819 10-8.53 0-4.711-4.477-8.53-10-8.53-5.522 0-10 3.819-10 8.53zM6310.091 33c0 4.711 4.477 8.53 10 8.53s10-3.819 10-8.53c0-4.711-4.477-8.53-10-8.53s-10 3.819-10 8.53z"/></g><path d="M6300 51.536c-15.652 0-22.317-2.771-28-4.536.327 10.252 6.896 35 28 35s27.836-24.863 28-35c-5.683 1.65-12.348 4.536-28 4.536z" fill="#720906"/></g><g><path d="M6426.72 17.122l-6.72 6.775-6.72-6.775c-12.196-12.163-31.975-12.163-44.171 0-12.145 12.209-12.145 32.014 0 44.223L6420 111.636l50.891-50.291c12.145-12.209 12.145-32.014 0-44.223-6.098-6.081-14.092-9.122-22.086-9.122-7.994 0-15.987 3.041-22.085 9.122z" fill="#ff5246"/><g fill="#720906"><path d="M6389.909 33c0 5.412 4.478 9.8 10 9.8 5.523 0 10-4.388 10-9.8 0-5.412-4.477-9.8-10-9.8-5.522 0-10 4.388-10 9.8zM6430.091 33c0 5.412 4.477 9.8 10 9.8s10-4.388 10-9.8c0-5.412-4.477-9.8-10-9.8s-10 4.388-10 9.8z"/></g><path d="M6420 51.536c-15.652 0-22.317-2.771-28-4.536.327 10.252 6.896 35 28 35s27.836-24.863 28-35c-5.683 1.65-12.348 4.536-28 4.536z" fill="#720906"/></g><g><path d="M6546.72 17.122l-6.72 6.775-6.72-6.775c-12.196-12.163-31.975-12.163-44.171 0-12.145 12.209-12.145 32.014 0 44.223L6540 111.636l50.891-50.291c12.145-12.209 12.145-32.014 0-44.223-6.098-6.081-14.092-9.122-22.086-9.122-7.994 0-15.987 3.041-22.085 9.122z" fill="#ff5246"/><g fill="#720906"><path d="M6509.909 33c0 5.523 4.478 10 10 10 5.523 0 10-4.477 10-10s-4.477-10-10-10c-5.522 0-10 4.477-10 10zM6550.091 33c0 5.523 4.477 10 10 10s10-4.477 10-10-4.477-10-10-10-10 4.477-10 10z"/></g><path d="M6540 51.536c-15.652 0-22.317-2.771-28-4.536.327 10.252 6.896 35 28 35s27.836-24.863 28-35c-5.683 1.65-12.348 4.536-28 4.536z" fill="#720906"/></g><g><path d="M6666.72 17.122l-6.72 6.775-6.72-6.775c-12.196-12.163-31.975-12.163-44.171 0-12.145 12.209-12.145 32.014 0 44.223L6660 111.636l50.891-50.291c12.145-12.209 12.145-32.014 0-44.223-6.098-6.081-14.092-9.122-22.086-9.122-7.994 0-15.987 3.041-22.085 9.122z" fill="#ff5246"/><g fill="#720906"><path d="M6629.909 33c0 5.523 4.478 10 10 10 5.523 0 10-4.477 10-10s-4.477-10-10-10c-5.522 0-10 4.477-10 10zM6670.091 33c0 5.523 4.477 10 10 10s10-4.477 10-10-4.477-10-10-10-10 4.477-10 10z"/></g><path d="M6660 51.536c-15.652 0-22.317-2.771-28-4.536.327 10.252 6.896 35 28 35s27.836-24.863 28-35c-5.683 1.65-12.348 4.536-28 4.536z" fill="#720906"/></g><g><path d="M6786.72 17.122l-6.72 6.775-6.72-6.775c-12.196-12.163-31.975-12.163-44.171 0-12.145 12.209-12.145 32.014 0 44.223L6780 111.636l50.891-50.291c12.145-12.209 12.145-32.014 0-44.223-6.098-6.081-14.092-9.122-22.086-9.122-7.994 0-15.987 3.041-22.085 9.122z" fill="#ff5246"/><g fill="#720906"><path d="M6749.909 33c0 5.523 4.478 10 10 10 5.523 0 10-4.477 10-10s-4.477-10-10-10c-5.522 0-10 4.477-10 10zM6790.091 33c0 5.523 4.477 10 10 10s10-4.477 10-10-4.477-10-10-10-10 4.477-10 10z"/></g><path d="M6780 51.536c-15.652 0-22.317-2.771-28-4.536.327 10.252 6.896 35 28 35s27.836-24.863 28-35c-5.683 1.65-12.348 4.536-28 4.536z" fill="#720906"/></g><g><path d="M6906.72 17.122l-6.72 6.775-6.72-6.775c-12.196-12.163-31.975-12.163-44.171 0-12.145 12.209-12.145 32.014 0 44.223L6900 111.636l50.891-50.291c12.145-12.209 12.145-32.014 0-44.223-6.098-6.081-14.092-9.122-22.086-9.122-7.994 0-15.987 3.041-22.085 9.122z" fill="#ff5246"/><g fill="#720906"><path d="M6869.909 33c0 5.523 4.478 10 10 10 5.523 0 10-4.477 10-10s-4.477-10-10-10c-5.522 0-10 4.477-10 10zM6910.091 33c0 5.523 4.477 10 10 10s10-4.477 10-10-4.477-10-10-10-10 4.477-10 10z"/></g><path d="M6900 51.536c-15.652 0-22.317-2.771-28-4.536.327 10.252 6.896 35 28 35s27.836-24.863 28-35c-5.683 1.65-12.348 4.536-28 4.536z" fill="#720906"/></g><g><path d="M7026.72 17.122l-6.72 6.775-6.72-6.775c-12.196-12.163-31.975-12.163-44.171 0-12.145 12.209-12.145 32.014 0 44.223L7020 111.636l50.891-50.291c12.145-12.209 12.145-32.014 0-44.223-6.098-6.081-14.092-9.122-22.086-9.122-7.994 0-15.987 3.041-22.085 9.122z" fill="#ff5246"/><g fill="#720906"><path d="M6989.909 33c0 5.523 4.478 10 10 10 5.523 0 10-4.477 10-10s-4.477-10-10-10c-5.522 0-10 4.477-10 10zM7030.091 33c0 5.523 4.477 10 10 10s10-4.477 10-10-4.477-10-10-10-10 4.477-10 10z"/></g><path d="M7020 51.536c-15.652 0-22.317-2.771-28-4.536.327 10.252 6.896 35 28 35s27.836-24.863 28-35c-5.683 1.65-12.348 4.536-28 4.536z" fill="#720906"/></g><g><path d="M7146.72 17.122l-6.72 6.775-6.72-6.775c-12.196-12.163-31.975-12.163-44.171 0-12.145 12.209-12.145 32.014 0 44.223L7140 111.636l50.891-50.291c12.145-12.209 12.145-32.014 0-44.223-6.098-6.081-14.092-9.122-22.086-9.122-7.994 0-15.987 3.041-22.085 9.122z" fill="#ff5246"/><g fill="#720906"><path d="M7109.909 33c0 5.523 4.478 10 10 10 5.523 0 10-4.477 10-10s-4.477-10-10-10c-5.522 0-10 4.477-10 10zM7150.091 33c0 5.523 4.477 10 10 10s10-4.477 10-10-4.477-10-10-10-10 4.477-10 10z"/></g><path d="M7140 51.536c-15.652 0-22.317-2.771-28-4.536.327 10.252 6.896 35 28 35s27.836-24.863 28-35c-5.683 1.65-12.348 4.536-28 4.536z" fill="#720906"/></g><g><path d="M7266.72 17.122l-6.72 6.775-6.72-6.775c-12.196-12.163-31.975-12.163-44.171 0-12.145 12.209-12.145 32.014 0 44.223L7260 111.636l50.891-50.291c12.145-12.209 12.145-32.014 0-44.223-6.098-6.081-14.092-9.122-22.086-9.122-7.994 0-15.987 3.041-22.085 9.122z" fill="#ff5246"/><g fill="#720906"><path d="M7229.909 33c0 5.523 4.478 10 10 10 5.523 0 10-4.477 10-10s-4.477-10-10-10c-5.522 0-10 4.477-10 10zM7270.091 33c0 5.523 4.477 10 10 10s10-4.477 10-10-4.477-10-10-10-10 4.477-10 10z"/></g><path d="M7260 51.536c-15.652 0-22.317-2.771-28-4.536.327 10.252 6.896 35 28 35s27.836-24.863 28-35c-5.683 1.65-12.348 4.536-28 4.536z" fill="#720906"/></g><g><path d="M7386.72 17.122l-6.72 6.775-6.72-6.775c-12.196-12.163-31.975-12.163-44.171 0-12.145 12.209-12.145 32.014 0 44.223L7380 111.636l50.891-50.291c12.145-12.209 12.145-32.014 0-44.223-6.098-6.081-14.092-9.122-22.086-9.122-7.994 0-15.987 3.041-22.085 9.122z" fill="#ff5246"/><g fill="#720906"><path d="M7349.909 33c0 5.523 4.478 10 10 10 5.523 0 10-4.477 10-10s-4.477-10-10-10c-5.522 0-10 4.477-10 10zM7390.091 33c0 5.523 4.477 10 10 10s10-4.477 10-10-4.477-10-10-10-10 4.477-10 10z"/></g><path d="M7380 51.536c-15.652 0-22.317-2.771-28-4.536.327 10.252 6.896 35 28 35s27.836-24.863 28-35c-5.683 1.65-12.348 4.536-28 4.536z" fill="#720906"/></g><g><path d="M7506.72 17.122l-6.72 6.775-6.72-6.775c-12.196-12.163-31.975-12.163-44.171 0-12.145 12.209-12.145 32.014 0 44.223L7500 111.636l50.891-50.291c12.145-12.209 12.145-32.014 0-44.223-6.098-6.081-14.092-9.122-22.086-9.122-7.994 0-15.987 3.041-22.085 9.122z" fill="#ff5246"/><g fill="#720906"><path d="M7469.909 33c0 5.523 4.478 10 10 10 5.523 0 10-4.477 10-10s-4.477-10-10-10c-5.522 0-10 4.477-10 10zM7510.091 33c0 5.523 4.477 10 10 10s10-4.477 10-10-4.477-10-10-10-10 4.477-10 10z"/></g><path d="M7500 51.536c-15.652 0-22.317-2.771-28-4.536.327 10.252 6.896 35 28 35s27.836-24.863 28-35c-5.683 1.65-12.348 4.536-28 4.536z" fill="#720906"/></g><g><path d="M7626.72 17.122l-6.72 6.775-6.72-6.775c-12.196-12.163-31.975-12.163-44.171 0-12.145 12.209-12.145 32.014 0 44.223L7620 111.636l50.891-50.291c12.145-12.209 12.145-32.014 0-44.223-6.098-6.081-14.092-9.122-22.086-9.122-7.994 0-15.987 3.041-22.085 9.122z" fill="#ff5246"/><g fill="#720906"><path d="M7589.909 33c0 5.523 4.478 10 10 10 5.523 0 10-4.477 10-10s-4.477-10-10-10c-5.522 0-10 4.477-10 10zM7630.091 33c0 5.523 4.477 10 10 10s10-4.477 10-10-4.477-10-10-10-10 4.477-10 10z"/></g><path d="M7620 51.536c-15.652 0-22.317-2.771-28-4.536.327 10.252 6.896 35 28 35s27.836-24.863 28-35c-5.683 1.65-12.348 4.536-28 4.536z" fill="#720906"/></g><g><path d="M7746.72 17.122l-6.72 6.775-6.72-6.775c-12.196-12.163-31.975-12.163-44.171 0-12.145 12.209-12.145 32.014 0 44.223L7740 111.636l50.891-50.291c12.145-12.209 12.145-32.014 0-44.223-6.098-6.081-14.092-9.122-22.086-9.122-7.994 0-15.987 3.041-22.085 9.122z" fill="#ff5246"/><g fill="#720906"><path d="M7709.909 33c0 5.523 4.478 10 10 10 5.523 0 10-4.477 10-10s-4.477-10-10-10c-5.522 0-10 4.477-10 10zM7750.091 33c0 5.523 4.477 10 10 10s10-4.477 10-10-4.477-10-10-10-10 4.477-10 10z"/></g><path d="M7740 51.536c-15.652 0-22.317-2.771-28-4.536.327 10.252 6.896 35 28 35s27.836-24.863 28-35c-5.683 1.65-12.348 4.536-28 4.536z" fill="#720906"/></g><g><path d="M7866.72 17.122l-6.72 6.775-6.72-6.775c-12.196-12.163-31.975-12.163-44.171 0-12.145 12.209-12.145 32.014 0 44.223L7860 111.636l50.891-50.291c12.145-12.209 12.145-32.014 0-44.223-6.098-6.081-14.092-9.122-22.086-9.122-7.994 0-15.987 3.041-22.085 9.122z" fill="#ff5246"/><g fill="#720906"><path d="M7829.909 33c0 5.523 4.478 10 10 10 5.523 0 10-4.477 10-10s-4.477-10-10-10c-5.522 0-10 4.477-10 10zM7870.091 33c0 5.523 4.477 10 10 10s10-4.477 10-10-4.477-10-10-10-10 4.477-10 10z"/></g><path d="M7860 51.536c-15.652 0-22.317-2.771-28-4.536.327 10.252 6.896 35 28 35s27.836-24.863 28-35c-5.683 1.65-12.348 4.536-28 4.536z" fill="#720906"/></g><g><path d="M7986.72 17.122l-6.72 6.775-6.72-6.775c-12.196-12.163-31.975-12.163-44.171 0-12.145 12.209-12.145 32.014 0 44.223L7980 111.636l50.891-50.291c12.145-12.209 12.145-32.014 0-44.223-6.098-6.081-14.092-9.122-22.086-9.122-7.994 0-15.987 3.041-22.085 9.122z" fill="#ff5246"/><g fill="#720906"><path d="M7949.91 33.007c0 5.523 4.478 10 9.999 10 5.523 0 10-4.477 10-10 0-5.522-4.477-9.999-10-9.999-5.521 0-9.999 4.477-9.999 9.999zM7990.091 33.007c0 5.523 4.477 10 10 10 5.522 0 9.999-4.477 9.999-10 0-5.522-4.477-9.999-9.999-9.999-5.523 0-10 4.477-10 9.999z"/></g><path d="M7980 51.543c-15.647 0-22.312-2.77-27.995-4.536.327 10.252 6.897 34.992 27.995 34.992s27.831-24.855 27.995-34.992c-5.683 1.651-12.348 4.536-27.995 4.536z" fill="#720906"/></g><g><path d="M8106.72 17.122l-6.72 6.775-6.72-6.775c-12.196-12.163-31.975-12.163-44.171 0-12.145 12.209-12.145 32.014 0 44.223L8100 111.636l50.891-50.291c12.145-12.209 12.145-32.014 0-44.223-6.098-6.081-14.092-9.122-22.086-9.122-7.994 0-15.987 3.041-22.085 9.122z" fill="#ff5246"/><g fill="#720906"><path d="M8069.976 33.379c0 5.499 4.459 9.957 9.957 9.957 5.499 0 9.957-4.458 9.957-9.957 0-5.499-4.458-9.957-9.957-9.957-5.498 0-9.957 4.458-9.957 9.957zM8110.11 33.379c0 5.499 4.458 9.957 9.957 9.957 5.499 0 9.957-4.458 9.957-9.957 0-5.499-4.458-9.957-9.957-9.957-5.499 0-9.957 4.458-9.957 9.957z"/></g><path d="M8100 51.9c-15.42 0-22.057-2.736-27.721-4.516.324 10.219 6.908 34.547 27.721 34.547s27.559-24.442 27.721-34.547c-5.664 1.665-12.301 4.516-27.721 4.516z" fill="#720906"/></g><g><path d="M8226.72 17.122l-6.72 6.775-6.72-6.775c-12.196-12.163-31.975-12.163-44.171 0-12.145 12.209-12.145 32.014 0 44.223L8220 111.636l50.891-50.291c12.145-12.209 12.145-32.014 0-44.223-6.098-6.081-14.092-9.122-22.086-9.122-7.994 0-15.987 3.041-22.085 9.122z" fill="#ff5246"/><g fill="#720906"><path d="M8190.191 34.594c0 5.422 4.397 9.818 9.818 9.818 5.423 0 9.818-4.396 9.818-9.818s-4.395-9.818-9.818-9.818c-5.421 0-9.818 4.396-9.818 9.818zM8230.173 34.594c0 5.422 4.395 9.818 9.818 9.818 5.422 0 9.818-4.396 9.818-9.818s-4.396-9.818-9.818-9.818c-5.423 0-9.818 4.396-9.818 9.818z"/></g><path d="M8220 53.065c-14.675 0-21.223-2.623-26.828-4.452.315 10.117 6.947 33.096 26.828 33.096s26.67-23.093 26.828-33.096c-5.605 1.715-12.153 4.452-26.828 4.452z" fill="#720906"/></g><g><path d="M8346.72 17.122l-6.72 6.775-6.72-6.775c-12.196-12.163-31.975-12.163-44.171 0-12.145 12.209-12.145 32.014 0 44.223L8340 111.636l50.891-50.291c12.145-12.209 12.145-32.014 0-44.223-6.098-6.081-14.092-9.122-22.086-9.122-7.994 0-15.987 3.041-22.085 9.122z" fill="#ff5246"/><g fill="#720906"><path d="M8310.643 37.146c0 5.262 4.266 9.526 9.527 9.526 5.261 0 9.526-4.264 9.526-9.526 0-5.261-4.265-9.526-9.526-9.526s-9.527 4.265-9.527 9.526zM8350.304 37.146c0 5.262 4.265 9.526 9.526 9.526 5.262 0 9.527-4.264 9.527-9.526 0-5.261-4.265-9.526-9.527-9.526-5.261 0-9.526 4.265-9.526 9.526z"/></g><path d="M8340 55.514c-13.11 0-19.472-2.387-24.951-4.318.294 9.9 7.028 30.048 24.951 30.048 17.923 0 24.803-20.259 24.951-30.048-5.479 1.819-11.841 4.318-24.951 4.318z" fill="#720906"/></g><g><path d="M8466.72 17.122l-6.72 6.775-6.72-6.775c-12.196-12.163-31.975-12.163-44.171 0-12.145 12.209-12.145 32.014 0 44.223L8460 111.636l50.891-50.291c12.145-12.209 12.145-32.014 0-44.223-6.098-6.081-14.092-9.122-22.086-9.122-7.994 0-15.987 3.041-22.085 9.122z" fill="#ff5246"/><g fill="#720906"><path d="M8431.257 40.612c0 5.043 4.089 9.13 9.13 9.13 5.043 0 9.131-4.087 9.131-9.13 0-5.042-4.088-9.13-9.131-9.13-5.041 0-9.13 4.088-9.13 9.13zM8470.482 40.612c0 5.043 4.088 9.13 9.131 9.13 5.042 0 9.13-4.087 9.13-9.13 0-5.042-4.088-9.13-9.13-9.13-5.043 0-9.131 4.088-9.131 9.13z"/></g><path d="M8460 58.839c-10.986 0-17.094-2.067-22.402-4.136.266 9.605 7.137 25.909 22.402 25.909s22.269-16.411 22.402-25.909c-5.308 1.961-11.416 4.136-22.402 4.136z" fill="#720906"/></g><g><path d="M8586.72 17.122l-6.72 6.775-6.72-6.775c-12.196-12.163-31.975-12.163-44.171 0-12.145 12.209-12.145 32.014 0 44.223L8580 111.636l50.891-50.291c12.145-12.209 12.145-32.014 0-44.223-6.098-6.081-14.092-9.122-22.086-9.122-7.994 0-15.987 3.041-22.085 9.122z" fill="#ff5246"/><g fill="#720906"><path d="M8551.764 43.474c0 4.862 3.942 8.803 8.803 8.803 4.862 0 8.803-3.941 8.803-8.803 0-4.861-3.941-8.803-8.803-8.803-4.861 0-8.803 3.942-8.803 8.803zM8590.63 43.474c0 4.862 3.941 8.803 8.803 8.803 4.862 0 8.803-3.941 8.803-8.803 0-4.861-3.941-8.803-8.803-8.803-4.862 0-8.803 3.942-8.803 8.803z"/></g><path d="M8580 61.585c-9.232 0-15.13-1.802-20.297-3.985.243 9.362 7.228 22.491 20.297 22.491s20.175-13.235 20.297-22.491c-5.167 2.078-11.065 3.985-20.297 3.985z" fill="#720906"/></g><g><path d="M8706.72 17.122l-6.72 6.775-6.72-6.775c-12.196-12.163-31.975-12.163-44.171 0-12.145 12.209-12.145 32.014 0 44.223L8700 111.636l50.891-50.291c12.145-12.209 12.145-32.014 0-44.223-6.098-6.081-14.092-9.122-22.086-9.122-7.994 0-15.987 3.041-22.085 9.122z" fill="#ff5246"/><g fill="#720906"><path d="M8672.112 45.436c0 4.738 3.841 8.579 8.579 8.579s8.579-3.841 8.579-8.579-3.841-8.579-8.579-8.579-8.579 3.841-8.579 8.579zM8710.73 45.436c0 4.738 3.841 8.579 8.579 8.579 4.739 0 8.579-3.841 8.579-8.579s-3.84-8.579-8.579-8.579c-4.738 0-8.579 3.841-8.579 8.579z"/></g><path d="M8700 63.467c-8.029 0-13.783-1.621-18.854-3.882.227 9.195 7.29 20.148 18.854 20.148s18.74-11.056 18.854-20.148c-5.071 2.158-10.825 3.882-18.854 3.882z" fill="#720906"/></g><g><path d="M8826.72 17.122l-6.72 6.775-6.72-6.775c-12.196-12.163-31.975-12.163-44.171 0-12.145 12.209-12.145 32.014 0 44.223L8820 111.636l50.891-50.291c12.145-12.209 12.145-32.014 0-44.223-6.098-6.081-14.092-9.122-22.086-9.122-7.994 0-15.987 3.041-22.085 9.122z" fill="#ff5246"/><g fill="#720906"><path d="M8792.347 46.763c0 4.654 3.774 8.427 8.427 8.427 4.655 0 8.427-3.773 8.427-8.427s-3.772-8.427-8.427-8.427c-4.653 0-8.427 3.773-8.427 8.427zM8830.799 46.763c0 4.654 3.772 8.427 8.427 8.427 4.654 0 8.427-3.773 8.427-8.427s-3.773-8.427-8.427-8.427c-4.655 0-8.427 3.773-8.427 8.427z"/></g><path d="M8820 64.741c-7.215 0-12.873-1.498-17.878-3.813.217 9.083 7.332 18.563 17.878 18.563s17.77-9.582 17.878-18.563c-5.005 2.213-10.663 3.813-17.878 3.813z" fill="#720906"/></g><g><path d="M8946.72 17.122l-6.72 6.775-6.72-6.775c-12.196-12.163-31.975-12.163-44.171 0-12.145 12.209-12.145 32.014 0 44.223L8940 111.636l50.891-50.291c12.145-12.209 12.145-32.014 0-44.223-6.098-6.081-14.092-9.122-22.086-9.122-7.994 0-15.987 3.041-22.085 9.122z" fill="#ff5246"/><g fill="#720906"><path d="M8912.506 47.663c0 4.598 3.728 8.325 8.325 8.325 4.597 0 8.324-3.727 8.324-8.325 0-4.596-3.727-8.324-8.324-8.324-4.597 0-8.325 3.728-8.325 8.324zM8950.845 47.663c0 4.598 3.727 8.325 8.324 8.325 4.598 0 8.325-3.727 8.325-8.325 0-4.596-3.727-8.324-8.325-8.324-4.597 0-8.324 3.728-8.324 8.324z"/></g><path d="M8940 65.605c-6.664 0-12.255-1.415-17.216-3.766.21 9.006 7.36 17.488 17.216 17.488 9.856 0 17.111-8.583 17.216-17.488-4.961 2.25-10.552 3.766-17.216 3.766z" fill="#720906"/></g><g><path d="M9066.72 17.122l-6.72 6.775-6.72-6.775c-12.196-12.163-31.975-12.163-44.171 0-12.145 12.209-12.145 32.014 0 44.223L9060 111.636l50.891-50.291c12.145-12.209 12.145-32.014 0-44.223-6.098-6.081-14.092-9.122-22.086-9.122-7.994 0-15.987 3.041-22.085 9.122z" fill="#ff5246"/><g fill="#720906"><path d="M9032.612 48.263c0 4.559 3.698 8.255 8.256 8.255 4.56 0 8.256-3.696 8.256-8.255 0-4.559-3.696-8.256-8.256-8.256-4.558 0-8.256 3.697-8.256 8.256zM9070.876 48.263c0 4.559 3.696 8.255 8.256 8.255 4.559 0 8.256-3.696 8.256-8.255 0-4.559-3.697-8.256-8.256-8.256-4.56 0-8.256 3.697-8.256 8.256z"/></g><path d="M9060 66.18c-6.296 0-11.844-1.36-16.775-3.734.205 8.955 7.379 16.772 16.775 16.772 9.396 0 16.673-7.918 16.775-16.772-4.931 2.273-10.479 3.734-16.775 3.734z" fill="#720906"/></g><g><path d="M9186.72 17.122l-6.72 6.775-6.72-6.775c-12.196-12.163-31.975-12.163-44.171 0-12.145 12.209-12.145 32.014 0 44.223L9180 111.636l50.891-50.291c12.145-12.209 12.145-32.014 0-44.223-6.098-6.081-14.092-9.122-22.086-9.122-7.994 0-15.987 3.041-22.085 9.122z" fill="#ff5246"/><g fill="#720906"><path d="M9152.679 48.639c0 4.536 3.678 8.213 8.213 8.213 4.536 0 8.213-3.677 8.213-8.213 0-4.535-3.677-8.213-8.213-8.213-4.535 0-8.213 3.678-8.213 8.213zM9190.895 48.639c0 4.536 3.677 8.213 8.213 8.213s8.213-3.677 8.213-8.213c0-4.535-3.677-8.213-8.213-8.213s-8.213 3.678-8.213 8.213z"/></g><path d="M9180 66.541c-6.066 0-11.586-1.325-16.499-3.715.202 8.923 7.392 16.323 16.499 16.323s16.398-7.5 16.499-16.323c-4.913 2.289-10.433 3.715-16.499 3.715z" fill="#720906"/></g><g><path d="M9306.72 17.122l-6.72 6.775-6.72-6.775c-12.196-12.163-31.975-12.163-44.171 0-12.145 12.209-12.145 32.014 0 44.223L9300 111.636l50.891-50.291c12.145-12.209 12.145-32.014 0-44.223-6.098-6.081-14.092-9.122-22.086-9.122-7.994 0-15.987 3.041-22.085 9.122z" fill="#ff5246"/><g fill="#720906"><path d="M9272.715 48.842c0 4.524 3.668 8.19 8.19 8.19 4.523 0 8.189-3.666 8.189-8.19 0-4.522-3.666-8.189-8.189-8.189-4.522 0-8.19 3.667-8.19 8.189zM9310.906 48.842c0 4.524 3.666 8.19 8.189 8.19s8.19-3.666 8.19-8.19c0-4.522-3.667-8.189-8.19-8.189s-8.189 3.667-8.189 8.189z"/></g><path d="M9300 66.736c-5.941 0-11.446-1.306-16.349-3.703.201 8.905 7.398 16.079 16.349 16.079s16.249-7.274 16.349-16.079c-4.903 2.297-10.408 3.703-16.349 3.703z" fill="#720906"/></g><g><path d="M9426.72 17.122l-6.72 6.775-6.72-6.775c-12.196-12.163-31.975-12.163-44.171 0-12.145 12.209-12.145 32.014 0 44.223L9420 111.636l50.891-50.291c12.145-12.209 12.145-32.014 0-44.223-6.098-6.081-14.092-9.122-22.086-9.122-7.994 0-15.987 3.041-22.085 9.122z" fill="#ff5246"/><g fill="#720906"><path d="M9392.727 48.909c0 4.519 3.664 8.182 8.182 8.182 4.519 0 8.182-3.663 8.182-8.182 0-4.518-3.663-8.182-8.182-8.182-4.518 0-8.182 3.664-8.182 8.182zM9430.909 48.909c0 4.519 3.663 8.182 8.182 8.182s8.182-3.663 8.182-8.182c0-4.518-3.663-8.182-8.182-8.182s-8.182 3.664-8.182 8.182z"/></g><path d="M9420 66.8c-5.9 0-11.4-1.3-16.3-3.7.2 8.9 7.4 16 16.3 16s16.2-7.2 16.3-16c-4.9 2.3-10.4 3.7-16.3 3.7z" fill="#720906"/></g><g><path d="M9546.72 17.122l-6.72 6.775-6.72-6.775c-12.196-12.163-31.975-12.163-44.171 0-12.145 12.209-12.145 32.014 0 44.223L9540 111.636l50.891-50.291c12.145-12.209 12.145-32.014 0-44.223-6.098-6.081-14.092-9.122-22.086-9.122-7.994 0-15.987 3.041-22.085 9.122z" fill="#ff5246"/><g fill="#720906"><path d="M9512.727 48.909c0 4.519 3.664 8.182 8.182 8.182 4.519 0 8.182-3.663 8.182-8.182 0-4.518-3.663-8.182-8.182-8.182-4.518 0-8.182 3.664-8.182 8.182zM9550.909 48.909c0 4.519 3.663 8.182 8.182 8.182s8.182-3.663 8.182-8.182c0-4.518-3.663-8.182-8.182-8.182s-8.182 3.664-8.182 8.182z"/></g><path d="M9540 66.8c-5.9 0-11.4-1.3-16.3-3.7.2 8.9 7.4 16 16.3 16s16.2-7.2 16.3-16c-4.9 2.3-10.4 3.7-16.3 3.7z" fill="#720906"/></g><g><path d="M9666.72 17.122l-6.72 6.775-6.72-6.775c-12.196-12.163-31.975-12.163-44.171 0-12.145 12.209-12.145 32.014 0 44.223L9660 111.636l50.891-50.291c12.145-12.209 12.145-32.014 0-44.223-6.098-6.081-14.092-9.122-22.086-9.122-7.994 0-15.987 3.041-22.085 9.122z" fill="#ff5246"/><g fill="#720906"><path d="M9632.727 48.909c0 4.519 3.664 8.182 8.182 8.182 4.519 0 8.182-3.663 8.182-8.182 0-4.518-3.663-8.182-8.182-8.182-4.518 0-8.182 3.664-8.182 8.182zM9670.909 48.909c0 4.519 3.663 8.182 8.182 8.182s8.182-3.663 8.182-8.182c0-4.518-3.663-8.182-8.182-8.182s-8.182 3.664-8.182 8.182z"/></g><path d="M9660 66.8c-5.9 0-11.4-1.3-16.3-3.7.2 8.9 7.4 16 16.3 16s16.2-7.2 16.3-16c-4.9 2.3-10.4 3.7-16.3 3.7z" fill="#720906"/></g><g><path d="M9786.72 17.122l-6.72 6.775-6.72-6.775c-12.196-12.163-31.975-12.163-44.171 0-12.145 12.209-12.145 32.014 0 44.223L9780 111.636l50.891-50.291c12.145-12.209 12.145-32.014 0-44.223-6.098-6.081-14.092-9.122-22.086-9.122-7.994 0-15.987 3.041-22.085 9.122z" fill="#ff5246"/><g fill="#720906"><path d="M9752.727 48.909c0 4.519 3.664 8.182 8.182 8.182 4.519 0 8.182-3.663 8.182-8.182 0-4.518-3.663-8.182-8.182-8.182-4.518 0-8.182 3.664-8.182 8.182zM9790.909 48.909c0 4.519 3.663 8.182 8.182 8.182s8.182-3.663 8.182-8.182c0-4.518-3.663-8.182-8.182-8.182s-8.182 3.664-8.182 8.182z"/></g><path d="M9780 66.8c-5.9 0-11.4-1.3-16.3-3.7.2 8.9 7.4 16 16.3 16s16.2-7.2 16.3-16c-4.9 2.3-10.4 3.7-16.3 3.7z" fill="#720906"/></g><g><path d="M9906.72 17.122l-6.72 6.775-6.72-6.775c-12.196-12.163-31.975-12.163-44.171 0-12.145 12.209-12.145 32.014 0 44.223L9900 111.636l50.891-50.291c12.145-12.209 12.145-32.014 0-44.223-6.098-6.081-14.092-9.122-22.086-9.122-7.994 0-15.987 3.041-22.085 9.122z" fill="#ff5246"/><g fill="#720906"><path d="M9872.727 48.909c0 4.519 3.664 8.182 8.182 8.182 4.519 0 8.182-3.663 8.182-8.182 0-4.518-3.663-8.182-8.182-8.182-4.518 0-8.182 3.664-8.182 8.182zM9910.909 48.909c0 4.519 3.663 8.182 8.182 8.182s8.182-3.663 8.182-8.182c0-4.518-3.663-8.182-8.182-8.182s-8.182 3.664-8.182 8.182z"/></g><path d="M9900 66.8c-5.9 0-11.4-1.3-16.3-3.7.2 8.9 7.4 16 16.3 16s16.2-7.2 16.3-16c-4.9 2.3-10.4 3.7-16.3 3.7z" fill="#720906"/></g><g><path d="M10026.72 17.122l-6.72 6.775-6.72-6.775c-12.196-12.163-31.975-12.163-44.171 0-12.145 12.209-12.145 32.014 0 44.223l50.891 50.291 50.891-50.291c12.145-12.209 12.145-32.014 0-44.223-6.098-6.081-14.092-9.122-22.086-9.122-7.994 0-15.987 3.041-22.085 9.122z" fill="#ff5246"/><g fill="#720906"><path d="M9992.727 48.909c0 4.519 3.664 8.182 8.182 8.182 4.519 0 8.182-3.663 8.182-8.182 0-4.518-3.663-8.182-8.182-8.182-4.518 0-8.182 3.664-8.182 8.182zM10030.909 48.909c0 4.519 3.663 8.182 8.182 8.182s8.182-3.663 8.182-8.182c0-4.518-3.663-8.182-8.182-8.182s-8.182 3.664-8.182 8.182z"/></g><path d="M10020 66.8c-5.9 0-11.4-1.3-16.3-3.7.2 8.9 7.4 16 16.3 16s16.2-7.2 16.3-16c-4.9 2.3-10.4 3.7-16.3 3.7z" fill="#720906"/></g><g><path d="M10146.72 17.122l-6.72 6.775-6.72-6.775c-12.196-12.163-31.975-12.163-44.171 0-12.145 12.209-12.145 32.014 0 44.223l50.891 50.291 50.891-50.291c12.145-12.209 12.145-32.014 0-44.223-6.098-6.081-14.092-9.122-22.086-9.122-7.994 0-15.987 3.041-22.085 9.122z" fill="#ff5246"/><g fill="#720906"><path d="M10112.727 48.909c0 4.519 3.664 8.182 8.182 8.182 4.519 0 8.182-3.663 8.182-8.182 0-4.518-3.663-8.182-8.182-8.182-4.518 0-8.182 3.664-8.182 8.182zM10150.909 48.909c0 4.519 3.663 8.182 8.182 8.182s8.182-3.663 8.182-8.182c0-4.518-3.663-8.182-8.182-8.182s-8.182 3.664-8.182 8.182z"/></g><path d="M10140 66.8c-5.9 0-11.4-1.3-16.3-3.7.2 8.9 7.4 16 16.3 16s16.2-7.2 16.3-16c-4.9 2.3-10.4 3.7-16.3 3.7z" fill="#720906"/></g><g><path d="M10266.72 17.122l-6.72 6.775-6.72-6.775c-12.196-12.163-31.975-12.163-44.171 0-12.145 12.209-12.145 32.014 0 44.223l50.891 50.291 50.891-50.291c12.145-12.209 12.145-32.014 0-44.223-6.098-6.081-14.092-9.122-22.086-9.122-7.994 0-15.987 3.041-22.085 9.122z" fill="#ff5246"/><g fill="#720906"><path d="M10232.727 48.909c0 4.519 3.664 8.182 8.182 8.182 4.519 0 8.182-3.663 8.182-8.182 0-4.518-3.663-8.182-8.182-8.182-4.518 0-8.182 3.664-8.182 8.182zM10270.909 48.909c0 4.519 3.663 8.182 8.182 8.182s8.182-3.663 8.182-8.182c0-4.518-3.663-8.182-8.182-8.182s-8.182 3.664-8.182 8.182z"/></g><path d="M10260 66.8c-5.9 0-11.4-1.3-16.3-3.7.2 8.9 7.4 16 16.3 16s16.2-7.2 16.3-16c-4.9 2.3-10.4 3.7-16.3 3.7z" fill="#720906"/></g><g><path d="M10386.72 17.122l-6.72 6.775-6.72-6.775c-12.196-12.163-31.975-12.163-44.171 0-12.145 12.209-12.145 32.014 0 44.223l50.891 50.291 50.891-50.291c12.145-12.209 12.145-32.014 0-44.223-6.098-6.081-14.092-9.122-22.086-9.122-7.994 0-15.987 3.041-22.085 9.122z" fill="#ff5246"/><g fill="#720906"><path d="M10352.727 48.909c0 4.519 3.664 8.182 8.182 8.182 4.519 0 8.182-3.663 8.182-8.182 0-4.518-3.663-8.182-8.182-8.182-4.518 0-8.182 3.664-8.182 8.182zM10390.909 48.909c0 4.519 3.663 8.182 8.182 8.182s8.182-3.663 8.182-8.182c0-4.518-3.663-8.182-8.182-8.182s-8.182 3.664-8.182 8.182z"/></g><path d="M10380 66.8c-5.9 0-11.4-1.3-16.3-3.7.2 8.9 7.4 16 16.3 16s16.2-7.2 16.3-16c-4.9 2.3-10.4 3.7-16.3 3.7z" fill="#720906"/></g><g><path d="M10506.72 17.122l-6.72 6.775-6.72-6.775c-12.196-12.163-31.975-12.163-44.171 0-12.145 12.209-12.145 32.014 0 44.223l50.891 50.291 50.891-50.291c12.145-12.209 12.145-32.014 0-44.223-6.098-6.081-14.092-9.122-22.086-9.122-7.994 0-15.987 3.041-22.085 9.122z" fill="#ff5246"/><g fill="#720906"><path d="M10472.727 48.909c0 4.519 3.664 8.182 8.182 8.182 4.519 0 8.182-3.663 8.182-8.182 0-4.518-3.663-8.182-8.182-8.182-4.518 0-8.182 3.664-8.182 8.182zM10510.909 48.909c0 4.519 3.663 8.182 8.182 8.182s8.182-3.663 8.182-8.182c0-4.518-3.663-8.182-8.182-8.182s-8.182 3.664-8.182 8.182z"/></g><path d="M10500 66.8c-5.9 0-11.4-1.3-16.3-3.7.2 8.9 7.4 16 16.3 16s16.2-7.2 16.3-16c-4.9 2.3-10.4 3.7-16.3 3.7z" fill="#720906"/></g><g><path d="M10626.72 17.122l-6.72 6.775-6.72-6.775c-12.196-12.163-31.975-12.163-44.171 0-12.145 12.209-12.145 32.014 0 44.223l50.891 50.291 50.891-50.291c12.145-12.209 12.145-32.014 0-44.223-6.098-6.081-14.092-9.122-22.086-9.122-7.994 0-15.987 3.041-22.085 9.122z" fill="#ff5246"/><g fill="#720906"><path d="M10592.727 48.909c0 4.519 3.664 8.182 8.182 8.182 4.519 0 8.182-3.663 8.182-8.182 0-4.518-3.663-8.182-8.182-8.182-4.518 0-8.182 3.664-8.182 8.182zM10630.909 48.909c0 4.519 3.663 8.182 8.182 8.182s8.182-3.663 8.182-8.182c0-4.518-3.663-8.182-8.182-8.182s-8.182 3.664-8.182 8.182z"/></g><path d="M10620 66.8c-5.9 0-11.4-1.3-16.3-3.7.2 8.9 7.4 16 16.3 16s16.2-7.2 16.3-16c-4.9 2.3-10.4 3.7-16.3 3.7z" fill="#720906"/></g><g><path d="M10746.72 17.122l-6.72 6.775-6.72-6.775c-12.196-12.163-31.975-12.163-44.171 0-12.145 12.209-12.145 32.014 0 44.223l50.891 50.291 50.891-50.291c12.145-12.209 12.145-32.014 0-44.223-6.098-6.081-14.092-9.122-22.086-9.122-7.994 0-15.987 3.041-22.085 9.122z" fill="#ff5246"/><g fill="#720906"><path d="M10712.727 48.909c0 4.519 3.664 8.182 8.182 8.182 4.519 0 8.182-3.663 8.182-8.182 0-4.518-3.663-8.182-8.182-8.182-4.518 0-8.182 3.664-8.182 8.182zM10750.909 48.909c0 4.519 3.663 8.182 8.182 8.182s8.182-3.663 8.182-8.182c0-4.518-3.663-8.182-8.182-8.182s-8.182 3.664-8.182 8.182z"/></g><path d="M10740 66.8c-5.9 0-11.4-1.3-16.3-3.7.2 8.9 7.4 16 16.3 16s16.2-7.2 16.3-16c-4.9 2.3-10.4 3.7-16.3 3.7z" fill="#720906"/></g><g><path d="M10866.72 17.122l-6.72 6.775-6.72-6.775c-12.196-12.163-31.975-12.163-44.171 0-12.145 12.209-12.145 32.014 0 44.223l50.891 50.291 50.891-50.291c12.145-12.209 12.145-32.014 0-44.223-6.098-6.081-14.092-9.122-22.086-9.122-7.994 0-15.987 3.041-22.085 9.122z" fill="#ff5246"/><g fill="#720906"><path d="M10832.727 48.909c0 4.519 3.664 8.182 8.182 8.182 4.519 0 8.182-3.663 8.182-8.182 0-4.518-3.663-8.182-8.182-8.182-4.518 0-8.182 3.664-8.182 8.182zM10870.909 48.909c0 4.519 3.663 8.182 8.182 8.182s8.182-3.663 8.182-8.182c0-4.518-3.663-8.182-8.182-8.182s-8.182 3.664-8.182 8.182z"/></g><path d="M10860 66.8c-5.9 0-11.4-1.3-16.3-3.7.2 8.9 7.4 16 16.3 16s16.2-7.2 16.3-16c-4.9 2.3-10.4 3.7-16.3 3.7z" fill="#720906"/></g></svg>
